<?xml version="1.0" encoding="utf-8"?>
<!-- Svg Vector Icons : http://www.onlinewebfonts.com/icon -->
<!DOCTYPE svg PUBLIC "-//W3C//DTD SVG 1.1//EN" "http://www.w3.org/Graphics/SVG/1.1/DTD/svg11.dtd">
<svg version="1.1" xmlns="http://www.w3.org/2000/svg" xmlns:xlink="http://www.w3.org/1999/xlink" x="0px" y="0px" viewBox="0 0 1000 1000" enable-background="new 0 0 1000 1000" xml:space="preserve">
<metadata> Svg Vector Icons : http://www.onlinewebfonts.com/icon </metadata>
<g><g transform="translate(0.000000,512.000000) scale(0.100000,-0.100000)"><path d="M4242.9,5007.7c-930.7-107.5-1765.4-752.2-2122.3-1636.8c-78.7-199.6-145.8-449-161.2-616c-19.2-193.8-23-201.5-86.4-201.5c-30.7,0-113.2-13.4-186.1-28.8c-591-124.7-1107.2-523.9-1377.8-1065C155.6,1150.8,100,916.7,100,577c0-132.4,11.5-291.7,24.9-355C253.5-392,625.8-890.9,1165-1176.8c287.8-153.5,523.9-216.8,867.3-236l205.3-11.5v153.5v153.5l-224.5,11.5c-270.6,11.5-470.1,61.4-685,166.9C900.2-731.7,583.6-346,449.2,126.1c-36.5,130.5-44.1,199.6-44.1,450.9s7.7,320.5,44.1,447.1c142,495.1,441.3,859.7,876.9,1068.8c228.3,111.3,404.9,153.5,677.4,167l234.1,11.5V2446c0,986.3,654.3,1876.7,1588.8,2168.3c713.8,222.6,1540.9,92.1,2116.5-335.8c228.3-168.9,470.1-447.1,610.2-700.4l44.1-78.7l282.1-11.5c232.2-7.7,307-17.3,435.6-59.5c364.6-117.1,608.3-376.1,710-750.3c15.4-63.3,34.6-214.9,40.3-337.7l11.5-222.6l213-11.5c378-17.3,629.4-126.7,886.5-387.6c126.6-126.7,172.7-190,245.6-337.7c140.1-284,170.8-429.8,172.7-794.4c0-259.1-7.7-332-42.2-458.6c-128.6-468.2-454.8-863.5-875-1066.9c-218.8-105.5-418.3-155.4-687-166.9l-226.4-11.5v-153.5v-153.5l207.2,11.5c339.7,19.2,579.5,82.5,859.7,232.2C9372-892.9,9746.2-392,9878.7,222c13.5,67.2,23,226.4,21.1,383.8c0,222.6-9.6,301.3-51.8,460.5c-109.4,416.4-347.3,788.7-650.5,1018.9c-174.6,132.4-435.6,253.3-627.5,289.7c-90.2,17.3-174.6,32.6-186.2,36.5c-13.4,3.8-24.9,36.5-24.9,71c0,188.1-140.1,550.7-293.6,756.1c-255.2,341.6-721.5,558.4-1208.9,562.2c-76.8,1.9-84.4,5.8-165,126.7C6186.7,4677.7,5188.9,5117.1,4242.9,5007.7z"/><path d="M4300.4,4079c-706.1-132.4-1322.1-811.7-1427.7-1571.6c-36.5-257.1-44.1-241.8,130.5-241.8H3153l11.5,145.8c19.2,214.9,61.4,358.8,170.8,583.3c88.3,178.4,120.9,222.6,282.1,383.8c101.7,99.8,232.2,211.1,293.6,245.6c145.8,86.4,353.1,155.4,504.7,170.8l124.7,11.5v149.7v151.6l-51.8-1.9C4457.8,4105.9,4375.3,4092.4,4300.4,4079z"/><path d="M4442.4,1323.5c-479.7-32.6-944.1-111.3-1253-211.1c-454.8-149.7-694.6-385.7-627.5-616c51.8-174.6,337.7-372.3,683.1-474c1118.7-326.2,3110.5-255.2,3855.1,138.2c159.2,84.4,308.9,230.3,339.6,335.8c80.6,272.5-247.5,531.5-865.4,683.1C6012.1,1315.8,5165.9,1373.4,4442.4,1323.5z M5845.2,999.2C6578.2,909,7150,722.9,7150,577c0-107.5-324.3-245.6-805.9-343.5c-416.4-84.4-688.9-107.5-1343.2-107.5c-654.3,0-926.8,23-1343.2,107.5c-481.6,97.9-805.9,236-805.9,343.5c0,172.7,744.5,379.9,1602.3,449C4630.5,1039.5,5680.1,1020.3,5845.2,999.2z"/><path d="M2544.7-520.6c0-560.3,5.8-583.3,165-723.4c107.5-94,341.6-211.1,535.4-268.6c821.3-239.9,2162.6-276.3,3143.1-86.3c435.6,84.4,727.3,199.6,909.6,360.7c151.6,134.3,159.3,161.2,159.3,717.7V-37h-153.5H7150v-475.9c0-470.1,0-477.8-44.1-518.1c-138.1-130.5-616-264.8-1212.7-343.5c-383.8-48-1400.8-48-1784.6,0c-596.8,78.7-1074.6,213-1212.7,343.5c-44.1,40.3-44.1,48-44.1,518.1V-37h-153.5h-153.5V-520.6z"/><path d="M4233.3-804.6v-153.5h153.5h153.5v153.5v153.5h-153.5h-153.5V-804.6z"/><path d="M4847.3-804.6v-153.5h153.5h153.5v153.5v153.5h-153.5h-153.5V-804.6z"/><path d="M5461.4-804.6v-153.5h153.5h153.5v153.5v153.5h-153.5h-153.5V-804.6z"/><path d="M2544.7-2055.7c0-560.3,5.8-583.3,165-723.4c107.5-94,341.6-211.1,535.4-268.6c821.3-239.9,2162.6-276.3,3143.1-86.4c435.6,84.4,727.3,199.6,909.6,360.8c151.6,134.3,159.3,161.2,159.3,717.6v483.6h-153.5H7150V-2048c0-470.1,0-477.8-44.1-518.1c-138.1-130.5-616-264.8-1212.7-343.5c-383.8-48-1400.8-48-1784.6,0c-596.8,78.7-1074.6,213-1212.7,343.5c-44.1,40.3-44.1,48-44.1,518.1v475.9h-153.5h-153.5V-2055.7z"/><path d="M4233.3-2339.7v-153.5h153.5h153.5v153.5v153.5h-153.5h-153.5V-2339.7z"/><path d="M4847.3-2339.7v-153.5h153.5h153.5v153.5v153.5h-153.5h-153.5V-2339.7z"/><path d="M5461.4-2339.7v-153.5h153.5h153.5v153.5v153.5h-153.5h-153.5V-2339.7z"/><path d="M2544.7-3590.8c0-556.5,7.7-583.3,159.3-717.7c243.7-214.9,706.2-356.9,1443-441.3c401-46.1,1306.8-46.1,1707.8,0c736.9,84.4,1199.3,226.4,1443,441.3c151.6,134.3,159.3,161.2,159.3,717.7v483.6h-153.5H7150v-475.9c0-470.1,0-477.8-44.1-518.1c-138.1-130.5-616-264.8-1212.7-343.5c-383.8-48-1400.8-48-1784.6,0c-596.8,78.7-1074.6,213-1212.7,343.5c-44.1,40.3-44.1,48-44.1,518.1v475.9h-153.5h-153.5V-3590.8z"/><path d="M4233.3-3874.8v-153.5h153.5h153.5v153.5v153.5h-153.5h-153.5V-3874.8z"/><path d="M4847.3-3874.8v-153.5h153.5h153.5v153.5v153.5h-153.5h-153.5V-3874.8z"/><path d="M5461.4-3874.8v-153.5h153.5h153.5v153.5v153.5h-153.5h-153.5V-3874.8z"/></g></g>
</svg>