<svg xmlns="http://www.w3.org/2000/svg" viewBox="0 0 348 348" width="348" height="348">
	<style>
		tspan { white-space:pre }
		.shp0 { fill: #20bee8 } 
		.shp1 { fill: #ccc8c4 } 
		.shp2 { fill: #f4f2f1 } 
		.shp3 { fill: #eceae8 } 
		.shp4 { fill: #f7f5f4 } 
	</style>
	<path class="shp0" d="M162.46 202.86C162.46 202.86 111.49 250.01 109.78 251.69C108.08 253.38 101.87 260.51 108.43 266.82C114.1 272.28 125.06 256.43 129.8 257.6C134.38 258.75 141.97 265.99 125.65 277.3L97.7 301.23C97.7 301.23 86.05 311.89 90.86 319.02C95.67 326.16 107.87 316.58 107.87 316.58L150.95 278.92L158.7 273.23C158.7 273.23 165.53 269.37 169.37 275.78C173.21 282.19 161.58 290.41 161.58 290.41C161.58 290.41 138.91 305.63 141.03 312.52C143.16 319.42 150.79 318.18 156.11 313.87C161.42 309.56 242.55 241.57 242.55 241.57L162.46 202.86Z" />
	<path class="shp1" d="M156.01 142.04C161.06 136.12 165.74 139.13 165.74 139.13L167.03 152.44C167.03 152.44 165.79 153.13 163.72 154.03C162.73 148.78 160.86 143.04 156.01 142.04Z" />
	<path class="shp2" d="M201.51 75.14C198.58 76.32 196.43 68.84 198.98 62.47C200.07 59.76 202.84 58.97 205.65 61.06C206.94 62.02 207.98 63.53 208.81 64.97C209.14 65.55 209.13 66.27 208.8 66.85C207.58 68.93 204.41 73.96 201.51 75.14Z" />
	<path class="shp2" d="M211.96 71.97C212.04 73.15 211.84 74.53 210.78 75.59C210.07 76.29 209.32 76.71 208.64 76.96C207.45 77.4 206.35 76.15 206.94 75.03C207.58 73.82 208.49 72.33 209.6 71.12C210.4 70.25 211.88 70.79 211.96 71.97Z" />
	<path class="shp1" d="M82.68 77.49C83.23 69.49 95.53 58.51 103.29 53.83C115.24 46.62 129.25 45.41 145.96 47.66C147.57 47.88 148.7 49.35 148.53 50.96C148.34 52.72 148.25 54.5 148.29 56.34L148.29 56.34C148.29 56.34 123.69 51.39 105.3 66.02C87.05 80.53 95.78 91.09 95.91 91.25C89.31 91.81 82.17 85.01 82.68 77.49Z" />
	<path class="shp2" d="M216.22 87.18C218.83 82.34 220.15 76.62 219.86 71.32C225.49 73.67 234.99 78.34 244.8 86.19C255.12 94.45 253.72 109.35 245.57 111.77C243.03 112.52 240.46 112.15 237.74 111.09C237.74 111.09 232.11 97.23 216.22 87.18Z" />
	<path class="shp1" d="M209.49 95.19C212.24 93.15 214.51 90.36 216.22 87.18C232.11 97.22 237.74 111.09 237.74 111.09C231.7 108.74 224.93 102.99 216.22 98.56C213.99 97.42 211.73 96.29 209.49 95.19Z" />
	<path class="shp1" d="M179.49 126.9C179.49 126.9 182.27 126.02 186.59 126.44C200.04 131.64 212 156.98 212 156.98L214.9 156.92L199.37 168.48C199.37 168.48 181.61 130.68 179.49 126.9Z" />
	<path class="shp3" d="M186.59 126.44C193.9 127.15 205.62 131.59 215.69 150.41L215.82 156.23L214.9 156.92L212 156.98C212 156.98 200.04 131.64 186.59 126.44Z" />
	<path class="shp2" d="M169.32 140.95C165.1 130.32 157.46 134.73 136.81 137.67C116.17 140.62 114.65 127.93 120.39 116.83C126.13 105.73 139.81 103.68 144.05 92.11C146.96 84.14 138.37 79.74 132.73 77.77C131.67 77.17 130.2 76.73 128.23 76.49C109.89 74.23 109.42 83.31 100.08 89.75C98.78 90.65 97.36 91.12 95.91 91.25C95.78 91.09 87.05 80.53 105.3 66.02C123.69 51.39 148.29 56.34 148.29 56.34L148.29 56.34C148.45 63.03 150.49 70.55 156.85 81.52C158.29 84.01 160.56 76.21 159.21 73.68C155.34 66.42 154.2 58.01 155.45 49.93C158.73 50.6 162.66 51.7 166.82 53.17C166.7 53.28 166.58 53.41 166.47 53.56C163.5 57.67 162.41 63.24 161.91 68.17C161.45 72.8 161.68 77.68 164.07 81.79C166.76 86.41 171.4 90.77 175.75 93.84C179.41 96.42 184.1 97.85 188.47 98.58C190.5 98.92 192.66 99.16 194.79 99.06C189 106.17 181.76 110.52 178.05 112.43C176.64 113.16 175.01 113.36 173.47 112.95C165.12 110.75 154.94 111.33 145.39 115.37C135.01 119.75 131.98 121.81 146.83 116.62C161.69 111.43 177.05 114.29 181 123.56C184.95 132.83 200.64 164.09 200.64 164.09L187.06 178.42C187.06 178.42 173.55 151.59 169.32 140.95Z" />
	<path class="shp1" d="M161.59 153.92C160.26 144.18 156.57 147.51 150.34 151.3C143.54 155.44 130.93 156.31 125.97 154.86C98.22 146.76 106.87 126.19 114.55 112.05C121.4 99.43 141.53 82.8 132.73 77.77C138.37 79.74 146.96 84.14 144.05 92.11C139.81 103.68 126.13 105.73 120.39 116.83C114.65 127.93 116.17 140.62 136.82 137.67C157.46 134.73 165.1 130.32 169.32 140.95C173.55 151.59 187.06 178.42 187.06 178.42L174.92 191.23C174.92 191.23 163.25 166.02 161.59 153.92Z" />
	<path class="shp2" d="M209.48 53.99C208.95 55.04 207.64 55.4 206.62 54.82C206.61 54.81 206.6 54.81 206.6 54.81C203.96 53.3 200.73 51.45 197.2 50C196.38 49.67 195.87 48.83 195.94 47.95C196.24 44.53 196.48 38.97 195.7 33.14C202.2 33.43 209.26 34.91 216.65 37.37C214.76 43.22 211.56 49.91 209.48 53.99Z" />
	<path class="shp2" d="M161.74 57.03C166.08 41.48 176.34 34.31 189.76 33.23C190.32 37.05 190.77 41.27 190.76 45.02C190.75 46.57 189.44 47.77 187.9 47.68C180.95 47.27 173.86 50.35 168.49 61.57C160.87 77.49 171.8 90.27 179.21 93.85C184.25 96.28 193.96 100.33 206.84 89.96C218.2 80.83 218.96 68.49 212.88 60.33C212.08 59.25 212.02 57.8 212.71 56.65C214.76 53.26 217.28 48.57 219.26 44.81C219.95 43.52 221.78 43.42 222.59 44.64C232.16 59.23 231.04 76.74 218.98 89.26C206.3 102.42 185.77 105.66 169.92 95.47C169.92 95.47 154.8 81.86 161.74 57.03Z" />
	<path class="shp1" d="M216.65 37.37C209.27 34.91 202.2 33.43 195.7 33.14C195.39 30.81 194.91 28.44 194.22 26.14C193.89 25.06 194.69 23.98 195.81 23.94C207.33 23.52 215.59 29.82 216.65 37.37Z" />
	<path class="shp1" d="M162.44 32.93C168.82 26.31 176.87 23.21 185.27 23.18C186.83 23.17 188.17 24.28 188.47 25.8C188.87 27.82 189.35 30.41 189.76 33.23C176.34 34.31 166.08 41.48 161.74 57.03C154.8 81.86 169.92 95.47 169.92 95.47C167.81 94.11 165.78 92.51 163.86 90.66C147.57 74.97 148.06 47.85 162.44 32.93Z" />
	<path fill-rule="evenodd" class="shp1" d="M152.99 229.64C152.99 229.64 160.66 176.63 213.75 151.75C248.29 135.56 264.34 141.23 272.3 150.95C263.13 144.23 247.15 142.72 218.44 157.11C164.92 183.93 156.85 240.37 156.85 240.37C155.87 243.99 154.97 249.95 155.37 255.82C155.07 255.34 154.79 254.86 154.53 254.37C154.46 254.23 154.39 254.07 154.33 253.91C154.33 253.92 154.33 253.92 154.33 253.92C150.11 246.6 151.44 235.18 152.99 229.64ZM153.78 248.39C153.81 247.97 153.84 247.54 153.88 247.12C153.83 247.43 153.81 247.61 153.81 247.61C153.76 247.77 153.76 248.05 153.78 248.39Z" />
	<path class="shp2" d="M157.63 258.96C157.58 259.4 157.55 259.85 157.52 260.31C157.5 259.94 157.51 259.65 157.55 259.47C157.55 259.47 157.58 259.29 157.63 258.96Z" />
	<path class="shp2" d="M157.8 258.99C156.88 257.99 156.07 256.93 155.37 255.82C154.97 249.95 155.87 243.99 156.85 240.37C156.85 240.37 164.92 183.93 218.45 157.11C247.15 142.72 263.13 144.23 272.3 150.95C272.66 151.39 272.98 151.85 273.31 152.3C243.14 208.14 180.5 246.46 157.8 258.99Z" />
	<path class="shp4" d="M216.1 256.49C182.41 271.15 165.75 267.61 157.8 258.99C180.5 246.46 243.14 208.13 273.31 152.3C276.88 157.25 278.63 162.96 279.74 167.35C282.54 178.38 281.1 228.19 216.1 256.49Z" />
	<path class="shp0" d="M85.21 335.15C81.62 338.29 76.68 338.51 74.19 335.66C71.69 332.81 72.58 327.95 76.18 324.81C79.77 321.67 84.7 321.45 87.19 324.3C89.69 327.16 88.8 332.01 85.21 335.15Z" />
</svg>