<svg xmlns="http://www.w3.org/2000/svg" xmlns:xlink="http://www.w3.org/1999/xlink" viewBox="0 0 180.22 197"><defs><linearGradient id="a4675180-12c4-4653-822b-5ff47f76cff2" x1="132.82" y1="166.23" x2="58.98" y2="70.04" gradientUnits="userSpaceOnUse"><stop offset="0" stop-color="#15bde8"/><stop offset="0.44" stop-color="#1870a0"/><stop offset="0.82" stop-color="#1b3466"/><stop offset="1" stop-color="#1c1c50"/></linearGradient><clipPath id="a2b0234e-affa-4073-b0f4-7e95e9550260"><path d="M60.15,158.1c6.74-9.48,41.69-24.16,58.24-20.23,23.25,5.5,58.62-43.85,33.36-81.8s-70-34.82-99.28-26S4.32,44.62.56,64.76C-3.3,85.42,14.11,96.34,11.44,128.88c-1.64,20,16.28,36.55,28.73,39C48.11,169.39,54.79,165.62,60.15,158.1Z" fill="none"/></clipPath><radialGradient id="fa8fe10f-1bb4-4f20-a7b5-c2504881a46f" cx="-1491.36" cy="3629.25" r="0.35" gradientTransform="matrix(233.76, 0, 0, -233.76, 348694.87, 848491.05)" gradientUnits="userSpaceOnUse"><stop offset="0" stop-color="#fff"/><stop offset="0.39" stop-color="#6894d7"/><stop offset="0.72" stop-color="#4b7fd0"/><stop offset="0.76" stop-color="#477ccf"/><stop offset="1" stop-color="#3868b1"/></radialGradient><radialGradient id="bbe6f7b0-c9a6-4b19-8ae5-cd576321a0a6" cx="-1491.39" cy="3629.03" r="0" xlink:href="#fa8fe10f-1bb4-4f20-a7b5-c2504881a46f"/><radialGradient id="be10475d-fad8-4e17-af83-407ad3f6d502" cx="-1491.36" cy="3629.25" r="0.35" gradientTransform="matrix(233.76, 0, 0, -233.76, 348694.87, 848491.05)" gradientUnits="userSpaceOnUse"><stop offset="0" stop-color="#2d548f"/><stop offset="0.39" stop-color="#254475"/><stop offset="0.76" stop-color="#254678"/><stop offset="1" stop-color="#1b3257"/></radialGradient><radialGradient id="b3b1f905-c7a3-41fb-b6f1-661bb1f46393" cx="-1491.36" cy="3629.25" r="0.35" gradientTransform="matrix(233.76, 0, 0, -233.76, 348694.87, 848491.05)" gradientUnits="userSpaceOnUse"><stop offset="0" stop-color="#5788d3"/><stop offset="0.39" stop-color="#396ab3"/><stop offset="0.76" stop-color="#335fa2"/><stop offset="1" stop-color="#26477a"/></radialGradient><radialGradient id="ae237aa6-86e9-4d05-a684-7aa0b15b5460" cx="-1491.36" cy="3629.25" r="0.35" xlink:href="#b3b1f905-c7a3-41fb-b6f1-661bb1f46393"/><radialGradient id="ae093944-50be-484a-9e37-1f8211e01d6e" cx="-1491.36" cy="3629.25" r="0.35" xlink:href="#be10475d-fad8-4e17-af83-407ad3f6d502"/><radialGradient id="a5a7f4cd-ac9e-4fe3-a7a8-43c9b5681f97" cx="-1491.36" cy="3629.25" r="0.35" xlink:href="#b3b1f905-c7a3-41fb-b6f1-661bb1f46393"/><radialGradient id="a9cc17a1-3953-44ef-aa90-722db1490fdd" cx="-1491.36" cy="3629.25" r="0.35" xlink:href="#be10475d-fad8-4e17-af83-407ad3f6d502"/><radialGradient id="aaecbef7-707a-42cc-9120-27dac296d242" cx="-1491.36" cy="3629.25" r="0.35" xlink:href="#b3b1f905-c7a3-41fb-b6f1-661bb1f46393"/><radialGradient id="a45aa4c6-d459-4f3b-8259-50736a9bf551" cx="-1491.36" cy="3629.25" r="0.35" gradientTransform="matrix(233.76, 0, 0, -233.76, 348694.87, 848491.05)" gradientUnits="userSpaceOnUse"><stop offset="0" stop-color="#85abdf"/><stop offset="0.39" stop-color="#5889d4"/><stop offset="0.76" stop-color="#618fd6"/><stop offset="1" stop-color="#4379ce"/></radialGradient><radialGradient id="ffc24b98-f0ec-4751-93b2-6aad00936a33" cx="-1491.36" cy="3629.25" r="0.35" gradientTransform="matrix(233.76, 0, 0, -233.76, 348694.87, 848491.05)" gradientUnits="userSpaceOnUse"><stop offset="0" stop-color="#6793d7"/><stop offset="0.39" stop-color="#3a6bb6"/><stop offset="0.76" stop-color="#467bcf"/><stop offset="1" stop-color="#325d9e"/></radialGradient><radialGradient id="ba95183a-683c-4207-b8d5-32c08ae4b483" cx="-1491.36" cy="3629.25" r="0.35" xlink:href="#a45aa4c6-d459-4f3b-8259-50736a9bf551"/><radialGradient id="bc8fb9ec-e4f8-4ec1-8c38-bfccb5b13957" cx="-1491.36" cy="3629.25" r="0.36" xlink:href="#a45aa4c6-d459-4f3b-8259-50736a9bf551"/><radialGradient id="a5df07eb-702f-4af9-a7ce-c24d8c3d624f" cx="-1491.36" cy="3629.26" r="0.35" xlink:href="#a45aa4c6-d459-4f3b-8259-50736a9bf551"/><radialGradient id="e1ba9e1f-4cff-4d04-b53a-d03946a87386" cx="-1491.36" cy="3629.25" r="0.35" xlink:href="#a45aa4c6-d459-4f3b-8259-50736a9bf551"/><radialGradient id="bff2ea50-4f7a-44d7-ab91-8375f87101b3" cx="-1491.36" cy="3629.25" r="0.35" xlink:href="#a45aa4c6-d459-4f3b-8259-50736a9bf551"/><radialGradient id="bc661b8b-84ac-48fd-afc5-9e83a16f507a" cx="-1491.36" cy="3629.25" r="0.35" xlink:href="#a45aa4c6-d459-4f3b-8259-50736a9bf551"/><radialGradient id="bf4dd86f-4ae6-417b-94e5-7b56fed6b780" cx="-1491.36" cy="3629.26" r="0.38" xlink:href="#a45aa4c6-d459-4f3b-8259-50736a9bf551"/><radialGradient id="e38745b0-2f56-41e4-b9f0-9383918c3115" cx="-1491.36" cy="3629.25" r="0.35" xlink:href="#a45aa4c6-d459-4f3b-8259-50736a9bf551"/><radialGradient id="e58819a2-b5ae-41c1-a159-40c3440047f5" cx="-1491.36" cy="3629.26" r="0.37" xlink:href="#a45aa4c6-d459-4f3b-8259-50736a9bf551"/><radialGradient id="a6a0bcc1-9b38-46e0-81ee-092adeb43720" cx="-1491.36" cy="3629.25" r="0.36" xlink:href="#a45aa4c6-d459-4f3b-8259-50736a9bf551"/><radialGradient id="ab546223-47fe-4a59-a1a9-6aa1d639a54e" cx="-1491.36" cy="3629.25" r="0.35" xlink:href="#a45aa4c6-d459-4f3b-8259-50736a9bf551"/><radialGradient id="e2df19a8-9584-468f-8558-e5c9a4f38be8" cx="-1491.36" cy="3629.25" r="0.36" xlink:href="#a45aa4c6-d459-4f3b-8259-50736a9bf551"/><radialGradient id="e24c4da2-fa5d-435b-83e3-349f96011f05" cx="-1491.36" cy="3629.25" r="0.35" xlink:href="#a45aa4c6-d459-4f3b-8259-50736a9bf551"/><radialGradient id="b7aa0a39-39ce-461b-beed-4332fe63ff38" cx="-1491.36" cy="3629.25" r="0.35" xlink:href="#a45aa4c6-d459-4f3b-8259-50736a9bf551"/><radialGradient id="f4a91156-20da-48fe-978c-2bcb20ee9552" cx="-1491.36" cy="3629.26" r="0.36" xlink:href="#a45aa4c6-d459-4f3b-8259-50736a9bf551"/><radialGradient id="f2fa22dc-eb6b-4b3d-bed4-f33944edd1ed" cx="-1491.36" cy="3629.24" r="0.35" xlink:href="#a45aa4c6-d459-4f3b-8259-50736a9bf551"/><radialGradient id="a96fcbd5-f611-418a-a63c-fcdcbd34bb4e" cx="-1491.36" cy="3629.25" r="0.35" xlink:href="#a45aa4c6-d459-4f3b-8259-50736a9bf551"/><radialGradient id="a6d5f94a-cc42-445b-b67f-286ca1f98126" cx="-1491.36" cy="3629.25" r="0.36" gradientTransform="matrix(233.76, 0, 0, -233.76, 348694.87, 848491.05)" gradientUnits="userSpaceOnUse"><stop offset="0" stop-color="#608fd5"/><stop offset="0.39" stop-color="#497ed0"/><stop offset="0.76" stop-color="#5183d2"/><stop offset="1" stop-color="#3d70c0"/></radialGradient><radialGradient id="f114ae36-7192-4a95-be8d-205aafc67dfa" cx="-1491.36" cy="3629.25" r="0.36" xlink:href="#a6d5f94a-cc42-445b-b67f-286ca1f98126"/><radialGradient id="a440576f-e063-42a0-a2f7-0dbcc8ef69a8" cx="-5369.34" cy="-3379.58" r="149.91" gradientTransform="translate(625.81 3832.85) rotate(48.1) scale(0.58)" xlink:href="#a45aa4c6-d459-4f3b-8259-50736a9bf551"/><radialGradient id="adeee4b6-0a7d-41db-adc9-26e6c5154378" cx="-5378.27" cy="-3428.32" r="104.93" gradientTransform="translate(625.81 3832.85) rotate(48.1) scale(0.58)" xlink:href="#a45aa4c6-d459-4f3b-8259-50736a9bf551"/><symbol id="f438bb41-51ac-43f0-8bce-5d390464bc3a" data-name="New Symbol 2" viewBox="0 0 2.33 2.33"><path d="M2.33,1.17A1.17,1.17,0,1,1,1.17,0,1.16,1.16,0,0,1,2.33,1.17Z" fill="#fff"/></symbol></defs><title>Artboard 10</title><g style="isolation:isolate"><g id="b2585e5a-c488-446c-9b50-4fd4aa281d50" data-name="Layer 1"><path d="M107.13,152c13.36,60.16,84.1-15.14,71.62-67.95S122.23,5.82,88,.74C54.68-4.2,11.11,16.56,9.92,37.52,3.81,146,96.81,105.48,107.13,152Z" fill="#eae9e8"/><path d="M60.15,158.11c6.74-9.48,41.69-24.16,58.24-20.23,23.25,5.5,58.62-43.85,33.36-81.8s-70-34.82-99.28-26S4.32,44.63.56,64.77C-3.3,85.43,14.11,96.35,11.44,128.89c-1.64,20,16.28,36.55,28.73,39C48.11,169.4,54.79,165.63,60.15,158.11Z" fill="url(#a4675180-12c4-4653-822b-5ff47f76cff2)"/><g clip-path="url(#a2b0234e-affa-4073-b0f4-7e95e9550260)"><g opacity="0.25"><use width="2.33" height="2.33" transform="matrix(0.08, -0.09, 0.09, 0.1, 3.82, 115.1)" xlink:href="#f438bb41-51ac-43f0-8bce-5d390464bc3a"/><use width="2.33" height="2.33" transform="matrix(0.24, -0.25, 0.27, 0.3, 40.25, 51.06)" xlink:href="#f438bb41-51ac-43f0-8bce-5d390464bc3a"/><use width="2.33" height="2.33" transform="matrix(0.37, -0.39, 0.42, 0.46, 41.17, 43.37)" xlink:href="#f438bb41-51ac-43f0-8bce-5d390464bc3a"/><use width="2.33" height="2.33" transform="matrix(0.39, -0.4, 0.43, 0.48, 57.62, 64.48)" xlink:href="#f438bb41-51ac-43f0-8bce-5d390464bc3a"/><use width="2.33" height="2.33" transform="matrix(0.3, -0.31, 0.33, 0.36, 74.94, 92.73)" xlink:href="#f438bb41-51ac-43f0-8bce-5d390464bc3a"/><use width="2.33" height="2.33" transform="matrix(0.33, -0.34, 0.37, 0.41, 60.09, 127.6)" xlink:href="#f438bb41-51ac-43f0-8bce-5d390464bc3a"/><use width="2.33" height="2.33" transform="matrix(0.21, -0.22, 0.24, 0.27, 60.4, 139.91)" xlink:href="#f438bb41-51ac-43f0-8bce-5d390464bc3a"/><use width="2.33" height="2.33" transform="matrix(0.24, -0.25, 0.27, 0.3, 68.14, 141.36)" xlink:href="#f438bb41-51ac-43f0-8bce-5d390464bc3a"/><use width="2.33" height="2.33" transform="matrix(0.34, -0.36, 0.39, 0.42, 69.42, 123.46)" xlink:href="#f438bb41-51ac-43f0-8bce-5d390464bc3a"/><use width="2.33" height="2.33" transform="matrix(0.3, -0.31, 0.34, 0.37, 85.22, 111.5)" xlink:href="#f438bb41-51ac-43f0-8bce-5d390464bc3a"/><use width="2.33" height="2.33" transform="matrix(0.22, -0.23, 0.25, 0.27, 120.2, 95.58)" xlink:href="#f438bb41-51ac-43f0-8bce-5d390464bc3a"/><use width="2.33" height="2.33" transform="matrix(0.24, -0.25, 0.27, 0.3, 132.3, 91.19)" xlink:href="#f438bb41-51ac-43f0-8bce-5d390464bc3a"/><use width="2.33" height="2.33" transform="matrix(0.25, -0.26, 0.28, 0.31, 143.16, 93.71)" xlink:href="#f438bb41-51ac-43f0-8bce-5d390464bc3a"/><use width="2.33" height="2.33" transform="matrix(0.25, -0.26, 0.28, 0.3, 154.74, 86.24)" xlink:href="#f438bb41-51ac-43f0-8bce-5d390464bc3a"/><use width="2.33" height="2.33" transform="matrix(0.23, -0.24, 0.26, 0.28, 138.19, 77.83)" xlink:href="#f438bb41-51ac-43f0-8bce-5d390464bc3a"/><use width="2.33" height="2.33" transform="matrix(0.36, -0.37, 0.4, 0.44, 110.99, 62.36)" xlink:href="#f438bb41-51ac-43f0-8bce-5d390464bc3a"/><use width="2.33" height="2.33" transform="matrix(0.4, -0.41, 0.45, 0.49, 99.37, 42.22)" xlink:href="#f438bb41-51ac-43f0-8bce-5d390464bc3a"/><use width="2.33" height="2.33" transform="matrix(0.25, -0.26, 0.28, 0.31, 86.66, 31.59)" xlink:href="#f438bb41-51ac-43f0-8bce-5d390464bc3a"/><use width="2.33" height="2.33" transform="matrix(0.29, -0.3, 0.33, 0.36, 44.97, 23.86)" xlink:href="#f438bb41-51ac-43f0-8bce-5d390464bc3a"/><use width="2.33" height="2.33" transform="matrix(0.3, -0.32, 0.34, 0.38, 2.13, 23.87)" xlink:href="#f438bb41-51ac-43f0-8bce-5d390464bc3a"/><use width="2.33" height="2.33" transform="matrix(0.21, -0.22, 0.23, 0.26, 11.85, 43.52)" xlink:href="#f438bb41-51ac-43f0-8bce-5d390464bc3a"/><use width="2.33" height="2.33" transform="matrix(0.19, -0.2, 0.21, 0.24, 16.08, 55.65)" xlink:href="#f438bb41-51ac-43f0-8bce-5d390464bc3a"/><use width="2.33" height="2.33" transform="matrix(0.2, -0.21, 0.22, 0.25, 17.75, 14.92)" xlink:href="#f438bb41-51ac-43f0-8bce-5d390464bc3a"/><use width="2.33" height="2.33" transform="matrix(0.17, -0.18, 0.2, 0.22, 98.04, 3.41)" xlink:href="#f438bb41-51ac-43f0-8bce-5d390464bc3a"/><use width="2.33" height="2.33" transform="matrix(0.19, -0.2, 0.22, 0.24, 101.85, 4.91)" xlink:href="#f438bb41-51ac-43f0-8bce-5d390464bc3a"/><use width="2.33" height="2.33" transform="matrix(0.39, -0.41, 0.44, 0.49, 92.3, 49.12)" xlink:href="#f438bb41-51ac-43f0-8bce-5d390464bc3a"/><use width="2.33" height="2.33" transform="matrix(0.18, -0.18, 0.2, 0.22, 55.61, 88.61)" xlink:href="#f438bb41-51ac-43f0-8bce-5d390464bc3a"/><use width="2.33" height="2.33" transform="matrix(0.13, -0.13, 0.14, 0.16, 29.74, 72.32)" xlink:href="#f438bb41-51ac-43f0-8bce-5d390464bc3a"/><use width="2.33" height="2.33" transform="matrix(0.25, -0.26, 0.28, 0.31, 16.8, 23.99)" xlink:href="#f438bb41-51ac-43f0-8bce-5d390464bc3a"/><use width="2.33" height="2.33" transform="matrix(0.31, -0.32, 0.34, 0.38, 8.93, 94.41)" xlink:href="#f438bb41-51ac-43f0-8bce-5d390464bc3a"/><use width="2.33" height="2.33" transform="matrix(0.31, -0.32, 0.35, 0.38, 18.83, 87.53)" xlink:href="#f438bb41-51ac-43f0-8bce-5d390464bc3a"/><use width="2.33" height="2.33" transform="matrix(0.3, -0.31, 0.34, 0.37, 31.42, 124.79)" xlink:href="#f438bb41-51ac-43f0-8bce-5d390464bc3a"/><use width="2.33" height="2.33" transform="matrix(0.25, -0.26, 0.28, 0.3, 42.04, 126.33)" xlink:href="#f438bb41-51ac-43f0-8bce-5d390464bc3a"/><use width="2.33" height="2.33" transform="matrix(0.14, -0.15, 0.16, 0.18, 40.98, 116.97)" xlink:href="#f438bb41-51ac-43f0-8bce-5d390464bc3a"/><use width="2.33" height="2.33" transform="matrix(0.31, -0.33, 0.35, 0.39, 47.3, 113.99)" xlink:href="#f438bb41-51ac-43f0-8bce-5d390464bc3a"/><use width="2.33" height="2.33" transform="matrix(0.38, -0.4, 0.43, 0.47, 67.46, 119.43)" xlink:href="#f438bb41-51ac-43f0-8bce-5d390464bc3a"/><use width="2.33" height="2.33" transform="matrix(0.26, -0.27, 0.29, 0.32, 89.07, 120.95)" xlink:href="#f438bb41-51ac-43f0-8bce-5d390464bc3a"/><use width="2.33" height="2.33" transform="matrix(0.24, -0.25, 0.26, 0.29, 108.44, 97.49)" xlink:href="#f438bb41-51ac-43f0-8bce-5d390464bc3a"/><use width="2.33" height="2.33" transform="matrix(0.24, -0.25, 0.27, 0.29, 112.49, 93.93)" xlink:href="#f438bb41-51ac-43f0-8bce-5d390464bc3a"/><use width="2.33" height="2.33" transform="matrix(0.26, -0.28, 0.3, 0.33, 131.73, 82.5)" xlink:href="#f438bb41-51ac-43f0-8bce-5d390464bc3a"/><use width="2.33" height="2.33" transform="matrix(0.26, -0.27, 0.29, 0.32, 141.93, 89.14)" xlink:href="#f438bb41-51ac-43f0-8bce-5d390464bc3a"/><use width="2.33" height="2.33" transform="matrix(0.27, -0.28, 0.31, 0.34, 151.16, 93.95)" xlink:href="#f438bb41-51ac-43f0-8bce-5d390464bc3a"/><use width="2.33" height="2.33" transform="matrix(0.26, -0.27, 0.29, 0.32, 160.97, 87.26)" xlink:href="#f438bb41-51ac-43f0-8bce-5d390464bc3a"/><use width="2.33" height="2.33" transform="matrix(0.27, -0.28, 0.31, 0.34, 163.85, 87.69)" xlink:href="#f438bb41-51ac-43f0-8bce-5d390464bc3a"/><use width="2.33" height="2.33" transform="matrix(0.3, -0.32, 0.34, 0.37, 166.62, 90.69)" xlink:href="#f438bb41-51ac-43f0-8bce-5d390464bc3a"/><use width="2.33" height="2.33" transform="matrix(0.34, -0.36, 0.39, 0.43, 104.26, 67.77)" xlink:href="#f438bb41-51ac-43f0-8bce-5d390464bc3a"/><use width="2.33" height="2.33" transform="matrix(0.3, -0.31, 0.34, 0.37, 67.63, 101.28)" xlink:href="#f438bb41-51ac-43f0-8bce-5d390464bc3a"/><use width="2.33" height="2.33" transform="matrix(0.13, -0.14, 0.15, 0.16, 27.28, 111.97)" xlink:href="#f438bb41-51ac-43f0-8bce-5d390464bc3a"/><use width="2.33" height="2.33" transform="matrix(0.08, -0.08, 0.09, 0.1, 6.87, 111.36)" xlink:href="#f438bb41-51ac-43f0-8bce-5d390464bc3a"/><use width="2.33" height="2.33" transform="matrix(0.11, -0.11, 0.12, 0.13, 26.45, 87.32)" xlink:href="#f438bb41-51ac-43f0-8bce-5d390464bc3a"/><use width="2.33" height="2.33" transform="matrix(0.16, -0.16, 0.18, 0.19, 35.13, 53.87)" xlink:href="#f438bb41-51ac-43f0-8bce-5d390464bc3a"/><use width="2.33" height="2.33" transform="matrix(0.21, -0.22, 0.24, 0.27, 26, 121.81)" xlink:href="#f438bb41-51ac-43f0-8bce-5d390464bc3a"/><use width="2.33" height="2.33" transform="matrix(0.21, -0.22, 0.23, 0.26, 51.13, 130.76)" xlink:href="#f438bb41-51ac-43f0-8bce-5d390464bc3a"/><use width="2.33" height="2.33" transform="matrix(0.27, -0.29, 0.31, 0.34, 76.23, 127.65)" xlink:href="#f438bb41-51ac-43f0-8bce-5d390464bc3a"/><use width="2.33" height="2.33" transform="matrix(0.18, -0.19, 0.2, 0.22, 120.21, 109.35)" xlink:href="#f438bb41-51ac-43f0-8bce-5d390464bc3a"/><use width="2.33" height="2.33" transform="matrix(0.2, -0.21, 0.23, 0.25, 143.76, 109.4)" xlink:href="#f438bb41-51ac-43f0-8bce-5d390464bc3a"/><use width="2.33" height="2.33" transform="matrix(0.3, -0.31, 0.33, 0.37, 166.43, 107.5)" xlink:href="#f438bb41-51ac-43f0-8bce-5d390464bc3a"/><use width="2.33" height="2.33" transform="matrix(0.32, -0.33, 0.36, 0.39, 168.97, 104.59)" xlink:href="#f438bb41-51ac-43f0-8bce-5d390464bc3a"/><use width="2.33" height="2.33" transform="matrix(0.33, -0.35, 0.38, 0.41, 171.03, 102.86)" xlink:href="#f438bb41-51ac-43f0-8bce-5d390464bc3a"/><use width="2.33" height="2.33" transform="matrix(0.18, -0.19, 0.2, 0.22, 65.41, 89.32)" xlink:href="#f438bb41-51ac-43f0-8bce-5d390464bc3a"/><use width="2.33" height="2.33" transform="matrix(0.11, -0.11, 0.12, 0.13, 25.68, 113.43)" xlink:href="#f438bb41-51ac-43f0-8bce-5d390464bc3a"/><use width="2.33" height="2.33" transform="matrix(0.12, -0.13, 0.14, 0.15, 4.32, 106.45)" xlink:href="#f438bb41-51ac-43f0-8bce-5d390464bc3a"/><use width="2.33" height="2.33" transform="matrix(0.18, -0.19, 0.2, 0.22, 6.79, 101.75)" xlink:href="#f438bb41-51ac-43f0-8bce-5d390464bc3a"/><use width="2.33" height="2.33" transform="matrix(0.13, -0.13, 0.15, 0.16, -0.46, 115.96)" xlink:href="#f438bb41-51ac-43f0-8bce-5d390464bc3a"/><use width="2.33" height="2.33" transform="matrix(0.16, -0.16, 0.18, 0.19, 24.51, 79.11)" xlink:href="#f438bb41-51ac-43f0-8bce-5d390464bc3a"/><use width="2.33" height="2.33" transform="matrix(0.2, -0.21, 0.22, 0.24, 9.4, 81.77)" xlink:href="#f438bb41-51ac-43f0-8bce-5d390464bc3a"/></g></g><path d="M116.81,189.41a47,47,0,0,0,15.89-17.48,48.34,48.34,0,0,1-34.64,3.4c-1.07-.35-1.78-1.42-2.85-1.78-1.78-.35-3.21-.71-5-1.07a60,60,0,0,0-21,1.43c-4.86,1.39-8.22,5.18-12.12,8.16a47,47,0,0,0,13.77,10.21c13.1-9.52,29.77-6.84,46-2.87Z" fill="#2d548f"/><path d="M116.81,189.41c-16.22-4-32.89-6.65-46,2.87a46.72,46.72,0,0,0,46-2.87Z" fill="#5788d3"/><path d="M138,148.83a126.72,126.72,0,0,1-15.31,10.81c-10.78,6.09-22.63,5.41-34.55,4.74a119.14,119.14,0,0,0-18.6-.1A57.93,57.93,0,0,0,49,170.06a47.06,47.06,0,0,0,8.1,12c3.9-3,7.26-6.77,12.12-8.16a60,60,0,0,1,21-1.43c1.78.36,3.21.72,5,1.07,1.07.36,1.78,1.43,2.85,1.78a48.34,48.34,0,0,0,34.64-3.4A46.58,46.58,0,0,0,138,150.27c0-.49,0-1,0-1.44Z" fill="#5788d3"/><path d="M122.68,159.64A126.72,126.72,0,0,0,138,148.83a46.41,46.41,0,0,0-5.89-21.33c-1.92,1.82-3.86,3.61-5.86,5.39C107,149.65,79.87,142.16,56,147.51c-3.41.76-7.73,1.42-11.41,3A46.67,46.67,0,0,0,49,170.06a57.93,57.93,0,0,1,20.58-5.78,119.14,119.14,0,0,1,18.6.1c11.92.67,23.77,1.35,34.55-4.74Z" fill="#2d548f"/><path d="M119.89,113.31a25.36,25.36,0,0,1-3.28,4.6C101.27,136.09,77,134,55.62,135.74a17.66,17.66,0,0,0-10,4.68,47,47,0,0,0-1,9.85v.23c3.68-1.57,8-2.23,11.41-3,23.9-5.35,51,2.14,70.27-14.62,2-1.78,3.94-3.57,5.86-5.39a47.05,47.05,0,0,0-12.21-14.19Z" fill="#5788d3"/><path d="M95.62,103.74q-.87.6-1.74,1.17c1.86,2.93.53,7.9-4,7.9h-.26a31.62,31.62,0,0,1-9.66-.46h0A69.3,69.3,0,0,1,58,117.51,46.66,46.66,0,0,0,45.6,140.42a17.66,17.66,0,0,1,10-4.68c21.4-1.78,45.66.35,61-17.83a25.36,25.36,0,0,0,3.28-4.6A46.5,46.5,0,0,0,95.62,103.74Z" fill="#2d548f"/><path d="M92.56,103.57a4.33,4.33,0,0,1,1.32,1.34q.87-.57,1.74-1.17C94.61,103.65,93.59,103.6,92.56,103.57Z" fill="#5788d3"/><path d="M73.72,107A46.7,46.7,0,0,0,58,117.51a69.3,69.3,0,0,0,21.94-5.17C76.93,111.69,74.4,109.6,73.72,107Z" fill="#5788d3"/><path d="M110.93,177.1a48.73,48.73,0,0,1-12.81-1.75A48.67,48.67,0,0,0,110.93,177.1Z" fill="url(#fa8fe10f-1bb4-4f20-a7b5-c2504881a46f)"/><path d="M115.93,189.2c-7.76-1.88-15.61-3.41-23.11-3.41C100.32,185.79,108.17,187.32,115.93,189.2Z" fill="url(#fa8fe10f-1bb4-4f20-a7b5-c2504881a46f)"/><path d="M69.26,173.89h0Z" fill="url(#bbe6f7b0-c9a6-4b19-8ae5-cd576321a0a6)"/><path d="M122.6,159.68l0,0,0,0Z" fill="url(#fa8fe10f-1bb4-4f20-a7b5-c2504881a46f)"/><path d="M83.52,172.13h0a58.17,58.17,0,0,0-14.26,1.76h-.09c-4.66,1.33-7.94,4.87-11.64,7.79a46.53,46.53,0,0,0,13.92,10.14c6.45-4.46,13.72-6.05,21.37-6.05h0c7.5,0,15.35,1.53,23.11,3.41a46.45,46.45,0,0,0,16-16.89,49.63,49.63,0,0,1-21,4.79h0a48.67,48.67,0,0,1-12.81-1.75l-.06,0h0c-1.07-.35-1.78-1.42-2.85-1.78-1.78-.35-3.21-.71-5-1.07h-.09c-2.23-.22-4.42-.34-6.61-.34Z" fill="url(#be10475d-fad8-4e17-af83-407ad3f6d502)"/><path d="M104,192.24a1.07,1.07,0,1,1,1.07-1.07,1.08,1.08,0,0,1-1.07,1.07Zm-20.45-.71a1.07,1.07,0,0,1,0-2.14,1.07,1.07,0,0,1,0,2.14Zm8-1.9a1,1,0,0,1,0-1.91,1,1,0,0,1,0,1.91Zm1.36-3.84h0c-7.65,0-14.92,1.59-21.37,6.05a46.47,46.47,0,0,0,44.48-2.64c-7.76-1.88-15.61-3.41-23.11-3.41Z" fill="url(#b3b1f905-c7a3-41fb-b6f1-661bb1f46393)"/><path d="M68.39,172a.48.48,0,1,1,.48-.48.47.47,0,0,1-.48.48Zm12-.48a.84.84,0,0,1,0-1.67.84.84,0,1,1,0,1.67Zm11.42.72A1.32,1.32,0,1,1,93.13,171a1.31,1.31,0,0,1-1.31,1.31Zm31.87,1.66a2.26,2.26,0,1,1,2.25-2.26,2.26,2.26,0,0,1-2.25,2.26ZM111,171.79a1.43,1.43,0,1,1,1.43-1.43,1.42,1.42,0,0,1-1.43,1.43Zm-51.13-.48a1.67,1.67,0,1,1,1.67-1.67,1.66,1.66,0,0,1-1.67,1.67ZM77,168v0Zm26.63.72a1.67,1.67,0,1,1,1.67-1.67,1.67,1.67,0,0,1-1.67,1.67Zm-32.1-2.62a.71.71,0,0,1-.72-.71.72.72,0,1,1,1.43,0,.71.71,0,0,1-.71.71ZM131.77,163a3.21,3.21,0,1,1,3.21-3.21,3.21,3.21,0,0,1-3.21,3.21Zm5.88-13.88a125.81,125.81,0,0,1-15,10.53l-.05,0h0l0,0c-7.3,4.09-15.08,5.1-23,5.1h-.19c-3.22,0-6.48-.16-9.75-.34l-1.45-.08-1.85-.11c-3.15-.18-6.3-.33-9.43-.33h0c-2.43,0-4.84.1-7.24.33h0a58.1,58.1,0,0,0-20.13,5.56,46.44,46.44,0,0,0,8.13,11.86c3.7-2.92,7-6.46,11.64-7.79h.09a58.17,58.17,0,0,1,14.26-1.76h0c2.19,0,4.38.12,6.61.34h.09c1.78.36,3.21.72,5,1.07,1.07.36,1.78,1.43,2.85,1.78h0l.06,0a48.73,48.73,0,0,0,12.81,1.75h0l2.49-.09c7.42,0,12-1.68,18.48-4.7a46.18,46.18,0,0,0,5.76-22.4c0-.27,0-.53,0-.8Z" fill="url(#ae237aa6-86e9-4d05-a684-7aa0b15b5460)"/><path d="M132,127.63c-1.88,1.77-3.78,3.53-5.73,5.26C107,149.65,79.87,142.16,56,147.51c-3.3.74-7.46,1.38-11,2.85a46.22,46.22,0,0,0,4.48,19.48,58.1,58.1,0,0,1,20.13-5.56h0c2.4-.23,4.81-.33,7.24-.33h0c3.13,0,6.28.15,9.43.33l1.85.11,1.45.08c3.27.18,6.53.34,9.75.34h.19c8,0,15.75-1,23-5.1l0,0h0l.05,0a125.81,125.81,0,0,0,15-10.53A46.21,46.21,0,0,0,132,127.63Z" fill="url(#ae093944-50be-484a-9e37-1f8211e01d6e)"/><path d="M69.23,142.78a1.08,1.08,0,1,1,1.07-1.07,1.06,1.06,0,0,1-1.07,1.07Zm-11.66-.24a2,2,0,1,1,2-2,2,2,0,0,1-2,2Zm41.86-1.67a1.31,1.31,0,1,1,1.3-1.31,1.31,1.31,0,0,1-1.3,1.31Zm-16.65.48a2,2,0,1,1,2-2,2,2,0,0,1-2,2Zm27.35-5.23a.37.37,0,0,1-.36-.37.36.36,0,0,1,.72,0,.37.37,0,0,1-.36.37ZM106,132.07a2.38,2.38,0,1,1,2.38-2.38,2.37,2.37,0,0,1-2.38,2.38Zm13.08-1.66a2.38,2.38,0,1,1,2.38-2.38,2.37,2.37,0,0,1-2.38,2.38Zm.8-17a23.86,23.86,0,0,1-3.24,4.53C101.27,136.09,77,134,55.62,135.74A17.36,17.36,0,0,0,46,140.13a46.29,46.29,0,0,0-1,9.78v.45c3.59-1.47,7.75-2.11,11-2.85,23.9-5.35,51,2.14,70.27-14.62,2-1.73,3.85-3.49,5.73-5.26a46.6,46.6,0,0,0-12.12-14.25Z" fill="url(#a5a7f4cd-ac9e-4fe3-a7a8-43c9b5681f97)"/><path d="M96.94,103.88l-1.32-.14q-.87.6-1.74,1.17c1.86,2.93.53,7.9-4,7.9h-.26a31.62,31.62,0,0,1-9.66-.46h0a69.27,69.27,0,0,1-21.79,5.16A46.28,46.28,0,0,0,46,140.13a17.36,17.36,0,0,1,9.67-4.39c21.4-1.78,45.66.35,61-17.83a23.86,23.86,0,0,0,3.24-4.53A46,46,0,0,0,96.94,103.88Zm-29,15.35a.71.71,0,1,1,.71-.71A.71.71,0,0,1,67.92,119.23Zm10.94,1a1.43,1.43,0,1,1,1.43-1.42A1.43,1.43,0,0,1,78.86,120.18Z" fill="url(#a9cc17a1-3953-44ef-aa90-722db1490fdd)"/><path d="M92.56,103.57a4.33,4.33,0,0,1,1.32,1.34q.87-.57,1.74-1.17C94.61,103.65,93.59,103.6,92.56,103.57Z" fill="url(#aaecbef7-707a-42cc-9120-27dac296d242)"/><path d="M73.73,107A46.44,46.44,0,0,0,58.12,117.5a69.27,69.27,0,0,0,21.79-5.16C76.94,111.69,74.41,109.61,73.73,107Z" fill="url(#aaecbef7-707a-42cc-9120-27dac296d242)"/><path d="M57.57,138.49a2,2,0,1,0,2,2,2,2,0,0,0-2-2Z" fill="url(#a45aa4c6-d459-4f3b-8259-50736a9bf551)"/><path d="M69.23,140.63a1.08,1.08,0,1,0,1.07,1.08,1.07,1.07,0,0,0-1.07-1.08Z" fill="url(#ffc24b98-f0ec-4751-93b2-6aad00936a33)"/><path d="M82.78,137.31a2,2,0,1,0,2,2,2,2,0,0,0-2-2Z" fill="url(#ba95183a-683c-4207-b8d5-32c08ae4b483)"/><path d="M106,127.32a2.38,2.38,0,1,0,2.38,2.37,2.37,2.37,0,0,0-2.38-2.37Z" fill="url(#bc8fb9ec-e4f8-4ec1-8c38-bfccb5b13957)"/><path d="M110.13,135.4a.36.36,0,0,0-.36.35.36.36,0,1,0,.72,0,.36.36,0,0,0-.36-.35Z" fill="url(#a5df07eb-702f-4af9-a7ce-c24d8c3d624f)"/><path d="M119.05,125.65a2.38,2.38,0,1,0,2.38,2.38,2.38,2.38,0,0,0-2.38-2.38Z" fill="url(#e1ba9e1f-4cff-4d04-b53a-d03946a87386)"/><path d="M99.43,138.26a1.31,1.31,0,1,0,1.3,1.3,1.31,1.31,0,0,0-1.3-1.3Z" fill="url(#bff2ea50-4f7a-44d7-ab91-8375f87101b3)"/><path d="M59.83,168a1.67,1.67,0,1,0,1.67,1.66A1.66,1.66,0,0,0,59.83,168Z" fill="url(#bc661b8b-84ac-48fd-afc5-9e83a16f507a)"/><path d="M68.39,171.08a.48.48,0,1,0,.48.47.47.47,0,0,0-.48-.47Z" fill="url(#bf4dd86f-4ae6-417b-94e5-7b56fed6b780)"/><path d="M71.49,164.65a.72.72,0,0,0-.72.72.72.72,0,1,0,.72-.72Z" fill="url(#e38745b0-2f56-41e4-b9f0-9383918c3115)"/><path d="M80.4,169.88a.84.84,0,1,0,.84.83.84.84,0,0,0-.84-.83Z" fill="url(#e58819a2-b5ae-41c1-a159-40c3440047f5)"/><path d="M91.82,169.64A1.32,1.32,0,1,0,93.13,171a1.32,1.32,0,0,0-1.31-1.32Z" fill="url(#a6a0bcc1-9b38-46e0-81ee-092adeb43720)"/><path d="M103.59,165.37a1.67,1.67,0,1,0,1.67,1.66,1.66,1.66,0,0,0-1.67-1.66Z" fill="url(#ab546223-47fe-4a59-a1a9-6aa1d639a54e)"/><path d="M111,168.93a1.43,1.43,0,1,0,1.43,1.43,1.42,1.42,0,0,0-1.43-1.43Z" fill="url(#e2df19a8-9584-468f-8558-e5c9a4f38be8)"/><path d="M123.69,169.41a2.26,2.26,0,1,0,2.25,2.26,2.26,2.26,0,0,0-2.25-2.26Z" fill="url(#e24c4da2-fa5d-435b-83e3-349f96011f05)"/><path d="M131.77,156.57a3.21,3.21,0,1,0,3.21,3.21,3.21,3.21,0,0,0-3.21-3.21Z" fill="url(#b7aa0a39-39ce-461b-beed-4332fe63ff38)"/><path d="M91.46,187.72a1,1,0,1,0,1,.95.95.95,0,0,0-1-.95Z" fill="url(#f4a91156-20da-48fe-978c-2bcb20ee9552)"/><path d="M83.5,189.39a1.07,1.07,0,0,0,0,2.14,1.07,1.07,0,0,0,0-2.14Z" fill="url(#f2fa22dc-eb6b-4b3d-bed4-f33944edd1ed)"/><path d="M104,190.1a1.07,1.07,0,1,0,1.07,1.07A1.08,1.08,0,0,0,104,190.1Z" fill="url(#a96fcbd5-f611-418a-a63c-fcdcbd34bb4e)"/><path d="M67.92,117.81a.71.71,0,1,0,.71.71.71.71,0,0,0-.71-.71Z" fill="url(#a6d5f94a-cc42-445b-b67f-286ca1f98126)"/><path d="M78.86,117.33a1.43,1.43,0,1,0,1.43,1.43,1.43,1.43,0,0,0-1.43-1.43Z" fill="url(#f114ae36-7192-4a95-be8d-205aafc67dfa)"/><path d="M138,148.49a45.8,45.8,0,0,0-5.89-21.17A46.68,46.68,0,0,0,98.58,104.1H98.5l-.64-.1-.28,0-.46-.06-.18,0-.15,0c-.39,0-.77-.09-1.16-.12l-.41,0-.67,0h-.17l-.52,0-.38,0-.4,0h-.54c3.59,2.31,2.69,9.25-2.67,9.25h-.26a31.62,31.62,0,0,1-9.66-.46c-3-.64-5.57-2.76-6.24-5.42A46.87,46.87,0,0,0,58,117.4a46,46,0,0,0-13.41,32.51v.24A46,46,0,0,0,49,169.55a46.88,46.88,0,0,0,83.75,1.85A45.89,45.89,0,0,0,138,149.91C138,149.43,138,149,138,148.49Z" fill="none" stroke="#13243e" stroke-miterlimit="10" stroke-width="0.19"/><path d="M107.76,112.62a23.86,23.86,0,0,0-13.71-7.43c1.61,3,.22,7.62-4.18,7.62h-.26a31.62,31.62,0,0,1-9.66-.46,8.32,8.32,0,0,1-5.93-4.5,45,45,0,0,0-12.27,7.87c-14.93,13.41-18.54,33.73-8.06,45.42s31.07,10.29,46-3.11S118.24,124.3,107.76,112.62Z" opacity="0.5" fill="url(#a440576f-e063-42a0-a2f7-0dbcc8ef69a8)" style="mix-blend-mode:screen"/><path d="M94,113.56a15.51,15.51,0,0,0-1.5-1.43,4.86,4.86,0,0,1-2.59.68h-.26a31.62,31.62,0,0,1-9.66-.46,8.68,8.68,0,0,1-5.42-3.56,30.45,30.45,0,0,0-12.78,6.93c-10.45,9.39-13,23.61-5.64,31.79s21.75,7.2,32.2-2.17S101.29,121.73,94,113.56Z" opacity="0.5" fill="url(#adeee4b6-0a7d-41db-adc9-26e6c5154378)" style="mix-blend-mode:screen"/><path d="M56.19,139.46s1.06,5.4,21.69,2.36l-5.67,2.57s12.13,5.78,33.05-7.73c0,0,4.23-2.63-8.35-3.85,0,0,4.47.27,7.37-2.55,2.34-2.26,1.69-5.54,10.29-8.2s11.82-2.87,11.82-2.87a51.32,51.32,0,0,0-21.66-14.67c-3.7-1.33-10.88,4.81-10.88,4.81l-11.77,5.93Z" fill="#cecece" style="mix-blend-mode:multiply"/><path d="M69.76,64.05c1.61.74,3-3.39,1.76-7-.53-1.55-2.07-2.06-3.7-1A7.19,7.19,0,0,0,66,58.16a1.06,1.06,0,0,0,0,1.05C66.53,60.41,68.17,63.32,69.76,64.05Z" fill="#f2f1f0"/><path d="M64,62a2.5,2.5,0,0,0,.57,2.06,3.23,3.23,0,0,0,1.16.83.77.77,0,0,0,1-1,11.07,11.07,0,0,0-1.38-2.26A.77.77,0,0,0,64,62Z" fill="#f2f1f0"/><path d="M58,140.27a2.33,2.33,0,0,1-1.4-2.61,40.73,40.73,0,0,0,.58-13.21c-1.12-6.87-1.2-14.08,2.39-15a72.57,72.57,0,0,1,9.93-1.25l5.68,8.52-.83,6.8-2.39-11.63s-9-.55-9.37,4.94,3.18,17.07,3.1,24.95A21.29,21.29,0,0,1,58,140.27Z" fill="#f2f1f0"/><path d="M62.57,116.87c.57-6.79,11.76-5.33,11.76-5.33v12l-2,16.43-2.18,1.27a15.28,15.28,0,0,1-4.47.56C65.75,133.94,62.12,122.35,62.57,116.87Z" fill="#c9c7c4"/><path d="M95.13,108.11l-7.87-1.36-1,1.32a27,27,0,0,0,3.33-.72,1.07,1.07,0,0,1,.57,2.07,27.66,27.66,0,0,1-4,.81,1.3,1.3,0,0,1-1-.25,19.45,19.45,0,0,1-4.18.22,1,1,0,0,1-.69-.24,27.68,27.68,0,0,0-7.32,2.2c-5.49,2.65-1.91,14.68-2.5,19.24a83.92,83.92,0,0,0-.38,10.45,2.63,2.63,0,0,0,1.69,2.41,18.66,18.66,0,0,0,7.32,1.1s2.57-9.22-.23-16.39-5-10.76-2.46-12,10.19,3.47,15.68,2.35,1.23-11.09,1.23-11.09Z" fill="#f2f1f0"/><path d="M78.93,129c-2.8-7.17-5-10.76-2.46-12s10.19,3.47,15.68,2.35,1.23-11.09,1.23-11.09l1.75-.13,5.19.89s3.48,13.47-3.24,15.93-14-1.23-16.24-2.68a20.35,20.35,0,0,1,3.58,4.25c2,3.65,3.54,11.1,4.2,14.61a2.38,2.38,0,0,1-1.53,2.68,27.3,27.3,0,0,1-7.93,1.57S81.73,136.14,78.93,129Z" fill="#c9c7c4"/><path d="M111,85.46l-3,.48s9.08,22.75-6,24.2a36,36,0,0,1,.43,7.59,1.88,1.88,0,0,0,2.28,2c2.88-.64,7.15-2.7,8.16-9.24,1.24-7.93.53-19,.17-23.43A1.75,1.75,0,0,0,111,85.46Z" fill="#c9c7c4"/><path d="M72.09,52.51c-.33,0-.64.06-1,.11a.91.91,0,0,1-1-1A25.28,25.28,0,0,1,72.61,43a.75.75,0,0,1,.07-.12c2.32-3.29,8.16-2.76,10.46-.74a.92.92,0,0,1,.11,1.25,38.41,38.41,0,0,0-4.72,8.51.9.9,0,0,1-.91.55A32.91,32.91,0,0,0,72.09,52.51Z" fill="#f2f1f0"/><path d="M86.55,102.58c4.93,1,18.6,4.09,17.25-10.47s-9.46-15.86-9.46-15.86,8.23-.28,11.09,6.22c2.95,6.72,9.66,25.14-3.53,26.39-10.26,1-20.46.89-21.85,0-1-.62-1.87-2.86-1.73-5.32A12.68,12.68,0,0,1,86.55,102.58Z" fill="#c9c7c4"/><path d="M68.78,45.56a27.84,27.84,0,0,0-1.2,7.64.71.71,0,0,1-.4.64C62.39,56.25,60,61.54,62.1,67.9c2.58,8,11.82,9.28,12.43,9.35h.06c5.27.24,14.79-2.56,14.87-13.21,0-6.27-3.26-9.39-7.58-10.76a.72.72,0,0,1-.44-1,32.42,32.42,0,0,1,6.09-8.13.72.72,0,0,1,.75-.18c14.59,5,15.28,22.67,8.34,30.32a12.68,12.68,0,0,1-1.17,1.15.74.74,0,0,0,.18,1.25c2.34,1,7.17,4.5,8.17,15.43,1.35,14.56-12.32,11.43-17.25,10.47a12.68,12.68,0,0,0-8.23,1c.14-2.59,1.7-5.11,6.61-4.94,9.57.34,11.59,1.52,13.27-.16,1.37-1.37-1.93-8.39-3.21-11l-.49-1a10.55,10.55,0,0,0-.75.78,11.72,11.72,0,0,0-2.61,10.23h0c-3.59-.26-8-.4-10.08.24-3.88,1.2-3.81,5.68-3.81,5.68l-4.86-.76a.75.75,0,0,1-.54-.39l-2.77-6.78a5.81,5.81,0,0,1-.33-3.32h0a22.77,22.77,0,0,1,5-10.78.74.74,0,0,0-.35-1.2c-3.65-1.06-14.29-5.1-15.77-16.57a18,18,0,0,1,10.09-19A.75.75,0,0,1,68.78,45.56Z" fill="#f2f1f0"/><path d="M95,87.48c-.3-.6-.49-1-.49-1C94.67,86.83,94.83,87.15,95,87.48Z" fill="#f2f1f0"/><path d="M94.5,86.53a56,56,0,0,1,2.32,9.28,1.87,1.87,0,0,1-2,2.06c-1-.11-2.25-.23-3.64-.33h0A11.74,11.74,0,0,1,94.5,86.53Z" fill="#c9c7c4"/><path d="M110.25,70.07c.83,1.49,2.23,4.93,2.57,11.56,0,0-.32,2.16-5.48,1.37,0,0-1.7-4.61-5.46-6.86C103.68,75.79,108.65,74.45,110.25,70.07Z" fill="#c9c7c4"/><path d="M101.63,68.05a2.18,2.18,0,0,1,2.38-1.6,9,9,0,0,1,5.62,2.69,5.34,5.34,0,0,1,.62.93c-1.6,4.38-6.57,5.72-8.37,6.07a8.93,8.93,0,0,0-1.46-.7,1.68,1.68,0,0,1-.88-2.4A22.29,22.29,0,0,0,101.63,68.05Z" fill="#f2f1f0"/><path d="M93.85,109.33l-3.14.15s-7.51.49-9.89.45-2.9-2.07-3.38-4.39a15.32,15.32,0,0,1-.19-2.08l-9-2.21-20,5.36,28,7.38a3.11,3.11,0,0,0,1.71,0Z" fill="#c9c7c4"/><path d="M49,107.12l27.68,5.8a1,1,0,0,0,1.06-1.49L62.43,86.27a5.75,5.75,0,0,0-4.14-2.7L34.47,80.49a1,1,0,0,0-1,1.5l14.72,24.62h0a1.1,1.1,0,0,0,.7.49Z" fill="#f2f1f0"/><path d="M64.23,110.84s2.08,2.06,2.28,4.06l2.15-3.37Z" fill="#c9c7c4"/><ellipse cx="54.29" cy="96.26" rx="1.8" ry="2.69" transform="translate(-54.6 77.38) rotate(-50.74)" fill="#c9c7c4"/></g></g></svg>