<svg xmlns="http://www.w3.org/2000/svg" xmlns:xlink="http://www.w3.org/1999/xlink" viewBox="0 0 192.05 184.21"><defs><clipPath id="af281da8-cbd0-4196-9253-4dccf336eeb0"><path d="M-167.13,172.2c45.36-24.85,9.78-72.43,27.93-92.85,30.68-34.49,3.61-65.77-24.9-68.36-24.34-2.21-34.34,27.9-70.8,4.85-19.78-12.5-35.93,14.3-40.33,27.1C-296.11,103.66-233.93,208.8-167.13,172.2Z" fill="none"/></clipPath><linearGradient id="b6d8e98f-8999-4135-b56d-4b4eca1053b3" x1="68.3" y1="168.93" x2="116.49" y2="35.16" gradientUnits="userSpaceOnUse"><stop offset="0" stop-color="#15bde8"/><stop offset="0.44" stop-color="#1870a0"/><stop offset="0.82" stop-color="#1b3466"/><stop offset="1" stop-color="#1c1c50"/></linearGradient><clipPath id="abf71e56-e57d-4f53-9499-439aaacc6066"><path d="M165.3,59.63c-12.58.15-26.29-1.2-36.68-8.43-8.16-5.68-13.19-10.49-22.05-25.79C94.13,3.9,28.45,4.52,16.09,46.33s22.67,75.25,51.1,93.27S114,169.14,133,160.47c19.53-8.88,15.72-28.91,44-45.59,17.39-10.26,17.76-33.93,10.67-45.13C183.2,62.6,175.29,59.51,165.3,59.63Z" fill="none"/></clipPath><clipPath id="af50a19a-0533-4d74-9532-2b296fc367b4"><path d="M301.39,11.07c-28.54,38,11.6,60.23,4.19,83.8-12.53,39.83,30.11,55.38,55,46,21.28-8,18.13-36.05,57.56-32.3,21.38,2,24.67-25.83,23.45-37.81C435.87,14,343.42-44.94,301.39,11.07Z" fill="none"/></clipPath><symbol id="acfbf416-cc17-4fc4-ba40-78ab648c4437" data-name="New Symbol 2" viewBox="0 0 2.33 2.33"><path d="M2.33,1.17A1.17,1.17,0,1,1,1.17,0,1.16,1.16,0,0,1,2.33,1.17Z" fill="#fff"/></symbol></defs><title>Artboard 8</title><g style="isolation:isolate"><g id="a06ca14a-9585-4891-a9d1-6b4cb2691078" data-name="Layer 1"><g clip-path="url(#af281da8-cbd0-4196-9253-4dccf336eeb0)"><g opacity="0.25"><use width="2.33" height="2.33" transform="matrix(0.14, 0.15, -0.19, 0.14, 3.78, 160.87)" xlink:href="#acfbf416-cc17-4fc4-ba40-78ab648c4437"/><use width="2.33" height="2.33" transform="matrix(0.19, 0.19, -0.25, 0.18, 18.24, 141.04)" xlink:href="#acfbf416-cc17-4fc4-ba40-78ab648c4437"/></g></g><path d="M70.19,143.54c-19.82,51.73,82.32,43.35,99-2.55s-5.95-96.1-36.49-118.22S69.88-3.06,48.6,2.91C-78.43,38.5,85.5,103.56,70.19,143.54Z" fill="#eae9e8"/><path d="M165.3,59.63c-12.58.15-26.29-1.2-36.68-8.43-8.16-5.68-13.19-10.49-22.05-25.79C94.13,3.9,28.45,4.52,16.09,46.33s22.67,75.25,51.1,93.27S114,169.14,133,160.47c19.53-8.88,15.72-28.91,44-45.59,17.39-10.26,17.76-33.93,10.67-45.13C183.2,62.6,175.29,59.51,165.3,59.63Z" fill="url(#b6d8e98f-8999-4135-b56d-4b4eca1053b3)"/><g clip-path="url(#abf71e56-e57d-4f53-9499-439aaacc6066)"><g opacity="0.25"><use width="2.33" height="2.33" transform="matrix(-0.38, -0.04, 0.04, -0.38, 191.38, 153.79)" xlink:href="#acfbf416-cc17-4fc4-ba40-78ab648c4437"/><use width="2.33" height="2.33" transform="matrix(-0.13, -0.02, 0.01, -0.13, 171.42, 128.84)" xlink:href="#acfbf416-cc17-4fc4-ba40-78ab648c4437"/><use width="2.33" height="2.33" transform="matrix(-0.38, -0.05, 0.04, -0.39, 93.09, 137.1)" xlink:href="#acfbf416-cc17-4fc4-ba40-78ab648c4437"/><use width="2.33" height="2.33" transform="matrix(-0.58, -0.07, 0.07, -0.59, 86.19, 140.81)" xlink:href="#acfbf416-cc17-4fc4-ba40-78ab648c4437"/><use width="2.33" height="2.33" transform="matrix(-0.61, -0.07, 0.07, -0.62, 91.33, 115.66)" xlink:href="#acfbf416-cc17-4fc4-ba40-78ab648c4437"/><use width="2.33" height="2.33" transform="matrix(-0.46, -0.06, 0.05, -0.47, 101.62, 85.71)" xlink:href="#acfbf416-cc17-4fc4-ba40-78ab648c4437"/><use width="2.33" height="2.33" transform="matrix(-0.52, -0.06, 0.06, -0.53, 140.64, 77.28)" xlink:href="#acfbf416-cc17-4fc4-ba40-78ab648c4437"/><use width="2.33" height="2.33" transform="matrix(-0.34, -0.04, 0.04, -0.34, 150.39, 69.92)" xlink:href="#acfbf416-cc17-4fc4-ba40-78ab648c4437"/><use width="2.33" height="2.33" transform="matrix(-0.38, -0.04, 0.04, -0.38, 145.93, 62.99)" xlink:href="#acfbf416-cc17-4fc4-ba40-78ab648c4437"/><use width="2.33" height="2.33" transform="matrix(-0.54, -0.06, 0.06, -0.55, 130.51, 72.32)" xlink:href="#acfbf416-cc17-4fc4-ba40-78ab648c4437"/><use width="2.33" height="2.33" transform="matrix(-0.47, -0.06, 0.06, -0.48, 109.34, 66.77)" xlink:href="#acfbf416-cc17-4fc4-ba40-78ab648c4437"/><use width="2.33" height="2.33" transform="matrix(-0.35, -0.04, 0.04, -0.36, 71.01, 48.39)" xlink:href="#acfbf416-cc17-4fc4-ba40-78ab648c4437"/><use width="2.33" height="2.33" transform="matrix(-0.38, -0.04, 0.04, -0.38, 58.67, 41.39)" xlink:href="#acfbf416-cc17-4fc4-ba40-78ab648c4437"/><use width="2.33" height="2.33" transform="matrix(-0.39, -0.05, 0.05, -0.4, 52.81, 31.38)" xlink:href="#acfbf416-cc17-4fc4-ba40-78ab648c4437"/><use width="2.33" height="2.33" transform="matrix(-0.39, -0.05, 0.04, -0.39, 38.34, 26.56)" xlink:href="#acfbf416-cc17-4fc4-ba40-78ab648c4437"/><use width="2.33" height="2.33" transform="matrix(-0.36, -0.04, 0.04, -0.37, 43.56, 44.46)" xlink:href="#acfbf416-cc17-4fc4-ba40-78ab648c4437"/><use width="2.33" height="2.33" transform="matrix(-0.56, -0.07, 0.07, -0.57, 50.81, 74.82)" xlink:href="#acfbf416-cc17-4fc4-ba40-78ab648c4437"/><use width="2.33" height="2.33" transform="matrix(-0.62, -0.07, 0.07, -0.63, 42.94, 95.61)" xlink:href="#acfbf416-cc17-4fc4-ba40-78ab648c4437"/><use width="2.33" height="2.33" transform="matrix(-0.39, -0.05, 0.05, -0.4, 43.58, 111.77)" xlink:href="#acfbf416-cc17-4fc4-ba40-78ab648c4437"/><use width="2.33" height="2.33" transform="matrix(-0.22, -0.03, 0.03, -0.23, 8.81, 150.96)" xlink:href="#acfbf416-cc17-4fc4-ba40-78ab648c4437"/><use width="2.33" height="2.33" transform="matrix(-0.26, -0.03, 0.03, -0.26, 8.06, 158.86)" xlink:href="#acfbf416-cc17-4fc4-ba40-78ab648c4437"/><use width="2.33" height="2.33" transform="matrix(-0.46, -0.05, 0.05, -0.47, 67.63, 149.08)" xlink:href="#acfbf416-cc17-4fc4-ba40-78ab648c4437"/><use width="2.33" height="2.33" transform="matrix(-0.48, -0.06, 0.06, -0.49, 98.79, 182.84)" xlink:href="#acfbf416-cc17-4fc4-ba40-78ab648c4437"/><use width="2.33" height="2.33" transform="matrix(-0.33, -0.04, 0.04, -0.33, 107.62, 163.84)" xlink:href="#acfbf416-cc17-4fc4-ba40-78ab648c4437"/><use width="2.33" height="2.33" transform="matrix(-0.3, -0.04, 0.03, -0.3, 114.37, 153.5)" xlink:href="#acfbf416-cc17-4fc4-ba40-78ab648c4437"/><use width="2.33" height="2.33" transform="matrix(-0.31, -0.04, 0.04, -0.32, 80.18, 175.7)" xlink:href="#acfbf416-cc17-4fc4-ba40-78ab648c4437"/><use width="2.33" height="2.33" transform="matrix(-0.24, -0.03, 0.03, -0.24, 27.04, 148.51)" xlink:href="#acfbf416-cc17-4fc4-ba40-78ab648c4437"/><use width="2.33" height="2.33" transform="matrix(-0.27, -0.03, 0.03, -0.28, 12.49, 119.06)" xlink:href="#acfbf416-cc17-4fc4-ba40-78ab648c4437"/><use width="2.33" height="2.33" transform="matrix(-0.3, -0.04, 0.04, -0.31, 10.93, 115.2)" xlink:href="#acfbf416-cc17-4fc4-ba40-78ab648c4437"/><use width="2.33" height="2.33" transform="matrix(-0.62, -0.07, 0.07, -0.63, 53.67, 97.2)" xlink:href="#acfbf416-cc17-4fc4-ba40-78ab648c4437"/><use width="2.33" height="2.33" transform="matrix(-0.28, -0.03, 0.03, -0.28, 112.33, 103.32)" xlink:href="#acfbf416-cc17-4fc4-ba40-78ab648c4437"/><use width="2.33" height="2.33" transform="matrix(-0.2, -0.02, 0.02, -0.2, 117.95, 133.11)" xlink:href="#acfbf416-cc17-4fc4-ba40-78ab648c4437"/><use width="2.33" height="2.33" transform="matrix(-0.4, -0.05, 0.05, -0.4, 88.21, 171.21)" xlink:href="#acfbf416-cc17-4fc4-ba40-78ab648c4437"/><use width="2.33" height="2.33" transform="matrix(-0.51, -0.06, 0.06, -0.52, 179.77, 144.37)" xlink:href="#acfbf416-cc17-4fc4-ba40-78ab648c4437"/><use width="2.33" height="2.33" transform="matrix(-0.57, -0.07, 0.07, -0.58, 185.89, 137.2)" xlink:href="#acfbf416-cc17-4fc4-ba40-78ab648c4437"/><use width="2.33" height="2.33" transform="matrix(-0.48, -0.06, 0.06, -0.49, 150.96, 136.76)" xlink:href="#acfbf416-cc17-4fc4-ba40-78ab648c4437"/><use width="2.33" height="2.33" transform="matrix(-0.49, -0.06, 0.06, -0.49, 138.2, 132.93)" xlink:href="#acfbf416-cc17-4fc4-ba40-78ab648c4437"/><use width="2.33" height="2.33" transform="matrix(-0.47, -0.06, 0.06, -0.48, 159.22, 101.5)" xlink:href="#acfbf416-cc17-4fc4-ba40-78ab648c4437"/><use width="2.33" height="2.33" transform="matrix(-0.39, -0.05, 0.05, -0.39, 152.74, 92.24)" xlink:href="#acfbf416-cc17-4fc4-ba40-78ab648c4437"/><use width="2.33" height="2.33" transform="matrix(-0.22, -0.03, 0.03, -0.23, 145.93, 98.47)" xlink:href="#acfbf416-cc17-4fc4-ba40-78ab648c4437"/><use width="2.33" height="2.33" transform="matrix(-0.49, -0.06, 0.06, -0.5, 138.92, 95.22)" xlink:href="#acfbf416-cc17-4fc4-ba40-78ab648c4437"/><use width="2.33" height="2.33" transform="matrix(-0.6, -0.07, 0.07, -0.61, 128.67, 76.19)" xlink:href="#acfbf416-cc17-4fc4-ba40-78ab648c4437"/><use width="2.33" height="2.33" transform="matrix(-0.41, -0.05, 0.05, -0.41, 114.19, 58.28)" xlink:href="#acfbf416-cc17-4fc4-ba40-78ab648c4437"/><use width="2.33" height="2.33" transform="matrix(-0.37, -0.04, 0.04, -0.38, 81.12, 56.55)" xlink:href="#acfbf416-cc17-4fc4-ba40-78ab648c4437"/><use width="2.33" height="2.33" transform="matrix(-0.37, -0.04, 0.04, -0.38, 75.28, 55.42)" xlink:href="#acfbf416-cc17-4fc4-ba40-78ab648c4437"/><use width="2.33" height="2.33" transform="matrix(-0.42, -0.05, 0.05, -0.42, 52.04, 46.85)" xlink:href="#acfbf416-cc17-4fc4-ba40-78ab648c4437"/><use width="2.33" height="2.33" transform="matrix(-0.41, -0.05, 0.05, -0.41, 50.01, 34.98)" xlink:href="#acfbf416-cc17-4fc4-ba40-78ab648c4437"/><use width="2.33" height="2.33" transform="matrix(-0.43, -0.05, 0.05, -0.44, 47.19, 24.93)" xlink:href="#acfbf416-cc17-4fc4-ba40-78ab648c4437"/><use width="2.33" height="2.33" transform="matrix(-0.41, -0.05, 0.05, -0.42, 34.64, 21.06)" xlink:href="#acfbf416-cc17-4fc4-ba40-78ab648c4437"/><use width="2.33" height="2.33" transform="matrix(-0.43, -0.05, 0.05, -0.44, 32.89, 18.54)" xlink:href="#acfbf416-cc17-4fc4-ba40-78ab648c4437"/><use width="2.33" height="2.33" transform="matrix(-0.48, -0.06, 0.06, -0.48, 33.31, 14.63)" xlink:href="#acfbf416-cc17-4fc4-ba40-78ab648c4437"/><use width="2.33" height="2.33" transform="matrix(-0.54, -0.06, 0.06, -0.55, 60.08, 77.01)" xlink:href="#acfbf416-cc17-4fc4-ba40-78ab648c4437"/><use width="2.33" height="2.33" transform="matrix(-0.47, -0.06, 0.06, -0.48, 113.85, 86.53)" xlink:href="#acfbf416-cc17-4fc4-ba40-78ab648c4437"/><use width="2.33" height="2.33" transform="matrix(-0.21, -0.02, 0.02, -0.21, 151.85, 112.16)" xlink:href="#acfbf416-cc17-4fc4-ba40-78ab648c4437"/><use width="2.33" height="2.33" transform="matrix(-0.13, -0.01, 0.01, -0.13, 166.19, 128.6)" xlink:href="#acfbf416-cc17-4fc4-ba40-78ab648c4437"/><use width="2.33" height="2.33" transform="matrix(-0.17, -0.02, 0.02, -0.17, 132.48, 127.04)" xlink:href="#acfbf416-cc17-4fc4-ba40-78ab648c4437"/><use width="2.33" height="2.33" transform="matrix(-0.25, -0.03, 0.03, -0.25, 99.08, 139.51)" xlink:href="#acfbf416-cc17-4fc4-ba40-78ab648c4437"/><use width="2.33" height="2.33" transform="matrix(-0.37, -0.04, 0.04, -0.37, 145.82, 180.93)" xlink:href="#acfbf416-cc17-4fc4-ba40-78ab648c4437"/><use width="2.33" height="2.33" transform="matrix(-0.34, -0.04, 0.04, -0.34, 160.74, 107.49)" xlink:href="#acfbf416-cc17-4fc4-ba40-78ab648c4437"/><use width="2.33" height="2.33" transform="matrix(-0.33, -0.04, 0.04, -0.33, 149.72, 82.51)" xlink:href="#acfbf416-cc17-4fc4-ba40-78ab648c4437"/><use width="2.33" height="2.33" transform="matrix(-0.43, -0.05, 0.05, -0.44, 128.95, 64.53)" xlink:href="#acfbf416-cc17-4fc4-ba40-78ab648c4437"/><use width="2.33" height="2.33" transform="matrix(-0.28, -0.03, 0.03, -0.29, 82.16, 40.43)" xlink:href="#acfbf416-cc17-4fc4-ba40-78ab648c4437"/><use width="2.33" height="2.33" transform="matrix(-0.32, -0.04, 0.04, -0.32, 65.08, 21.85)" xlink:href="#acfbf416-cc17-4fc4-ba40-78ab648c4437"/><use width="2.33" height="2.33" transform="matrix(-0.47, -0.06, 0.05, -0.47, 47.06, 5.07)" xlink:href="#acfbf416-cc17-4fc4-ba40-78ab648c4437"/><use width="2.33" height="2.33" transform="matrix(-0.5, -0.06, 0.06, -0.51, 42.85, 4.75)" xlink:href="#acfbf416-cc17-4fc4-ba40-78ab648c4437"/><use width="2.33" height="2.33" transform="matrix(-0.53, -0.06, 0.06, -0.53, 39.96, 4.12)" xlink:href="#acfbf416-cc17-4fc4-ba40-78ab648c4437"/><use width="2.33" height="2.33" transform="matrix(-0.29, -0.03, 0.03, -0.29, 105.77, 95.19)" xlink:href="#acfbf416-cc17-4fc4-ba40-78ab648c4437"/><use width="2.33" height="2.33" transform="matrix(-0.17, -0.02, 0.02, -0.17, 154.19, 112.58)" xlink:href="#acfbf416-cc17-4fc4-ba40-78ab648c4437"/><use width="2.33" height="2.33" transform="matrix(-0.19, -0.02, 0.02, -0.19, 164.06, 133.45)" xlink:href="#acfbf416-cc17-4fc4-ba40-78ab648c4437"/><use width="2.33" height="2.33" transform="matrix(-0.37, -0.04, 0.04, -0.37, 186.84, 148.01)" xlink:href="#acfbf416-cc17-4fc4-ba40-78ab648c4437"/><use width="2.33" height="2.33" transform="matrix(-0.28, -0.03, 0.03, -0.29, 158.46, 134.21)" xlink:href="#acfbf416-cc17-4fc4-ba40-78ab648c4437"/><use width="2.33" height="2.33" transform="matrix(-0.2, -0.02, 0.02, -0.21, 175.24, 131.72)" xlink:href="#acfbf416-cc17-4fc4-ba40-78ab648c4437"/><use width="2.33" height="2.33" transform="matrix(-0.25, -0.03, 0.03, -0.25, 127.24, 133.31)" xlink:href="#acfbf416-cc17-4fc4-ba40-78ab648c4437"/><use width="2.33" height="2.33" transform="matrix(-0.31, -0.04, 0.04, -0.32, 140.39, 143.69)" xlink:href="#acfbf416-cc17-4fc4-ba40-78ab648c4437"/><use width="2.33" height="2.33" transform="matrix(-0.33, -0.04, 0.04, -0.34, 162.84, 148.88)" xlink:href="#acfbf416-cc17-4fc4-ba40-78ab648c4437"/><use width="2.33" height="2.33" transform="matrix(-0.35, -0.04, 0.04, -0.36, 189.13, 156.22)" xlink:href="#acfbf416-cc17-4fc4-ba40-78ab648c4437"/><use width="2.33" height="2.33" transform="matrix(-0.2, -0.02, 0.02, -0.2, 182.27, 171.01)" xlink:href="#acfbf416-cc17-4fc4-ba40-78ab648c4437"/></g></g><path d="M48.68,141l9.24,14.31a4.83,4.83,0,0,0,3.58,2.2C77,159,94.12,155,109.46,145.1c19.11-12.35,31-31,33.7-49.55a6.91,6.91,0,0,0-4.94-7.64c-18-5.19-39.91-2-59,10.34-15.34,9.91-26,23.89-31,38.61A4.82,4.82,0,0,0,48.68,141Z" fill="#15bde8"/><path d="M64.94,158.15a16.86,16.86,0,0,1-3,21.75,2.32,2.32,0,0,0-.43,3l.18.28a2.29,2.29,0,0,0,2.74.9,45.36,45.36,0,0,0,27.21-30.3,72.85,72.85,0,0,1-27,4Z" fill="#085e93"/><path d="M49,133.48a16.86,16.86,0,0,0-21-6.25,2.31,2.31,0,0,1-2.89-.82l-.19-.29a2.28,2.28,0,0,1,.31-2.86,45.67,45.67,0,0,1,7.11-5.68A45.1,45.1,0,0,1,64,110.91a72.93,72.93,0,0,0-14.75,23Z" fill="#085e93"/><path d="M138.26,87.92A64.92,64.92,0,0,0,112.94,86l21.58,33.41a64.93,64.93,0,0,0,8.64-23.88A6.87,6.87,0,0,0,138.26,87.92Z" fill="#085e93"/><path d="M116.43,89a.94.94,0,0,1-.13-.71.92.92,0,0,1,.41-.6.9.9,0,0,1,.71-.13,1,1,0,0,1,.73,1.12.94.94,0,0,1-.41.6,1,1,0,0,1-.72.13A.92.92,0,0,1,116.43,89Z" fill="#e5e6e7" style="mix-blend-mode:multiply"/><path d="M119.54,92.06a.94.94,0,0,1,1.31.28h0a1,1,0,0,1-.28,1.31h0a1,1,0,0,1-1.31-.28h0A.94.94,0,0,1,119.54,92.06Z" fill="#e5e6e7" style="mix-blend-mode:multiply"/><path d="M130.85,109.57a1,1,0,0,1,1.31.28h0a1,1,0,0,1-.28,1.31h0a.94.94,0,0,1-1.31-.28h0A1,1,0,0,1,130.85,109.57ZM128,105.19a1,1,0,0,1,1.31.28h0a.94.94,0,0,1-.28,1.31h0a.94.94,0,0,1-1.31-.28h0A1,1,0,0,1,128,105.19Zm-2.83-4.38a1,1,0,0,1,1.31.29h0a.93.93,0,0,1-.28,1.3h0a.94.94,0,0,1-1.31-.28h0A1,1,0,0,1,125.19,100.81Zm-2.82-4.38a1,1,0,0,1,1.31.29h0a1,1,0,0,1-.29,1.31h0a1,1,0,0,1-1.31-.29h0A1,1,0,0,1,122.37,96.43Z" fill="#e5e6e7" style="mix-blend-mode:multiply"/><path d="M133.4,115.26a.94.94,0,0,1-.13-.71.92.92,0,0,1,.41-.6.94.94,0,0,1,.71-.13,1,1,0,0,1,.73,1.12.94.94,0,0,1-.41.6,1,1,0,0,1-.72.13A.92.92,0,0,1,133.4,115.26Z" fill="#e5e6e7" style="mix-blend-mode:multiply"/><path d="M112.2,86.06l21.94,34,.38-.64L112.94,86Z" fill="#e5e6e7" style="mix-blend-mode:multiply"/><path d="M61.66,110.6a78.08,78.08,0,0,0-14.1,21A17.27,17.27,0,0,1,49,133.48l.25.41a72.93,72.93,0,0,1,14.75-23C63.21,110.78,62.43,110.68,61.66,110.6Z" fill="#e5e6e7" style="mix-blend-mode:multiply"/><path d="M91.68,153.76a72.85,72.85,0,0,1-27,4l.27.4a16.73,16.73,0,0,1,1.16,2.11A78.36,78.36,0,0,0,91,156C91.24,155.28,91.47,154.52,91.68,153.76Z" fill="#e5e6e7" style="mix-blend-mode:multiply"/><path d="M48.63,167.7c-12.66,8.18-35.86,6.66-35.86,6.66s8.16-21.77,20.82-30c6.43-4.15,13.1-1.07,17.25,5.36S55.06,163.55,48.63,167.7Z" fill="#fda588"/><path d="M48.1,164.79c-5.16,3.34-15.19,3.88-18.53-1.28s1.29-14.09,6.45-17.42,10.15-.62,13.48,4.54S53.27,161.45,48.1,164.79Z" fill="#fbd46b"/><path d="M48.26,159.28c-3.06,2-9.07,2.35-11-.71s.85-8.39,3.9-10.36,5.23.14,7.2,3.19S51.32,157.3,48.26,159.28Z" fill="#f4f4f4"/><path d="M48.15,136.86a4.82,4.82,0,0,0,.53,4.16l9.24,14.31a4.83,4.83,0,0,0,3.58,2.2c1,.1,2.11.17,3.17.22L49.24,133.89C48.85,134.88,48.49,135.87,48.15,136.86Z" fill="#282060"/><g style="mix-blend-mode:multiply"><path d="M50.51,135.85,48,137.48a4.62,4.62,0,0,0-.08.65l2.87-1.86Z" fill="#e5e6e7"/><path d="M51.91,138l-3.59,2.32a4.78,4.78,0,0,0,.23.45l3.63-2.35Z" fill="#e5e6e7"/><rect x="49.45" y="141.33" width="4.35" height="0.5" transform="translate(-68.59 50.7) rotate(-32.88)" fill="#e5e6e7"/><rect x="50.86" y="143.5" width="4.35" height="0.5" transform="translate(-69.54 51.81) rotate(-32.88)" fill="#e5e6e7"/><rect x="52.26" y="145.67" width="4.35" height="0.5" transform="translate(-70.5 52.92) rotate(-32.88)" fill="#e5e6e7"/><rect x="53.66" y="147.84" width="4.35" height="0.5" transform="translate(-71.45 54.03) rotate(-32.88)" fill="#e5e6e7"/><rect x="55.06" y="150" width="4.35" height="0.5" transform="translate(-72.4 55.14) rotate(-32.88)" fill="#e5e6e7"/><rect x="56.46" y="152.17" width="4.35" height="0.5" transform="translate(-73.35 56.25) rotate(-32.88)" fill="#e5e6e7"/><path d="M61.73,153.2l-3.64,2.36c.1.13.2.26.32.39L62,153.62Z" fill="#e5e6e7"/><path d="M63.13,155.37l-2.87,1.86a4.44,4.44,0,0,0,.62.19l2.52-1.63Z" fill="#e5e6e7"/></g><g style="mix-blend-mode:multiply"><path d="M142.12,90.8c.34.53.21,1.37-.48,2.41-7.37,11.27-22.34,25.18-41.46,37.53-15.34,9.91-30.5,17-42.77,20.45-1.16.33-2,.23-2.32-.24h0l2.83,4.38a4.83,4.83,0,0,0,3.58,2.2C77,159,94.12,155,109.46,145.1c19.11-12.35,31-31,33.7-49.55A6.92,6.92,0,0,0,142.12,90.8Z" fill="#e0e0e0"/></g><path d="M119.26,93.37s-6.5,10.63-29.72,7.29-7.94,0-7.94,0L78.17,90.13Z" fill="#f4f4f4" style="mix-blend-mode:multiply"/><path d="M67.44,79.37a3.79,3.79,0,0,0,1.62.41,8.5,8.5,0,0,0,6.81-3.33,1.9,1.9,0,0,0-.76-3,15.73,15.73,0,0,1-3.06-1.61h0A45.84,45.84,0,0,0,67.44,79.37Z" fill="#f2f1f0"/><path d="M70.62,85.28a2,2,0,0,0-1.31-2.86,21,21,0,0,1-2.84-.91,41.36,41.36,0,0,0-1.61,27.87,2,2,0,0,0,1.62-2C66.43,102.6,66.81,92.47,70.62,85.28Z" fill="#f2f1f0"/><path d="M87.94,40.35a18.42,18.42,0,0,1,7.47,7,1.1,1.1,0,0,0,1.26.49,18.88,18.88,0,0,1,2.49-.57A20.74,20.74,0,0,1,102,47a1.09,1.09,0,0,0,1.06-1.23,19.81,19.81,0,0,0-2-6.27,1.23,1.23,0,0,0-.31-.37,11.75,11.75,0,0,0-12.93-.73A1.09,1.09,0,0,0,87.94,40.35Z" fill="#f2f1f0"/><path d="M77.17,99.48c-1.18,5.92,4.18,9.27,12.68,10s11.76,6.82,10.58,11.66-6.79,16.21-5.35,24.18h0a14.47,14.47,0,0,0,8.53-1.35,4.51,4.51,0,0,0,2.28-2.93c1.22-4.81,4-18.51-.49-30.7,0,0-.78-7.55-22.74-7.4A43.79,43.79,0,0,1,91,101.83a1.66,1.66,0,0,0,1.66-1.36l.08-.4A1.53,1.53,0,0,0,91.6,98.3c-2-.49-5.76-1.55-7.72-3.27C83.88,95,78.34,93.55,77.17,99.48Z" fill="#f2f1f0"/><path d="M95.1,62.49c1.74.8,3.27-3.68,1.91-7.62-.58-1.68-2.25-2.24-4-1a7.83,7.83,0,0,0-2,2.28,1.16,1.16,0,0,0,0,1.14C91.59,58.54,93.37,61.69,95.1,62.49Z" fill="#f2f1f0"/><path d="M88.84,60.26a2.76,2.76,0,0,0,.61,2.23,3.53,3.53,0,0,0,1.26.9.84.84,0,0,0,1.09-1.13,11.63,11.63,0,0,0-1.5-2.45A.84.84,0,0,0,88.84,60.26Z" fill="#f2f1f0"/><path d="M81.74,77.31c-4.1,2.92-10.16,9.14-10.85,20.77-1,17.78,15.17,18.66,19.09,17.83s5.49,7.79,0,15.37a47.35,47.35,0,0,0-3.7,5.84,4.62,4.62,0,0,0,2.32,6.39,24.89,24.89,0,0,0,6.48,1.76h0c-1.44-8,4.18-19.35,5.35-24.18s-2.09-11-10.58-11.66-13.86-4-12.68-10S83.88,95,83.88,95s16.79,5.67,29.27,1.93h0C77.76,96,81.74,77.32,81.74,77.31Z" fill="#c9c7c4"/><path d="M69.25,69.5a1.91,1.91,0,0,0-3.21.83c-.93,3.52-1.13,7.73,1.4,9a45.84,45.84,0,0,1,4.61-7.53h0A17.36,17.36,0,0,1,69.25,69.5Z" fill="#c9c7c4"/><path d="M66.47,81.51a14.53,14.53,0,0,1-2-1,2,2,0,0,0-3,1.25c-1.12,4.76-3,13.91-2.35,20.19a9.83,9.83,0,0,0,4.26,7.15,1.92,1.92,0,0,0,1.47.29A41.36,41.36,0,0,1,66.47,81.51Z" fill="#c9c7c4"/><path d="M111.41,85.53c-9.54,3.14-19.21-2.48-14.64-6,3.61-2.78,17.43-5.49,18.83-19.34,1-9.44-4.19-15.92-10.62-19.25a.54.54,0,0,0-.78.58,42.73,42.73,0,0,1,.61,4.64,1.42,1.42,0,0,0,1.06,1.28c4.86,1.26,7.49,5.42,6.85,12.35-.61,6.67-3.9,10.23-9.41,12.69-7.32,3.26-15.82-3-16.86-9.89A12.92,12.92,0,0,1,92.7,49.63a1.25,1.25,0,0,0,.22-2,43.75,43.75,0,0,0-8.43-6.21,2.81,2.81,0,0,0-1.55-.38c-15,25.73,2.59,34.07,2.59,34.07a19.38,19.38,0,0,0-3.79,2.15S77.76,96,113.15,97a19.94,19.94,0,0,0,6.24-3.06C123.05,91.15,119,83.06,111.41,85.53Z" fill="#f2f1f0"/><path d="M82.94,41.09a2.68,2.68,0,0,0-1.2.31c-6.61,3.45-11.77,10-9.45,21,2,9.46,13.24,12.81,13.24,12.81S67.89,66.82,82.94,41.09Z" fill="#c9c7c4"/><g clip-path="url(#af50a19a-0533-4d74-9532-2b296fc367b4)"><g opacity="0.25"><use width="2.33" height="2.33" transform="matrix(-0.4, -0.14, 0.25, -0.42, 180.76, 111.93)" xlink:href="#acfbf416-cc17-4fc4-ba40-78ab648c4437"/><use width="2.33" height="2.33" transform="matrix(-0.37, -0.13, 0.23, -0.39, 185.83, 52.77)" xlink:href="#acfbf416-cc17-4fc4-ba40-78ab648c4437"/><use width="2.33" height="2.33" transform="matrix(-0.27, -0.09, 0.17, -0.29, 167.45, 46.28)" xlink:href="#acfbf416-cc17-4fc4-ba40-78ab648c4437"/><use width="2.33" height="2.33" transform="matrix(-0.24, -0.08, 0.15, -0.26, 160.82, 60.87)" xlink:href="#acfbf416-cc17-4fc4-ba40-78ab648c4437"/><use width="2.33" height="2.33" transform="matrix(-0.18, -0.06, 0.11, -0.19, 162.32, 88.72)" xlink:href="#acfbf416-cc17-4fc4-ba40-78ab648c4437"/><use width="2.33" height="2.33" transform="matrix(-0.23, -0.08, 0.14, -0.24, 157.79, 110.34)" xlink:href="#acfbf416-cc17-4fc4-ba40-78ab648c4437"/><use width="2.33" height="2.33" transform="matrix(-0.56, -0.19, 0.35, -0.59, 190.09, 133.2)" xlink:href="#acfbf416-cc17-4fc4-ba40-78ab648c4437"/></g></g></g></g></svg>