<svg id="aeca06c8-2f35-4f45-8808-0c439c8d12cf" data-name="Layer 1" xmlns="http://www.w3.org/2000/svg" xmlns:xlink="http://www.w3.org/1999/xlink" viewBox="0 0 173.64 175.84"><defs><linearGradient id="a03109af-5306-4ad5-9861-408fa6f295ef" x1="178.86" y1="142.53" x2="31.1" y2="58.39" gradientUnits="userSpaceOnUse"><stop offset="0" stop-color="#15bde8"/><stop offset="0.39" stop-color="#1870a0"/><stop offset="0.72" stop-color="#1b3466"/><stop offset="0.88" stop-color="#1c1c50"/></linearGradient><clipPath id="f2c29b16-24c3-4f55-b6a0-230b6a4c7d92"><path d="M24.09,30.06c-28.55,38,11.6,60.23,4.19,83.8-12.53,39.84,30.11,55.38,55,46,21.27-8,18.13-36,57.56-32.3,21.38,2,24.66-25.83,23.45-37.81C158.57,32.94,66.11-25.95,24.09,30.06Z" fill="none"/></clipPath><clipPath id="abdc43dd-6548-4f44-9918-c85113aef24f"><path d="M322.53,161.8c6.74-9.47,41.68-24.15,58.24-20.23,23.25,5.51,58.61-43.85,33.35-81.8s-70-34.82-99.28-26-48.14,14.57-51.9,34.72c-3.86,20.66,13.55,31.58,10.88,64.11-1.64,20,16.28,36.55,28.72,39C310.48,173.1,317.17,169.33,322.53,161.8Z" fill="none"/></clipPath><symbol id="adc0432a-ddab-4147-a8e7-aa1c60625654" data-name="New Symbol 2" viewBox="0 0 2.33 2.33"><path d="M2.33,1.17A1.17,1.17,0,1,1,1.17,0,1.16,1.16,0,0,1,2.33,1.17Z" fill="#fff"/></symbol></defs><title>Artboard 9</title><path d="M151.24,76c52.71-.89,1.89-77.45-44.51-76S18.1,28.84,5.29,57.36C-13.3,98.78,22,128.63,35.54,134.62,105.56,165.63,110.52,76.7,151.24,76Z" fill="#eae9e8"/><path d="M21,27.64c-28.54,38,14.69,62.65,7.28,86.22-12.53,39.84,30.11,55.38,55,46,21.27-8,18.13-36,57.56-32.3,21.38,2,24.48-25.81,23.45-37.81C158.12,17.71,63-28.37,21,27.64Z" fill="url(#a03109af-5306-4ad5-9861-408fa6f295ef)"/><g clip-path="url(#f2c29b16-24c3-4f55-b6a0-230b6a4c7d92)"><g opacity="0.25"><use width="2.33" height="2.33" transform="matrix(-0.34, -0.12, 0.21, -0.36, 139.86, 175.5)" xlink:href="#adc0432a-ddab-4147-a8e7-aa1c60625654"/><use width="2.33" height="2.33" transform="matrix(-0.33, -0.11, 0.21, -0.35, 140.84, 164.71)" xlink:href="#adc0432a-ddab-4147-a8e7-aa1c60625654"/><use width="2.33" height="2.33" transform="matrix(-0.11, -0.04, 0.07, -0.12, 133.14, 137.41)" xlink:href="#adc0432a-ddab-4147-a8e7-aa1c60625654"/><use width="2.33" height="2.33" transform="matrix(-0.34, -0.12, 0.21, -0.36, 56.19, 130.23)" xlink:href="#adc0432a-ddab-4147-a8e7-aa1c60625654"/><use width="2.33" height="2.33" transform="matrix(-0.52, -0.18, 0.32, -0.55, 48.09, 132.41)" xlink:href="#adc0432a-ddab-4147-a8e7-aa1c60625654"/><use width="2.33" height="2.33" transform="matrix(-0.53, -0.18, 0.34, -0.57, 63.98, 109.71)" xlink:href="#adc0432a-ddab-4147-a8e7-aa1c60625654"/><use width="2.33" height="2.33" transform="matrix(-0.41, -0.14, 0.26, -0.43, 86.8, 83.47)" xlink:href="#adc0432a-ddab-4147-a8e7-aa1c60625654"/><use width="2.33" height="2.33" transform="matrix(-0.46, -0.16, 0.29, -0.48, 127.03, 82.99)" xlink:href="#adc0432a-ddab-4147-a8e7-aa1c60625654"/><use width="2.33" height="2.33" transform="matrix(-0.3, -0.1, 0.19, -0.32, 139.39, 77.92)" xlink:href="#adc0432a-ddab-4147-a8e7-aa1c60625654"/><use width="2.33" height="2.33" transform="matrix(-0.33, -0.11, 0.21, -0.35, 138.28, 70.54)" xlink:href="#adc0432a-ddab-4147-a8e7-aa1c60625654"/><use width="2.33" height="2.33" transform="matrix(-0.48, -0.16, 0.3, -0.51, 119.74, 76.38)" xlink:href="#adc0432a-ddab-4147-a8e7-aa1c60625654"/><use width="2.33" height="2.33" transform="matrix(-0.42, -0.14, 0.26, -0.44, 102.37, 67.11)" xlink:href="#adc0432a-ddab-4147-a8e7-aa1c60625654"/><use width="2.33" height="2.33" transform="matrix(-0.31, -0.11, 0.19, -0.33, 74.58, 42.48)" xlink:href="#adc0432a-ddab-4147-a8e7-aa1c60625654"/><use width="2.33" height="2.33" transform="matrix(-0.33, -0.11, 0.21, -0.35, 66.11, 33.53)" xlink:href="#adc0432a-ddab-4147-a8e7-aa1c60625654"/><use width="2.33" height="2.33" transform="matrix(-0.35, -0.12, 0.22, -0.37, 65.04, 22.99)" xlink:href="#adc0432a-ddab-4147-a8e7-aa1c60625654"/><use width="2.33" height="2.33" transform="matrix(-0.34, -0.12, 0.21, -0.36, 53.61, 15.69)" xlink:href="#adc0432a-ddab-4147-a8e7-aa1c60625654"/><use width="2.33" height="2.33" transform="matrix(-0.32, -0.11, 0.2, -0.34, 50.62, 33.54)" xlink:href="#adc0432a-ddab-4147-a8e7-aa1c60625654"/><use width="2.33" height="2.33" transform="matrix(-0.49, -0.17, 0.31, -0.52, 44.03, 63.51)" xlink:href="#adc0432a-ddab-4147-a8e7-aa1c60625654"/><use width="2.33" height="2.33" transform="matrix(-0.55, -0.19, 0.35, -0.58, 27.52, 81.59)" xlink:href="#adc0432a-ddab-4147-a8e7-aa1c60625654"/><use width="2.33" height="2.33" transform="matrix(-0.35, -0.12, 0.22, -0.37, 21, 96.92)" xlink:href="#adc0432a-ddab-4147-a8e7-aa1c60625654"/><use width="2.33" height="2.33" transform="matrix(-0.41, -0.14, 0.26, -0.43, 27.08, 136.65)" xlink:href="#adc0432a-ddab-4147-a8e7-aa1c60625654"/><use width="2.33" height="2.33" transform="matrix(-0.42, -0.15, 0.27, -0.45, 41.39, 174.38)" xlink:href="#adc0432a-ddab-4147-a8e7-aa1c60625654"/><use width="2.33" height="2.33" transform="matrix(-0.29, -0.1, 0.18, -0.3, 58.02, 158.18)" xlink:href="#adc0432a-ddab-4147-a8e7-aa1c60625654"/><use width="2.33" height="2.33" transform="matrix(-0.26, -0.09, 0.17, -0.28, 68.89, 149.73)" xlink:href="#adc0432a-ddab-4147-a8e7-aa1c60625654"/><use width="2.33" height="2.33" transform="matrix(-0.28, -0.09, 0.17, -0.29, 27.11, 164.1)" xlink:href="#adc0432a-ddab-4147-a8e7-aa1c60625654"/><use width="2.33" height="2.33" transform="matrix(-0.55, -0.19, 0.34, -0.58, 36.86, 85.13)" xlink:href="#adc0432a-ddab-4147-a8e7-aa1c60625654"/><use width="2.33" height="2.33" transform="matrix(-0.25, -0.08, 0.15, -0.26, 89.07, 102.09)" xlink:href="#adc0432a-ddab-4147-a8e7-aa1c60625654"/><use width="2.33" height="2.33" transform="matrix(-0.18, -0.06, 0.11, -0.19, 81.21, 131.22)" xlink:href="#adc0432a-ddab-4147-a8e7-aa1c60625654"/><use width="2.33" height="2.33" transform="matrix(-0.35, -0.12, 0.22, -0.37, 36.61, 161.41)" xlink:href="#adc0432a-ddab-4147-a8e7-aa1c60625654"/><use width="2.33" height="2.33" transform="matrix(-0.45, -0.16, 0.29, -0.48, 134.12, 153.62)" xlink:href="#adc0432a-ddab-4147-a8e7-aa1c60625654"/><use width="2.33" height="2.33" transform="matrix(-0.51, -0.17, 0.32, -0.54, 143.01, 148.04)" xlink:href="#adc0432a-ddab-4147-a8e7-aa1c60625654"/><use width="2.33" height="2.33" transform="matrix(-0.42, -0.15, 0.27, -0.45, 110.51, 140.96)" xlink:href="#adc0432a-ddab-4147-a8e7-aa1c60625654"/><use width="2.33" height="2.33" transform="matrix(-0.36, -0.12, 0.23, -0.38, 145.42, 164.29)" xlink:href="#adc0432a-ddab-4147-a8e7-aa1c60625654"/><use width="2.33" height="2.33" transform="matrix(-0.43, -0.15, 0.27, -0.46, 100.25, 134.91)" xlink:href="#adc0432a-ddab-4147-a8e7-aa1c60625654"/><use width="2.33" height="2.33" transform="matrix(-0.42, -0.14, 0.26, -0.44, 133.76, 109.33)" xlink:href="#adc0432a-ddab-4147-a8e7-aa1c60625654"/><use width="2.33" height="2.33" transform="matrix(-0.34, -0.12, 0.22, -0.36, 131.77, 99.38)" xlink:href="#adc0432a-ddab-4147-a8e7-aa1c60625654"/><use width="2.33" height="2.33" transform="matrix(-0.2, -0.07, 0.12, -0.21, 122.65, 103.95)" xlink:href="#adc0432a-ddab-4147-a8e7-aa1c60625654"/><use width="2.33" height="2.33" transform="matrix(-0.43, -0.15, 0.27, -0.46, 117.53, 99.55)" xlink:href="#adc0432a-ddab-4147-a8e7-aa1c60625654"/><use width="2.33" height="2.33" transform="matrix(-0.53, -0.18, 0.33, -0.56, 116.31, 79.67)" xlink:href="#adc0432a-ddab-4147-a8e7-aa1c60625654"/><use width="2.33" height="2.33" transform="matrix(-0.36, -0.12, 0.23, -0.38, 110.64, 60.04)" xlink:href="#adc0432a-ddab-4147-a8e7-aa1c60625654"/><use width="2.33" height="2.33" transform="matrix(-0.33, -0.11, 0.21, -0.35, 80.44, 52.1)" xlink:href="#adc0432a-ddab-4147-a8e7-aa1c60625654"/><use width="2.33" height="2.33" transform="matrix(-0.33, -0.11, 0.21, -0.35, 75.48, 49.92)" xlink:href="#adc0432a-ddab-4147-a8e7-aa1c60625654"/><use width="2.33" height="2.33" transform="matrix(-0.37, -0.13, 0.23, -0.39, 57.5, 37.41)" xlink:href="#adc0432a-ddab-4147-a8e7-aa1c60625654"/><use width="2.33" height="2.33" transform="matrix(-0.36, -0.12, 0.23, -0.38, 60.82, 25.85)" xlink:href="#adc0432a-ddab-4147-a8e7-aa1c60625654"/><use width="2.33" height="2.33" transform="matrix(-0.38, -0.13, 0.24, -0.4, 62.61, 15.84)" xlink:href="#adc0432a-ddab-4147-a8e7-aa1c60625654"/><use width="2.33" height="2.33" transform="matrix(-0.36, -0.12, 0.23, -0.38, 52.57, 9.81)" xlink:href="#adc0432a-ddab-4147-a8e7-aa1c60625654"/><use width="2.33" height="2.33" transform="matrix(-0.38, -0.13, 0.24, -0.4, 52.04, 7.1)" xlink:href="#adc0432a-ddab-4147-a8e7-aa1c60625654"/><use width="2.33" height="2.33" transform="matrix(-0.42, -0.14, 0.27, -0.45, 54.15, 3.49)" xlink:href="#adc0432a-ddab-4147-a8e7-aa1c60625654"/><use width="2.33" height="2.33" transform="matrix(-0.48, -0.16, 0.3, -0.51, 51.75, 67.34)" xlink:href="#adc0432a-ddab-4147-a8e7-aa1c60625654"/><use width="2.33" height="2.33" transform="matrix(-0.42, -0.14, 0.26, -0.44, 97.89, 86.58)" xlink:href="#adc0432a-ddab-4147-a8e7-aa1c60625654"/><use width="2.33" height="2.33" transform="matrix(-0.18, -0.06, 0.12, -0.19, 122.16, 117.97)" xlink:href="#adc0432a-ddab-4147-a8e7-aa1c60625654"/><use width="2.33" height="2.33" transform="matrix(-0.11, -0.04, 0.07, -0.12, 128.35, 136.18)" xlink:href="#adc0432a-ddab-4147-a8e7-aa1c60625654"/><use width="2.33" height="2.33" transform="matrix(-0.15, -0.05, 0.1, -0.16, 97.49, 128.28)" xlink:href="#adc0432a-ddab-4147-a8e7-aa1c60625654"/><use width="2.33" height="2.33" transform="matrix(-0.22, -0.07, 0.14, -0.23, 60.73, 133.64)" xlink:href="#adc0432a-ddab-4147-a8e7-aa1c60625654"/><use width="2.33" height="2.33" transform="matrix(-0.3, -0.1, 0.19, -0.32, 132.54, 115.27)" xlink:href="#adc0432a-ddab-4147-a8e7-aa1c60625654"/><use width="2.33" height="2.33" transform="matrix(-0.29, -0.1, 0.18, -0.3, 133.22, 89.64)" xlink:href="#adc0432a-ddab-4147-a8e7-aa1c60625654"/><use width="2.33" height="2.33" transform="matrix(-0.38, -0.13, 0.24, -0.4, 121.71, 68.75)" xlink:href="#adc0432a-ddab-4147-a8e7-aa1c60625654"/><use width="2.33" height="2.33" transform="matrix(-0.25, -0.09, 0.16, -0.27, 88.52, 37.12)" xlink:href="#adc0432a-ddab-4147-a8e7-aa1c60625654"/><use width="2.33" height="2.33" transform="matrix(-0.28, -0.1, 0.18, -0.3, 80.72, 16.36)" xlink:href="#adc0432a-ddab-4147-a8e7-aa1c60625654"/><use width="2.33" height="2.33" transform="matrix(-0.25, -0.09, 0.16, -0.27, 86.52, 93.19)" xlink:href="#adc0432a-ddab-4147-a8e7-aa1c60625654"/><use width="2.33" height="2.33" transform="matrix(-0.15, -0.05, 0.09, -0.16, 124.17, 118.81)" xlink:href="#adc0432a-ddab-4147-a8e7-aa1c60625654"/><use width="2.33" height="2.33" transform="matrix(-0.17, -0.06, 0.11, -0.18, 124.23, 140.34)" xlink:href="#adc0432a-ddab-4147-a8e7-aa1c60625654"/><use width="2.33" height="2.33" transform="matrix(-0.32, -0.11, 0.2, -0.34, 139.14, 158.4)" xlink:href="#adc0432a-ddab-4147-a8e7-aa1c60625654"/><use width="2.33" height="2.33" transform="matrix(-0.25, -0.08, 0.16, -0.26, 118.65, 139.99)" xlink:href="#adc0432a-ddab-4147-a8e7-aa1c60625654"/><use width="2.33" height="2.33" transform="matrix(-0.18, -0.06, 0.11, -0.19, 135.44, 140.85)" xlink:href="#adc0432a-ddab-4147-a8e7-aa1c60625654"/><use width="2.33" height="2.33" transform="matrix(-0.22, -0.07, 0.14, -0.23, 89.83, 133.18)" xlink:href="#adc0432a-ddab-4147-a8e7-aa1c60625654"/><use width="2.33" height="2.33" transform="matrix(-0.27, -0.09, 0.17, -0.29, 97.56, 145.46)" xlink:href="#adc0432a-ddab-4147-a8e7-aa1c60625654"/><use width="2.33" height="2.33" transform="matrix(-0.29, -0.1, 0.18, -0.31, 116.29, 154.64)" xlink:href="#adc0432a-ddab-4147-a8e7-aa1c60625654"/><use width="2.33" height="2.33" transform="matrix(-0.31, -0.11, 0.2, -0.33, 137.66, 166.57)" xlink:href="#adc0432a-ddab-4147-a8e7-aa1c60625654"/></g></g><path d="M68,106.39s-26.25,24.28-27.13,25.15-4.08,4.54-.7,7.79c2.92,2.81,8.57-5.35,11-4.75s6.26,4.32-2.14,10.15L34.66,157.05s-6,5.49-3.53,9.16S39.9,165,39.9,165l22.18-19.4,4-2.93s3.52-2,5.49,1.31-4,7.54-4,7.54S55.88,159.31,57,162.87s5,2.91,7.76.69,44.52-37.23,44.52-37.23Z" fill="#15bde8"/><path d="M64.69,75.07c2.6-3,5-1.5,5-1.5l.67,6.86s-.64.35-1.7.82C68.14,78.54,67.18,75.59,64.69,75.07Z" fill="#c9c7c4"/><path d="M88.12,40.62c-1.51.61-2.62-3.25-1.31-6.53.56-1.39,2-1.8,3.44-.72a6.53,6.53,0,0,1,1.62,2,1,1,0,0,1,0,1C91.24,37.42,89.61,40,88.12,40.62Z" fill="#f2f1f0"/><path d="M93.5,39a2.34,2.34,0,0,1-.61,1.86,3.15,3.15,0,0,1-1.1.71.71.71,0,0,1-.87-1,9.5,9.5,0,0,1,1.36-2A.71.71,0,0,1,93.5,39Z" fill="#f2f1f0"/><path d="M26.92,41.83c.29-4.12,6.62-9.77,10.61-12.18,6.16-3.72,13.37-4.34,22-3.18a1.54,1.54,0,0,1,1.32,1.7,23,23,0,0,0-.12,2.77h0s-12.67-2.55-22.14,5-4.9,12.91-4.83,13C30.34,49.2,26.66,45.7,26.92,41.83Z" fill="#c9c7c4"/><path d="M95.69,46.82a15.84,15.84,0,0,0,1.88-8.17,55,55,0,0,1,12.84,7.66c5.31,4.25,4.59,11.93.39,13.17a6.05,6.05,0,0,1-4-.35A29.38,29.38,0,0,0,95.69,46.82Z" fill="#f2f1f0"/><path d="M92.23,50.94a12.43,12.43,0,0,0,3.46-4.12,29.38,29.38,0,0,1,11.08,12.31c-3.11-1.21-6.59-4.17-11.08-6.45C94.54,52.09,93.38,51.51,92.23,50.94Z" fill="#c9c7c4"/><path d="M76.78,67.28A9.83,9.83,0,0,1,80.43,67c6.93,2.67,13.09,15.72,13.09,15.72l1.49,0-8,6S77.87,69.22,76.78,67.28Z" fill="#c9c7c4"/><path d="M80.43,67c3.77.36,9.8,2.65,15,12.34l.06,3-.47.35-1.49,0S87.36,69.71,80.43,67Z" fill="#eae9e8"/><path d="M71.54,74.51C69.36,69,65.43,71.3,54.8,72.82s-11.42-5-8.46-10.73,10-6.77,12.18-12.73C60,45.26,55.6,43,52.7,42a6.24,6.24,0,0,0-2.32-.67c-9.45-1.16-9.69,3.51-14.49,6.83a4.35,4.35,0,0,1-2.15.77c-.07-.08-4.57-5.51,4.83-13s22.14-5,22.14-5h0c.08,3.44,1.13,7.32,4.41,13,.74,1.28,1.91-2.74,1.21-4A19.62,19.62,0,0,1,64.4,27.64a45.23,45.23,0,0,1,5.85,1.66,2,2,0,0,0-.18.21c-1.53,2.11-2.09,5-2.35,7.52a11.52,11.52,0,0,0,1.11,7,21.58,21.58,0,0,0,6,6.21,16,16,0,0,0,6.55,2.44,15.23,15.23,0,0,0,3.25.25A27.85,27.85,0,0,1,76,59.82a3.28,3.28,0,0,1-2.36.27,22.93,22.93,0,0,0-14.46,1.24c-5.35,2.26-6.91,3.33.74.65s15.56-1.2,17.59,3.58S87.67,86.43,87.67,86.43l-7,7.38h0S73.72,80,71.54,74.51Z" fill="#f2f1f0"/><path d="M67.56,81.19c-.69-5-2.58-3.3-5.8-1.35-3.5,2.13-10,2.58-12.55,1.83-14.28-4.17-9.83-14.76-5.88-22,3.53-6.5,13.9-15.07,9.37-17.65,2.9,1,7.33,3.28,5.82,7.38-2.18,6-9.22,7-12.18,12.73S44.17,74.34,54.8,72.82,69.36,69,71.54,74.51s9.13,19.3,9.13,19.3h0l-6.25,6.59S68.41,87.42,67.56,81.19Z" fill="#c9c7c4"/><path d="M92.22,29.73a1,1,0,0,1-1.47.42h0a40.91,40.91,0,0,0-4.84-2.47,1.05,1.05,0,0,1-.65-1.06A35.59,35.59,0,0,0,85.12,19a40.15,40.15,0,0,1,10.79,2.18A63.89,63.89,0,0,1,92.22,29.73Z" fill="#f2f1f0"/><path d="M67.64,31.29c2.23-8,7.51-11.7,14.43-12.25a43.23,43.23,0,0,1,.51,6.07,1.38,1.38,0,0,1-1.47,1.37c-3.58-.21-7.23,1.37-10,7.15-3.92,8.2,1.71,14.78,5.52,16.62,2.6,1.26,7.6,3.34,14.23-2C96.71,43.55,97.1,37.2,94,33a1.71,1.71,0,0,1-.09-1.89c1.06-1.75,2.36-4.16,3.38-6.1A1,1,0,0,1,99,24.91c4.93,7.51,4.36,16.53-1.86,23a20.08,20.08,0,0,1-25.26,3.2S64.06,44.08,67.64,31.29Z" fill="#f2f1f0"/><path d="M95.91,21.17A40.15,40.15,0,0,0,85.12,19a23,23,0,0,0-.76-3.61.88.88,0,0,1,.82-1.13C91.11,14,95.37,17.28,95.91,21.17Z" fill="#c9c7c4"/><path d="M68,18.88a16.06,16.06,0,0,1,11.76-5,1.68,1.68,0,0,1,1.64,1.35c.21,1,.45,2.38.67,3.83-6.92.55-12.2,4.25-14.43,12.25-3.58,12.79,4.21,19.8,4.21,19.8a20.09,20.09,0,0,1-3.12-2.48C60.34,40.53,60.59,26.57,68,18.88Z" fill="#c9c7c4"/><path d="M63.82,132.69h0l.1.24c.14.25.28.5.44.74a25.59,25.59,0,0,1,.76-8s4.15-29.07,31.72-42.88c14.78-7.41,23-6.63,27.73-3.17-4.1-5-12.36-7.93-30.15.41-27.34,12.81-31.29,40.11-31.29,40.11C62.33,123,61.65,128.92,63.82,132.69Zm-.27-3.26s0-.08,0-.25c0,.22,0,.44-.05.66A1.7,1.7,0,0,1,63.55,129.43Z" fill="#c9c7c4"/><path d="M65.52,135.28l-.06.69a1.77,1.77,0,0,1,0-.43S65.49,135.45,65.52,135.28Z" fill="#f2f1f0"/><path d="M65.61,135.3a10.78,10.78,0,0,1-1.25-1.64,25.59,25.59,0,0,1,.76-8s4.15-29.07,31.72-42.88c14.78-7.41,23-6.63,27.73-3.17.19.23.35.46.52.7C109.56,109.11,77.3,128.84,65.61,135.3Z" fill="#f2f1f0"/><path d="M95.63,134c-17.35,7.55-25.93,5.72-30,1.29,11.69-6.46,44-26.19,59.48-54.94a22.4,22.4,0,0,1,3.31,7.75C129.85,93.79,129.11,119.43,95.63,134Z" fill="#f5f4f4"/><ellipse cx="25.9" cy="171.86" rx="4.45" ry="3.53" transform="translate(-106.66 59.46) rotate(-41.14)" fill="#15bde8"/><g clip-path="url(#abdc43dd-6548-4f44-9918-c85113aef24f)"><g opacity="0.25"><use width="2.33" height="2.33" transform="matrix(0.17, -0.18, 0.19, 0.21, 166.62, 114.77)" xlink:href="#adc0432a-ddab-4147-a8e7-aa1c60625654"/><use width="2.33" height="2.33" transform="matrix(0.18, -0.19, 0.21, 0.23, 159.85, 115.59)" xlink:href="#adc0432a-ddab-4147-a8e7-aa1c60625654"/><use width="2.33" height="2.33" transform="matrix(0.19, -0.2, 0.22, 0.24, 170.13, 115.27)" xlink:href="#adc0432a-ddab-4147-a8e7-aa1c60625654"/><use width="2.33" height="2.33" transform="matrix(0.22, -0.23, 0.25, 0.27, 159.75, 123.47)" xlink:href="#adc0432a-ddab-4147-a8e7-aa1c60625654"/></g></g></svg>