<svg xmlns="http://www.w3.org/2000/svg" xmlns:xlink="http://www.w3.org/1999/xlink" viewBox="0 0 504.31 531.53"><defs><linearGradient id="a650531a-2c6e-45a2-8062-5b6326c9ae5c" x1="373.33" y1="486.4" x2="249.42" y2="156.54" gradientUnits="userSpaceOnUse"><stop offset="0" stop-color="#15bde8"/><stop offset="0.44" stop-color="#1870a0"/><stop offset="0.82" stop-color="#1b3466"/><stop offset="1" stop-color="#1c1c50"/></linearGradient><clipPath id="e52643d9-5d88-46d6-b306-7adf38ee8742"><path d="M424.25,131.73c-33.22,4.39-69.94,5.18-99.71-10.65C301.15,108.63,286.32,97.51,258,59.82,218.29,6.87,44.71,29.35,25.26,143.9s83.86,191.9,164.8,230.54,133.19,63.29,180.84,34.33c48.87-29.71,32.43-81.48,102-134.59,42.77-32.66,36.23-95.39,13.92-122.8C472.56,133.91,450.64,128.24,424.25,131.73Z" fill="none"/></clipPath><symbol id="b96206e4-68f0-4771-adad-df154947876c" data-name="New Symbol 2" viewBox="0 0 2.33 2.33"><path d="M2.33,1.17A1.17,1.17,0,1,1,1.17,0,1.16,1.16,0,0,1,2.33,1.17Z" fill="#fff"/></symbol></defs><title>Artboard 1</title><g style="isolation:isolate"><g id="a66f891f-d1e2-4df8-be0e-9bec1ef8b7af" data-name="Layer 1"><path d="M256.06,79.52C284.94-60.91,27.61,3.37,4.18,127.61S59.71,370.54,147,414.2s171.38,39.57,223.22,15.41C679.69,285.39,233.74,188,256.06,79.52Z" fill="#eae9e8"/><path d="M98.25,466.36s102.91-35.71,205.82-26.63S446.93,476,411.82,481.19s-44.8,19.07-29.06,22.7,9.08,41.17-81.11,23-77.22-32.34-130.15-25C97,512.17,34.08,489.36,98.25,466.36Z" fill="#e4b77b"/><path d="M124.05,474.53s30.05-14.76,64.42-20.34,97-6.4,124.24,0c33.22,7.82,51.34,31.26,16.18,33.49s-20.37,15.07-60.14,7.81S192.52,480.17,153.82,485,108.93,481,124.05,474.53Z" fill="#e4c598"/><path d="M188.47,474s25.2,8.22,68.78-2.76,61.08-4.12,79.61-10.64a299.54,299.54,0,0,1,37.27-10.15s-61.29-12.5-87-11.81c0,0-64.16,13.38-77.89,16.13S188.47,474,188.47,474Z" fill="#cecece" style="mix-blend-mode:multiply"/><path d="M424.25,131.73c-33.22,4.39-69.94,5.18-99.71-10.65C301.15,108.63,286.32,97.51,258,59.82,218.29,6.87,44.71,29.35,25.26,143.9s83.86,191.9,164.8,230.54,133.19,63.29,180.84,34.33c48.87-29.71,32.43-81.48,102-134.59,42.77-32.66,36.23-95.39,13.92-122.8C472.56,133.91,450.64,128.24,424.25,131.73Z" fill="url(#a650531a-2c6e-45a2-8062-5b6326c9ae5c)"/><g clip-path="url(#e52643d9-5d88-46d6-b306-7adf38ee8742)"><g opacity="0.25"><use width="2.33" height="2.33" transform="matrix(-0.38, 0, 0, -0.39, 490.37, 499.37)" xlink:href="#b96206e4-68f0-4771-adad-df154947876c"/><use width="2.33" height="2.33" transform="matrix(-0.34, 0, 0, -0.35, 462.42, 312.91)" xlink:href="#b96206e4-68f0-4771-adad-df154947876c"/><use width="2.33" height="2.33" transform="matrix(-1.02, 0, -0.01, -1.04, 257.79, 359.61)" xlink:href="#b96206e4-68f0-4771-adad-df154947876c"/><use width="2.33" height="2.33" transform="matrix(-1.56, 0, -0.01, -1.59, 240.7, 371.62)" xlink:href="#b96206e4-68f0-4771-adad-df154947876c"/><use width="2.33" height="2.33" transform="matrix(-1.62, 0, -0.01, -1.65, 246.34, 303.45)" xlink:href="#b96206e4-68f0-4771-adad-df154947876c"/><use width="2.33" height="2.33" transform="matrix(-1.24, 0, -0.01, -1.27, 264.05, 220.93)" xlink:href="#b96206e4-68f0-4771-adad-df154947876c"/><use width="2.33" height="2.33" transform="matrix(-1.39, 0, -0.01, -1.41, 364.62, 186.26)" xlink:href="#b96206e4-68f0-4771-adad-df154947876c"/><use width="2.33" height="2.33" transform="matrix(-0.9, 0, 0, -0.92, 388.07, 163.7)" xlink:href="#b96206e4-68f0-4771-adad-df154947876c"/><use width="2.33" height="2.33" transform="matrix(-1.01, 0, -0.01, -1.03, 374.09, 146.78)" xlink:href="#b96206e4-68f0-4771-adad-df154947876c"/><use width="2.33" height="2.33" transform="matrix(-1.45, 0, -0.01, -1.48, 336.25, 176.34)" xlink:href="#b96206e4-68f0-4771-adad-df154947876c"/><use width="2.33" height="2.33" transform="matrix(-1.27, 0, -0.01, -1.3, 278.48, 168.37)" xlink:href="#b96206e4-68f0-4771-adad-df154947876c"/><use width="2.33" height="2.33" transform="matrix(-0.94, 0, -0.01, -0.95, 171.23, 131.91)" xlink:href="#b96206e4-68f0-4771-adad-df154947876c"/><use width="2.33" height="2.33" transform="matrix(-1.01, 0, -0.01, -1.03, 136.35, 117.3)" xlink:href="#b96206e4-68f0-4771-adad-df154947876c"/><use width="2.33" height="2.33" transform="matrix(-1.05, 0, -0.01, -1.07, 117.69, 92.67)" xlink:href="#b96206e4-68f0-4771-adad-df154947876c"/><use width="2.33" height="2.33" transform="matrix(-1.03, 0, -0.01, -1.05, 77.88, 84.52)" xlink:href="#b96206e4-68f0-4771-adad-df154947876c"/><use width="2.33" height="2.33" transform="matrix(-0.96, 0, -0.01, -0.98, 97.36, 130.22)" xlink:href="#b96206e4-68f0-4771-adad-df154947876c"/><use width="2.33" height="2.33" transform="matrix(-1.5, 0, -0.01, -1.53, 126.16, 208.25)" xlink:href="#b96206e4-68f0-4771-adad-df154947876c"/><use width="2.33" height="2.33" transform="matrix(-1.67, 0, -0.01, -1.7, 111.96, 265.76)" xlink:href="#b96206e4-68f0-4771-adad-df154947876c"/><use width="2.33" height="2.33" transform="matrix(-1.06, 0, -0.01, -1.08, 118.76, 308.29)" xlink:href="#b96206e4-68f0-4771-adad-df154947876c"/><use width="2.33" height="2.33" transform="matrix(-0.6, 0, 0, -0.61, 39.22, 423.03)" xlink:href="#b96206e4-68f0-4771-adad-df154947876c"/><use width="2.33" height="2.33" transform="matrix(-0.69, 0, 0, -0.7, 39.72, 444.15)" xlink:href="#b96206e4-68f0-4771-adad-df154947876c"/><use width="2.33" height="2.33" transform="matrix(-1.23, 0, -0.01, -1.25, 194.23, 399.39)" xlink:href="#b96206e4-68f0-4771-adad-df154947876c"/><use width="2.33" height="2.33" transform="matrix(-1.28, 0, -0.01, -1.31, 287.38, 478.82)" xlink:href="#b96206e4-68f0-4771-adad-df154947876c"/><use width="2.33" height="2.33" transform="matrix(-1.04, 0, -0.01, -1.05, 409.44, 470.49)" xlink:href="#b96206e4-68f0-4771-adad-df154947876c"/><use width="2.33" height="2.33" transform="matrix(-0.87, 0, 0, -0.89, 304.73, 425.74)" xlink:href="#b96206e4-68f0-4771-adad-df154947876c"/><use width="2.33" height="2.33" transform="matrix(-0.8, 0, 0, -0.82, 319.3, 396.23)" xlink:href="#b96206e4-68f0-4771-adad-df154947876c"/><use width="2.33" height="2.33" transform="matrix(-0.84, 0, 0, -0.86, 235.87, 465.82)" xlink:href="#b96206e4-68f0-4771-adad-df154947876c"/><use width="2.33" height="2.33" transform="matrix(-0.64, 0, 0, -0.65, 86.66, 410.74)" xlink:href="#b96206e4-68f0-4771-adad-df154947876c"/><use width="2.33" height="2.33" transform="matrix(-0.74, 0, 0, -0.75, 38.82, 337.45)" xlink:href="#b96206e4-68f0-4771-adad-df154947876c"/><use width="2.33" height="2.33" transform="matrix(-0.81, 0, 0, -0.82, 33.48, 327.73)" xlink:href="#b96206e4-68f0-4771-adad-df154947876c"/><use width="2.33" height="2.33" transform="matrix(-1.66, 0, -0.01, -1.69, 140.84, 266.55)" xlink:href="#b96206e4-68f0-4771-adad-df154947876c"/><use width="2.33" height="2.33" transform="matrix(-0.74, 0, 0, -0.76, 297.98, 264.12)" xlink:href="#b96206e4-68f0-4771-adad-df154947876c"/><use width="2.33" height="2.33" transform="matrix(-0.53, 0, 0, -0.54, 322.3, 341.17)" xlink:href="#b96206e4-68f0-4771-adad-df154947876c"/><use width="2.33" height="2.33" transform="matrix(-0.85, 0, 0, -0.87, 489.66, 474.14)" xlink:href="#b96206e4-68f0-4771-adad-df154947876c"/><use width="2.33" height="2.33" transform="matrix(-0.61, 0, 0, -0.62, 498.95, 518.4)" xlink:href="#b96206e4-68f0-4771-adad-df154947876c"/><use width="2.33" height="2.33" transform="matrix(-1.07, 0, -0.01, -1.08, 255.71, 451.4)" xlink:href="#b96206e4-68f0-4771-adad-df154947876c"/><use width="2.33" height="2.33" transform="matrix(-1.37, 0, -0.01, -1.4, 489.42, 351.33)" xlink:href="#b96206e4-68f0-4771-adad-df154947876c"/><use width="2.33" height="2.33" transform="matrix(-1.54, 0, -0.01, -1.57, 503.35, 330.43)" xlink:href="#b96206e4-68f0-4771-adad-df154947876c"/><use width="2.33" height="2.33" transform="matrix(-1.29, 0, -0.01, -1.31, 410.8, 340.34)" xlink:href="#b96206e4-68f0-4771-adad-df154947876c"/><use width="2.33" height="2.33" transform="matrix(-0.38, 0, 0, -0.39, 485.74, 461.45)" xlink:href="#b96206e4-68f0-4771-adad-df154947876c"/><use width="2.33" height="2.33" transform="matrix(-1.3, 0, -0.01, -1.33, 375.81, 334.26)" xlink:href="#b96206e4-68f0-4771-adad-df154947876c"/><use width="2.33" height="2.33" transform="matrix(-1.27, 0, -0.01, -1.29, 421.45, 244.43)" xlink:href="#b96206e4-68f0-4771-adad-df154947876c"/><use width="2.33" height="2.33" transform="matrix(-1.04, 0, -0.01, -1.05, 401.38, 221.99)" xlink:href="#b96206e4-68f0-4771-adad-df154947876c"/><use width="2.33" height="2.33" transform="matrix(-0.6, 0, 0, -0.61, 385.34, 240.65)" xlink:href="#b96206e4-68f0-4771-adad-df154947876c"/><use width="2.33" height="2.33" transform="matrix(-1.32, 0, -0.01, -1.34, 365.77, 234.27)" xlink:href="#b96206e4-68f0-4771-adad-df154947876c"/><use width="2.33" height="2.33" transform="matrix(-1.61, 0, -0.01, -1.64, 332.59, 187.17)" xlink:href="#b96206e4-68f0-4771-adad-df154947876c"/><use width="2.33" height="2.33" transform="matrix(-1.09, 0, -0.01, -1.11, 288.62, 144.37)" xlink:href="#b96206e4-68f0-4771-adad-df154947876c"/><use width="2.33" height="2.33" transform="matrix(-0.99, 0, -0.01, -1.01, 200.56, 150.31)" xlink:href="#b96206e4-68f0-4771-adad-df154947876c"/><use width="2.33" height="2.33" transform="matrix(-1, 0, -0.01, -1.02, 184.75, 149.16)" xlink:href="#b96206e4-68f0-4771-adad-df154947876c"/><use width="2.33" height="2.33" transform="matrix(-1.11, 0, -0.01, -1.13, 120.56, 133.86)" xlink:href="#b96206e4-68f0-4771-adad-df154947876c"/><use width="2.33" height="2.33" transform="matrix(-1.09, 0, -0.01, -1.11, 111.4, 103.1)" xlink:href="#b96206e4-68f0-4771-adad-df154947876c"/><use width="2.33" height="2.33" transform="matrix(-1.15, 0, -0.01, -1.17, 100.75, 77.4)" xlink:href="#b96206e4-68f0-4771-adad-df154947876c"/><use width="2.33" height="2.33" transform="matrix(-1.1, 0, -0.01, -1.12, 66.32, 71.15)" xlink:href="#b96206e4-68f0-4771-adad-df154947876c"/><use width="2.33" height="2.33" transform="matrix(-1.15, 0, -0.01, -1.17, 60.9, 65.03)" xlink:href="#b96206e4-68f0-4771-adad-df154947876c"/><use width="2.33" height="2.33" transform="matrix(-1.28, 0, -0.01, -1.3, 60.76, 54.55)" xlink:href="#b96206e4-68f0-4771-adad-df154947876c"/><use width="2.33" height="2.33" transform="matrix(-1.45, 0, -0.01, -1.48, 151.4, 211.09)" xlink:href="#b96206e4-68f0-4771-adad-df154947876c"/><use width="2.33" height="2.33" transform="matrix(-1.27, 0, -0.01, -1.29, 296.68, 219.23)" xlink:href="#b96206e4-68f0-4771-adad-df154947876c"/><use width="2.33" height="2.33" transform="matrix(-0.56, 0, 0, -0.57, 405.33, 274.99)" xlink:href="#b96206e4-68f0-4771-adad-df154947876c"/><use width="2.33" height="2.33" transform="matrix(-0.34, 0, 0, -0.34, 448.5, 313.93)" xlink:href="#b96206e4-68f0-4771-adad-df154947876c"/><use width="2.33" height="2.33" transform="matrix(-0.46, 0, 0, -0.47, 358.82, 320.5)" xlink:href="#b96206e4-68f0-4771-adad-df154947876c"/><use width="2.33" height="2.33" transform="matrix(-0.66, 0, 0, -0.67, 274.4, 364.09)" xlink:href="#b96206e4-68f0-4771-adad-df154947876c"/><use width="2.33" height="2.33" transform="matrix(-0.99, 0, -0.01, -1, 411.21, 458.84)" xlink:href="#b96206e4-68f0-4771-adad-df154947876c"/><use width="2.33" height="2.33" transform="matrix(-1.59, 0, -0.01, -1.62, 433.73, 494.08)" xlink:href="#b96206e4-68f0-4771-adad-df154947876c"/><use width="2.33" height="2.33" transform="matrix(-1.7, 0, -0.01, -1.73, 458.04, 502.55)" xlink:href="#b96206e4-68f0-4771-adad-df154947876c"/><use width="2.33" height="2.33" transform="matrix(-0.9, 0, 0, -0.92, 427.37, 259.81)" xlink:href="#b96206e4-68f0-4771-adad-df154947876c"/><use width="2.33" height="2.33" transform="matrix(-0.87, 0, 0, -0.89, 390.29, 197.21)" xlink:href="#b96206e4-68f0-4771-adad-df154947876c"/><use width="2.33" height="2.33" transform="matrix(-1.16, 0, -0.01, -1.18, 329.65, 156.23)" xlink:href="#b96206e4-68f0-4771-adad-df154947876c"/><use width="2.33" height="2.33" transform="matrix(-0.76, 0, 0, -0.77, 198.19, 107.31)" xlink:href="#b96206e4-68f0-4771-adad-df154947876c"/><use width="2.33" height="2.33" transform="matrix(-0.85, 0, 0, -0.87, 147.12, 63.57)" xlink:href="#b96206e4-68f0-4771-adad-df154947876c"/><use width="2.33" height="2.33" transform="matrix(-1.25, 0, -0.01, -1.27, 94.13, 24.91)" xlink:href="#b96206e4-68f0-4771-adad-df154947876c"/><use width="2.33" height="2.33" transform="matrix(-1.34, 0, -0.01, -1.36, 82.89, 25.39)" xlink:href="#b96206e4-68f0-4771-adad-df154947876c"/><use width="2.33" height="2.33" transform="matrix(-1.41, 0, -0.01, -1.43, 75.03, 24.64)" xlink:href="#b96206e4-68f0-4771-adad-df154947876c"/><use width="2.33" height="2.33" transform="matrix(-0.77, 0, 0, -0.78, 278.06, 244.7)" xlink:href="#b96206e4-68f0-4771-adad-df154947876c"/><use width="2.33" height="2.33" transform="matrix(-0.45, 0, 0, -0.46, 411.66, 275.36)" xlink:href="#b96206e4-68f0-4771-adad-df154947876c"/><use width="2.33" height="2.33" transform="matrix(-0.51, 0, 0, -0.52, 444.4, 327.43)" xlink:href="#b96206e4-68f0-4771-adad-df154947876c"/><use width="2.33" height="2.33" transform="matrix(-0.75, 0, 0, -0.76, 429.83, 331.23)" xlink:href="#b96206e4-68f0-4771-adad-df154947876c"/><use width="2.33" height="2.33" transform="matrix(-0.54, 0, 0, -0.55, 473.42, 319.31)" xlink:href="#b96206e4-68f0-4771-adad-df154947876c"/><use width="2.33" height="2.33" transform="matrix(-0.66, 0, 0, -0.67, 346.95, 338.75)" xlink:href="#b96206e4-68f0-4771-adad-df154947876c"/><use width="2.33" height="2.33" transform="matrix(-0.83, 0, 0, -0.85, 385.02, 362.04)" xlink:href="#b96206e4-68f0-4771-adad-df154947876c"/><use width="2.33" height="2.33" transform="matrix(-0.88, 0, 0, -0.9, 446.06, 368.64)" xlink:href="#b96206e4-68f0-4771-adad-df154947876c"/><use width="2.33" height="2.33" transform="matrix(-0.53, 0, 0, -0.54, 504.5, 421.02)" xlink:href="#b96206e4-68f0-4771-adad-df154947876c"/></g></g><path d="M218.93,177.11a20.43,20.43,0,0,0-5.33,6,3,3,0,0,0-.13,3c1.77,3.4,6.44,11.68,11,13.78s8.59-9.66,5-20C227.94,175.47,223.57,174,218.93,177.11Z" fill="#f2f1f0"/><path d="M211.85,192.85A2.18,2.18,0,0,0,208,194a7.19,7.19,0,0,0,1.61,5.86,9.21,9.21,0,0,0,3.3,2.36,2.2,2.2,0,0,0,2.85-3A30.71,30.71,0,0,0,211.85,192.85Z" fill="#f2f1f0"/><path d="M359.85,88.78s-44-23.11-111.21-19.36a9.13,9.13,0,0,0-8.54,10.4L248,135.28s35.34,3.48,44.26,40.17c0,0,40.46,3.07,56.93,10.62Z" fill="#15bde8"/><path d="M209.56,117.76c-1.06-2.46-3.15-2.89-5.64-1.83l-6.49,2.78,3.1,7.25,6.57-2.81C209.71,122,210.61,120.22,209.56,117.76Z" fill="#108eae"/><path d="M235,104.35,240,130.93a30.7,30.7,0,0,1,8,4.35L240.8,84.79s-43.26-3.38-67.62,19.61C158.77,118,146.61,124.76,139.09,128A8.19,8.19,0,0,0,135,139.12l23.83,48.59a2.56,2.56,0,0,0,4.81-.67c1.34-7.49,4.28-18.83,10.61-28.79a13.31,13.31,0,0,1-10.29.12l1.71-5.68a9.92,9.92,0,0,0,8.51-1.11c3.1-1.91,4-3.66,2.82-5.64-1-1.68-2.39-1.87-8,0s-9.81,2.37-13-2.78c-2.91-4.74-.52-10.22,4.63-13.38a14.66,14.66,0,0,1,12-1.74l-1.52,6a9.37,9.37,0,0,0-7.59,1c-2.8,1.72-3,3.49-2.28,4.64,1,1.65,2.44,1.48,7.18-.09s10.2-3,13.69,2.7a10,10,0,0,1,1.6,4.92,40,40,0,0,1,12.41-7.2s1.05-.74,2.9-1.84l-9.62-22.49,12.32-5.27c5.32-2.27,11-1.21,13.53,4.79,2.79,6.52-.38,11.12-6.22,13.62l-6.2,2.65,1.61,3.78c7.16-3.49,18-7.36,28.93-5.87L229,105.47Z" fill="#108eae"/><path d="M168.47,139.55c-4.74,1.57-6.18,1.74-7.18.09-.71-1.15-.52-2.92,2.28-4.64a9.37,9.37,0,0,1,7.59-1l1.52-6a14.66,14.66,0,0,0-12,1.74c-5.15,3.16-7.54,8.64-4.63,13.38,3.16,5.15,7.46,4.62,13,2.78s7-1.71,8,0c1.21,2,.28,3.73-2.82,5.64a9.92,9.92,0,0,1-8.51,1.11l-1.71,5.68a13.31,13.31,0,0,0,10.29-.12,48.76,48.76,0,0,1,9.53-11.08,10,10,0,0,0-1.6-4.92C178.67,136.57,173.21,138,168.47,139.55Z" fill="#e9e9e9"/><path d="M209.08,128.78c5.84-2.5,9-7.1,6.22-13.62-2.56-6-8.21-7.06-13.53-4.79l-12.32,5.27,9.62,22.49c1.39-.83,3.23-1.86,5.42-2.92l-1.61-3.78Zm-11.65-10.07,6.49-2.78c2.49-1.06,4.58-.63,5.64,1.83s.15,4.27-2.46,5.39L200.53,126Z" fill="#e9e9e9"/><path d="M235,104.35l-6,1.12,4.42,23.87a31.89,31.89,0,0,1,6.53,1.59Z" fill="#e9e9e9"/><path d="M284.15,110.66a6.7,6.7,0,0,0-6.26-4.12c-5.28-.25-8.51,4.24-8.81,10.77-.3,6.34,2.54,11.31,7.82,11.55,3.17.15,5.09-1.12,7.09-4.15l5.77,3.8c-2.64,4.86-7,7.63-13.39,7.33-9.2-.43-15.05-7.76-14.53-18.86.5-10.71,7.28-17.85,16.48-17.42,6.63.31,10.5,3.71,12.5,8.39Z" fill="#e9e9e9"/><path d="M325.18,142.59l-.86-8.28-12.53-3-4.52,7-7.34-1.76,21.33-31.1,6.65,1.59,4.8,37.38Zm-2.36-22.09c-.21-2.17-.4-4.39-.43-5.75-.65,1.19-1.83,3.08-3,4.93l-3.69,5.68,7.83,1.88Z" fill="#e9e9e9"/><path d="M275.11,309l.87-.66A3,3,0,0,0,275.11,309Z" fill="none"/><path d="M338.46,305.59c10.52-13.26,13.09-27.37,2.71-33.17-6.6,1.21-11.69,4.18-15.29,6.29-3.95,2.32-6.79,4.31-9.15,5.47-9.15,5.47-14,5.4-28.14-16.33s-54-27.75-54-27.75L210,242.36s-22.6-.19-37,23.49c-10.14,16.66-24.87,42.76-16.92,60.34,0,0,12.66,11.2,41.91,6.85s29.58-14.81,29.58-14.81h0c-10.91-8.37-36.59-6.41-34.57-15.84,0,0-1.41-13.27,6.14-20.82,0,0,10.63,4.29,7.71,25.82.77.11,1.55.2,2.35.26,5.37.4,31.33,0,27.67,25.62-3.15,22-25.83,21.31-36.6,19.67a5.94,5.94,0,0,0-6.73,4.8c-1.74,9.45-5.47,29.14-10.25,51.2a310.66,310.66,0,0,0-6.29,54.5,9.41,9.41,0,0,0,6.52,9.24c12,3.8,26.22,3.25,37.08,1.85,0,0-5.22-75.72,18.28-89.27,7.44,14,9.3,55.17,9.69,67.18A5,5,0,0,0,252,457c14.41,4.8,30.59,3.13,40.73,1.2,0,0-13.05-86-18.74-107.06-6.68-24.78-7.57-35.1,1.16-42.15a3,3,0,0,1,.87-.66,2.69,2.69,0,0,1,3.23.64,47.82,47.82,0,0,0,19.1,13.44C298.39,322.39,325.15,322.38,338.46,305.59Z" fill="#f2f1f0"/><path d="M284.19,359.52c-3-13.84-7.19-35.21-9.68-48.27a2.65,2.65,0,0,1,.6-2.28c-8.73,7-7.84,17.37-1.16,42.15,5.69,21.1,18.74,107.06,18.74,107.06,2.25-.42,4.21-.87,5.78-1.25a5,5,0,0,0,3.79-5.45C296.83,402.45,288.69,380,284.19,359.52Z" fill="#c9c7c4"/><path d="M318.16,324.52c14.93-2.06,52.1-23.27,45.29-41.17-5.08-13.39-12.7-12.41-23.13-11.12,4.54,2.54,4.71,7.3,4.9,12.29a30.2,30.2,0,0,1-6.76,21.07c-13.31,16.79-40.07,16.8-40.15,16.8A40.76,40.76,0,0,0,318.16,324.52Z" fill="#c9c7c4"/><path d="M285.52,271.14c11.21,23.4,22.06,18.51,31.21,13-6.57,3.23-9.52,0-22.76-20.39-18-27.8-48.39-24.71-48.39-24.71l-16.51,3.74S272.9,244.77,285.52,271.14Z" fill="#c9c7c4"/><path d="M206.86,307.39h0a36.77,36.77,0,0,1-13.85-5A16.11,16.11,0,0,0,206.86,307.39Z" fill="#bfbcb3"/><path d="M199.15,281.57c-7.55,7.55-6.14,20.82-6.14,20.82a36.77,36.77,0,0,0,13.85,5C209.78,285.86,199.15,281.57,199.15,281.57Z" fill="#c9c7c4"/><path d="M198,333c-29.25,4.35-41.89-6.83-41.91-6.85,3.35,7.4,10.71,13.3,24.13,16.35,45.29,10.29,50.12.47,52-12.87a11.43,11.43,0,0,0-4.62-11.44h0S227.28,328.7,198,333Z" fill="#c9c7c4"/><path d="M220.61,474.53c5.43-.71,10-1.62,13.09-2.31a5.08,5.08,0,0,0,4-5.19c-.49-11.23-2.37-34.31-2.37-47.28,0-14.93,3.6-34.49,3.6-34.49C215.39,398.81,220.61,474.53,220.61,474.53Z" fill="#c9c7c4"/><path d="M320.26,449.79l39.59-361,3.64,1.15a4.81,4.81,0,0,1,3.35,5.1L328.22,450.11Z" fill="#f2f1f0"/><path d="M224.38,134.3a34.8,34.8,0,0,0-9.09,3,4.59,4.59,0,0,0-1.61,6.85A98.66,98.66,0,0,1,224,162a8,8,0,0,0,8.61,4.55,83.69,83.69,0,0,1,9.48-1C237.31,152.36,231,140.6,224.38,134.3Z" fill="#f2f1f0"/><path d="M241.67,233.6c-.65,0-1.31,0-2,0-24.48,0-46.62-22.35-38.38-48.6,1.67-5.33,6.3-9.55,12.41-12.68a5.14,5.14,0,0,0,1.76-7.68c-4.44-5.86-9.78-12.14-14.14-17.09a5.58,5.58,0,0,0-6.79-1.28c-15.49,8.16-26.59,22.87-25.15,45.11,2.57,39.94,35.51,55.9,65.37,52.92l4.42-.44-21.35-2.26S232,242.38,241.67,233.6Z" fill="#f2f1f0"/><path d="M251.44,159.09c-.92-5.65-2.42-12.35-4.83-17.63a7.33,7.33,0,0,0-1.76-2.43c-5.83-5.23-13.6-6-20.47-4.73,6.66,6.3,12.93,18.06,17.67,31.26,1.32-.06,2.63-.09,3.91-.09A5.5,5.5,0,0,0,251.44,159.09Z" fill="#c9c7c4"/><path d="M290.36,194.31c.25-29-12.62-42.72-27.83-49.39a3.78,3.78,0,0,0-5.23,4.1c.68,4.2,1.36,9,1.7,13.39a6.93,6.93,0,0,0,4.12,5.86,17.23,17.23,0,0,1,2.54,1.32c24.3,15.69,14.25,62.44-24,64-9.72,8.78-23.82,8-23.82,8l21.35,2.26C258.17,241.92,290,236.55,290.36,194.31Z" fill="#c9c7c4"/><path d="M149.22,239.4a33.63,33.63,0,0,0-27.85,27.85.42.42,0,0,1-.84,0A33.63,33.63,0,0,0,92.68,239.4a.42.42,0,0,1,0-.84,33.64,33.64,0,0,0,27.85-27.85.42.42,0,0,1,.84,0,33.64,33.64,0,0,0,27.85,27.85A.42.42,0,0,1,149.22,239.4Z" fill="#15bde8"/><path d="M450.5,202.65a18.26,18.26,0,0,0-15.12,15.12.23.23,0,0,1-.45,0,18.26,18.26,0,0,0-15.12-15.12.23.23,0,0,1,0-.46,18.25,18.25,0,0,0,15.12-15.11.23.23,0,0,1,.45,0,18.25,18.25,0,0,0,15.12,15.11A.23.23,0,0,1,450.5,202.65Z" fill="#f2f1f0"/><path d="M143.21,83.51a10.79,10.79,0,0,0-8.93,8.93.14.14,0,0,1-.27,0,10.79,10.79,0,0,0-8.93-8.93.14.14,0,0,1,0-.27A10.79,10.79,0,0,0,134,74.31a.14.14,0,0,1,.27,0,10.79,10.79,0,0,0,8.93,8.93A.14.14,0,0,1,143.21,83.51Z" fill="#f2f1f0"/></g></g></svg>