<svg xmlns="http://www.w3.org/2000/svg" xmlns:xlink="http://www.w3.org/1999/xlink" viewBox="0 0 892.08 520.35"><defs><linearGradient id="fa0c3e1e-d479-4f86-b6b5-3c1e4fe51bf3" x1="435.65" y1="931.11" x2="379.29" y2="574.66" gradientTransform="translate(-55.28 -337.49) rotate(3.17)" gradientUnits="userSpaceOnUse"><stop offset="0" stop-color="#15bde8"/><stop offset="0.44" stop-color="#1a709f"/><stop offset="0.82" stop-color="#1e3465"/><stop offset="1" stop-color="#201c4f"/></linearGradient><clipPath id="eb69ede0-d1a6-4654-ba74-94ad210f0ec7" transform="translate(113.52 -127.65)"><path d="M177.41,318.32c23.19-31.46,41.11-83.44,58.61-109.69,57.21-85.84,266.9-44.65,278.69,65.24S429.6,451.81,354.77,484.28s-109,38.87-169.88,36c-43.65-2.06-60.14-12.61-79.9-39C77.66,444.82,82.3,364.55,117.28,353,147.3,343,164.8,335.42,177.41,318.32Z" style="fill:none"/></clipPath><symbol id="adc15f27-6a6c-441a-bf9b-f707253a80e2" data-name="New Symbol 2" viewBox="0 0 2.33 2.33"><path d="M2.33,1.17A1.17,1.17,0,1,1,1.17,0,1.16,1.16,0,0,1,2.33,1.17Z" style="fill:#fff"/></symbol></defs><title>Untitled-1</title><g style="isolation:isolate"><g id="e2ebf0cb-0dce-4d57-8648-4f863b39eb5e" data-name="Layer 1"><path d="M175.24,357.71c-128,62-120.41-146.65-6.69-200S412.07,128.32,472,180.14s73.57,115.11,61.33,160.39C460.24,610.92,274.18,309.77,175.24,357.71Z" transform="translate(113.52 -127.65)" style="fill:#eae9e8"/><path d="M278.91,173.27c51.72-31.51,224-9.29,235.8,100.6S429.6,451.81,354.77,484.28,184.52,532.13,138.5,510.7C71.09,479.32,77,366.93,117.28,353,241.15,310.06,170.14,239.53,278.91,173.27Z" transform="translate(113.52 -127.65)" style="fill:url(#fa0c3e1e-d479-4f86-b6b5-3c1e4fe51bf3)"/><g style="clip-path:url(#eb69ede0-d1a6-4654-ba74-94ad210f0ec7)"><g style="opacity:0.25"><use width="2.33" height="2.33" transform="matrix(0.34, 0.02, 0.02, -0.37, 191.55, 459.53)" xlink:href="#adc15f27-6a6c-441a-bf9b-f707253a80e2"/><use width="2.33" height="2.33" transform="matrix(0.92, 0.05, 0.06, -0.99, 154.51, 362.18)" xlink:href="#adc15f27-6a6c-441a-bf9b-f707253a80e2"/><use width="2.33" height="2.33" transform="matrix(0.91, 0.05, 0.06, -0.98, 168.35, 337.32)" xlink:href="#adc15f27-6a6c-441a-bf9b-f707253a80e2"/><use width="2.33" height="2.33" transform="matrix(0.31, 0.02, 0.02, -0.33, 226.03, 283.8)" xlink:href="#adc15f27-6a6c-441a-bf9b-f707253a80e2"/><use width="2.33" height="2.33" transform="matrix(0.92, 0.05, 0.06, -0.99, 408.02, 338.96)" xlink:href="#adc15f27-6a6c-441a-bf9b-f707253a80e2"/><use width="2.33" height="2.33" transform="matrix(1.41, 0.08, 0.09, -1.51, 422.81, 351.28)" xlink:href="#adc15f27-6a6c-441a-bf9b-f707253a80e2"/><use width="2.33" height="2.33" transform="matrix(1.46, 0.09, 0.09, -1.57, 421.14, 286.2)" xlink:href="#adc15f27-6a6c-441a-bf9b-f707253a80e2"/><use width="2.33" height="2.33" transform="matrix(1.12, 0.07, 0.07, -1.2, 409.31, 206.84)" xlink:href="#adc15f27-6a6c-441a-bf9b-f707253a80e2"/><use width="2.33" height="2.33" transform="matrix(1.25, 0.07, 0.08, -1.34, 320.44, 168.6)" xlink:href="#adc15f27-6a6c-441a-bf9b-f707253a80e2"/><use width="2.33" height="2.33" transform="matrix(0.81, 0.05, 0.05, -0.87, 300.45, 145.92)" xlink:href="#adc15f27-6a6c-441a-bf9b-f707253a80e2"/><use width="2.33" height="2.33" transform="matrix(0.91, 0.05, 0.06, -0.98, 313.89, 130.58)" xlink:href="#adc15f27-6a6c-441a-bf9b-f707253a80e2"/><use width="2.33" height="2.33" transform="matrix(1.31, 0.08, 0.08, -1.4, 346.49, 160.66)" xlink:href="#adc15f27-6a6c-441a-bf9b-f707253a80e2"/><use width="2.33" height="2.33" transform="matrix(1.15, 0.07, 0.07, -1.23, 398.93, 156.13)" xlink:href="#adc15f27-6a6c-441a-bf9b-f707253a80e2"/><use width="2.33" height="2.33" transform="matrix(0.84, 0.05, 0.05, -0.9, 497.35, 127.13)" xlink:href="#adc15f27-6a6c-441a-bf9b-f707253a80e2"/><use width="2.33" height="2.33" transform="matrix(0.91, 0.05, 0.06, -0.98, 529.5, 115.08)" xlink:href="#adc15f27-6a6c-441a-bf9b-f707253a80e2"/><use width="2.33" height="2.33" transform="matrix(0.95, 0.06, 0.06, -1.02, 547.54, 92.66)" xlink:href="#adc15f27-6a6c-441a-bf9b-f707253a80e2"/><use width="2.33" height="2.33" transform="matrix(0.93, 0.06, 0.06, -1, 583.8, 87.01)" xlink:href="#adc15f27-6a6c-441a-bf9b-f707253a80e2"/><use width="2.33" height="2.33" transform="matrix(0.87, 0.05, 0.05, -0.93, 563.98, 129.41)" xlink:href="#adc15f27-6a6c-441a-bf9b-f707253a80e2"/><use width="2.33" height="2.33" transform="matrix(1.35, 0.08, 0.08, -1.45, 534.14, 202.06)" xlink:href="#adc15f27-6a6c-441a-bf9b-f707253a80e2"/><use width="2.33" height="2.33" transform="matrix(1.5, 0.09, 0.09, -1.62, 544.06, 257.45)" xlink:href="#adc15f27-6a6c-441a-bf9b-f707253a80e2"/><use width="2.33" height="2.33" transform="matrix(0.95, 0.06, 0.06, -1.02, 535.81, 297.51)" xlink:href="#adc15f27-6a6c-441a-bf9b-f707253a80e2"/><use width="2.33" height="2.33" transform="matrix(0.56, 0.03, 0.03, -0.61, 652.39, 334.02)" xlink:href="#adc15f27-6a6c-441a-bf9b-f707253a80e2"/><use width="2.33" height="2.33" transform="matrix(0.54, 0.03, 0.03, -0.58, 601.73, 410.74)" xlink:href="#adc15f27-6a6c-441a-bf9b-f707253a80e2"/><use width="2.33" height="2.33" transform="matrix(1.14, 0.07, 0.07, -1.22, 666.77, 469.76)" xlink:href="#adc15f27-6a6c-441a-bf9b-f707253a80e2"/><use width="2.33" height="2.33" transform="matrix(1.1, 0.07, 0.07, -1.18, 747.01, 481.64)" xlink:href="#adc15f27-6a6c-441a-bf9b-f707253a80e2"/><use width="2.33" height="2.33" transform="matrix(0.76, 0.05, 0.05, -0.81, 773.36, 391.5)" xlink:href="#adc15f27-6a6c-441a-bf9b-f707253a80e2"/><use width="2.33" height="2.33" transform="matrix(1.02, 0.06, 0.06, -1.09, 823.56, 345.58)" xlink:href="#adc15f27-6a6c-441a-bf9b-f707253a80e2"/><use width="2.33" height="2.33" transform="matrix(0.75, 0.04, 0.05, -0.81, 874.12, 348.16)" xlink:href="#adc15f27-6a6c-441a-bf9b-f707253a80e2"/><use width="2.33" height="2.33" transform="matrix(0.66, 0.04, 0.04, -0.71, 867.24, 386.68)" xlink:href="#adc15f27-6a6c-441a-bf9b-f707253a80e2"/><use width="2.33" height="2.33" transform="matrix(0.48, 0.03, 0.03, -0.52, 822.53, 447.15)" xlink:href="#adc15f27-6a6c-441a-bf9b-f707253a80e2"/><use width="2.33" height="2.33" transform="matrix(0.63, 0.04, 0.04, -0.67, 800.53, 499.33)" xlink:href="#adc15f27-6a6c-441a-bf9b-f707253a80e2"/><use width="2.33" height="2.33" transform="matrix(1.53, 0.09, 0.09, -1.64, 694.67, 520.24)" xlink:href="#adc15f27-6a6c-441a-bf9b-f707253a80e2"/><use width="2.33" height="2.33" transform="matrix(1.29, 0.08, 0.08, -1.38, 662.85, 496.51)" xlink:href="#adc15f27-6a6c-441a-bf9b-f707253a80e2"/><use width="2.33" height="2.33" transform="matrix(0.62, 0.04, 0.04, -0.67, 600.22, 430.79)" xlink:href="#adc15f27-6a6c-441a-bf9b-f707253a80e2"/><use width="2.33" height="2.33" transform="matrix(1.11, 0.07, 0.07, -1.19, 463.28, 380.12)" xlink:href="#adc15f27-6a6c-441a-bf9b-f707253a80e2"/><use width="2.33" height="2.33" transform="matrix(1.16, 0.07, 0.07, -1.24, 375.42, 450.69)" xlink:href="#adc15f27-6a6c-441a-bf9b-f707253a80e2"/><use width="2.33" height="2.33" transform="matrix(0.93, 0.06, 0.06, -1, 265.89, 436.36)" xlink:href="#adc15f27-6a6c-441a-bf9b-f707253a80e2"/><use width="2.33" height="2.33" transform="matrix(0.79, 0.05, 0.05, -0.84, 362.44, 399.34)" xlink:href="#adc15f27-6a6c-441a-bf9b-f707253a80e2"/><use width="2.33" height="2.33" transform="matrix(0.72, 0.04, 0.04, -0.78, 350.78, 370.53)" xlink:href="#adc15f27-6a6c-441a-bf9b-f707253a80e2"/><use width="2.33" height="2.33" transform="matrix(0.76, 0.04, 0.05, -0.81, 422.46, 441.05)" xlink:href="#adc15f27-6a6c-441a-bf9b-f707253a80e2"/><use width="2.33" height="2.33" transform="matrix(0.57, 0.03, 0.04, -0.62, 559.61, 396.57)" xlink:href="#adc15f27-6a6c-441a-bf9b-f707253a80e2"/><use width="2.33" height="2.33" transform="matrix(0.49, 0.03, 0.03, -0.53, 660.96, 351.08)" xlink:href="#adc15f27-6a6c-441a-bf9b-f707253a80e2"/><use width="2.33" height="2.33" transform="matrix(0.66, 0.04, 0.04, -0.71, 606.36, 329.44)" xlink:href="#adc15f27-6a6c-441a-bf9b-f707253a80e2"/><use width="2.33" height="2.33" transform="matrix(0.73, 0.04, 0.05, -0.78, 611.66, 320.48)" xlink:href="#adc15f27-6a6c-441a-bf9b-f707253a80e2"/><use width="2.33" height="2.33" transform="matrix(0.75, 0.04, 0.05, -0.8, 660.79, 313.05)" xlink:href="#adc15f27-6a6c-441a-bf9b-f707253a80e2"/><use width="2.33" height="2.33" transform="matrix(0.73, 0.04, 0.05, -0.78, 647.57, 312.37)" xlink:href="#adc15f27-6a6c-441a-bf9b-f707253a80e2"/><use width="2.33" height="2.33" transform="matrix(1.49, 0.09, 0.09, -1.6, 518.01, 256.68)" xlink:href="#adc15f27-6a6c-441a-bf9b-f707253a80e2"/><use width="2.33" height="2.33" transform="matrix(0.67, 0.04, 0.04, -0.72, 376.59, 246.1)" xlink:href="#adc15f27-6a6c-441a-bf9b-f707253a80e2"/><use width="2.33" height="2.33" transform="matrix(0.48, 0.03, 0.03, -0.52, 350.83, 318.04)" xlink:href="#adc15f27-6a6c-441a-bf9b-f707253a80e2"/><use width="2.33" height="2.33" transform="matrix(0.77, 0.05, 0.05, -0.82, 193.45, 435.59)" xlink:href="#adc15f27-6a6c-441a-bf9b-f707253a80e2"/><use width="2.33" height="2.33" transform="matrix(0.55, 0.03, 0.03, -0.59, 182.87, 477.17)" xlink:href="#adc15f27-6a6c-441a-bf9b-f707253a80e2"/><use width="2.33" height="2.33" transform="matrix(0.65, 0.04, 0.04, -0.7, 141.73, 456.39)" xlink:href="#adc15f27-6a6c-441a-bf9b-f707253a80e2"/><use width="2.33" height="2.33" transform="matrix(1.11, 0.07, 0.07, -1.19, 157.59, 479.3)" xlink:href="#adc15f27-6a6c-441a-bf9b-f707253a80e2"/><use width="2.33" height="2.33" transform="matrix(0.96, 0.06, 0.06, -1.03, 405.31, 426.3)" xlink:href="#adc15f27-6a6c-441a-bf9b-f707253a80e2"/><use width="2.33" height="2.33" transform="matrix(0.59, 0.04, 0.04, -0.64, 84.73, 354.42)" xlink:href="#adc15f27-6a6c-441a-bf9b-f707253a80e2"/><use width="2.33" height="2.33" transform="matrix(0.72, 0.04, 0.04, -0.77, 72.87, 350.21)" xlink:href="#adc15f27-6a6c-441a-bf9b-f707253a80e2"/><use width="2.33" height="2.33" transform="matrix(0.99, 0.06, 0.06, -1.07, 54.71, 345.99)" xlink:href="#adc15f27-6a6c-441a-bf9b-f707253a80e2"/><use width="2.33" height="2.33" transform="matrix(1.24, 0.07, 0.08, -1.33, 199.8, 318.9)" xlink:href="#adc15f27-6a6c-441a-bf9b-f707253a80e2"/><use width="2.33" height="2.33" transform="matrix(1.39, 0.08, 0.09, -1.49, 188.29, 298.3)" xlink:href="#adc15f27-6a6c-441a-bf9b-f707253a80e2"/><use width="2.33" height="2.33" transform="matrix(1.16, 0.07, 0.07, -1.24, 271.16, 312.59)" xlink:href="#adc15f27-6a6c-441a-bf9b-f707253a80e2"/><use width="2.33" height="2.33" transform="matrix(0.99, 0.06, 0.06, -1.06, 158.8, 332.14)" xlink:href="#adc15f27-6a6c-441a-bf9b-f707253a80e2"/><use width="2.33" height="2.33" transform="matrix(0.83, 0.05, 0.05, -0.89, 70.08, 327.9)" xlink:href="#adc15f27-6a6c-441a-bf9b-f707253a80e2"/><use width="2.33" height="2.33" transform="matrix(0.66, 0.04, 0.04, -0.71, 116.38, 367.22)" xlink:href="#adc15f27-6a6c-441a-bf9b-f707253a80e2"/><use width="2.33" height="2.33" transform="matrix(0.61, 0.04, 0.04, -0.66, 25.52, 364.34)" xlink:href="#adc15f27-6a6c-441a-bf9b-f707253a80e2"/><use width="2.33" height="2.33" transform="matrix(0.57, 0.03, 0.04, -0.61, 5.31, 369.64)" xlink:href="#adc15f27-6a6c-441a-bf9b-f707253a80e2"/><use width="2.33" height="2.33" transform="matrix(0.47, 0.03, 0.03, -0.5, 21.18, 372.08)" xlink:href="#adc15f27-6a6c-441a-bf9b-f707253a80e2"/><use width="2.33" height="2.33" transform="matrix(0.34, 0.02, 0.02, -0.37, 197.61, 423.74)" xlink:href="#adc15f27-6a6c-441a-bf9b-f707253a80e2"/><use width="2.33" height="2.33" transform="matrix(0.48, 0.03, 0.03, -0.51, 99.78, 363.37)" xlink:href="#adc15f27-6a6c-441a-bf9b-f707253a80e2"/><use width="2.33" height="2.33" transform="matrix(1.17, 0.07, 0.07, -1.26, 302.98, 308.66)" xlink:href="#adc15f27-6a6c-441a-bf9b-f707253a80e2"/><use width="2.33" height="2.33" transform="matrix(1.14, 0.07, 0.07, -1.23, 266.36, 220.89)" xlink:href="#adc15f27-6a6c-441a-bf9b-f707253a80e2"/><use width="2.33" height="2.33" transform="matrix(0.93, 0.06, 0.06, -1, 285.55, 200.62)" xlink:href="#adc15f27-6a6c-441a-bf9b-f707253a80e2"/><use width="2.33" height="2.33" transform="matrix(0.54, 0.03, 0.03, -0.58, 299.07, 219.19)" xlink:href="#adc15f27-6a6c-441a-bf9b-f707253a80e2"/><use width="2.33" height="2.33" transform="matrix(1.19, 0.07, 0.07, -1.27, 317.02, 214.16)" xlink:href="#adc15f27-6a6c-441a-bf9b-f707253a80e2"/><use width="2.33" height="2.33" transform="matrix(1.45, 0.09, 0.09, -1.56, 349.25, 171.15)" xlink:href="#adc15f27-6a6c-441a-bf9b-f707253a80e2"/><use width="2.33" height="2.33" transform="matrix(0.98, 0.06, 0.06, -1.05, 391, 132.79)" xlink:href="#adc15f27-6a6c-441a-bf9b-f707253a80e2"/><use width="2.33" height="2.33" transform="matrix(0.89, 0.05, 0.06, -0.96, 470.02, 143.07)" xlink:href="#adc15f27-6a6c-441a-bf9b-f707253a80e2"/><use width="2.33" height="2.33" transform="matrix(0.9, 0.05, 0.06, -0.97, 484.31, 142.81)" xlink:href="#adc15f27-6a6c-441a-bf9b-f707253a80e2"/><use width="2.33" height="2.33" transform="matrix(1, 0.06, 0.06, -1.08, 542.9, 131.65)" xlink:href="#adc15f27-6a6c-441a-bf9b-f707253a80e2"/><use width="2.33" height="2.33" transform="matrix(0.98, 0.06, 0.06, -1.06, 552.68, 102.9)" xlink:href="#adc15f27-6a6c-441a-bf9b-f707253a80e2"/><use width="2.33" height="2.33" transform="matrix(1.03, 0.06, 0.06, -1.11, 563.55, 79.04)" xlink:href="#adc15f27-6a6c-441a-bf9b-f707253a80e2"/><use width="2.33" height="2.33" transform="matrix(0.99, 0.06, 0.06, -1.06, 594.88, 74.91)" xlink:href="#adc15f27-6a6c-441a-bf9b-f707253a80e2"/><use width="2.33" height="2.33" transform="matrix(1.04, 0.06, 0.06, -1.11, 600.07, 69.38)" xlink:href="#adc15f27-6a6c-441a-bf9b-f707253a80e2"/><use width="2.33" height="2.33" transform="matrix(1.15, 0.07, 0.07, -1.23, 600.72, 59.43)" xlink:href="#adc15f27-6a6c-441a-bf9b-f707253a80e2"/><use width="2.33" height="2.33" transform="matrix(1.31, 0.08, 0.08, -1.4, 511.27, 203.43)" xlink:href="#adc15f27-6a6c-441a-bf9b-f707253a80e2"/><use width="2.33" height="2.33" transform="matrix(1.14, 0.07, 0.07, -1.23, 380, 203.5)" xlink:href="#adc15f27-6a6c-441a-bf9b-f707253a80e2"/><use width="2.33" height="2.33" transform="matrix(0.5, 0.03, 0.03, -0.54, 279.34, 250.77)" xlink:href="#adc15f27-6a6c-441a-bf9b-f707253a80e2"/><use width="2.33" height="2.33" transform="matrix(0.3, 0.02, 0.02, -0.32, 238.52, 285.51)" xlink:href="#adc15f27-6a6c-441a-bf9b-f707253a80e2"/><use width="2.33" height="2.33" transform="matrix(0.41, 0.02, 0.03, -0.44, 318.97, 296.47)" xlink:href="#adc15f27-6a6c-441a-bf9b-f707253a80e2"/><use width="2.33" height="2.33" transform="matrix(0.6, 0.04, 0.04, -0.64, 392.83, 342.35)" xlink:href="#adc15f27-6a6c-441a-bf9b-f707253a80e2"/><use width="2.33" height="2.33" transform="matrix(0.89, 0.05, 0.05, -0.95, 264.88, 425.18)" xlink:href="#adc15f27-6a6c-441a-bf9b-f707253a80e2"/><use width="2.33" height="2.33" transform="matrix(1.44, 0.09, 0.09, -1.54, 242.83, 457.49)" xlink:href="#adc15f27-6a6c-441a-bf9b-f707253a80e2"/><use width="2.33" height="2.33" transform="matrix(1.53, 0.09, 0.09, -1.64, 220.52, 464.26)" xlink:href="#adc15f27-6a6c-441a-bf9b-f707253a80e2"/><use width="2.33" height="2.33" transform="matrix(0.97, 0.06, 0.06, -1.04, 151.51, 483.67)" xlink:href="#adc15f27-6a6c-441a-bf9b-f707253a80e2"/><use width="2.33" height="2.33" transform="matrix(0.98, 0.06, 0.06, -1.05, 133.86, 473.18)" xlink:href="#adc15f27-6a6c-441a-bf9b-f707253a80e2"/><use width="2.33" height="2.33" transform="matrix(1.12, 0.07, 0.07, -1.2, 67.3, 442.49)" xlink:href="#adc15f27-6a6c-441a-bf9b-f707253a80e2"/><use width="2.33" height="2.33" transform="matrix(0.83, 0.05, 0.05, -0.89, 68.73, 427.3)" xlink:href="#adc15f27-6a6c-441a-bf9b-f707253a80e2"/><use width="2.33" height="2.33" transform="matrix(0.62, 0.04, 0.04, -0.67, 82.23, 424.15)" xlink:href="#adc15f27-6a6c-441a-bf9b-f707253a80e2"/><use width="2.33" height="2.33" transform="matrix(0.55, 0.03, 0.03, -0.59, 52.41, 414.85)" xlink:href="#adc15f27-6a6c-441a-bf9b-f707253a80e2"/><use width="2.33" height="2.33" transform="matrix(0.51, 0.03, 0.03, -0.55, 45.1, 422.21)" xlink:href="#adc15f27-6a6c-441a-bf9b-f707253a80e2"/><use width="2.33" height="2.33" transform="matrix(0.55, 0.03, 0.03, -0.59, 43.99, 439.06)" xlink:href="#adc15f27-6a6c-441a-bf9b-f707253a80e2"/><use width="2.33" height="2.33" transform="matrix(0.64, 0.04, 0.04, -0.69, 28.61, 455.15)" xlink:href="#adc15f27-6a6c-441a-bf9b-f707253a80e2"/><use width="2.33" height="2.33" transform="matrix(0.7, 0.04, 0.04, -0.75, 13.34, 464.83)" xlink:href="#adc15f27-6a6c-441a-bf9b-f707253a80e2"/><use width="2.33" height="2.33" transform="matrix(0.74, 0.04, 0.05, -0.79, 34.96, 448.47)" xlink:href="#adc15f27-6a6c-441a-bf9b-f707253a80e2"/><use width="2.33" height="2.33" transform="matrix(0.83, 0.05, 0.05, -0.89, -0.06, 450.81)" xlink:href="#adc15f27-6a6c-441a-bf9b-f707253a80e2"/><use width="2.33" height="2.33" transform="matrix(0.39, 0.02, 0.02, -0.42, 14.67, 406.13)" xlink:href="#adc15f27-6a6c-441a-bf9b-f707253a80e2"/><use width="2.33" height="2.33" transform="matrix(0.56, 0.03, 0.03, -0.6, 108.61, 366.31)" xlink:href="#adc15f27-6a6c-441a-bf9b-f707253a80e2"/><use width="2.33" height="2.33" transform="matrix(0.81, 0.05, 0.05, -0.87, 260.25, 235.19)" xlink:href="#adc15f27-6a6c-441a-bf9b-f707253a80e2"/><use width="2.33" height="2.33" transform="matrix(0.79, 0.05, 0.05, -0.84, 296.77, 177.66)" xlink:href="#adc15f27-6a6c-441a-bf9b-f707253a80e2"/><use width="2.33" height="2.33" transform="matrix(1.04, 0.06, 0.06, -1.12, 353.45, 141.9)" xlink:href="#adc15f27-6a6c-441a-bf9b-f707253a80e2"/><use width="2.33" height="2.33" transform="matrix(0.68, 0.04, 0.04, -0.74, 474.29, 102.33)" xlink:href="#adc15f27-6a6c-441a-bf9b-f707253a80e2"/><use width="2.33" height="2.33" transform="matrix(0.77, 0.05, 0.05, -0.82, 522.48, 63.45)" xlink:href="#adc15f27-6a6c-441a-bf9b-f707253a80e2"/><use width="2.33" height="2.33" transform="matrix(1.13, 0.07, 0.07, -1.21, 572.14, 29.51)" xlink:href="#adc15f27-6a6c-441a-bf9b-f707253a80e2"/><use width="2.33" height="2.33" transform="matrix(1.21, 0.07, 0.07, -1.29, 582.24, 30.55)" xlink:href="#adc15f27-6a6c-441a-bf9b-f707253a80e2"/><use width="2.33" height="2.33" transform="matrix(1.27, 0.08, 0.08, -1.36, 589.36, 30.25)" xlink:href="#adc15f27-6a6c-441a-bf9b-f707253a80e2"/><use width="2.33" height="2.33" transform="matrix(0.94, 0.06, 0.06, -1.01, 818.42, 114.27)" xlink:href="#adc15f27-6a6c-441a-bf9b-f707253a80e2"/><use width="2.33" height="2.33" transform="matrix(0.93, 0.06, 0.06, -1, 818.98, 121.35)" xlink:href="#adc15f27-6a6c-441a-bf9b-f707253a80e2"/><use width="2.33" height="2.33" transform="matrix(0.88, 0.05, 0.05, -0.94, 856.24, 141.47)" xlink:href="#adc15f27-6a6c-441a-bf9b-f707253a80e2"/><use width="2.33" height="2.33" transform="matrix(0.69, 0.04, 0.04, -0.74, 883.79, 142.58)" xlink:href="#adc15f27-6a6c-441a-bf9b-f707253a80e2"/><use width="2.33" height="2.33" transform="matrix(0.67, 0.04, 0.04, -0.72, 890.47, 115.07)" xlink:href="#adc15f27-6a6c-441a-bf9b-f707253a80e2"/><use width="2.33" height="2.33" transform="matrix(0.67, 0.04, 0.04, -0.72, 875.74, 84.92)" xlink:href="#adc15f27-6a6c-441a-bf9b-f707253a80e2"/><use width="2.33" height="2.33" transform="matrix(0.77, 0.05, 0.05, -0.82, 855.29, 85.94)" xlink:href="#adc15f27-6a6c-441a-bf9b-f707253a80e2"/><use width="2.33" height="2.33" transform="matrix(0.83, 0.05, 0.05, -0.89, 843.78, 85.2)" xlink:href="#adc15f27-6a6c-441a-bf9b-f707253a80e2"/><use width="2.33" height="2.33" transform="matrix(0.87, 0.05, 0.05, -0.93, 839.57, 90.72)" xlink:href="#adc15f27-6a6c-441a-bf9b-f707253a80e2"/><use width="2.33" height="2.33" transform="matrix(0.89, 0.05, 0.05, -0.95, 833.23, 41.12)" xlink:href="#adc15f27-6a6c-441a-bf9b-f707253a80e2"/><use width="2.33" height="2.33" transform="matrix(0.9, 0.05, 0.06, -0.97, 830.1, 46.5)" xlink:href="#adc15f27-6a6c-441a-bf9b-f707253a80e2"/><use width="2.33" height="2.33" transform="matrix(0.79, 0.05, 0.05, -0.85, 847.77, 49.16)" xlink:href="#adc15f27-6a6c-441a-bf9b-f707253a80e2"/><use width="2.33" height="2.33" transform="matrix(0.75, 0.04, 0.05, -0.8, 853.74, 56.53)" xlink:href="#adc15f27-6a6c-441a-bf9b-f707253a80e2"/><use width="2.33" height="2.33" transform="matrix(0.69, 0.04, 0.04, -0.74, 395.5, 228.69)" xlink:href="#adc15f27-6a6c-441a-bf9b-f707253a80e2"/><use width="2.33" height="2.33" transform="matrix(0.41, 0.02, 0.03, -0.44, 273.63, 250.79)" xlink:href="#adc15f27-6a6c-441a-bf9b-f707253a80e2"/><use width="2.33" height="2.33" transform="matrix(0.46, 0.03, 0.03, -0.49, 241.54, 298.55)" xlink:href="#adc15f27-6a6c-441a-bf9b-f707253a80e2"/><use width="2.33" height="2.33" transform="matrix(0.88, 0.05, 0.05, -0.95, 181.53, 324.87)" xlink:href="#adc15f27-6a6c-441a-bf9b-f707253a80e2"/><use width="2.33" height="2.33" transform="matrix(0.68, 0.04, 0.04, -0.73, 254.48, 302.93)" xlink:href="#adc15f27-6a6c-441a-bf9b-f707253a80e2"/><use width="2.33" height="2.33" transform="matrix(0.49, 0.03, 0.03, -0.53, 215.81, 289.31)" xlink:href="#adc15f27-6a6c-441a-bf9b-f707253a80e2"/><use width="2.33" height="2.33" transform="matrix(0.59, 0.04, 0.04, -0.64, 328.75, 314.44)" xlink:href="#adc15f27-6a6c-441a-bf9b-f707253a80e2"/><use width="2.33" height="2.33" transform="matrix(0.75, 0.04, 0.05, -0.81, 293.3, 334.57)" xlink:href="#adc15f27-6a6c-441a-bf9b-f707253a80e2"/><use width="2.33" height="2.33" transform="matrix(0.8, 0.05, 0.05, -0.85, 237.99, 337.63)" xlink:href="#adc15f27-6a6c-441a-bf9b-f707253a80e2"/><use width="2.33" height="2.33" transform="matrix(0.85, 0.05, 0.05, -0.92, 172.68, 344.38)" xlink:href="#adc15f27-6a6c-441a-bf9b-f707253a80e2"/><use width="2.33" height="2.33" transform="matrix(0.64, 0.04, 0.04, -0.69, 157.4, 378.5)" xlink:href="#adc15f27-6a6c-441a-bf9b-f707253a80e2"/><use width="2.33" height="2.33" transform="matrix(0.45, 0.03, 0.03, -0.49, 147.07, 388.86)" xlink:href="#adc15f27-6a6c-441a-bf9b-f707253a80e2"/><use width="2.33" height="2.33" transform="matrix(0.48, 0.03, 0.03, -0.52, 182.74, 384.34)" xlink:href="#adc15f27-6a6c-441a-bf9b-f707253a80e2"/></g></g><path d="M368.88,537.47C266,528.39,163.06,564.11,163.06,564.11c-64.16,23-1.21,45.8,73.25,35.51,41.54-5.74,42.5,1.76,84.57,14,52.84,10,88.53-7.06,100.79-13.44,10.53-5.49,45.08-19.82,55-21.27C511.75,573.79,471.79,546.55,368.88,537.47Z" transform="translate(113.52 -127.65)" style="fill:#2da1bc"/><path d="M188.87,572.28s30-14.76,64.42-20.34,97-6.4,124.23,0c33.23,7.81,38.14,47.16-58.79,43.5-40.39-1.52-61.4-17.52-100.09-12.65S173.75,578.75,188.87,572.28Z" transform="translate(113.52 -127.65)" style="fill:#3eacce"/><path d="M253.29,571.73s25.2,8.22,68.78-2.76,61.08-4.12,79.61-10.64A299.54,299.54,0,0,1,439,548.18s-61.29-12.5-87-11.81c0,0-64.17,13.38-77.89,16.12S253.29,571.73,253.29,571.73Z" transform="translate(113.52 -127.65)" style="fill:#cfcfce;mix-blend-mode:multiply"/><path d="M283.74,274.86a20.51,20.51,0,0,0-5.33,6,3,3,0,0,0-.13,3c1.78,3.4,6.45,11.68,11,13.78s8.59-9.66,5-20C292.75,273.22,288.39,271.74,283.74,274.86Z" transform="translate(113.52 -127.65)" style="fill:#f2f1f0"/><path d="M276.67,290.6a2.19,2.19,0,0,0-3.83,1.17,7.19,7.19,0,0,0,1.61,5.86,9.38,9.38,0,0,0,3.3,2.36,2.2,2.2,0,0,0,2.85-3A30.64,30.64,0,0,0,276.67,290.6Z" transform="translate(113.52 -127.65)" style="fill:#f2f1f0"/><path d="M339.93,406.72c.28-.22.56-.44.86-.66A2.78,2.78,0,0,0,339.93,406.72Z" transform="translate(113.52 -127.65)" style="fill:none"/><path d="M403.28,403.34C413.8,390.07,416.36,376,406,370.17c-6.61,1.21-11.69,4.18-15.3,6.29-3.95,2.32-6.78,4.31-9.15,5.47-9.15,5.47-14,5.4-28.13-16.33s-54-27.75-54-27.75l-24.54,2.26s-22.59-.19-37,23.48c-10.14,16.67-24.87,42.77-16.92,60.35,0,0,12.66,11.2,41.92,6.85S292.4,416,292.4,416h0c-10.91-8.38-36.59-6.41-34.57-15.84,0,0-1.42-13.27,6.13-20.82,0,0,10.63,4.29,7.72,25.82.76.11,1.54.2,2.35.26,5.37.39,31.32,0,27.66,25.62-3.15,22-25.82,21.3-36.59,19.67a5.93,5.93,0,0,0-6.73,4.79c-1.74,9.46-5.47,29.15-10.25,51.21s-6,44-6.3,54.5a9.39,9.39,0,0,0,6.52,9.23c12,3.81,26.22,3.26,37.08,1.86,0,0-5.22-75.72,18.29-89.27,7.44,14,9.3,55.17,9.69,67.18a4.94,4.94,0,0,0,3.37,4.54c14.42,4.79,30.6,3.13,40.74,1.2,0,0-13.06-86-18.74-107.06-6.68-24.78-7.57-35.1,1.16-42.15a2.78,2.78,0,0,1,.86-.66,2.67,2.67,0,0,1,3.23.64,48,48,0,0,0,19.1,13.44C363.21,420.14,390,420.13,403.28,403.34Z" transform="translate(113.52 -127.65)" style="fill:#f2f1f0"/><path d="M349,457.27c-3-13.84-7.18-35.21-9.67-48.28a2.6,2.6,0,0,1,.6-2.27c-8.73,7-7.84,17.37-1.16,42.15,5.68,21.1,18.74,107.06,18.74,107.06,2.25-.43,4.2-.87,5.77-1.25a5,5,0,0,0,3.79-5.45C361.65,500.19,353.51,477.79,349,457.27Z" transform="translate(113.52 -127.65)" style="fill:#c9c7c4"/><path d="M383,422.27c14.93-2.06,52.1-23.27,45.3-41.18-5.09-13.38-12.7-12.41-23.13-11.11,4.54,2.53,4.71,7.29,4.89,12.29a30.19,30.19,0,0,1-6.75,21.07c-13.32,16.79-40.07,16.8-40.16,16.8A40.89,40.89,0,0,0,383,422.27Z" transform="translate(113.52 -127.65)" style="fill:#c9c7c4"/><path d="M350.34,368.89c11.2,23.4,22.05,18.51,31.2,13-6.56,3.23-9.51,0-22.76-20.39-18-27.8-48.38-24.71-48.38-24.71l-16.51,3.74S337.72,342.52,350.34,368.89Z" transform="translate(113.52 -127.65)" style="fill:#c9c7c4"/><path d="M271.68,405.14h0a36.68,36.68,0,0,1-13.85-5A16.14,16.14,0,0,0,271.68,405.14Z" transform="translate(113.52 -127.65)" style="fill:#bfbcb3"/><path d="M264,379.32c-7.55,7.55-6.13,20.82-6.13,20.82a36.68,36.68,0,0,0,13.85,5C274.59,383.61,264,379.32,264,379.32Z" transform="translate(113.52 -127.65)" style="fill:#c9c7c4"/><path d="M262.82,430.79c-29.26,4.35-41.89-6.83-41.92-6.85,3.35,7.4,10.71,13.3,24.13,16.35,45.3,10.29,50.13.47,52-12.87A11.44,11.44,0,0,0,292.4,416h0S292.1,426.45,262.82,430.79Z" transform="translate(113.52 -127.65)" style="fill:#c9c7c4"/><path d="M285.42,572.28c5.43-.71,10-1.62,13.09-2.31a5.1,5.1,0,0,0,4-5.19c-.5-11.23-2.38-34.31-2.38-47.29,0-14.92,3.61-34.48,3.61-34.48C280.2,496.56,285.42,572.27,285.42,572.28Z" transform="translate(113.52 -127.65)" style="fill:#c9c7c4"/><path d="M289.2,232.05a34.55,34.55,0,0,0-9.09,3,4.58,4.58,0,0,0-1.61,6.85,97.66,97.66,0,0,1,10.27,17.81,8,8,0,0,0,8.61,4.55,86,86,0,0,1,9.49-1C302.12,250.11,295.86,238.34,289.2,232.05Z" transform="translate(113.52 -127.65)" style="fill:#f2f1f0"/><path d="M306.48,331.35c-.65,0-1.3,0-2,0-24.48,0-46.61-22.36-38.38-48.61,1.67-5.32,6.31-9.54,12.42-12.67a5.15,5.15,0,0,0,1.76-7.68c-4.44-5.86-9.79-12.15-14.14-17.09a5.59,5.59,0,0,0-6.8-1.28c-15.48,8.16-26.58,22.87-25.15,45.11,2.58,39.94,35.52,55.89,65.37,52.92l4.43-.44-21.35-2.27S296.77,340.13,306.48,331.35Z" transform="translate(113.52 -127.65)" style="fill:#f2f1f0"/><path d="M316.26,256.84c-.92-5.65-2.43-12.36-4.83-17.63a7.12,7.12,0,0,0-1.77-2.43c-5.82-5.23-13.59-6-20.46-4.73,6.66,6.29,12.92,18.06,17.67,31.25,1.32-.06,2.62-.09,3.9-.08A5.51,5.51,0,0,0,316.26,256.84Z" transform="translate(113.52 -127.65)" style="fill:#c9c7c4"/><path d="M355.18,292.06c.24-29-12.62-42.72-27.83-49.4a3.79,3.79,0,0,0-5.24,4.1c.69,4.2,1.37,9.06,1.7,13.39a6.93,6.93,0,0,0,4.13,5.87,17.62,17.62,0,0,1,2.53,1.32c24.3,15.69,14.26,62.44-24,64-9.71,8.78-23.81,8-23.81,8L304,341.65C323,339.66,354.82,334.29,355.18,292.06Z" transform="translate(113.52 -127.65)" style="fill:#c9c7c4"/><path d="M253.39,481.33s15.56-4.69,38.38-14c23.9-9.76,28.74-13.39,28.74-13.39L317,427.13l-21,13.24Z" transform="translate(113.52 -127.65)" style="fill:#c9c7c4"/><path d="M257.83,400.14s18.51-13.68,31.37-27.43c0,0,25.28,24.36,35.78,60.09,0,0-32.76,41.31-83.35,52.1,0,0-7.42-31.07-14-52.33,0,0,12.68,7.8,25.68,9.27,10.64,1.21,28.38,3.74,36.3-.67,4.69-2.6,10.1-15.78,5.51-22.4s-19.81-8.34-27-10.83S257.21,405.5,257.83,400.14Z" transform="translate(113.52 -127.65)" style="fill:#f26351"/><path d="M307.68,409.21c-3-5.65-6.49-11.07-9.95-16.47-1.76-2.74-3.47-6.26-5.51-9.36-9.05,9.11-19.46,17.5-31.29,22.4,1.63.7,3.81,1.28,6.7,2.28,7.21,2.49,22.93,4.09,27.51,10.71s-.82,19.8-5.51,22.4c-7.92,4.41-25.66,1.88-36.3.67A63.36,63.36,0,0,1,235,436.36c3.84,13.48,8.9,26.66,12,40.27,12.49-5,24.74-9.78,36.09-17.57a181,181,0,0,0,32.59-29.22A98.71,98.71,0,0,0,307.68,409.21Z" transform="translate(113.52 -127.65)" style="fill:#f2f1f0"/><path d="M294.32,393.92l9.39-7.46s11.57,16.39,15,24.76c0,0-8.31,7.54-10.1,9.49C308.63,420.71,297.15,396.43,294.32,393.92Z" transform="translate(113.52 -127.65)" style="fill:#c9c7c4"/><ellipse cx="256.05" cy="457.55" rx="6.7" ry="7.81" transform="matrix(0.99, -0.11, 0.11, 0.99, 65.28, -97.1)" style="fill:#c9c7c4"/><path d="M409.54,345l6.12,75.1-2,3.23-2.4-3-6.74-58L402,347.5S402.56,343.8,409.54,345Z" transform="translate(113.52 -127.65)" style="fill:#c9c7c4"/><polygon points="519.99 221.05 515.52 222.35 517.01 237.43 521.85 237.43 519.99 221.05" style="fill:#f2f1f0"/><path d="M141.18,418.59a30.34,30.34,0,0,1,25.13,25.12.38.38,0,0,0,.76,0,30.32,30.32,0,0,1,25.12-25.12.39.39,0,0,0,0-.77,30.32,30.32,0,0,1-25.12-25.12.38.38,0,0,0-.76,0,30.34,30.34,0,0,1-25.13,25.12A.39.39,0,0,0,141.18,418.59Z" transform="translate(113.52 -127.65)" style="fill:#15bde8"/><path d="M447.25,298.08a16.46,16.46,0,0,1,13.63,13.64.21.21,0,0,0,.41,0,16.49,16.49,0,0,1,13.64-13.64.21.21,0,0,0,0-.41A16.49,16.49,0,0,1,461.29,284a.21.21,0,0,0-.41,0,16.46,16.46,0,0,1-13.63,13.64A.21.21,0,0,0,447.25,298.08Z" transform="translate(113.52 -127.65)" style="fill:#f2f1f0"/><path d="M387.93,210.28a9.73,9.73,0,0,1,8.06,8.05.12.12,0,0,0,.24,0,9.72,9.72,0,0,1,8-8.05.12.12,0,0,0,0-.24,9.73,9.73,0,0,1-8-8.06.12.12,0,0,0-.24,0,9.75,9.75,0,0,1-8.06,8.06A.12.12,0,0,0,387.93,210.28Z" transform="translate(113.52 -127.65)" style="fill:#f2f1f0"/></g></g></svg>