<svg id="b1f62c11-e70a-4fe5-8556-7b8c5de8b184" data-name="Layer 1" xmlns="http://www.w3.org/2000/svg" xmlns:xlink="http://www.w3.org/1999/xlink" viewBox="0 0 477.75 607.5"><defs><radialGradient id="faefb5dc-e428-459f-b8f1-aca19fc34737" cx="-474.57" cy="560.42" r="126.92" gradientTransform="translate(889.65 447.47) scale(1.37 0.2)" gradientUnits="userSpaceOnUse"><stop offset="0" stop-color="#bdbdbd"/><stop offset="1" stop-color="#bec0c2" stop-opacity="0"/></radialGradient><linearGradient id="aca9b3d0-f503-4b34-8e5b-e3f131e47bcb" x1="347.71" y1="483.15" x2="168.55" y2="106.41" gradientUnits="userSpaceOnUse"><stop offset="0" stop-color="#15bde8"/><stop offset="0.44" stop-color="#1870a0"/><stop offset="0.82" stop-color="#1b3466"/><stop offset="1" stop-color="#1c1c50"/></linearGradient><clipPath id="a2fd03b6-3386-4a88-92e5-18696e4bc0d1"><path d="M33.4,330c81.87,101.25,183.8-8.19,242.48,27.64,99.18,60.57,164.55-20.48,158.21-92.26-5.42-61.29-84.49-72.58-43.71-173.22C412.5,37.57,338.89,9.57,305.2,4.39,145.46-20.16-87.16,180.92,33.4,330Z" fill="none"/></clipPath><linearGradient id="e1dcdd8d-72cc-4b1a-8690-d6ee92594b54" x1="184.39" y1="185.15" x2="222.98" y2="185.15" gradientUnits="userSpaceOnUse"><stop offset="0.26" stop-color="#1c1c50"/><stop offset="1" stop-color="#1c1c50"/></linearGradient><linearGradient id="fc2f3ada-5f0b-4e0f-8251-c3ed204b7e68" x1="231.54" y1="185.2" x2="271.6" y2="185.2" xlink:href="#e1dcdd8d-72cc-4b1a-8690-d6ee92594b54"/><linearGradient id="a5fb7391-e5d7-4393-95c3-27d8ea32a3fb" x1="280.16" y1="185.15" x2="318.75" y2="185.15" xlink:href="#e1dcdd8d-72cc-4b1a-8690-d6ee92594b54"/><symbol id="f91f0c01-df3f-496a-ac38-bf0335d9360b" data-name="New Symbol 2" viewBox="0 0 2.33 2.33"><path d="M2.33,1.17A1.17,1.17,0,1,1,1.17,0,1.16,1.16,0,0,1,2.33,1.17Z" fill="#fff"/></symbol></defs><title>Artboard 12</title><ellipse cx="241.01" cy="560.42" rx="236.74" ry="47.1" opacity="0.5" fill="url(#faefb5dc-e428-459f-b8f1-aca19fc34737)"/><path d="M255.72,394.8C281,551.36,485.82,365.19,461.58,227.66S322.83,19.75,231.12,2.81C142-13.66,25.37,45.86,13.45,88.88-48.23,311.52,236.17,273.81,255.72,394.8Z" fill="#eae9e8"/><path d="M33.4,330c81.87,101.25,183.8-8.19,242.48,27.64,99.18,60.57,164.55-20.48,158.21-92.26-5.42-61.29-84.49-72.58-43.71-173.22C412.5,37.57,338.89,9.57,305.2,4.39,145.46-20.16-87.16,180.92,33.4,330Z" fill="url(#aca9b3d0-f503-4b34-8e5b-e3f131e47bcb)"/><g clip-path="url(#a2fd03b6-3386-4a88-92e5-18696e4bc0d1)"><g opacity="0.25"><use width="2.33" height="2.33" transform="matrix(-0.19, 0.27, -0.27, -0.27, 411.34, 119.21)" xlink:href="#f91f0c01-df3f-496a-ac38-bf0335d9360b"/><use width="2.33" height="2.33" transform="matrix(-0.58, 0.8, -0.81, -0.8, 332.09, 315.72)" xlink:href="#f91f0c01-df3f-496a-ac38-bf0335d9360b"/><use width="2.33" height="2.33" transform="matrix(-0.88, 1.23, -1.24, -1.23, 331.77, 338.45)" xlink:href="#f91f0c01-df3f-496a-ac38-bf0335d9360b"/><use width="2.33" height="2.33" transform="matrix(-0.92, 1.27, -1.29, -1.28, 282.03, 281.03)" xlink:href="#f91f0c01-df3f-496a-ac38-bf0335d9360b"/><use width="2.33" height="2.33" transform="matrix(-0.7, 0.98, -0.99, -0.98, 227.97, 203)" xlink:href="#f91f0c01-df3f-496a-ac38-bf0335d9360b"/><use width="2.33" height="2.33" transform="matrix(-0.78, 1.09, -1.1, -1.09, 257.83, 97.3)" xlink:href="#f91f0c01-df3f-496a-ac38-bf0335d9360b"/><use width="2.33" height="2.33" transform="matrix(-0.51, 0.71, -0.72, -0.71, 253.55, 61.39)" xlink:href="#f91f0c01-df3f-496a-ac38-bf0335d9360b"/><use width="2.33" height="2.33" transform="matrix(-0.57, 0.79, -0.8, -0.79, 232.52, 59.18)" xlink:href="#f91f0c01-df3f-496a-ac38-bf0335d9360b"/><use width="2.33" height="2.33" transform="matrix(-0.82, 1.14, -1.15, -1.14, 234.11, 111.79)" xlink:href="#f91f0c01-df3f-496a-ac38-bf0335d9360b"/><use width="2.33" height="2.33" transform="matrix(-0.72, 1, -1.01, -1, 195.32, 150.83)" xlink:href="#f91f0c01-df3f-496a-ac38-bf0335d9360b"/><use width="2.33" height="2.33" transform="matrix(-0.53, 0.73, -0.74, -0.74, 106.48, 206.43)" xlink:href="#f91f0c01-df3f-496a-ac38-bf0335d9360b"/><use width="2.33" height="2.33" transform="matrix(-0.57, 0.79, -0.8, -0.8, 75.45, 222.38)" xlink:href="#f91f0c01-df3f-496a-ac38-bf0335d9360b"/><use width="2.33" height="2.33" transform="matrix(-0.59, 0.82, -0.83, -0.83, 45.8, 217.83)" xlink:href="#f91f0c01-df3f-496a-ac38-bf0335d9360b"/><use width="2.33" height="2.33" transform="matrix(-0.58, 0.81, -0.82, -0.81, 17, 242.67)" xlink:href="#f91f0c01-df3f-496a-ac38-bf0335d9360b"/><use width="2.33" height="2.33" transform="matrix(-0.54, 0.76, -0.76, -0.76, 63.47, 262.95)" xlink:href="#f91f0c01-df3f-496a-ac38-bf0335d9360b"/><use width="2.33" height="2.33" transform="matrix(-0.85, 1.18, -1.19, -1.18, 140.31, 301.08)" xlink:href="#f91f0c01-df3f-496a-ac38-bf0335d9360b"/><use width="2.33" height="2.33" transform="matrix(-0.94, 1.31, -1.33, -1.32, 176.92, 356.91)" xlink:href="#f91f0c01-df3f-496a-ac38-bf0335d9360b"/><use width="2.33" height="2.33" transform="matrix(-0.6, 0.83, -0.84, -0.83, 213.78, 384.66)" xlink:href="#f91f0c01-df3f-496a-ac38-bf0335d9360b"/><use width="2.33" height="2.33" transform="matrix(-0.35, 0.49, -0.5, -0.49, 163.93, 511.56)" xlink:href="#f91f0c01-df3f-496a-ac38-bf0335d9360b"/><use width="2.33" height="2.33" transform="matrix(-0.34, 0.47, -0.48, -0.48, 257.95, 536.15)" xlink:href="#f91f0c01-df3f-496a-ac38-bf0335d9360b"/><use width="2.33" height="2.33" transform="matrix(-0.39, 0.54, -0.55, -0.54, 274.63, 552.18)" xlink:href="#f91f0c01-df3f-496a-ac38-bf0335d9360b"/><use width="2.33" height="2.33" transform="matrix(-0.69, 0.96, -0.98, -0.97, 327.1, 396.42)" xlink:href="#f91f0c01-df3f-496a-ac38-bf0335d9360b"/><use width="2.33" height="2.33" transform="matrix(-0.72, 1.01, -1.02, -1.01, 441.33, 385.26)" xlink:href="#f91f0c01-df3f-496a-ac38-bf0335d9360b"/><use width="2.33" height="2.33" transform="matrix(-0.49, 0.68, -0.69, -0.69, 409.92, 330.4)" xlink:href="#f91f0c01-df3f-496a-ac38-bf0335d9360b"/><use width="2.33" height="2.33" transform="matrix(-0.45, 0.63, -0.64, -0.63, 395.24, 296.05)" xlink:href="#f91f0c01-df3f-496a-ac38-bf0335d9360b"/><use width="2.33" height="2.33" transform="matrix(-0.47, 0.66, -0.67, -0.66, 402.17, 415.48)" xlink:href="#f91f0c01-df3f-496a-ac38-bf0335d9360b"/><use width="2.33" height="2.33" transform="matrix(-0.36, 0.5, -0.51, -0.5, 275.19, 489.45)" xlink:href="#f91f0c01-df3f-496a-ac38-bf0335d9360b"/><use width="2.33" height="2.33" transform="matrix(-0.31, 0.43, -0.43, -0.43, 171.5, 533.26)" xlink:href="#f91f0c01-df3f-496a-ac38-bf0335d9360b"/><use width="2.33" height="2.33" transform="matrix(-0.41, 0.58, -0.58, -0.58, 191.3, 469.92)" xlink:href="#f91f0c01-df3f-496a-ac38-bf0335d9360b"/><use width="2.33" height="2.33" transform="matrix(-0.46, 0.63, -0.64, -0.64, 180.73, 466.54)" xlink:href="#f91f0c01-df3f-496a-ac38-bf0335d9360b"/><use width="2.33" height="2.33" transform="matrix(-0.47, 0.65, -0.66, -0.65, 141.89, 500.37)" xlink:href="#f91f0c01-df3f-496a-ac38-bf0335d9360b"/><use width="2.33" height="2.33" transform="matrix(-0.46, 0.63, -0.64, -0.64, 150.25, 488.96)" xlink:href="#f91f0c01-df3f-496a-ac38-bf0335d9360b"/><use width="2.33" height="2.33" transform="matrix(-0.93, 1.3, -1.31, -1.3, 193.84, 334.92)" xlink:href="#f91f0c01-df3f-496a-ac38-bf0335d9360b"/><use width="2.33" height="2.33" transform="matrix(-0.42, 0.58, -0.59, -0.59, 280.65, 210.02)" xlink:href="#f91f0c01-df3f-496a-ac38-bf0335d9360b"/><use width="2.33" height="2.33" transform="matrix(-0.3, 0.42, -0.42, -0.42, 354.19, 250.89)" xlink:href="#f91f0c01-df3f-496a-ac38-bf0335d9360b"/><use width="2.33" height="2.33" transform="matrix(-0.6, 0.83, -0.85, -0.84, 402.17, 388.73)" xlink:href="#f91f0c01-df3f-496a-ac38-bf0335d9360b"/><use width="2.33" height="2.33" transform="matrix(-0.78, 1.08, -1.09, -1.08, 456.41, 127.96)" xlink:href="#f91f0c01-df3f-496a-ac38-bf0335d9360b"/><use width="2.33" height="2.33" transform="matrix(-0.87, 1.21, -1.22, -1.21, 448.04, 100.8)" xlink:href="#f91f0c01-df3f-496a-ac38-bf0335d9360b"/><use width="2.33" height="2.33" transform="matrix(-0.73, 1.01, -1.02, -1.01, 403.5, 180.96)" xlink:href="#f91f0c01-df3f-496a-ac38-bf0335d9360b"/><use width="2.33" height="2.33" transform="matrix(-0.74, 1.02, -1.03, -1.03, 379.03, 203.62)" xlink:href="#f91f0c01-df3f-496a-ac38-bf0335d9360b"/><use width="2.33" height="2.33" transform="matrix(-0.71, 0.99, -1.01, -1, 335.06, 98.05)" xlink:href="#f91f0c01-df3f-496a-ac38-bf0335d9360b"/><use width="2.33" height="2.33" transform="matrix(-0.58, 0.81, -0.82, -0.82, 306.31, 96.31)" xlink:href="#f91f0c01-df3f-496a-ac38-bf0335d9360b"/><use width="2.33" height="2.33" transform="matrix(-0.34, 0.47, -0.48, -0.47, 311.74, 123.37)" xlink:href="#f91f0c01-df3f-496a-ac38-bf0335d9360b"/><use width="2.33" height="2.33" transform="matrix(-0.74, 1.03, -1.05, -1.04, 295.74, 133.73)" xlink:href="#f91f0c01-df3f-496a-ac38-bf0335d9360b"/><use width="2.33" height="2.33" transform="matrix(-0.91, 1.26, -1.28, -1.27, 240.45, 123.08)" xlink:href="#f91f0c01-df3f-496a-ac38-bf0335d9360b"/><use width="2.33" height="2.33" transform="matrix(-0.61, 0.85, -0.86, -0.86, 182.41, 124.22)" xlink:href="#f91f0c01-df3f-496a-ac38-bf0335d9360b"/><use width="2.33" height="2.33" transform="matrix(-0.56, 0.78, -0.79, -0.78, 137.31, 197.78)" xlink:href="#f91f0c01-df3f-496a-ac38-bf0335d9360b"/><use width="2.33" height="2.33" transform="matrix(-0.57, 0.79, -0.8, -0.79, 127.5, 209.26)" xlink:href="#f91f0c01-df3f-496a-ac38-bf0335d9360b"/><use width="2.33" height="2.33" transform="matrix(-0.63, 0.87, -0.88, -0.88, 79.39, 247.62)" xlink:href="#f91f0c01-df3f-496a-ac38-bf0335d9360b"/><use width="2.33" height="2.33" transform="matrix(-0.62, 0.86, -0.87, -0.86, 50.35, 230.87)" xlink:href="#f91f0c01-df3f-496a-ac38-bf0335d9360b"/><use width="2.33" height="2.33" transform="matrix(-0.65, 0.9, -0.91, -0.9, 24.39, 219.22)" xlink:href="#f91f0c01-df3f-496a-ac38-bf0335d9360b"/><use width="2.33" height="2.33" transform="matrix(-0.82, 1.14, -1.15, -1.14, 156.75, 283.53)" xlink:href="#f91f0c01-df3f-496a-ac38-bf0335d9360b"/><use width="2.33" height="2.33" transform="matrix(-0.71, 0.99, -1, -1, 245.07, 176.12)" xlink:href="#f91f0c01-df3f-496a-ac38-bf0335d9360b"/><use width="2.33" height="2.33" transform="matrix(-0.31, 0.44, -0.44, -0.44, 349.68, 134.42)" xlink:href="#f91f0c01-df3f-496a-ac38-bf0335d9360b"/><use width="2.33" height="2.33" transform="matrix(-0.19, 0.26, -0.27, -0.26, 404.27, 130.91)" xlink:href="#f91f0c01-df3f-496a-ac38-bf0335d9360b"/><use width="2.33" height="2.33" transform="matrix(-0.26, 0.36, -0.36, -0.36, 358.76, 206.22)" xlink:href="#f91f0c01-df3f-496a-ac38-bf0335d9360b"/><use width="2.33" height="2.33" transform="matrix(-0.37, 0.52, -0.52, -0.52, 344.95, 306.21)" xlink:href="#f91f0c01-df3f-496a-ac38-bf0335d9360b"/><use width="2.33" height="2.33" transform="matrix(-0.51, 0.71, -0.72, -0.71, 350.34, 105.36)" xlink:href="#f91f0c01-df3f-496a-ac38-bf0335d9360b"/><use width="2.33" height="2.33" transform="matrix(-0.49, 0.68, -0.69, -0.69, 280.82, 85.72)" xlink:href="#f91f0c01-df3f-496a-ac38-bf0335d9360b"/><use width="2.33" height="2.33" transform="matrix(-0.65, 0.91, -0.92, -0.91, 214.77, 101.32)" xlink:href="#f91f0c01-df3f-496a-ac38-bf0335d9360b"/><use width="2.33" height="2.33" transform="matrix(-0.43, 0.6, -0.6, -0.6, 102.6, 166.2)" xlink:href="#f91f0c01-df3f-496a-ac38-bf0335d9360b"/><use width="2.33" height="2.33" transform="matrix(-0.48, 0.67, -0.68, -0.67, 39.82, 172.16)" xlink:href="#f91f0c01-df3f-496a-ac38-bf0335d9360b"/><use width="2.33" height="2.33" transform="matrix(-0.43, 0.6, -0.61, -0.6, 254.33, 210.51)" xlink:href="#f91f0c01-df3f-496a-ac38-bf0335d9360b"/><use width="2.33" height="2.33" transform="matrix(-0.25, 0.35, -0.36, -0.36, 353.54, 129.75)" xlink:href="#f91f0c01-df3f-496a-ac38-bf0335d9360b"/><use width="2.33" height="2.33" transform="matrix(-0.29, 0.4, -0.4, -0.4, 412.44, 144.61)" xlink:href="#f91f0c01-df3f-496a-ac38-bf0335d9360b"/><use width="2.33" height="2.33" transform="matrix(-0.55, 0.77, -0.78, -0.77, 473.35, 118.14)" xlink:href="#f91f0c01-df3f-496a-ac38-bf0335d9360b"/><use width="2.33" height="2.33" transform="matrix(-0.42, 0.59, -0.6, -0.59, 407.16, 158.98)" xlink:href="#f91f0c01-df3f-496a-ac38-bf0335d9360b"/><use width="2.33" height="2.33" transform="matrix(-0.31, 0.43, -0.43, -0.43, 422.52, 115.59)" xlink:href="#f91f0c01-df3f-496a-ac38-bf0335d9360b"/><use width="2.33" height="2.33" transform="matrix(-0.37, 0.52, -0.52, -0.52, 366.22, 229.7)" xlink:href="#f91f0c01-df3f-496a-ac38-bf0335d9360b"/><use width="2.33" height="2.33" transform="matrix(-0.47, 0.65, -0.66, -0.66, 405.79, 218.01)" xlink:href="#f91f0c01-df3f-496a-ac38-bf0335d9360b"/><use width="2.33" height="2.33" transform="matrix(-0.5, 0.69, -0.7, -0.7, 445.37, 175.36)" xlink:href="#f91f0c01-df3f-496a-ac38-bf0335d9360b"/></g></g><path d="M212.52,166.39H140.8a39.33,39.33,0,0,0-39.33,39.33v50.9A39.33,39.33,0,0,0,128,293.77L129.23,321,164.57,296h48a39.33,39.33,0,0,0,39.33-39.33v-50.9A39.33,39.33,0,0,0,212.52,166.39Z" fill="#15bde8"/><path d="M299.16,94.26H204.54a51.89,51.89,0,0,0-51.89,51.88v67.15a51.89,51.89,0,0,0,51.89,51.89H267.8l46.62,33.1,1.66-36a51.87,51.87,0,0,0,35-49V146.14A51.88,51.88,0,0,0,299.16,94.26Z" fill="#fff"/><path d="M184.39,180.06l35.38-14.94,3.21,10-25.83,10.07L223,195.23l-3.21,10-35.38-14.95Z" fill="url(#e1dcdd8d-72cc-4b1a-8690-d6ee92594b54)"/><path d="M244.12,225H231.54l27.65-79.65H271.6Z" fill="url(#fc2f3ada-5f0b-4e0f-8251-c3ed204b7e68)"/><path d="M318.75,190.24l-35.38,14.95-3.21-10L306,185.15l-25.83-10.07,3.21-10,35.38,14.94Z" fill="url(#a5fb7391-e5d7-4393-95c3-27d8ea32a3fb)"/></svg>