<svg id="acbc18d4-dd74-460f-8ad8-5eefdab56067" data-name="Layer 1" xmlns="http://www.w3.org/2000/svg" xmlns:xlink="http://www.w3.org/1999/xlink" viewBox="0 0 514.76 614.26"><defs><radialGradient id="bfe31f88-fdbe-4608-8209-14a97ea56da8" cx="-648.53" cy="567.16" r="126.92" gradientTransform="translate(1164.43 452.85) scale(1.37 0.2)" gradientUnits="userSpaceOnUse"><stop offset="0" stop-color="#bdbdbd"/><stop offset="1" stop-color="#bec0c2" stop-opacity="0"/></radialGradient><linearGradient id="bdf01902-db7b-403c-8ee4-e11004ad12f6" x1="367.18" y1="454.62" x2="255" y2="164.95" gradientUnits="userSpaceOnUse"><stop offset="0" stop-color="#15bde8"/><stop offset="0.44" stop-color="#1870a0"/><stop offset="0.82" stop-color="#1b3466"/><stop offset="1" stop-color="#1c1c50"/></linearGradient><clipPath id="ee491636-99f9-4664-b423-3d1ec6545f1f"><path d="M182,3.89c132-30.16,145,124.76,215.93,133.17,120,14.22,121.32,122.45,70,177-43.8,46.61-115.67,5-147,113.49-17,58.81-95.14,34.42-126,17C48.63,362.05-12.31,48.29,182,3.89Z" fill="none"/></clipPath><symbol id="e2cefaff-51ff-4d25-a074-7d698b710d08" data-name="New Symbol 2" viewBox="0 0 2.33 2.33"><path d="M2.33,1.17A1.17,1.17,0,1,1,1.17,0,1.16,1.16,0,0,1,2.33,1.17Z" fill="#fff"/></symbol></defs><title>Artboard 13</title><ellipse cx="278.02" cy="567.16" rx="236.74" ry="47.1" opacity="0.5" fill="url(#bfe31f88-fdbe-4608-8209-14a97ea56da8)"/><path d="M78.5,285.47C-76,319.76,22.53,56,159,27.77S402.2,82.08,451.18,162.85c47.61,78.5,48.78,203.84-.94,238.71C259.72,535.2,197.86,259,78.5,285.47Z" fill="#eae9e8"/><path d="M182,3.89c132-30.16,145,124.76,215.93,133.17,120,14.22,121.32,122.45,70,177-43.8,46.61-115.67,5-147,113.49-17,58.81-95.14,34.42-126,17C48.63,362.05-12.31,48.29,182,3.89Z" fill="url(#bdf01902-db7b-403c-8ee4-e11004ad12f6)"/><g clip-path="url(#ee491636-99f9-4664-b423-3d1ec6545f1f)"><g opacity="0.25"><use width="2.33" height="2.33" transform="matrix(0.04, -1.02, -1.18, 0.14, 450.55, 481.86)" xlink:href="#e2cefaff-51ff-4d25-a074-7d698b710d08"/><use width="2.33" height="2.33" transform="matrix(0.04, -1.01, -1.17, 0.14, 420.6, 471.64)" xlink:href="#e2cefaff-51ff-4d25-a074-7d698b710d08"/><use width="2.33" height="2.33" transform="matrix(0.01, -0.35, -0.4, 0.05, 355.46, 418.94)" xlink:href="#e2cefaff-51ff-4d25-a074-7d698b710d08"/><use width="2.33" height="2.33" transform="matrix(0.04, -1.02, -1.18, 0.14, 416.92, 207.43)" xlink:href="#e2cefaff-51ff-4d25-a074-7d698b710d08"/><use width="2.33" height="2.33" transform="matrix(0.07, -1.57, -1.81, 0.21, 431.26, 188.66)" xlink:href="#e2cefaff-51ff-4d25-a074-7d698b710d08"/><use width="2.33" height="2.33" transform="matrix(0.07, -1.63, -1.87, 0.22, 353.72, 203.63)" xlink:href="#e2cefaff-51ff-4d25-a074-7d698b710d08"/><use width="2.33" height="2.33" transform="matrix(0.05, -1.25, -1.44, 0.17, 259.41, 232.68)" xlink:href="#e2cefaff-51ff-4d25-a074-7d698b710d08"/><use width="2.33" height="2.33" transform="matrix(0.06, -1.39, -1.6, 0.19, 215.92, 338.24)" xlink:href="#e2cefaff-51ff-4d25-a074-7d698b710d08"/><use width="2.33" height="2.33" transform="matrix(0.04, -0.91, -1.04, 0.12, 189.36, 364.83)" xlink:href="#e2cefaff-51ff-4d25-a074-7d698b710d08"/><use width="2.33" height="2.33" transform="matrix(0.04, -1.01, -1.16, 0.14, 170.75, 353.13)" xlink:href="#e2cefaff-51ff-4d25-a074-7d698b710d08"/><use width="2.33" height="2.33" transform="matrix(0.06, -1.45, -1.67, 0.19, 205.84, 311.16)" xlink:href="#e2cefaff-51ff-4d25-a074-7d698b710d08"/><use width="2.33" height="2.33" transform="matrix(0.05, -1.28, -1.47, 0.17, 199.21, 254.33)" xlink:href="#e2cefaff-51ff-4d25-a074-7d698b710d08"/><use width="2.33" height="2.33" transform="matrix(0.04, -0.94, -1.08, 0.13, 162.33, 151.82)" xlink:href="#e2cefaff-51ff-4d25-a074-7d698b710d08"/><use width="2.33" height="2.33" transform="matrix(0.04, -1.02, -1.17, 0.14, 147.21, 118.86)" xlink:href="#e2cefaff-51ff-4d25-a074-7d698b710d08"/><use width="2.33" height="2.33" transform="matrix(0.04, -1.05, -1.21, 0.14, 120.06, 103.52)" xlink:href="#e2cefaff-51ff-4d25-a074-7d698b710d08"/><use width="2.33" height="2.33" transform="matrix(0.04, -1.04, -1.19, 0.14, 112.48, 64.73)" xlink:href="#e2cefaff-51ff-4d25-a074-7d698b710d08"/><use width="2.33" height="2.33" transform="matrix(0.04, -0.97, -1.11, 0.13, 163.48, 78)" xlink:href="#e2cefaff-51ff-4d25-a074-7d698b710d08"/><use width="2.33" height="2.33" transform="matrix(0.06, -1.5, -1.73, 0.2, 250.77, 96.2)" xlink:href="#e2cefaff-51ff-4d25-a074-7d698b710d08"/><use width="2.33" height="2.33" transform="matrix(0.07, -1.67, -1.93, 0.22, 316.57, 74.09)" xlink:href="#e2cefaff-51ff-4d25-a074-7d698b710d08"/><use width="2.33" height="2.33" transform="matrix(0.05, -1.06, -1.22, 0.14, 364.51, 75.09)" xlink:href="#e2cefaff-51ff-4d25-a074-7d698b710d08"/><use width="2.33" height="2.33" transform="matrix(0.05, -1.23, -1.42, 0.16, 464.68, 138.27)" xlink:href="#e2cefaff-51ff-4d25-a074-7d698b710d08"/><use width="2.33" height="2.33" transform="matrix(0.04, -0.88, -1.01, 0.12, 489.96, 245.43)" xlink:href="#e2cefaff-51ff-4d25-a074-7d698b710d08"/><use width="2.33" height="2.33" transform="matrix(0.03, -0.8, -0.92, 0.11, 455.9, 264.08)" xlink:href="#e2cefaff-51ff-4d25-a074-7d698b710d08"/><use width="2.33" height="2.33" transform="matrix(0.03, -0.64, -0.74, 0.09, 482.02, 28.89)" xlink:href="#e2cefaff-51ff-4d25-a074-7d698b710d08"/><use width="2.33" height="2.33" transform="matrix(0.07, -1.66, -1.91, 0.22, 316.26, 102.93)" xlink:href="#e2cefaff-51ff-4d25-a074-7d698b710d08"/><use width="2.33" height="2.33" transform="matrix(0.03, -0.75, -0.86, 0.1, 306.97, 260.78)" xlink:href="#e2cefaff-51ff-4d25-a074-7d698b710d08"/><use width="2.33" height="2.33" transform="matrix(0.02, -0.53, -0.62, 0.07, 393.33, 274.61)" xlink:href="#e2cefaff-51ff-4d25-a074-7d698b710d08"/><use width="2.33" height="2.33" transform="matrix(0.03, -0.66, -0.76, 0.09, 442.95, 560.26)" xlink:href="#e2cefaff-51ff-4d25-a074-7d698b710d08"/><use width="2.33" height="2.33" transform="matrix(0.03, -0.8, -0.92, 0.11, 438.21, 574.18)" xlink:href="#e2cefaff-51ff-4d25-a074-7d698b710d08"/><use width="2.33" height="2.33" transform="matrix(0.05, -1.1, -1.27, 0.15, 433.6, 595.02)" xlink:href="#e2cefaff-51ff-4d25-a074-7d698b710d08"/><use width="2.33" height="2.33" transform="matrix(0.06, -1.38, -1.59, 0.18, 397.91, 440.74)" xlink:href="#e2cefaff-51ff-4d25-a074-7d698b710d08"/><use width="2.33" height="2.33" transform="matrix(0.07, -1.54, -1.78, 0.21, 373.62, 457.57)" xlink:href="#e2cefaff-51ff-4d25-a074-7d698b710d08"/><use width="2.33" height="2.33" transform="matrix(0.05, -1.29, -1.49, 0.17, 388.71, 363.44)" xlink:href="#e2cefaff-51ff-4d25-a074-7d698b710d08"/><use width="2.33" height="2.33" transform="matrix(0.05, -1.1, -1.27, 0.15, 414.65, 483.21)" xlink:href="#e2cefaff-51ff-4d25-a074-7d698b710d08"/><use width="2.33" height="2.33" transform="matrix(0.04, -0.92, -1.06, 0.12, 411.68, 581.74)" xlink:href="#e2cefaff-51ff-4d25-a074-7d698b710d08"/><use width="2.33" height="2.33" transform="matrix(0.03, -0.73, -0.85, 0.1, 457.46, 522.83)" xlink:href="#e2cefaff-51ff-4d25-a074-7d698b710d08"/><use width="2.33" height="2.33" transform="matrix(0.02, -0.53, -0.61, 0.07, 453.27, 541.89)" xlink:href="#e2cefaff-51ff-4d25-a074-7d698b710d08"/><use width="2.33" height="2.33" transform="matrix(0.06, -1.31, -1.5, 0.17, 383.28, 329.2)" xlink:href="#e2cefaff-51ff-4d25-a074-7d698b710d08"/><use width="2.33" height="2.33" transform="matrix(0.05, -1.27, -1.46, 0.17, 279.51, 387.24)" xlink:href="#e2cefaff-51ff-4d25-a074-7d698b710d08"/><use width="2.33" height="2.33" transform="matrix(0.04, -1.04, -1.2, 0.14, 254.9, 370.19)" xlink:href="#e2cefaff-51ff-4d25-a074-7d698b710d08"/><use width="2.33" height="2.33" transform="matrix(0.03, -0.6, -0.69, 0.08, 276.73, 351.56)" xlink:href="#e2cefaff-51ff-4d25-a074-7d698b710d08"/><use width="2.33" height="2.33" transform="matrix(0.06, -1.32, -1.52, 0.18, 270.31, 332.81)" xlink:href="#e2cefaff-51ff-4d25-a074-7d698b710d08"/><use width="2.33" height="2.33" transform="matrix(0.07, -1.61, -1.86, 0.22, 218.28, 306.01)" xlink:href="#e2cefaff-51ff-4d25-a074-7d698b710d08"/><use width="2.33" height="2.33" transform="matrix(0.05, -1.09, -1.26, 0.15, 171.57, 267.78)" xlink:href="#e2cefaff-51ff-4d25-a074-7d698b710d08"/><use width="2.33" height="2.33" transform="matrix(0.04, -1, -1.15, 0.13, 181.97, 178.7)" xlink:href="#e2cefaff-51ff-4d25-a074-7d698b710d08"/><use width="2.33" height="2.33" transform="matrix(0.04, -1.01, -1.16, 0.13, 181.32, 163.02)" xlink:href="#e2cefaff-51ff-4d25-a074-7d698b710d08"/><use width="2.33" height="2.33" transform="matrix(0.05, -1.12, -1.29, 0.15, 166.65, 100.76)" xlink:href="#e2cefaff-51ff-4d25-a074-7d698b710d08"/><use width="2.33" height="2.33" transform="matrix(0.05, -1.1, -1.26, 0.15, 132.15, 95.8)" xlink:href="#e2cefaff-51ff-4d25-a074-7d698b710d08"/><use width="2.33" height="2.33" transform="matrix(0.05, -1.15, -1.33, 0.15, 103.45, 88.64)" xlink:href="#e2cefaff-51ff-4d25-a074-7d698b710d08"/><use width="2.33" height="2.33" transform="matrix(0.05, -1.1, -1.27, 0.15, 97.79, 54.98)" xlink:href="#e2cefaff-51ff-4d25-a074-7d698b710d08"/><use width="2.33" height="2.33" transform="matrix(0.05, -1.15, -1.33, 0.15, 91.08, 50.39)" xlink:href="#e2cefaff-51ff-4d25-a074-7d698b710d08"/><use width="2.33" height="2.33" transform="matrix(0.05, -1.28, -1.47, 0.17, 79.2, 51.68)" xlink:href="#e2cefaff-51ff-4d25-a074-7d698b710d08"/><use width="2.33" height="2.33" transform="matrix(0.06, -1.46, -1.68, 0.19, 252.94, 121.1)" xlink:href="#e2cefaff-51ff-4d25-a074-7d698b710d08"/><use width="2.33" height="2.33" transform="matrix(0.05, -1.27, -1.46, 0.17, 256.12, 265.62)" xlink:href="#e2cefaff-51ff-4d25-a074-7d698b710d08"/><use width="2.33" height="2.33" transform="matrix(0.02, -0.56, -0.64, 0.07, 314.83, 366.9)" xlink:href="#e2cefaff-51ff-4d25-a074-7d698b710d08"/><use width="2.33" height="2.33" transform="matrix(0.01, -0.34, -0.39, 0.04, 357.19, 404.84)" xlink:href="#e2cefaff-51ff-4d25-a074-7d698b710d08"/><use width="2.33" height="2.33" transform="matrix(0.02, -0.46, -0.53, 0.06, 368.37, 314.05)" xlink:href="#e2cefaff-51ff-4d25-a074-7d698b710d08"/><use width="2.33" height="2.33" transform="matrix(0.03, -0.66, -0.76, 0.09, 421.31, 223.47)" xlink:href="#e2cefaff-51ff-4d25-a074-7d698b710d08"/><use width="2.33" height="2.33" transform="matrix(0.03, -0.61, -0.71, 0.08, 515.74, 583.65)" xlink:href="#e2cefaff-51ff-4d25-a074-7d698b710d08"/><use width="2.33" height="2.33" transform="matrix(0.03, -0.62, -0.72, 0.08, 456.56, 531.57)" xlink:href="#e2cefaff-51ff-4d25-a074-7d698b710d08"/><use width="2.33" height="2.33" transform="matrix(0.04, -0.91, -1.04, 0.12, 296.7, 391.07)" xlink:href="#e2cefaff-51ff-4d25-a074-7d698b710d08"/><use width="2.33" height="2.33" transform="matrix(0.04, -0.88, -1.01, 0.12, 227.27, 362.47)" xlink:href="#e2cefaff-51ff-4d25-a074-7d698b710d08"/><use width="2.33" height="2.33" transform="matrix(0.05, -1.16, -1.33, 0.15, 183.32, 307.29)" xlink:href="#e2cefaff-51ff-4d25-a074-7d698b710d08"/><use width="2.33" height="2.33" transform="matrix(0.03, -0.76, -0.88, 0.1, 133.32, 182.21)" xlink:href="#e2cefaff-51ff-4d25-a074-7d698b710d08"/><use width="2.33" height="2.33" transform="matrix(0.04, -0.86, -0.98, 0.11, 85.84, 137.01)" xlink:href="#e2cefaff-51ff-4d25-a074-7d698b710d08"/><use width="2.33" height="2.33" transform="matrix(0.05, -1.25, -1.44, 0.17, 44.21, 89.18)" xlink:href="#e2cefaff-51ff-4d25-a074-7d698b710d08"/><use width="2.33" height="2.33" transform="matrix(0.06, -1.34, -1.54, 0.18, 45.22, 77.85)" xlink:href="#e2cefaff-51ff-4d25-a074-7d698b710d08"/><use width="2.33" height="2.33" transform="matrix(0.06, -1.41, -1.63, 0.19, 44.7, 70.07)" xlink:href="#e2cefaff-51ff-4d25-a074-7d698b710d08"/><use width="2.33" height="2.33" transform="matrix(0.03, -0.77, -0.89, 0.1, 285.78, 243.47)" xlink:href="#e2cefaff-51ff-4d25-a074-7d698b710d08"/><use width="2.33" height="2.33" transform="matrix(0.02, -0.45, -0.52, 0.06, 314.99, 373.2)" xlink:href="#e2cefaff-51ff-4d25-a074-7d698b710d08"/><use width="2.33" height="2.33" transform="matrix(0.02, -0.51, -0.59, 0.07, 372.67, 398.89)" xlink:href="#e2cefaff-51ff-4d25-a074-7d698b710d08"/><use width="2.33" height="2.33" transform="matrix(0.04, -0.98, -1.13, 0.13, 405.45, 459.65)" xlink:href="#e2cefaff-51ff-4d25-a074-7d698b710d08"/><use width="2.33" height="2.33" transform="matrix(0.03, -0.75, -0.87, 0.1, 377.58, 383.76)" xlink:href="#e2cefaff-51ff-4d25-a074-7d698b710d08"/><use width="2.33" height="2.33" transform="matrix(0.02, -0.55, -0.63, 0.07, 362.26, 429.08)" xlink:href="#e2cefaff-51ff-4d25-a074-7d698b710d08"/><use width="2.33" height="2.33" transform="matrix(0.03, -0.66, -0.76, 0.09, 389.56, 299.65)" xlink:href="#e2cefaff-51ff-4d25-a074-7d698b710d08"/><use width="2.33" height="2.33" transform="matrix(0.04, -0.84, -0.96, 0.11, 414.38, 334.63)" xlink:href="#e2cefaff-51ff-4d25-a074-7d698b710d08"/><use width="2.33" height="2.33" transform="matrix(0.04, -0.89, -1.02, 0.12, 419.33, 394.91)" xlink:href="#e2cefaff-51ff-4d25-a074-7d698b710d08"/><use width="2.33" height="2.33" transform="matrix(0.04, -0.95, -1.09, 0.13, 428.91, 465.45)" xlink:href="#e2cefaff-51ff-4d25-a074-7d698b710d08"/><use width="2.33" height="2.33" transform="matrix(0.03, -0.71, -0.82, 0.1, 469.95, 475.39)" xlink:href="#e2cefaff-51ff-4d25-a074-7d698b710d08"/><use width="2.33" height="2.33" transform="matrix(0.02, -0.5, -0.58, 0.07, 482.53, 484.67)" xlink:href="#e2cefaff-51ff-4d25-a074-7d698b710d08"/><use width="2.33" height="2.33" transform="matrix(0.02, -0.53, -0.62, 0.07, 476.3, 446.32)" xlink:href="#e2cefaff-51ff-4d25-a074-7d698b710d08"/></g></g><rect x="110.34" y="69.66" width="332.29" height="241.55" rx="22.96" fill="#fff"/><path d="M110.34,98.83H442.63V90.25A20.59,20.59,0,0,0,422,69.66H130.94a20.59,20.59,0,0,0-20.6,20.59Z" fill="#15bde8"/><rect x="209" y="119.58" width="116.79" height="8.65" rx="3.5" fill="#c9c7c4"/><rect x="209" y="135.17" width="116.79" height="8.65" rx="3.5" fill="#c9c7c4"/><rect x="209" y="150.77" width="116.79" height="8.65" rx="3.5" fill="#c9c7c4"/><path d="M269.12,294.21H144.56a18.86,18.86,0,0,1-18.83-18.84V199.6a18.86,18.86,0,0,1,18.83-18.83H269.12A18.86,18.86,0,0,1,288,199.6v75.77A18.86,18.86,0,0,1,269.12,294.21ZM144.56,183.13a16.49,16.49,0,0,0-16.47,16.47v75.77a16.49,16.49,0,0,0,16.47,16.48H269.12a16.49,16.49,0,0,0,16.48-16.48V199.6a16.49,16.49,0,0,0-16.48-16.47Z" fill="#c9c7c4"/><rect x="146.09" y="191.1" width="121.49" height="18.22" rx="6.92" fill="#c9c7c4"/><rect x="124.22" y="78.73" width="47.39" height="11.02" rx="3.3" fill="#f5f7ff"/><circle cx="378.23" cy="143.82" r="27.04" transform="translate(-1.86 4.99) rotate(-0.75)" fill="#c9c7c4"/><path d="M378.23,154.6a1.37,1.37,0,0,1-1.37-1.36V134.4a1.37,1.37,0,0,1,2.73,0v18.84A1.36,1.36,0,0,1,378.23,154.6Z" fill="#fff"/><path d="M387.64,145.18H368.81a1.36,1.36,0,1,1,0-2.72h18.83a1.36,1.36,0,1,1,0,2.72Z" fill="#fff"/><rect x="300.42" y="181.95" width="25.36" height="25.36" rx="4.41" fill="#15bde8"/><path d="M312.3,200.21l-6.41-5.58a1.27,1.27,0,0,1,1.66-1.91l4.53,3.95,6.47-7.21a1.26,1.26,0,0,1,1.88,1.69Z" fill="#f3f3f3"/><rect x="300.42" y="215.79" width="25.36" height="25.36" rx="4.41" fill="#15bde8"/><path d="M312.3,234.06l-6.41-5.59a1.26,1.26,0,0,1,1.66-1.9l4.53,4,6.47-7.21a1.26,1.26,0,0,1,1.88,1.68Z" fill="#f3f3f3"/><rect x="300.42" y="249.64" width="25.36" height="25.36" rx="4.41" fill="#15bde8"/><path d="M312.3,267.9l-6.41-5.59a1.26,1.26,0,1,1,1.66-1.9l4.53,3.95,6.47-7.21a1.26,1.26,0,1,1,1.88,1.69Z" fill="#f3f3f3"/><path d="M132.11,119.32h58.2a6.8,6.8,0,0,1,6.8,6.8v25.17a6.8,6.8,0,0,1-6.8,6.8h-58.2a6.8,6.8,0,0,1-6.8-6.8V126.13A6.81,6.81,0,0,1,132.11,119.32Z" fill="#1c1c50"/></svg>