<svg id="be205759-0e13-4f5e-9f25-f476818f937d" data-name="Layer 1" xmlns="http://www.w3.org/2000/svg" xmlns:xlink="http://www.w3.org/1999/xlink" viewBox="0 0 473.48 652.83"><defs><radialGradient id="edcd2d5c-b822-4381-9c8a-8f8f689b5451" cx="-290.14" cy="605.73" r="126.92" gradientTransform="translate(633.3 483.65) scale(1.37 0.2)" gradientUnits="userSpaceOnUse"><stop offset="0" stop-color="#bdbdbd"/><stop offset="1" stop-color="#bec0c2" stop-opacity="0"/></radialGradient><linearGradient id="fccc0119-c20f-4648-b7af-9c2afbca11fb" x1="-2107.8" y1="184.73" x2="-2294.04" y2="-206.89" gradientTransform="matrix(-0.96, -0.27, -0.27, 0.96, -1941.63, -272.47)" gradientUnits="userSpaceOnUse"><stop offset="0" stop-color="#15bde8"/><stop offset="0.44" stop-color="#1870a0"/><stop offset="0.82" stop-color="#1b3466"/><stop offset="1" stop-color="#1c1c50"/></linearGradient><clipPath id="f8e43ad8-631c-4f5d-b287-69605d973dc5"><path d="M397.57,402.61C287.44,481.29,215.73,343.35,147,363,30.82,396.07-12.15,296.72,14.14,226.58,36.59,166.69,118.92,177.34,106,65.2,99,4.39,180.55-3.23,215.73,1,382.57,20.72,559.73,286.75,397.57,402.61Z" fill="none"/></clipPath><symbol id="a6144146-2683-4207-a6b7-89372f46de6f" data-name="New Symbol 2" viewBox="0 0 2.33 2.33"><path d="M2.33,1.17A1.17,1.17,0,1,1,1.17,0,1.16,1.16,0,0,1,2.33,1.17Z" fill="#fff"/></symbol></defs><title>Artboard 11</title><ellipse cx="236.74" cy="605.73" rx="236.74" ry="47.1" opacity="0.5" fill="url(#edcd2d5c-b822-4381-9c8a-8f8f689b5451)"/><path d="M63.24,217.72C-81.14,173.26,132.09-5.91,258.55,35.15s173.12,162.93,173,255.65c-.11,90.11-61.92,198.18-120.34,204.32C87.4,518.62,174.8,252.08,63.24,217.72Z" fill="#eae9e8"/><path d="M397.57,402.61C287.44,481.29,215.73,343.35,147,363,30.82,396.07-12.15,296.72,14.14,226.58,36.59,166.69,118.92,177.34,106,65.2,99,4.39,180.55-3.23,215.73,1,382.57,20.72,559.73,286.75,397.57,402.61Z" fill="url(#fccc0119-c20f-4648-b7af-9c2afbca11fb)"/><g clip-path="url(#f8e43ad8-631c-4f5d-b287-69605d973dc5)"><g opacity="0.25"><use width="2.33" height="2.33" transform="matrix(0.12, 0.32, 0.35, -0.2, 77.52, 86.48)" xlink:href="#a6144146-2683-4207-a6b7-89372f46de6f"/><use width="2.33" height="2.33" transform="matrix(0.35, 0.96, 1.04, -0.58, 102.33, 305.34)" xlink:href="#a6144146-2683-4207-a6b7-89372f46de6f"/><use width="2.33" height="2.33" transform="matrix(0.54, 1.47, 1.58, -0.89, 96.33, 328.19)" xlink:href="#a6144146-2683-4207-a6b7-89372f46de6f"/><use width="2.33" height="2.33" transform="matrix(0.56, 1.53, 1.64, -0.92, 162.11, 284.49)" xlink:href="#a6144146-2683-4207-a6b7-89372f46de6f"/><use width="2.33" height="2.33" transform="matrix(0.43, 1.17, 1.26, -0.71, 237.93, 221.34)" xlink:href="#a6144146-2683-4207-a6b7-89372f46de6f"/><use width="2.33" height="2.33" transform="matrix(0.48, 1.31, 1.41, -0.79, 237.38, 107.17)" xlink:href="#a6144146-2683-4207-a6b7-89372f46de6f"/><use width="2.33" height="2.33" transform="matrix(0.31, 0.85, 0.92, -0.51, 251.64, 72.39)" xlink:href="#a6144146-2683-4207-a6b7-89372f46de6f"/><use width="2.33" height="2.33" transform="matrix(0.35, 0.95, 1.02, -0.57, 273.32, 76.02)" xlink:href="#a6144146-2683-4207-a6b7-89372f46de6f"/><use width="2.33" height="2.33" transform="matrix(0.5, 1.36, 1.47, -0.82, 257.12, 128.28)" xlink:href="#a6144146-2683-4207-a6b7-89372f46de6f"/><use width="2.33" height="2.33" transform="matrix(0.44, 1.2, 1.29, -0.72, 285.14, 178.15)" xlink:href="#a6144146-2683-4207-a6b7-89372f46de6f"/><use width="2.33" height="2.33" transform="matrix(0.32, 0.88, 0.95, -0.53, 358.68, 258.53)" xlink:href="#a6144146-2683-4207-a6b7-89372f46de6f"/><use width="2.33" height="2.33" transform="matrix(0.35, 0.95, 1.03, -0.58, 385.33, 283.12)" xlink:href="#a6144146-2683-4207-a6b7-89372f46de6f"/><use width="2.33" height="2.33" transform="matrix(0.37, 0.99, 1.07, -0.6, 416.3, 286.8)" xlink:href="#a6144146-2683-4207-a6b7-89372f46de6f"/><use width="2.33" height="2.33" transform="matrix(0.36, 0.97, 1.05, -0.59, 438.25, 319.67)" xlink:href="#a6144146-2683-4207-a6b7-89372f46de6f"/><use width="2.33" height="2.33" transform="matrix(0.33, 0.91, 0.98, -0.55, 386.07, 327.09)" xlink:href="#a6144146-2683-4207-a6b7-89372f46de6f"/><use width="2.33" height="2.33" transform="matrix(0.52, 1.41, 1.52, -0.85, 298.51, 343.94)" xlink:href="#a6144146-2683-4207-a6b7-89372f46de6f"/><use width="2.33" height="2.33" transform="matrix(0.58, 1.57, 1.69, -0.95, 246.32, 389.7)" xlink:href="#a6144146-2683-4207-a6b7-89372f46de6f"/><use width="2.33" height="2.33" transform="matrix(0.37, 1, 1.07, -0.6, 201.69, 407.26)" xlink:href="#a6144146-2683-4207-a6b7-89372f46de6f"/><use width="2.33" height="2.33" transform="matrix(0.22, 0.59, 0.63, -0.36, 216.38, 548.22)" xlink:href="#a6144146-2683-4207-a6b7-89372f46de6f"/><use width="2.33" height="2.33" transform="matrix(0.21, 0.57, 0.61, -0.34, 115.37, 546.74)" xlink:href="#a6144146-2683-4207-a6b7-89372f46de6f"/><use width="2.33" height="2.33" transform="matrix(0.44, 1.19, 1.28, -0.72, 84.06, 650.34)" xlink:href="#a6144146-2683-4207-a6b7-89372f46de6f"/><use width="2.33" height="2.33" transform="matrix(0.24, 0.65, 0.7, -0.39, 94.21, 558.16)" xlink:href="#a6144146-2683-4207-a6b7-89372f46de6f"/><use width="2.33" height="2.33" transform="matrix(0.43, 1.16, 1.25, -0.7, 84.92, 387.56)" xlink:href="#a6144146-2683-4207-a6b7-89372f46de6f"/><use width="2.33" height="2.33" transform="matrix(0.3, 0.82, 0.89, -0.5, 20.29, 298.43)" xlink:href="#a6144146-2683-4207-a6b7-89372f46de6f"/><use width="2.33" height="2.33" transform="matrix(0.28, 0.75, 0.81, -0.46, 44.53, 268.1)" xlink:href="#a6144146-2683-4207-a6b7-89372f46de6f"/><use width="2.33" height="2.33" transform="matrix(0.29, 0.79, 0.85, -0.48, 4.42, 385.8)" xlink:href="#a6144146-2683-4207-a6b7-89372f46de6f"/><use width="2.33" height="2.33" transform="matrix(0.22, 0.6, 0.65, -0.36, 111.07, 495.17)" xlink:href="#a6144146-2683-4207-a6b7-89372f46de6f"/><use width="2.33" height="2.33" transform="matrix(0.19, 0.51, 0.55, -0.31, 202.77, 567.85)" xlink:href="#a6144146-2683-4207-a6b7-89372f46de6f"/><use width="2.33" height="2.33" transform="matrix(0.26, 0.69, 0.74, -0.42, 200.53, 498.91)" xlink:href="#a6144146-2683-4207-a6b7-89372f46de6f"/><use width="2.33" height="2.33" transform="matrix(0.28, 0.76, 0.82, -0.46, 212.06, 498.46)" xlink:href="#a6144146-2683-4207-a6b7-89372f46de6f"/><use width="2.33" height="2.33" transform="matrix(0.29, 0.78, 0.84, -0.47, 241.57, 543.13)" xlink:href="#a6144146-2683-4207-a6b7-89372f46de6f"/><use width="2.33" height="2.33" transform="matrix(0.28, 0.76, 0.82, -0.46, 236.36, 529.38)" xlink:href="#a6144146-2683-4207-a6b7-89372f46de6f"/><use width="2.33" height="2.33" transform="matrix(0.57, 1.56, 1.68, -0.94, 235.49, 362.97)" xlink:href="#a6144146-2683-4207-a6b7-89372f46de6f"/><use width="2.33" height="2.33" transform="matrix(0.26, 0.7, 0.75, -0.42, 183.22, 213.74)" xlink:href="#a6144146-2683-4207-a6b7-89372f46de6f"/><use width="2.33" height="2.33" transform="matrix(0.19, 0.5, 0.54, -0.3, 98.2, 234.26)" xlink:href="#a6144146-2683-4207-a6b7-89372f46de6f"/><use width="2.33" height="2.33" transform="matrix(0.37, 1, 1.08, -0.61, 11.85, 359.01)" xlink:href="#a6144146-2683-4207-a6b7-89372f46de6f"/><use width="2.33" height="2.33" transform="matrix(0.48, 1.29, 1.39, -0.78, 29.95, 82.73)" xlink:href="#a6144146-2683-4207-a6b7-89372f46de6f"/><use width="2.33" height="2.33" transform="matrix(0.53, 1.45, 1.56, -0.88, 45.87, 57.84)" xlink:href="#a6144146-2683-4207-a6b7-89372f46de6f"/><use width="2.33" height="2.33" transform="matrix(0.45, 1.21, 1.3, -0.73, 68.23, 150.52)" xlink:href="#a6144146-2683-4207-a6b7-89372f46de6f"/><use width="2.33" height="2.33" transform="matrix(0.38, 1.04, 1.11, -0.63, -1.87, 50)" xlink:href="#a6144146-2683-4207-a6b7-89372f46de6f"/><use width="2.33" height="2.33" transform="matrix(0.45, 1.23, 1.32, -0.74, 86.44, 180.01)" xlink:href="#a6144146-2683-4207-a6b7-89372f46de6f"/><use width="2.33" height="2.33" transform="matrix(0.44, 1.19, 1.28, -0.72, 159.81, 86.47)" xlink:href="#a6144146-2683-4207-a6b7-89372f46de6f"/><use width="2.33" height="2.33" transform="matrix(0.36, 0.98, 1.05, -0.59, 189.09, 92.71)" xlink:href="#a6144146-2683-4207-a6b7-89372f46de6f"/><use width="2.33" height="2.33" transform="matrix(0.21, 0.56, 0.61, -0.34, 176.14, 118.31)" xlink:href="#a6144146-2683-4207-a6b7-89372f46de6f"/><use width="2.33" height="2.33" transform="matrix(0.46, 1.24, 1.33, -0.75, 189.29, 133.14)" xlink:href="#a6144146-2683-4207-a6b7-89372f46de6f"/><use width="2.33" height="2.33" transform="matrix(0.56, 1.51, 1.63, -0.91, 247.63, 137.82)" xlink:href="#a6144146-2683-4207-a6b7-89372f46de6f"/><use width="2.33" height="2.33" transform="matrix(0.38, 1.03, 1.1, -0.62, 305.46, 155.09)" xlink:href="#a6144146-2683-4207-a6b7-89372f46de6f"/><use width="2.33" height="2.33" transform="matrix(0.34, 0.93, 1.01, -0.56, 330.2, 241.3)" xlink:href="#a6144146-2683-4207-a6b7-89372f46de6f"/><use width="2.33" height="2.33" transform="matrix(0.35, 0.95, 1.02, -0.57, 336.84, 255.52)" xlink:href="#a6144146-2683-4207-a6b7-89372f46de6f"/><use width="2.33" height="2.33" transform="matrix(0.39, 1.05, 1.13, -0.63, 374.37, 307.31)" xlink:href="#a6144146-2683-4207-a6b7-89372f46de6f"/><use width="2.33" height="2.33" transform="matrix(0.38, 1.03, 1.11, -0.62, 408.12, 298.59)" xlink:href="#a6144146-2683-4207-a6b7-89372f46de6f"/><use width="2.33" height="2.33" transform="matrix(0.4, 1.08, 1.16, -0.65, 437.36, 294.13)" xlink:href="#a6144146-2683-4207-a6b7-89372f46de6f"/><use width="2.33" height="2.33" transform="matrix(0.38, 1.04, 1.11, -0.63, 455.56, 323.01)" xlink:href="#a6144146-2683-4207-a6b7-89372f46de6f"/><use width="2.33" height="2.33" transform="matrix(0.4, 1.08, 1.17, -0.65, 463.52, 324.67)" xlink:href="#a6144146-2683-4207-a6b7-89372f46de6f"/><use width="2.33" height="2.33" transform="matrix(0.5, 1.37, 1.47, -0.82, 286.91, 321.8)" xlink:href="#a6144146-2683-4207-a6b7-89372f46de6f"/><use width="2.33" height="2.33" transform="matrix(0.44, 1.19, 1.28, -0.72, 228.27, 189.67)" xlink:href="#a6144146-2683-4207-a6b7-89372f46de6f"/><use width="2.33" height="2.33" transform="matrix(0.19, 0.52, 0.56, -0.32, 135.06, 118.84)" xlink:href="#a6144146-2683-4207-a6b7-89372f46de6f"/><use width="2.33" height="2.33" transform="matrix(0.12, 0.32, 0.34, -0.19, 81.35, 100.16)" xlink:href="#a6144146-2683-4207-a6b7-89372f46de6f"/><use width="2.33" height="2.33" transform="matrix(0.16, 0.43, 0.46, -0.26, 106.03, 188.24)" xlink:href="#a6144146-2683-4207-a6b7-89372f46de6f"/><use width="2.33" height="2.33" transform="matrix(0.23, 0.62, 0.67, -0.38, 92.09, 292.24)" xlink:href="#a6144146-2683-4207-a6b7-89372f46de6f"/><use width="2.33" height="2.33" transform="matrix(0.31, 0.85, 0.92, -0.51, 142.48, 89.56)" xlink:href="#a6144146-2683-4207-a6b7-89372f46de6f"/><use width="2.33" height="2.33" transform="matrix(0.3, 0.82, 0.88, -0.5, 217.57, 89.18)" xlink:href="#a6144146-2683-4207-a6b7-89372f46de6f"/><use width="2.33" height="2.33" transform="matrix(0.4, 1.09, 1.17, -0.66, 279.39, 123.16)" xlink:href="#a6144146-2683-4207-a6b7-89372f46de6f"/><use width="2.33" height="2.33" transform="matrix(0.26, 0.72, 0.77, -0.43, 373.74, 219.3)" xlink:href="#a6144146-2683-4207-a6b7-89372f46de6f"/><use width="2.33" height="2.33" transform="matrix(0.3, 0.8, 0.86, -0.48, 434.97, 242.71)" xlink:href="#a6144146-2683-4207-a6b7-89372f46de6f"/><use width="2.33" height="2.33" transform="matrix(0.27, 0.72, 0.78, -0.44, 209.45, 221.54)" xlink:href="#a6144146-2683-4207-a6b7-89372f46de6f"/><use width="2.33" height="2.33" transform="matrix(0.16, 0.43, 0.46, -0.26, 132.49, 113.1)" xlink:href="#a6144146-2683-4207-a6b7-89372f46de6f"/><use width="2.33" height="2.33" transform="matrix(0.18, 0.48, 0.52, -0.29, 69.37, 111.62)" xlink:href="#a6144146-2683-4207-a6b7-89372f46de6f"/><use width="2.33" height="2.33" transform="matrix(0.34, 0.92, 0.99, -0.56, 15.7, 68.19)" xlink:href="#a6144146-2683-4207-a6b7-89372f46de6f"/><use width="2.33" height="2.33" transform="matrix(0.26, 0.71, 0.76, -0.43, 70.66, 127.48)" xlink:href="#a6144146-2683-4207-a6b7-89372f46de6f"/><use width="2.33" height="2.33" transform="matrix(0.19, 0.51, 0.55, -0.31, 67.33, 79.75)" xlink:href="#a6144146-2683-4207-a6b7-89372f46de6f"/><use width="2.33" height="2.33" transform="matrix(0.23, 0.62, 0.67, -0.37, 92.03, 209.7)" xlink:href="#a6144146-2683-4207-a6b7-89372f46de6f"/><use width="2.33" height="2.33" transform="matrix(0.29, 0.78, 0.84, -0.47, 55.64, 186.99)" xlink:href="#a6144146-2683-4207-a6b7-89372f46de6f"/><use width="2.33" height="2.33" transform="matrix(0.31, 0.83, 0.9, -0.5, 27.84, 133.28)" xlink:href="#a6144146-2683-4207-a6b7-89372f46de6f"/></g></g><path d="M148.6,175.78l-81.82-28.2a17.54,17.54,0,0,0-22.46,21.78h0a17.53,17.53,0,0,0,17.93,12.3Z" fill="#15bde8"/><path d="M154.12,162.66l-68.2-46a11.52,11.52,0,0,1-1.8-17.6h0a11.51,11.51,0,0,1,17,.64Z" fill="#15bde8"/><path d="M148.9,194l-40.48,7.22a10.56,10.56,0,0,0-8.56,12.15h0a10.56,10.56,0,0,0,17,6.47Z" fill="#15bde8"/><path d="M166.82,144.17l-4.34-40.89A10.57,10.57,0,0,0,151,93.88h0a10.57,10.57,0,0,0-7.65,16.56Z" fill="#15bde8"/><path d="M347.51,372.7s14.6,3.54,21.78-7.88-6.84-7.32-8.75-22.5.85-42.66,3.8-50.63l-7.45-5.6L346.43,303l-14.75,48.31,8.32,14.3Z" fill="#f2f1f0"/><path d="M349.08,283.7c-1.27,1.24-27.1,56.3-22.35,70.2s20.78,18.8,20.78,18.8-21.18-16.86,10.11-83.06Z" fill="#c9c7c4"/><path d="M395.76,257.15l10.83,7.65a12.82,12.82,0,0,1,4,16.82l-.44.78a13.38,13.38,0,0,1-14.68,6.22l-17.78-4.11Z" fill="#fff"/><path d="M195.37,256.8l144.5,17.36a126.23,126.23,0,0,1,16.92,3.23c17.61,4.63,27.41,5.78,33.24-8.16h0c4.87-11.66,0-19.15-15.29-28.81A146.19,146.19,0,0,1,352,222.68L245.81,121.33Z" fill="#f2f1f0"/><path d="M344.31,292.71l13.94,7.08a23,23,0,0,0,31.17-10.62l9.66-20.3a23,23,0,0,0-10.4-30.41l-15.88-8L380,247l-16.11,32.44Z" fill="#15bde8"/><ellipse cx="218.6" cy="187.8" rx="74.64" ry="41.77" transform="translate(-26.37 339.61) rotate(-72.45)" fill="#c9c7c4"/><ellipse cx="217.26" cy="187.57" rx="68.67" ry="36.08" transform="translate(-27.09 338.16) rotate(-72.45)" fill="#1c1c50"/><path d="M361.46,230.94s14.12,8.4,9.5,18.55S361.37,277,345.57,275l-6.75-.95s-5.71,11,1.93,16.39,18.67,10.39,27-4.83,19.51-32.79,18.61-42.71C385.91,237.56,368.07,223.75,361.46,230.94Z" fill="#15bde8"/><path d="M218,171.93a11.45,11.45,0,0,0-14.69,6.14l-3.86,9A11.43,11.43,0,0,0,205,201.93l37.72,17.81a126.07,126.07,0,0,0,8.91-21.29q1.92-6.1,3.18-12.08Z" fill="#c9c7c4"/><path d="M218,171.93a11.45,11.45,0,0,0-14.69,6.14l-3.86,9A11.43,11.43,0,0,0,205,201.93l1.15.54a9.31,9.31,0,0,0,12.59-4.87l4.75-10.78A10.72,10.72,0,0,0,218,171.93Z" fill="#f2f1f0"/></svg>