<svg xmlns="http://www.w3.org/2000/svg" xmlns:xlink="http://www.w3.org/1999/xlink" viewBox="0 0 167.95 182.52"><defs><linearGradient id="a0daead8-b97f-4af4-8846-fd5b5c8fdf12" x1="-970.75" y1="784.63" x2="-1008.98" y2="675.4" gradientTransform="matrix(-0.52, 0.86, 0.86, 0.52, -1031.62, 577.35)" gradientUnits="userSpaceOnUse"><stop offset="0" stop-color="#15bde8"/><stop offset="0.44" stop-color="#1870a0"/><stop offset="0.82" stop-color="#1b3466"/><stop offset="1" stop-color="#1c1c50"/></linearGradient><clipPath id="a0d73410-2333-4847-a1c5-125e5025c838"><path d="M150.21,33.78c23.93,41.87-27.55,62.32-23.07,87.4,7.56,42.37-29.2,54-53.12,42.18C53.6,153.25,60.34,124.45,20.12,125c-21.81.29-21.57-28.88-18.83-41.2C14.3,25.36,115-27.87,150.21,33.78Z" fill="none"/></clipPath><symbol id="a2974066-c2a0-47d0-9f4a-649abf56488b" data-name="New Symbol 2" viewBox="0 0 2.33 2.33"><path d="M2.33,1.17A1.17,1.17,0,1,1,1.17,0,1.16,1.16,0,0,1,2.33,1.17Z" fill="#fff"/></symbol></defs><title>Artboard 5</title><g style="isolation:isolate"><g id="a38058c1-24ae-408a-bbe9-64c2374a5ca4" data-name="Layer 1"><path d="M150.76,87.84c48,18.44-14.51,89.92-64.48,76.56S7,110.06,3.66,75.67C.44,42.25,23.29,9.29,50.38,2.86,133.63-16.9,108.39,71.56,150.76,87.84Z" fill="#eae9e8"/><path d="M150.21,33.78c23.93,41.87-27.55,62.32-23.07,87.4,7.56,42.37-29.2,54-53.12,42.18C53.6,153.25,60.34,124.45,20.12,125c-21.81.29-21.57-28.88-18.83-41.2C14.3,25.36,115-27.87,150.21,33.78Z" fill="url(#a0daead8-b97f-4af4-8846-fd5b5c8fdf12)"/><g clip-path="url(#a0d73410-2333-4847-a1c5-125e5025c838)"><g opacity="0.25"><use width="2.33" height="2.33" transform="matrix(0.35, -0.09, -0.17, -0.39, 15.02, 174.79)" xlink:href="#a2974066-c2a0-47d0-9f4a-649abf56488b"/><use width="2.33" height="2.33" transform="matrix(0.35, -0.09, -0.17, -0.38, 15.41, 163.52)" xlink:href="#a2974066-c2a0-47d0-9f4a-649abf56488b"/><use width="2.33" height="2.33" transform="matrix(0.12, -0.03, -0.06, -0.13, 26.64, 135.86)" xlink:href="#a2974066-c2a0-47d0-9f4a-649abf56488b"/><use width="2.33" height="2.33" transform="matrix(0.35, -0.09, -0.17, -0.39, 105.11, 134.93)" xlink:href="#a2974066-c2a0-47d0-9f4a-649abf56488b"/><use width="2.33" height="2.33" transform="matrix(0.54, -0.14, -0.26, -0.59, 113, 137.88)" xlink:href="#a2974066-c2a0-47d0-9f4a-649abf56488b"/><use width="2.33" height="2.33" transform="matrix(0.56, -0.14, -0.27, -0.62, 99.87, 112.99)" xlink:href="#a2974066-c2a0-47d0-9f4a-649abf56488b"/><use width="2.33" height="2.33" transform="matrix(0.43, -0.11, -0.21, -0.47, 80.21, 83.84)" xlink:href="#a2974066-c2a0-47d0-9f4a-649abf56488b"/><use width="2.33" height="2.33" transform="matrix(0.48, -0.12, -0.23, -0.53, 39.72, 79.93)" xlink:href="#a2974066-c2a0-47d0-9f4a-649abf56488b"/><use width="2.33" height="2.33" transform="matrix(0.31, -0.08, -0.15, -0.34, 27.91, 73.63)" xlink:href="#a2974066-c2a0-47d0-9f4a-649abf56488b"/><use width="2.33" height="2.33" transform="matrix(0.35, -0.09, -0.17, -0.38, 29.97, 66.07)" xlink:href="#a2974066-c2a0-47d0-9f4a-649abf56488b"/><use width="2.33" height="2.33" transform="matrix(0.5, -0.13, -0.24, -0.55, 47.91, 73.7)" xlink:href="#a2974066-c2a0-47d0-9f4a-649abf56488b"/><use width="2.33" height="2.33" transform="matrix(0.44, -0.11, -0.21, -0.48, 66.6, 65.56)" xlink:href="#a2974066-c2a0-47d0-9f4a-649abf56488b"/><use width="2.33" height="2.33" transform="matrix(0.32, -0.08, -0.15, -0.36, 97.74, 42.38)" xlink:href="#a2974066-c2a0-47d0-9f4a-649abf56488b"/><use width="2.33" height="2.33" transform="matrix(0.35, -0.09, -0.17, -0.38, 107.41, 33.82)" xlink:href="#a2974066-c2a0-47d0-9f4a-649abf56488b"/><use width="2.33" height="2.33" transform="matrix(0.36, -0.09, -0.17, -0.4, 109.83, 22.97)" xlink:href="#a2974066-c2a0-47d0-9f4a-649abf56488b"/><use width="2.33" height="2.33" transform="matrix(0.36, -0.09, -0.17, -0.39, 122.27, 16.37)" xlink:href="#a2974066-c2a0-47d0-9f4a-649abf56488b"/><use width="2.33" height="2.33" transform="matrix(0.33, -0.09, -0.16, -0.37, 123.03, 35.14)" xlink:href="#a2974066-c2a0-47d0-9f4a-649abf56488b"/><use width="2.33" height="2.33" transform="matrix(0.52, -0.13, -0.25, -0.57, 125.85, 66.78)" xlink:href="#a2974066-c2a0-47d0-9f4a-649abf56488b"/><use width="2.33" height="2.33" transform="matrix(0.58, -0.15, -0.28, -0.63, 140.19, 86.93)" xlink:href="#a2974066-c2a0-47d0-9f4a-649abf56488b"/><use width="2.33" height="2.33" transform="matrix(0.37, -0.09, -0.17, -0.4, 144.81, 103.38)" xlink:href="#a2974066-c2a0-47d0-9f4a-649abf56488b"/><use width="2.33" height="2.33" transform="matrix(0.43, -0.11, -0.2, -0.47, 133.63, 144.06)" xlink:href="#a2974066-c2a0-47d0-9f4a-649abf56488b"/><use width="2.33" height="2.33" transform="matrix(0.44, -0.11, -0.21, -0.49, 114.42, 181.98)" xlink:href="#a2974066-c2a0-47d0-9f4a-649abf56488b"/><use width="2.33" height="2.33" transform="matrix(0.3, -0.08, -0.14, -0.33, 99.71, 163.77)" xlink:href="#a2974066-c2a0-47d0-9f4a-649abf56488b"/><use width="2.33" height="2.33" transform="matrix(0.28, -0.07, -0.13, -0.3, 89.83, 154.08)" xlink:href="#a2974066-c2a0-47d0-9f4a-649abf56488b"/><use width="2.33" height="2.33" transform="matrix(0.29, -0.07, -0.14, -0.32, 130.11, 172.53)" xlink:href="#a2974066-c2a0-47d0-9f4a-649abf56488b"/><use width="2.33" height="2.33" transform="matrix(0.57, -0.15, -0.27, -0.63, 130.33, 89.8)" xlink:href="#a2974066-c2a0-47d0-9f4a-649abf56488b"/><use width="2.33" height="2.33" transform="matrix(0.26, -0.07, -0.12, -0.28, 75.55, 102.97)" xlink:href="#a2974066-c2a0-47d0-9f4a-649abf56488b"/><use width="2.33" height="2.33" transform="matrix(0.18, -0.05, -0.09, -0.2, 79.77, 133.84)" xlink:href="#a2974066-c2a0-47d0-9f4a-649abf56488b"/><use width="2.33" height="2.33" transform="matrix(0.37, -0.1, -0.18, -0.4, 120.88, 168.94)" xlink:href="#a2974066-c2a0-47d0-9f4a-649abf56488b"/><use width="2.33" height="2.33" transform="matrix(0.48, -0.12, -0.23, -0.52, 23.6, 152.59)" xlink:href="#a2974066-c2a0-47d0-9f4a-649abf56488b"/><use width="2.33" height="2.33" transform="matrix(0.53, -0.14, -0.25, -0.58, 15.35, 146.05)" xlink:href="#a2974066-c2a0-47d0-9f4a-649abf56488b"/><use width="2.33" height="2.33" transform="matrix(0.45, -0.11, -0.21, -0.49, 49, 141.45)" xlink:href="#a2974066-c2a0-47d0-9f4a-649abf56488b"/><use width="2.33" height="2.33" transform="matrix(0.38, -0.1, -0.18, -0.42, 10.85, 162.69)" xlink:href="#a2974066-c2a0-47d0-9f4a-649abf56488b"/><use width="2.33" height="2.33" transform="matrix(0.25, -0.07, -0.12, -0.28, 1.77, 181.38)" xlink:href="#a2974066-c2a0-47d0-9f4a-649abf56488b"/><use width="2.33" height="2.33" transform="matrix(0.45, -0.12, -0.22, -0.5, 60.12, 136.06)" xlink:href="#a2974066-c2a0-47d0-9f4a-649abf56488b"/><use width="2.33" height="2.33" transform="matrix(0.44, -0.11, -0.21, -0.48, 29.59, 106.69)" xlink:href="#a2974066-c2a0-47d0-9f4a-649abf56488b"/><use width="2.33" height="2.33" transform="matrix(0.36, -0.09, -0.17, -0.39, 32.86, 96.53)" xlink:href="#a2974066-c2a0-47d0-9f4a-649abf56488b"/><use width="2.33" height="2.33" transform="matrix(0.21, -0.05, -0.1, -0.23, 41.47, 102.04)" xlink:href="#a2974066-c2a0-47d0-9f4a-649abf56488b"/><use width="2.33" height="2.33" transform="matrix(0.46, -0.12, -0.22, -0.5, 47.2, 97.92)" xlink:href="#a2974066-c2a0-47d0-9f4a-649abf56488b"/><use width="2.33" height="2.33" transform="matrix(0.56, -0.14, -0.27, -0.61, 50.95, 77.4)" xlink:href="#a2974066-c2a0-47d0-9f4a-649abf56488b"/><use width="2.33" height="2.33" transform="matrix(0.38, -0.1, -0.18, -0.41, 59.16, 57.53)" xlink:href="#a2974066-c2a0-47d0-9f4a-649abf56488b"/><use width="2.33" height="2.33" transform="matrix(0.34, -0.09, -0.16, -0.38, 90.61, 51.86)" xlink:href="#a2974066-c2a0-47d0-9f4a-649abf56488b"/><use width="2.33" height="2.33" transform="matrix(0.35, -0.09, -0.17, -0.38, 95.89, 50.01)" xlink:href="#a2974066-c2a0-47d0-9f4a-649abf56488b"/><use width="2.33" height="2.33" transform="matrix(0.39, -0.1, -0.18, -0.42, 115.59, 38.57)" xlink:href="#a2974066-c2a0-47d0-9f4a-649abf56488b"/><use width="2.33" height="2.33" transform="matrix(0.38, -0.1, -0.18, -0.41, 113.72, 26.29)" xlink:href="#a2974066-c2a0-47d0-9f4a-649abf56488b"/><use width="2.33" height="2.33" transform="matrix(0.4, -0.1, -0.19, -0.44, 113.19, 15.77)" xlink:href="#a2974066-c2a0-47d0-9f4a-649abf56488b"/><use width="2.33" height="2.33" transform="matrix(0.38, -0.1, -0.18, -0.42, 124.08, 10.36)" xlink:href="#a2974066-c2a0-47d0-9f4a-649abf56488b"/><use width="2.33" height="2.33" transform="matrix(0.4, -0.1, -0.19, -0.44, 124.95, 7.59)" xlink:href="#a2974066-c2a0-47d0-9f4a-649abf56488b"/><use width="2.33" height="2.33" transform="matrix(0.44, -0.11, -0.21, -0.48, 123.28, 3.68)" xlink:href="#a2974066-c2a0-47d0-9f4a-649abf56488b"/><use width="2.33" height="2.33" transform="matrix(0.5, -0.13, -0.24, -0.55, 117.58, 70.1)" xlink:href="#a2974066-c2a0-47d0-9f4a-649abf56488b"/><use width="2.33" height="2.33" transform="matrix(0.44, -0.11, -0.21, -0.48, 68.64, 86.13)" xlink:href="#a2974066-c2a0-47d0-9f4a-649abf56488b"/><use width="2.33" height="2.33" transform="matrix(0.19, -0.05, -0.09, -0.21, 40.18, 116.62)" xlink:href="#a2974066-c2a0-47d0-9f4a-649abf56488b"/><use width="2.33" height="2.33" transform="matrix(0.12, -0.03, -0.06, -0.13, 31.63, 134.99)" xlink:href="#a2974066-c2a0-47d0-9f4a-649abf56488b"/><use width="2.33" height="2.33" transform="matrix(0.16, -0.04, -0.08, -0.17, 63.74, 129.41)" xlink:href="#a2974066-c2a0-47d0-9f4a-649abf56488b"/><use width="2.33" height="2.33" transform="matrix(0.23, -0.06, -0.11, -0.25, 100.1, 138.09)" xlink:href="#a2974066-c2a0-47d0-9f4a-649abf56488b"/><use width="2.33" height="2.33" transform="matrix(0.31, -0.08, -0.15, -0.34, 30.07, 112.94)" xlink:href="#a2974066-c2a0-47d0-9f4a-649abf56488b"/><use width="2.33" height="2.33" transform="matrix(0.3, -0.08, -0.14, -0.33, 32.63, 86.31)" xlink:href="#a2974066-c2a0-47d0-9f4a-649abf56488b"/><use width="2.33" height="2.33" transform="matrix(0.4, -0.1, -0.19, -0.44, 46.9, 65.62)" xlink:href="#a2974066-c2a0-47d0-9f4a-649abf56488b"/><use width="2.33" height="2.33" transform="matrix(0.26, -0.07, -0.13, -0.29, 84.37, 35.63)" xlink:href="#a2974066-c2a0-47d0-9f4a-649abf56488b"/><use width="2.33" height="2.33" transform="matrix(0.3, -0.08, -0.14, -0.32, 94.87, 14.77)" xlink:href="#a2974066-c2a0-47d0-9f4a-649abf56488b"/><use width="2.33" height="2.33" transform="matrix(0.27, -0.07, -0.13, -0.29, 79.26, 93.95)" xlink:href="#a2974066-c2a0-47d0-9f4a-649abf56488b"/><use width="2.33" height="2.33" transform="matrix(0.16, -0.04, -0.07, -0.17, 38.05, 117.33)" xlink:href="#a2974066-c2a0-47d0-9f4a-649abf56488b"/><use width="2.33" height="2.33" transform="matrix(0.18, -0.05, -0.08, -0.19, 35.26, 139.65)" xlink:href="#a2974066-c2a0-47d0-9f4a-649abf56488b"/><use width="2.33" height="2.33" transform="matrix(0.34, -0.09, -0.16, -0.37, 17.93, 157.11)" xlink:href="#a2974066-c2a0-47d0-9f4a-649abf56488b"/><use width="2.33" height="2.33" transform="matrix(0.26, -0.07, -0.12, -0.29, 40.92, 139.76)" xlink:href="#a2974066-c2a0-47d0-9f4a-649abf56488b"/><use width="2.33" height="2.33" transform="matrix(0.19, -0.05, -0.09, -0.21, 23.89, 139.23)" xlink:href="#a2974066-c2a0-47d0-9f4a-649abf56488b"/><use width="2.33" height="2.33" transform="matrix(0.23, -0.06, -0.11, -0.25, 70.84, 135.15)" xlink:href="#a2974066-c2a0-47d0-9f4a-649abf56488b"/><use width="2.33" height="2.33" transform="matrix(0.29, -0.07, -0.14, -0.32, 61.48, 147.23)" xlink:href="#a2974066-c2a0-47d0-9f4a-649abf56488b"/><use width="2.33" height="2.33" transform="matrix(0.31, -0.08, -0.15, -0.34, 41.44, 155.15)" xlink:href="#a2974066-c2a0-47d0-9f4a-649abf56488b"/><use width="2.33" height="2.33" transform="matrix(0.33, -0.08, -0.16, -0.36, 18.38, 165.71)" xlink:href="#a2974066-c2a0-47d0-9f4a-649abf56488b"/><use width="2.33" height="2.33" transform="matrix(0.25, -0.06, -0.12, -0.27, 19.24, 180.73)" xlink:href="#a2974066-c2a0-47d0-9f4a-649abf56488b"/><use width="2.33" height="2.33" transform="matrix(0.18, -0.05, -0.09, -0.2, 29.81, 179.89)" xlink:href="#a2974066-c2a0-47d0-9f4a-649abf56488b"/></g></g><path d="M134.79,160.59a41.39,41.39,0,1,1-17.06-56A41.4,41.4,0,0,1,134.79,160.59Z" fill="#2ba1bc"/><path d="M131.6,116.57a36.89,36.89,0,1,1-13.4-11.73l-.47-.25a41.37,41.37,0,1,0,13.87,12Z" fill="#416c83" opacity="0.1" style="mix-blend-mode:multiply"/><path d="M133.41,143.47c-6.88,12.9-23.93,17.25-38.08,9.7s-20.06-24.11-13.18-37,23.92-17.24,38.07-9.7S140.28,130.58,133.41,143.47Z" fill="#3eacce"/><path d="M129.45,130.21c-4.18,7.84-14.55,10.49-23.16,5.9s-12.2-14.68-8-22.52,14.55-10.49,23.16-5.9S133.64,122.36,129.45,130.21Z" fill="#15bde8"/><g opacity="0.3" style="mix-blend-mode:multiply"><path d="M71.76,162.38c.55-2,4.73-2.06,8.22.51s2.36,6.27,0,6.88S70.33,167.72,71.76,162.38Z" fill="#2f4d5e"/><path d="M110.28,170.84c-.34-1.84,1.57-4.18,4.66-4.87s6,.35,6.43,3.15-2.9,5.48-5.56,4.73S110.69,173,110.28,170.84Z" fill="#2f4d5e"/><path d="M80,174c.43-1.54,3.83-.47,3.87,1.61S79.47,175.68,80,174Z" fill="#2f4d5e"/><path d="M90.07,174.6c.65.73,2.61,1.49,3-.62S88,172.29,90.07,174.6Z" fill="#2f4d5e"/><path d="M104.73,177.41c1.47.17,3.53.26,3.84-1.71s-4.11-1.86-5.07-.83S103.43,177.25,104.73,177.41Z" fill="#2f4d5e"/><path d="M126.1,131.46c1,.75,3.83,1,4.31-1.64s-2.74-3.77-4.31-3.22S123.15,129.13,126.1,131.46Z" fill="#2f4d5e"/><path d="M121.42,118.32c1.06.94,5,1.43,6-.28s-1.55-4.08-4.8-4.31S117.63,115,121.42,118.32Z" fill="#2f4d5e"/><path d="M96.89,112.78c1.32.93,5.17.33,5.52-1.86S99,108.24,96.89,109,94.48,111.08,96.89,112.78Z" fill="#2f4d5e"/><path d="M87.68,107.36c1.46.67,3.58.48,3.68-.55s-1.28-1.64-2.79-1.51S85.9,106.54,87.68,107.36Z" fill="#2f4d5e"/><path d="M69,116.33c.19-1,1.3-.21,1.37.34S68.72,117.84,69,116.33Z" fill="#2f4d5e"/><path d="M71.58,130.16c-.34-.9,1.11-.68,1.18,0S71.84,130.85,71.58,130.16Z" fill="#2f4d5e"/><path d="M67.83,151.66a1,1,0,0,0,1.76-.75C69.47,149.75,67.35,150.84,67.83,151.66Z" fill="#2f4d5e"/><path d="M65.7,160.9c.2.34,1.25.71,1.31-.43S65.23,160.08,65.7,160.9Z" fill="#2f4d5e"/><path d="M99.65,180.35c.73.38,1.44-.3,1.18-1.13S98.16,179.58,99.65,180.35Z" fill="#2f4d5e"/><path d="M96.26,180.05c.49-.53-.82-.74-1.34-.35S95.64,180.71,96.26,180.05Z" fill="#2f4d5e"/><path d="M92.36,178.25c.58.37,1,.15,1.08-.36S91.33,177.58,92.36,178.25Z" fill="#2f4d5e"/><path d="M98,167.46c-.14-.33,1.34-.51,1.21,0A.64.64,0,0,1,98,167.46Z" fill="#2f4d5e"/><path d="M121.42,148.82c0-.77,1.24-.72,1.29,0S121.41,149.59,121.42,148.82Z" fill="#2f4d5e"/><path d="M128.05,136.54c-.05-.76,1.44-.82,1.49,0S128.1,137.32,128.05,136.54Z" fill="#2f4d5e"/><path d="M117.11,109.58c-.11-.89.92-.87,1.08,0S117.16,110,117.11,109.58Z" fill="#2f4d5e"/><path d="M109.92,109.28c-.81-.57.41-1.08.92-.62S110.79,109.89,109.92,109.28Z" fill="#2f4d5e"/><path d="M103.09,106c-.51-.25.15-1.25.82-.75S103.6,106.3,103.09,106Z" fill="#2f4d5e"/><path d="M99.39,103.17c-.55-.66.67-.47,1.08-.26S100.27,104.19,99.39,103.17Z" fill="#2f4d5e"/><path d="M108.38,105.15c-.51-1.06.82-.28.72,0S108.38,105.15,108.38,105.15Z" fill="#2f4d5e"/><path d="M99.5,105.29c-.47-.38.39-.41.43,0S99.5,105.29,99.5,105.29Z" fill="#2f4d5e"/><path d="M91.62,105.7c-.25-.18.31-.62.61-.29S92.06,106,91.62,105.7Z" fill="#2f4d5e"/><path d="M82.14,112c-.47-.37.92-.85,1.44-.34S82.86,112.56,82.14,112Z" fill="#2f4d5e"/></g><path d="M134.73,34.86c-.34,0-.44-.08-.4-.43a67.2,67.2,0,0,1,1.3-7.48c.1-.42.41-.41.67-.52a4.49,4.49,0,0,0,3-3.6,1.39,1.39,0,0,0-.76-1.61,1.41,1.41,0,0,0-1.71.5,7.3,7.3,0,0,0-1.31,2.84c-.5,1.47-.52,1.48-2,1-.86-.28-1.48-.65-1.46-1.74a5.25,5.25,0,0,0-.7-2.57,1.64,1.64,0,0,0-1.59-1A1.28,1.28,0,0,0,128.6,22,6.6,6.6,0,0,0,131,25a1,1,0,0,1,.45.82,51.81,51.81,0,0,1-.78,7.86c-.09.62-.34.69-.85.46s-.86-.33-1.29-.49a20.31,20.31,0,0,0-.26-2.2c-.51-2.59-2-4.73-3.22-7,0-.12-.08-.25-.13-.36-1.23-3.07-1.64-6.15-.1-9.22,3.31-6.6,12.27-7.37,17.4-3a10.48,10.48,0,0,1,1.72,13.56,19.69,19.69,0,0,1-3.49,3.74,7.52,7.52,0,0,0-2,1.8,19.45,19.45,0,0,0-2.25,3.74Zm7-22.18a1,1,0,0,0-1.41,0,.89.89,0,0,0-.15,1.3,10,10,0,0,0,2.1,2.73c.32.27.69.6,1.16.31s.43-.72.35-1.17A5.92,5.92,0,0,0,141.74,12.68Zm2.46,7.12c.51,0,.59-.52.5-.95s-.31-1-.93-.88a.6.6,0,0,0-.49.82C143.46,19.23,143.55,19.85,144.2,19.8Z" fill="#fbd46b"/><path d="M135.6,36.9a3.42,3.42,0,0,1-3.2,2.23c-2.44.13-3.9-1.08-4.07-3.45a6.46,6.46,0,0,1,.15-2c.43.16.87.31,1.29.49s.76.16.85-.46a51.81,51.81,0,0,0,.78-7.86A1,1,0,0,0,131,25a6.6,6.6,0,0,1-2.35-3,1.28,1.28,0,0,1,1.13-1.78,1.64,1.64,0,0,1,1.59,1,5.25,5.25,0,0,1,.7,2.57c0,1.09.6,1.46,1.46,1.74,1.51.5,1.53.49,2-1a7.3,7.3,0,0,1,1.31-2.84,1.41,1.41,0,0,1,1.71-.5,1.39,1.39,0,0,1,.76,1.61,4.49,4.49,0,0,1-3,3.6c-.26.11-.57.1-.67.52a67.2,67.2,0,0,0-1.3,7.48c0,.35.06.47.4.43l1.45-.18A7.74,7.74,0,0,1,135.6,36.9Zm-4.09-2.35.15,0c1.6.49,1.81.37,2-1.23a55.94,55.94,0,0,1,1.12-6.18c.11-.45,0-.59-.44-.62a5.38,5.38,0,0,1-1.75-.53c-.25-.12-.46-.23-.46.24a46.11,46.11,0,0,1-.8,7.69c0,.1,0,.2,0,.3A.28.28,0,0,0,131.51,34.55Zm7-12.11c-.09-.55-.48-.7-.95-.35a2.3,2.3,0,0,0-.74,1.05,14.46,14.46,0,0,0-.79,2.41A3.41,3.41,0,0,0,138.53,22.44Zm-7.95-.92c-.21-.37-.52-.69-1-.43s-.28.65-.12,1a5.82,5.82,0,0,0,1.83,2.14A5.92,5.92,0,0,0,130.58,21.52Z" fill="#f2f1f0"/><path d="M143.79,15.85a5.92,5.92,0,0,0-2-3.17,1,1,0,0,0-1.41,0,.89.89,0,0,0-.15,1.3,10,10,0,0,0,2.1,2.73c.32.27.69.6,1.16.31S143.87,16.3,143.79,15.85Z" fill="#f2f1f0"/><path d="M143.28,18.79c.18.44.27,1.06.92,1s.59-.52.5-.95-.31-1-.93-.88A.6.6,0,0,0,143.28,18.79Z" fill="#f2f1f0"/><path d="M131.32,34.25a.28.28,0,0,0,.19.3l.15,0c1.6.49,1.81.37,2-1.23a55.94,55.94,0,0,1,1.12-6.18c.11-.45,0-.59-.44-.62a5.38,5.38,0,0,1-1.75-.53c-.25-.12-.46-.23-.46.24a46.11,46.11,0,0,1-.8,7.69C131.33,34.05,131.33,34.15,131.32,34.25Z" fill="#fbd46b"/><path d="M136.05,25.55a3.41,3.41,0,0,0,2.48-3.11c-.09-.55-.48-.7-.95-.35a2.3,2.3,0,0,0-.74,1.05A14.46,14.46,0,0,0,136.05,25.55Z" fill="#fbd46b"/><path d="M131.29,24.24a5.92,5.92,0,0,0-.71-2.72c-.21-.37-.52-.69-1-.43s-.28.65-.12,1A5.82,5.82,0,0,0,131.29,24.24Z" fill="#fbd46b"/><path d="M152.24,13.57c.31-.1.72-.22,1.12-.38a.84.84,0,0,0,.63-1,1,1,0,0,0-1-.89,4.07,4.07,0,0,0-2.89,1.56c-.43.5,0,.76.42.8A12.87,12.87,0,0,0,152.24,13.57Z" fill="#eae9e8"/><path d="M137.93,3.52c.11.49,0,1.19.65,1.27s.64-.66.83-1a5.68,5.68,0,0,0,.58-2,.93.93,0,0,0-.7-1.09c-.59-.22-.93.07-1.19.53A3.77,3.77,0,0,0,137.93,3.52Z" fill="#eae9e8"/><path d="M153.55,25.66a1,1,0,0,0,.83-.72.83.83,0,0,0-.27-1,4.73,4.73,0,0,0-3.4-.63.38.38,0,0,0-.26.57A5,5,0,0,0,153.55,25.66Z" fill="#eae9e8"/><path d="M120.06,4.73c.08.52.47.67.71.92a4.27,4.27,0,0,0,2.14,1.15c.62.13.87-.15.58-.68a6.4,6.4,0,0,0-1.85-2.34c-.3-.21-.62-.37-.92-.1A1.44,1.44,0,0,0,120.06,4.73Z" fill="#eae9e8"/><path d="M91,126.47a18,18,0,0,1-18-1.16s-4.57-3.68-13.56,1.51a48.11,48.11,0,0,1,7.76-13A39.92,39.92,0,0,1,79.94,104c8-1.22,24.66,8,24.66,8l6,5.76a8.82,8.82,0,0,1-6.3,3.29c-3.86.06-5.41.8-13.32-2.83s-2.22,2.89-2.22,2.89Z" fill="#cecece" style="mix-blend-mode:multiply"/><path d="M100.9,29l.17,0a6.22,6.22,0,0,1,2.06,1.26.89.89,0,0,1,.3.85c-.21,1.14-.82,4-2,5s-3.33-2-3.21-5.33A1.89,1.89,0,0,1,100.9,29Z" fill="#f2f1f0"/><path d="M105.71,33a2.19,2.19,0,0,1,.05,1.83,2.91,2.91,0,0,1-.75,1,.66.66,0,0,1-1.08-.6A8.9,8.9,0,0,1,104.5,33,.66.66,0,0,1,105.71,33Z" fill="#f2f1f0"/><path d="M99.37,26.93c-1.48-.07-4.84-.21-6.78-.08a1.71,1.71,0,0,1-1.74-1.12,33.41,33.41,0,0,0-3.21-6.4A50.05,50.05,0,0,1,100.42,16a99.4,99.4,0,0,1-.27,10.2A.73.73,0,0,1,99.37,26.93Z" fill="#f2f1f0"/><path d="M85.22,50.56c-4.49-2.16-9.74-6.65-10-15.83-.2-7,4.55-11.48,10-14.27a26,26,0,0,1,3.65,5.68,1,1,0,0,1-.65,1.37,10.22,10.22,0,0,0-3.65,1.65c-4.3,3.31-5.61,14.81.26,18.13,9,5.06,21.64,1,23-6.62,1.11-6.39-1-11.41-5.2-13.11a1.06,1.06,0,0,1-.66-1.14c.4-2.83.65-6.23.79-8.63a.75.75,0,0,1,1.07-.63c7.32,3.16,12.48,10.65,9.31,22.35-1.59,5.86-6.33,9.77-12,11.67a23.93,23.93,0,0,0-4.27-.75A34.24,34.24,0,0,0,85.22,50.56Z" fill="#f2f1f0"/><path d="M91.52,52.5a21.42,21.42,0,0,1-6.3-1.94,34.24,34.24,0,0,1,11.58-.13,23.93,23.93,0,0,1,4.27.75A26.55,26.55,0,0,1,91.52,52.5Z" fill="#f5f4f4"/><path d="M100.42,16a50.05,50.05,0,0,0-12.78,3.29A20.32,20.32,0,0,0,86.4,17.6a1.46,1.46,0,0,1,.22-2C89.47,13.1,96.44,13.11,100.42,16Z" fill="#c9c7c4"/><path d="M75.23,34.73c.25,9.18,5.5,13.67,10,15.83q-.8.15-1.59.36a16.62,16.62,0,0,1-8.5-6.87c-5.37-9.12-2.74-20.2,6.56-25.51a1.68,1.68,0,0,1,2,.26c.47.49,1,1.05,1.49,1.66C79.78,23.25,75,27.7,75.23,34.73Z" fill="#c9c7c4"/><path d="M91.52,52.5a24.67,24.67,0,0,1-7.89-1.58q.8-.21,1.59-.36A21.42,21.42,0,0,0,91.52,52.5Z" fill="#c9c7c4"/><path d="M65.8,83.82c-.75-3.77,1.32-15,6-23.91a.43.43,0,0,1,0-.07,17.83,17.83,0,0,1,11.84-8.92A24.49,24.49,0,0,0,91,52.46c-2.33-.11-11.44.18-15.75,11.25a48,48,0,0,0-2.85,24h0C69.48,88.2,66.34,86.52,65.8,83.82Z" fill="#c9c7c4"/><path d="M81.61,65.36l-1.35,8C80.9,68.45,81.61,65.36,81.61,65.36Z" fill="#f5f4f4"/><path d="M79.1,104c3-13.12-.15-14.89.48-23.73.18-2.55.42-4.86.68-6.88l1.35-8s2.19,1.38,2,6.84S83,89.65,85,94.51c1.89,4.63-2.89,30-3.33,32.31a26.6,26.6,0,0,1-4.09-1.1A2.33,2.33,0,0,1,76,123.43C76.12,120.78,76.66,114.76,79.1,104Z" fill="#c9c7c4"/><path d="M99.82,100c.9,5.4,1.15,15.62,1.22,20.85a16.53,16.53,0,0,1-2.77-.76,2.34,2.34,0,0,1-1.54-2.18c0-2.94-.19-9.59-.73-15.36-.84-9-2.91-13.91-2.91-13.91A18.54,18.54,0,0,1,99.82,100Z" fill="#c9c7c4"/><path d="M75.22,63.71C79.53,52.64,88.64,52.35,91,52.46c.18,0,.36,0,.55,0a26.55,26.55,0,0,0,9.55-1.32c4.16,1.09,10.26,3.75,13.05,10.07a2.79,2.79,0,0,1-.23,2.64l-2.14,3.27c.36-.46,4-4.06,4.68-4.76l.24-.23c.8-.66,1.76-1.44,2.67-2.26,6-5.39,12-2.64,10.47,3.22s-12,15.53-17.46,14.78c-2.43-.34-5.95-3.55-7.27-5.48a46.17,46.17,0,0,0,4.62,21.32c4.71,9.14,2.24,20.74,1.36,24.11a2.6,2.6,0,0,1-1.15,1.56,12.42,12.42,0,0,1-8.87,1.4c-.07-5.23-.32-15.45-1.22-20.85a18.54,18.54,0,0,0-6.73-11.36c1.88,21.35.83,32.23.35,35.69a2.25,2.25,0,0,1-1.38,1.78,18.86,18.86,0,0,1-10.42.74c.44-2.29,5.22-27.68,3.33-32.31-2-4.86-1.51-16.84-1.34-22.31s-2-6.84-2-6.84c-2.2,2.42-3.1,10.43-4.37,16.83-.67,3.42-2.7,5.07-4.87,5.48A48,48,0,0,1,75.22,63.71Z" fill="#f2f1f0"/></g></g></svg>