<svg id="ac89677e-d57a-47e6-a73d-436b890180db" data-name="Layer 1" xmlns="http://www.w3.org/2000/svg" xmlns:xlink="http://www.w3.org/1999/xlink" viewBox="0 0 479.4 619.96"><defs><radialGradient id="a591a9f3-8647-443c-8536-96af4d7cd3c0" cx="-1522.48" cy="573.05" r="126.92" gradientTransform="translate(2323.58 457.56) scale(1.37 0.2)" gradientUnits="userSpaceOnUse"><stop offset="0" stop-color="#bdbdbd"/><stop offset="1" stop-color="#bec0c2" stop-opacity="0"/></radialGradient><linearGradient id="b385f548-c317-4aa1-9075-05bf8b100e89" x1="349.37" y1="495.78" x2="170.2" y2="119.04" gradientUnits="userSpaceOnUse"><stop offset="0" stop-color="#15bde8"/><stop offset="0.44" stop-color="#1870a0"/><stop offset="0.82" stop-color="#1b3466"/><stop offset="1" stop-color="#1c1c50"/></linearGradient><clipPath id="af0e424e-b11b-43a9-8e98-8569eea2c91d"><path d="M35.05,342.63c81.87,101.25,183.8-8.19,242.49,27.65,99.18,60.56,164.55-20.49,158.2-92.27-5.42-61.29-84.48-72.58-43.71-173.22C414.15,50.21,340.54,22.2,306.86,17,147.11-7.52-85.5,193.55,35.05,342.63Z" fill="none"/></clipPath><symbol id="a3a585be-5225-4dbc-b9e9-b5eeb8bac11c" data-name="New Symbol 2" viewBox="0 0 2.33 2.33"><path d="M2.33,1.17A1.17,1.17,0,1,1,1.17,0,1.16,1.16,0,0,1,2.33,1.17Z" fill="#fff"/></symbol></defs><title>life_preserver
</title><ellipse cx="242.66" cy="573.05" rx="236.74" ry="47.1" opacity="0.5" fill="url(#a591a9f3-8647-443c-8536-96af4d7cd3c0)"/><path d="M207.85,62.87C182.56-93.69-22.26,92.48,2,230S140.73,437.91,232.45,454.86c89.15,16.47,203.72-31.74,217.66-86.07C507.55,145,227.39,183.86,207.85,62.87Z" fill="#eae9e8"/><path d="M35.05,342.63c81.87,101.25,183.8-8.19,242.49,27.65,99.18,60.56,164.55-20.49,158.2-92.27-5.42-61.29-84.48-72.58-43.71-173.22C414.15,50.21,340.54,22.2,306.86,17,147.11-7.52-85.5,193.55,35.05,342.63Z" fill="url(#b385f548-c317-4aa1-9075-05bf8b100e89)"/><g clip-path="url(#af0e424e-b11b-43a9-8e98-8569eea2c91d)"><g opacity="0.25"><use width="2.33" height="2.33" transform="matrix(-0.19, 0.27, -0.27, -0.27, 412.99, 131.85)" xlink:href="#a3a585be-5225-4dbc-b9e9-b5eeb8bac11c"/><use width="2.33" height="2.33" transform="matrix(-0.58, 0.8, -0.81, -0.8, 333.74, 328.35)" xlink:href="#a3a585be-5225-4dbc-b9e9-b5eeb8bac11c"/><use width="2.33" height="2.33" transform="matrix(-0.88, 1.23, -1.24, -1.23, 333.43, 351.08)" xlink:href="#a3a585be-5225-4dbc-b9e9-b5eeb8bac11c"/><use width="2.33" height="2.33" transform="matrix(-0.92, 1.27, -1.29, -1.28, 283.69, 293.66)" xlink:href="#a3a585be-5225-4dbc-b9e9-b5eeb8bac11c"/><use width="2.33" height="2.33" transform="matrix(-0.7, 0.98, -0.99, -0.98, 229.63, 215.63)" xlink:href="#a3a585be-5225-4dbc-b9e9-b5eeb8bac11c"/><use width="2.33" height="2.33" transform="matrix(-0.78, 1.09, -1.1, -1.09, 259.48, 109.93)" xlink:href="#a3a585be-5225-4dbc-b9e9-b5eeb8bac11c"/><use width="2.33" height="2.33" transform="matrix(-0.51, 0.71, -0.72, -0.71, 255.2, 74.03)" xlink:href="#a3a585be-5225-4dbc-b9e9-b5eeb8bac11c"/><use width="2.33" height="2.33" transform="matrix(-0.57, 0.79, -0.8, -0.79, 234.17, 71.81)" xlink:href="#a3a585be-5225-4dbc-b9e9-b5eeb8bac11c"/><use width="2.33" height="2.33" transform="matrix(-0.82, 1.14, -1.15, -1.14, 235.76, 124.42)" xlink:href="#a3a585be-5225-4dbc-b9e9-b5eeb8bac11c"/><use width="2.33" height="2.33" transform="matrix(-0.72, 1, -1.01, -1, 196.97, 163.46)" xlink:href="#a3a585be-5225-4dbc-b9e9-b5eeb8bac11c"/><use width="2.33" height="2.33" transform="matrix(-0.53, 0.73, -0.74, -0.74, 108.13, 219.07)" xlink:href="#a3a585be-5225-4dbc-b9e9-b5eeb8bac11c"/><use width="2.33" height="2.33" transform="matrix(-0.57, 0.79, -0.8, -0.8, 77.1, 235.01)" xlink:href="#a3a585be-5225-4dbc-b9e9-b5eeb8bac11c"/><use width="2.33" height="2.33" transform="matrix(-0.59, 0.82, -0.83, -0.83, 47.45, 230.47)" xlink:href="#a3a585be-5225-4dbc-b9e9-b5eeb8bac11c"/><use width="2.33" height="2.33" transform="matrix(-0.58, 0.81, -0.82, -0.81, 18.66, 255.3)" xlink:href="#a3a585be-5225-4dbc-b9e9-b5eeb8bac11c"/><use width="2.33" height="2.33" transform="matrix(-0.54, 0.76, -0.76, -0.76, 65.12, 275.58)" xlink:href="#a3a585be-5225-4dbc-b9e9-b5eeb8bac11c"/><use width="2.33" height="2.33" transform="matrix(-0.85, 1.18, -1.19, -1.18, 141.96, 313.71)" xlink:href="#a3a585be-5225-4dbc-b9e9-b5eeb8bac11c"/><use width="2.33" height="2.33" transform="matrix(-0.94, 1.31, -1.33, -1.32, 178.58, 369.54)" xlink:href="#a3a585be-5225-4dbc-b9e9-b5eeb8bac11c"/><use width="2.33" height="2.33" transform="matrix(-0.6, 0.83, -0.84, -0.83, 215.43, 397.29)" xlink:href="#a3a585be-5225-4dbc-b9e9-b5eeb8bac11c"/><use width="2.33" height="2.33" transform="matrix(-0.35, 0.49, -0.5, -0.49, 165.59, 524.19)" xlink:href="#a3a585be-5225-4dbc-b9e9-b5eeb8bac11c"/><use width="2.33" height="2.33" transform="matrix(-0.34, 0.47, -0.48, -0.48, 259.6, 548.78)" xlink:href="#a3a585be-5225-4dbc-b9e9-b5eeb8bac11c"/><use width="2.33" height="2.33" transform="matrix(-0.39, 0.54, -0.55, -0.54, 276.28, 564.81)" xlink:href="#a3a585be-5225-4dbc-b9e9-b5eeb8bac11c"/><use width="2.33" height="2.33" transform="matrix(-0.69, 0.96, -0.98, -0.97, 328.75, 409.05)" xlink:href="#a3a585be-5225-4dbc-b9e9-b5eeb8bac11c"/><use width="2.33" height="2.33" transform="matrix(-0.72, 1.01, -1.02, -1.01, 442.98, 397.89)" xlink:href="#a3a585be-5225-4dbc-b9e9-b5eeb8bac11c"/><use width="2.33" height="2.33" transform="matrix(-0.49, 0.68, -0.69, -0.69, 411.57, 343.04)" xlink:href="#a3a585be-5225-4dbc-b9e9-b5eeb8bac11c"/><use width="2.33" height="2.33" transform="matrix(-0.45, 0.63, -0.64, -0.63, 396.9, 308.68)" xlink:href="#a3a585be-5225-4dbc-b9e9-b5eeb8bac11c"/><use width="2.33" height="2.33" transform="matrix(-0.47, 0.66, -0.67, -0.66, 403.82, 428.11)" xlink:href="#a3a585be-5225-4dbc-b9e9-b5eeb8bac11c"/><use width="2.33" height="2.33" transform="matrix(-0.36, 0.5, -0.51, -0.5, 276.84, 502.09)" xlink:href="#a3a585be-5225-4dbc-b9e9-b5eeb8bac11c"/><use width="2.33" height="2.33" transform="matrix(-0.31, 0.43, -0.43, -0.43, 173.15, 545.89)" xlink:href="#a3a585be-5225-4dbc-b9e9-b5eeb8bac11c"/><use width="2.33" height="2.33" transform="matrix(-0.41, 0.58, -0.58, -0.58, 192.95, 482.55)" xlink:href="#a3a585be-5225-4dbc-b9e9-b5eeb8bac11c"/><use width="2.33" height="2.33" transform="matrix(-0.46, 0.63, -0.64, -0.64, 182.39, 479.17)" xlink:href="#a3a585be-5225-4dbc-b9e9-b5eeb8bac11c"/><use width="2.33" height="2.33" transform="matrix(-0.47, 0.65, -0.66, -0.65, 143.55, 513)" xlink:href="#a3a585be-5225-4dbc-b9e9-b5eeb8bac11c"/><use width="2.33" height="2.33" transform="matrix(-0.46, 0.63, -0.64, -0.64, 151.9, 501.59)" xlink:href="#a3a585be-5225-4dbc-b9e9-b5eeb8bac11c"/><use width="2.33" height="2.33" transform="matrix(-0.93, 1.3, -1.31, -1.3, 195.49, 347.55)" xlink:href="#a3a585be-5225-4dbc-b9e9-b5eeb8bac11c"/><use width="2.33" height="2.33" transform="matrix(-0.42, 0.58, -0.59, -0.59, 282.3, 222.65)" xlink:href="#a3a585be-5225-4dbc-b9e9-b5eeb8bac11c"/><use width="2.33" height="2.33" transform="matrix(-0.3, 0.42, -0.42, -0.42, 355.84, 263.52)" xlink:href="#a3a585be-5225-4dbc-b9e9-b5eeb8bac11c"/><use width="2.33" height="2.33" transform="matrix(-0.6, 0.83, -0.85, -0.84, 403.82, 401.36)" xlink:href="#a3a585be-5225-4dbc-b9e9-b5eeb8bac11c"/><use width="2.33" height="2.33" transform="matrix(-0.78, 1.08, -1.09, -1.08, 458.06, 140.59)" xlink:href="#a3a585be-5225-4dbc-b9e9-b5eeb8bac11c"/><use width="2.33" height="2.33" transform="matrix(-0.87, 1.21, -1.22, -1.21, 449.69, 113.43)" xlink:href="#a3a585be-5225-4dbc-b9e9-b5eeb8bac11c"/><use width="2.33" height="2.33" transform="matrix(-0.73, 1.01, -1.02, -1.01, 405.15, 193.59)" xlink:href="#a3a585be-5225-4dbc-b9e9-b5eeb8bac11c"/><use width="2.33" height="2.33" transform="matrix(-0.74, 1.02, -1.03, -1.03, 380.69, 216.26)" xlink:href="#a3a585be-5225-4dbc-b9e9-b5eeb8bac11c"/><use width="2.33" height="2.33" transform="matrix(-0.71, 0.99, -1.01, -1, 336.71, 110.68)" xlink:href="#a3a585be-5225-4dbc-b9e9-b5eeb8bac11c"/><use width="2.33" height="2.33" transform="matrix(-0.58, 0.81, -0.82, -0.82, 307.96, 108.94)" xlink:href="#a3a585be-5225-4dbc-b9e9-b5eeb8bac11c"/><use width="2.33" height="2.33" transform="matrix(-0.34, 0.47, -0.48, -0.47, 313.39, 136)" xlink:href="#a3a585be-5225-4dbc-b9e9-b5eeb8bac11c"/><use width="2.33" height="2.33" transform="matrix(-0.74, 1.03, -1.05, -1.04, 297.39, 146.37)" xlink:href="#a3a585be-5225-4dbc-b9e9-b5eeb8bac11c"/><use width="2.33" height="2.33" transform="matrix(-0.91, 1.26, -1.28, -1.27, 242.11, 135.71)" xlink:href="#a3a585be-5225-4dbc-b9e9-b5eeb8bac11c"/><use width="2.33" height="2.33" transform="matrix(-0.61, 0.85, -0.86, -0.86, 184.06, 136.86)" xlink:href="#a3a585be-5225-4dbc-b9e9-b5eeb8bac11c"/><use width="2.33" height="2.33" transform="matrix(-0.56, 0.78, -0.79, -0.78, 138.97, 210.41)" xlink:href="#a3a585be-5225-4dbc-b9e9-b5eeb8bac11c"/><use width="2.33" height="2.33" transform="matrix(-0.57, 0.79, -0.8, -0.79, 129.15, 221.89)" xlink:href="#a3a585be-5225-4dbc-b9e9-b5eeb8bac11c"/><use width="2.33" height="2.33" transform="matrix(-0.63, 0.87, -0.88, -0.88, 81.04, 260.25)" xlink:href="#a3a585be-5225-4dbc-b9e9-b5eeb8bac11c"/><use width="2.33" height="2.33" transform="matrix(-0.62, 0.86, -0.87, -0.86, 52, 243.5)" xlink:href="#a3a585be-5225-4dbc-b9e9-b5eeb8bac11c"/><use width="2.33" height="2.33" transform="matrix(-0.65, 0.9, -0.91, -0.9, 26.04, 231.85)" xlink:href="#a3a585be-5225-4dbc-b9e9-b5eeb8bac11c"/><use width="2.33" height="2.33" transform="matrix(-0.62, 0.86, -0.87, -0.87, 1.75, 253.94)" xlink:href="#a3a585be-5225-4dbc-b9e9-b5eeb8bac11c"/><use width="2.33" height="2.33" transform="matrix(-0.82, 1.14, -1.15, -1.14, 158.4, 296.17)" xlink:href="#a3a585be-5225-4dbc-b9e9-b5eeb8bac11c"/><use width="2.33" height="2.33" transform="matrix(-0.71, 0.99, -1, -1, 246.72, 188.75)" xlink:href="#a3a585be-5225-4dbc-b9e9-b5eeb8bac11c"/><use width="2.33" height="2.33" transform="matrix(-0.31, 0.44, -0.44, -0.44, 351.33, 147.05)" xlink:href="#a3a585be-5225-4dbc-b9e9-b5eeb8bac11c"/><use width="2.33" height="2.33" transform="matrix(-0.19, 0.26, -0.27, -0.26, 405.93, 143.54)" xlink:href="#a3a585be-5225-4dbc-b9e9-b5eeb8bac11c"/><use width="2.33" height="2.33" transform="matrix(-0.26, 0.36, -0.36, -0.36, 360.41, 218.85)" xlink:href="#a3a585be-5225-4dbc-b9e9-b5eeb8bac11c"/><use width="2.33" height="2.33" transform="matrix(-0.37, 0.52, -0.52, -0.52, 346.6, 318.84)" xlink:href="#a3a585be-5225-4dbc-b9e9-b5eeb8bac11c"/><use width="2.33" height="2.33" transform="matrix(-0.51, 0.71, -0.72, -0.71, 351.99, 118)" xlink:href="#a3a585be-5225-4dbc-b9e9-b5eeb8bac11c"/><use width="2.33" height="2.33" transform="matrix(-0.49, 0.68, -0.69, -0.69, 282.47, 98.35)" xlink:href="#a3a585be-5225-4dbc-b9e9-b5eeb8bac11c"/><use width="2.33" height="2.33" transform="matrix(-0.65, 0.91, -0.92, -0.91, 216.43, 113.96)" xlink:href="#a3a585be-5225-4dbc-b9e9-b5eeb8bac11c"/><use width="2.33" height="2.33" transform="matrix(-0.43, 0.6, -0.6, -0.6, 104.26, 178.83)" xlink:href="#a3a585be-5225-4dbc-b9e9-b5eeb8bac11c"/><use width="2.33" height="2.33" transform="matrix(-0.48, 0.67, -0.68, -0.67, 41.47, 184.79)" xlink:href="#a3a585be-5225-4dbc-b9e9-b5eeb8bac11c"/><use width="2.33" height="2.33" transform="matrix(-0.43, 0.6, -0.61, -0.6, 255.98, 223.14)" xlink:href="#a3a585be-5225-4dbc-b9e9-b5eeb8bac11c"/><use width="2.33" height="2.33" transform="matrix(-0.25, 0.35, -0.36, -0.36, 355.19, 142.39)" xlink:href="#a3a585be-5225-4dbc-b9e9-b5eeb8bac11c"/><use width="2.33" height="2.33" transform="matrix(-0.29, 0.4, -0.4, -0.4, 414.09, 157.24)" xlink:href="#a3a585be-5225-4dbc-b9e9-b5eeb8bac11c"/><use width="2.33" height="2.33" transform="matrix(-0.55, 0.77, -0.78, -0.77, 475, 130.77)" xlink:href="#a3a585be-5225-4dbc-b9e9-b5eeb8bac11c"/><use width="2.33" height="2.33" transform="matrix(-0.42, 0.59, -0.6, -0.59, 408.81, 171.61)" xlink:href="#a3a585be-5225-4dbc-b9e9-b5eeb8bac11c"/><use width="2.33" height="2.33" transform="matrix(-0.31, 0.43, -0.43, -0.43, 424.17, 128.22)" xlink:href="#a3a585be-5225-4dbc-b9e9-b5eeb8bac11c"/><use width="2.33" height="2.33" transform="matrix(-0.37, 0.52, -0.52, -0.52, 367.87, 242.34)" xlink:href="#a3a585be-5225-4dbc-b9e9-b5eeb8bac11c"/><use width="2.33" height="2.33" transform="matrix(-0.47, 0.65, -0.66, -0.66, 407.44, 230.64)" xlink:href="#a3a585be-5225-4dbc-b9e9-b5eeb8bac11c"/><use width="2.33" height="2.33" transform="matrix(-0.5, 0.69, -0.7, -0.7, 447.02, 187.99)" xlink:href="#a3a585be-5225-4dbc-b9e9-b5eeb8bac11c"/></g></g><path d="M229.17,115.46h0a6.21,6.21,0,0,1-6.19-6.19v-6.06A6.21,6.21,0,0,1,229.17,97h0a6.2,6.2,0,0,1,6.19,6.19v6.06A6.21,6.21,0,0,1,229.17,115.46Z" fill="#fff"/><path d="M229.17,332h0a6.21,6.21,0,0,1-6.19-6.19v-6.06a6.21,6.21,0,0,1,6.19-6.19h0a6.21,6.21,0,0,1,6.19,6.19v6.06A6.21,6.21,0,0,1,229.17,332Z" fill="#fff"/><path d="M328.21,214.49h0a6.21,6.21,0,0,1,6.19-6.19h6a6.21,6.21,0,0,1,6.19,6.19h0a6.21,6.21,0,0,1-6.19,6.19h-6A6.21,6.21,0,0,1,328.21,214.49Z" fill="#fff"/><path d="M111.71,214.49h0a6.21,6.21,0,0,1,6.19-6.19h6a6.21,6.21,0,0,1,6.19,6.19h0a6.21,6.21,0,0,1-6.19,6.19h-6A6.21,6.21,0,0,1,111.71,214.49Z" fill="#fff"/><path d="M126,182.11a3.08,3.08,0,0,1-2.61-1.43,51.41,51.41,0,0,1,6.91-63.6l.52-.53a51.4,51.4,0,0,1,63.74-6.85,3.09,3.09,0,0,1-3.34,5.21,45.17,45.17,0,0,0-56,6l-.52.53a45.21,45.21,0,0,0-6.07,55.91,3.08,3.08,0,0,1-1,4.27A3,3,0,0,1,126,182.11Z" fill="#f9de69"/><path d="M334,182.11a3.08,3.08,0,0,0,2.61-1.43,51.43,51.43,0,0,0-6.91-63.6l-.52-.53a51.42,51.42,0,0,0-63.75-6.85,3.1,3.1,0,0,0,3.35,5.21,45.16,45.16,0,0,1,56,6l.53.53a45.21,45.21,0,0,1,6.07,55.91,3.08,3.08,0,0,0,.95,4.27A3,3,0,0,0,334,182.11Z" fill="#f9de69"/><path d="M126,250.23a3.08,3.08,0,0,0-2.61,1.43,51.41,51.41,0,0,0,6.91,63.6l.52.53a51.38,51.38,0,0,0,63.74,6.85,3.09,3.09,0,0,0-3.34-5.21,45.15,45.15,0,0,1-56-6l-.52-.53a45.19,45.19,0,0,1-6.07-55.9,3.1,3.1,0,0,0-2.61-4.76Z" fill="#f9de69"/><path d="M334,250.23a3.08,3.08,0,0,1,2.61,1.43,51.43,51.43,0,0,1-6.91,63.6l-.52.53a51.39,51.39,0,0,1-63.75,6.85,3.1,3.1,0,0,1,3.35-5.21,45.13,45.13,0,0,0,56-6l.53-.53a45.19,45.19,0,0,0,6.07-55.9,3.08,3.08,0,0,1,.95-4.27A3,3,0,0,1,334,250.23Z" fill="#f9de69"/><path d="M229.17,103.08A111.42,111.42,0,1,0,340.59,214.49,111.4,111.4,0,0,0,229.17,103.08Zm0,167.12a55.71,55.71,0,1,1,55.71-55.71A55.72,55.72,0,0,1,229.17,270.2Z" fill="#ff624d"/><path d="M229.17,140.22a74.28,74.28,0,1,0,74.28,74.27A74.29,74.29,0,0,0,229.17,140.22Zm0,130a55.71,55.71,0,1,1,55.71-55.71A55.72,55.72,0,0,1,229.17,270.2Z" fill="#ea463d"/><path d="M201.83,166l-22.65-51c-.78.39-1.59.73-2.36,1.13l-1.15.61a111.41,111.41,0,0,0-47.47,50.91L180,188.56A55.8,55.8,0,0,1,201.83,166Z" fill="#fff"/><path d="M256.38,165.74l22.66-51c.77.39,1.58.73,2.35,1.14l1.15.6A111.46,111.46,0,0,1,330,167.41l-51.78,20.9A55.85,55.85,0,0,0,256.38,165.74Z" fill="#fff"/><path d="M201.57,262.67l-22.65,51c-.78-.39-1.59-.72-2.35-1.13l-1.15-.6A111.48,111.48,0,0,1,128,261l51.78-20.89A55.8,55.8,0,0,0,201.57,262.67Z" fill="#fff"/><path d="M256.12,262.93l22.66,51c.78-.39,1.59-.73,2.35-1.13l1.15-.61a111.41,111.41,0,0,0,47.47-50.91L278,240.36A55.85,55.85,0,0,1,256.12,262.93Z" fill="#fff"/></svg>