<svg id="a359c085-f478-49d6-a1a8-37f6496bcc42" data-name="Layer 1" xmlns="http://www.w3.org/2000/svg" xmlns:xlink="http://www.w3.org/1999/xlink" viewBox="0 0 187.07 182.18"><defs><linearGradient id="bf8a5a1f-2ff6-47de-8ec5-df106905b6f1" x1="117.42" y1="178.66" x2="80.33" y2="57.41" gradientUnits="userSpaceOnUse"><stop offset="0" stop-color="#15bde8"/><stop offset="0.44" stop-color="#1870a0"/><stop offset="0.82" stop-color="#1b3466"/><stop offset="1" stop-color="#1c1c50"/></linearGradient><clipPath id="bd393837-b3ce-4926-8810-ff0645b87d97"><path d="M118.73,174.62c45.36-24.85,9.77-72.43,27.93-92.84,30.68-34.5,3.61-65.78-24.9-68.37C97.42,11.2,87.42,41.31,51,18.27,31.17,5.76,15,32.56,10.62,45.37-10.25,106.08,51.93,211.23,118.73,174.62Z" fill="none"/></clipPath><clipPath id="a57f7db8-b5af-4c71-8b3f-8bca43f1f2fc"><path d="M451.15,62.05c-12.57.15-26.29-1.19-36.67-8.42-8.16-5.69-13.19-10.49-22.05-25.8C380,6.32,314.3,6.94,301.94,48.76S324.61,124,353,142s46.8,29.54,65.85,20.87c19.54-8.88,15.73-28.9,44-45.59,17.4-10.25,17.76-33.92,10.68-45.13C469.06,65,461.14,61.93,451.15,62.05Z" fill="none"/></clipPath><clipPath id="acf58c38-590f-4bec-a1c8-dcd90503cea9"><path d="M-130.69,28.77c23.93,41.87-27.54,62.33-23.07,87.4,7.56,42.37-29.2,54-53.12,42.19-20.42-10.11-13.68-38.92-53.9-38.38-21.81.29-21.57-28.88-18.83-41.2C-266.6,20.35-165.93-32.88-130.69,28.77Z" fill="none"/></clipPath><symbol id="a8f1816d-9f63-45cd-aa37-56a4425de25c" data-name="New Symbol 2" viewBox="0 0 2.33 2.33"><path d="M2.33,1.17A1.17,1.17,0,1,1,1.17,0,1.16,1.16,0,0,1,2.33,1.17Z" fill="#fff"/></symbol></defs><title>Artboard 7</title><path d="M159.76,92.29C222.75,93.46,164.43.23,109,0S17.87,39.56,4.77,74.22C-8,107.91,7.08,157.7,23.05,165.39,105.74,205.23,111.08,91.38,159.76,92.29Z" fill="#eae9e8"/><path d="M118.73,174.62c45.36-24.85,9.77-72.43,27.93-92.84,30.68-34.5,3.61-65.78-24.9-68.37C97.42,11.2,87.42,41.31,51,18.27,31.17,5.76,15,32.56,10.62,45.37-10.25,106.08,51.93,211.23,118.73,174.62Z" fill="url(#bf8a5a1f-2ff6-47de-8ec5-df106905b6f1)"/><g clip-path="url(#bd393837-b3ce-4926-8810-ff0645b87d97)"><g opacity="0.25"><use width="2.33" height="2.33" transform="matrix(0.09, 0.1, -0.13, 0.09, 63.01, 11.98)" xlink:href="#a8f1816d-9f63-45cd-aa37-56a4425de25c"/><use width="2.33" height="2.33" transform="matrix(0.27, 0.28, -0.37, 0.26, 134.24, 56.84)" xlink:href="#a8f1816d-9f63-45cd-aa37-56a4425de25c"/><use width="2.33" height="2.33" transform="matrix(0.42, 0.43, -0.57, 0.4, 143.1, 58.57)" xlink:href="#a8f1816d-9f63-45cd-aa37-56a4425de25c"/><use width="2.33" height="2.33" transform="matrix(0.43, 0.45, -0.59, 0.41, 117.14, 73.96)" xlink:href="#a8f1816d-9f63-45cd-aa37-56a4425de25c"/><use width="2.33" height="2.33" transform="matrix(0.33, 0.34, -0.45, 0.32, 82.81, 89.59)" xlink:href="#a8f1816d-9f63-45cd-aa37-56a4425de25c"/><use width="2.33" height="2.33" transform="matrix(0.37, 0.38, -0.5, 0.35, 43.6, 70.45)" xlink:href="#a8f1816d-9f63-45cd-aa37-56a4425de25c"/><use width="2.33" height="2.33" transform="matrix(0.24, 0.25, -0.33, 0.23, 29.26, 69.59)" xlink:href="#a8f1816d-9f63-45cd-aa37-56a4425de25c"/><use width="2.33" height="2.33" transform="matrix(0.27, 0.28, -0.37, 0.26, 26.91, 77.65)" xlink:href="#a8f1816d-9f63-45cd-aa37-56a4425de25c"/><use width="2.33" height="2.33" transform="matrix(0.39, 0.4, -0.53, 0.37, 47.59, 80.75)" xlink:href="#a8f1816d-9f63-45cd-aa37-56a4425de25c"/><use width="2.33" height="2.33" transform="matrix(0.34, 0.35, -0.46, 0.32, 60.11, 98.67)" xlink:href="#a8f1816d-9f63-45cd-aa37-56a4425de25c"/><use width="2.33" height="2.33" transform="matrix(0.25, 0.26, -0.34, 0.24, 75.58, 137.33)" xlink:href="#a8f1816d-9f63-45cd-aa37-56a4425de25c"/><use width="2.33" height="2.33" transform="matrix(0.27, 0.28, -0.37, 0.26, 79.62, 150.58)" xlink:href="#a8f1816d-9f63-45cd-aa37-56a4425de25c"/><use width="2.33" height="2.33" transform="matrix(0.28, 0.29, -0.38, 0.27, 75.75, 161.86)" xlink:href="#a8f1816d-9f63-45cd-aa37-56a4425de25c"/><use width="2.33" height="2.33" transform="matrix(0.28, 0.29, -0.38, 0.26, 83.42, 174.87)" xlink:href="#a8f1816d-9f63-45cd-aa37-56a4425de25c"/><use width="2.33" height="2.33" transform="matrix(0.26, 0.27, -0.35, 0.25, 94.64, 158.13)" xlink:href="#a8f1816d-9f63-45cd-aa37-56a4425de25c"/><use width="2.33" height="2.33" transform="matrix(0.4, 0.41, -0.55, 0.38, 114.97, 130.79)" xlink:href="#a8f1816d-9f63-45cd-aa37-56a4425de25c"/><use width="2.33" height="2.33" transform="matrix(0.45, 0.46, -0.61, 0.43, 139.38, 120.41)" xlink:href="#a8f1816d-9f63-45cd-aa37-56a4425de25c"/><use width="2.33" height="2.33" transform="matrix(0.28, 0.29, -0.39, 0.27, 152.83, 107.96)" xlink:href="#a8f1816d-9f63-45cd-aa37-56a4425de25c"/><use width="2.33" height="2.33" transform="matrix(0.33, 0.34, -0.45, 0.31, 165.43, 64.49)" xlink:href="#a8f1816d-9f63-45cd-aa37-56a4425de25c"/><use width="2.33" height="2.33" transform="matrix(0.34, 0.35, -0.47, 0.33, 169.14, 19.05)" xlink:href="#a8f1816d-9f63-45cd-aa37-56a4425de25c"/><use width="2.33" height="2.33" transform="matrix(0.23, 0.24, -0.32, 0.22, 145.47, 27.45)" xlink:href="#a8f1816d-9f63-45cd-aa37-56a4425de25c"/><use width="2.33" height="2.33" transform="matrix(0.21, 0.22, -0.29, 0.2, 131.01, 30.76)" xlink:href="#a8f1816d-9f63-45cd-aa37-56a4425de25c"/><use width="2.33" height="2.33" transform="matrix(0.22, 0.23, -0.31, 0.21, 178.19, 36.49)" xlink:href="#a8f1816d-9f63-45cd-aa37-56a4425de25c"/><use width="2.33" height="2.33" transform="matrix(0.2, 0.2, -0.27, 0.19, 184.58, 122.77)" xlink:href="#a8f1816d-9f63-45cd-aa37-56a4425de25c"/><use width="2.33" height="2.33" transform="matrix(0.22, 0.22, -0.29, 0.21, 182.51, 126.67)" xlink:href="#a8f1816d-9f63-45cd-aa37-56a4425de25c"/><use width="2.33" height="2.33" transform="matrix(0.44, 0.46, -0.6, 0.42, 131.98, 112.25)" xlink:href="#a8f1816d-9f63-45cd-aa37-56a4425de25c"/><use width="2.33" height="2.33" transform="matrix(0.2, 0.21, -0.27, 0.19, 89.28, 69.49)" xlink:href="#a8f1816d-9f63-45cd-aa37-56a4425de25c"/><use width="2.33" height="2.33" transform="matrix(0.14, 0.15, -0.19, 0.14, 110.45, 43.63)" xlink:href="#a8f1816d-9f63-45cd-aa37-56a4425de25c"/><use width="2.33" height="2.33" transform="matrix(0.28, 0.29, -0.39, 0.27, 167.73, 34.6)" xlink:href="#a8f1816d-9f63-45cd-aa37-56a4425de25c"/><use width="2.33" height="2.33" transform="matrix(0.34, 0.36, -0.47, 0.33, 86.6, 19.41)" xlink:href="#a8f1816d-9f63-45cd-aa37-56a4425de25c"/><use width="2.33" height="2.33" transform="matrix(0.35, 0.36, -0.47, 0.33, 93.73, 30.57)" xlink:href="#a8f1816d-9f63-45cd-aa37-56a4425de25c"/><use width="2.33" height="2.33" transform="matrix(0.34, 0.35, -0.46, 0.32, 49.35, 40.31)" xlink:href="#a8f1816d-9f63-45cd-aa37-56a4425de25c"/><use width="2.33" height="2.33" transform="matrix(0.28, 0.29, -0.38, 0.26, 46.64, 51.42)" xlink:href="#a8f1816d-9f63-45cd-aa37-56a4425de25c"/><use width="2.33" height="2.33" transform="matrix(0.16, 0.17, -0.22, 0.15, 57.6, 51.21)" xlink:href="#a8f1816d-9f63-45cd-aa37-56a4425de25c"/><use width="2.33" height="2.33" transform="matrix(0.35, 0.36, -0.48, 0.34, 60.52, 58.2)" xlink:href="#a8f1816d-9f63-45cd-aa37-56a4425de25c"/><use width="2.33" height="2.33" transform="matrix(0.43, 0.44, -0.59, 0.41, 52.45, 79.06)" xlink:href="#a8f1816d-9f63-45cd-aa37-56a4425de25c"/><use width="2.33" height="2.33" transform="matrix(0.29, 0.3, -0.4, 0.28, 48.8, 101.84)" xlink:href="#a8f1816d-9f63-45cd-aa37-56a4425de25c"/><use width="2.33" height="2.33" transform="matrix(0.26, 0.27, -0.36, 0.25, 74.37, 124.66)" xlink:href="#a8f1816d-9f63-45cd-aa37-56a4425de25c"/><use width="2.33" height="2.33" transform="matrix(0.27, 0.28, -0.37, 0.26, 78.17, 129.31)" xlink:href="#a8f1816d-9f63-45cd-aa37-56a4425de25c"/><use width="2.33" height="2.33" transform="matrix(0.3, 0.31, -0.41, 0.28, 89.77, 150.83)" xlink:href="#a8f1816d-9f63-45cd-aa37-56a4425de25c"/><use width="2.33" height="2.33" transform="matrix(0.29, 0.3, -0.4, 0.28, 81.17, 161)" xlink:href="#a8f1816d-9f63-45cd-aa37-56a4425de25c"/><use width="2.33" height="2.33" transform="matrix(0.31, 0.32, -0.42, 0.29, 74.78, 170.32)" xlink:href="#a8f1816d-9f63-45cd-aa37-56a4425de25c"/><use width="2.33" height="2.33" transform="matrix(0.29, 0.3, -0.4, 0.28, 81.7, 181.38)" xlink:href="#a8f1816d-9f63-45cd-aa37-56a4425de25c"/><use width="2.33" height="2.33" transform="matrix(0.39, 0.4, -0.53, 0.37, 109.27, 123.12)" xlink:href="#a8f1816d-9f63-45cd-aa37-56a4425de25c"/><use width="2.33" height="2.33" transform="matrix(0.34, 0.35, -0.46, 0.32, 73.51, 81)" xlink:href="#a8f1816d-9f63-45cd-aa37-56a4425de25c"/><use width="2.33" height="2.33" transform="matrix(0.15, 0.15, -0.2, 0.14, 64.6, 37.16)" xlink:href="#a8f1816d-9f63-45cd-aa37-56a4425de25c"/><use width="2.33" height="2.33" transform="matrix(0.09, 0.09, -0.12, 0.09, 67.08, 15.57)" xlink:href="#a8f1816d-9f63-45cd-aa37-56a4425de25c"/><use width="2.33" height="2.33" transform="matrix(0.12, 0.13, -0.17, 0.12, 93.31, 38.68)" xlink:href="#a8f1816d-9f63-45cd-aa37-56a4425de25c"/><use width="2.33" height="2.33" transform="matrix(0.18, 0.18, -0.24, 0.17, 131.43, 51.14)" xlink:href="#a8f1816d-9f63-45cd-aa37-56a4425de25c"/><use width="2.33" height="2.33" transform="matrix(0.24, 0.25, -0.33, 0.23, 53.29, 34.85)" xlink:href="#a8f1816d-9f63-45cd-aa37-56a4425de25c"/><use width="2.33" height="2.33" transform="matrix(0.23, 0.24, -0.32, 0.22, 40.7, 60.64)" xlink:href="#a8f1816d-9f63-45cd-aa37-56a4425de25c"/><use width="2.33" height="2.33" transform="matrix(0.31, 0.32, -0.42, 0.29, 42.13, 87.57)" xlink:href="#a8f1816d-9f63-45cd-aa37-56a4425de25c"/><use width="2.33" height="2.33" transform="matrix(0.2, 0.21, -0.28, 0.19, 59.57, 136)" xlink:href="#a8f1816d-9f63-45cd-aa37-56a4425de25c"/><use width="2.33" height="2.33" transform="matrix(0.23, 0.24, -0.31, 0.22, 57.47, 160.97)" xlink:href="#a8f1816d-9f63-45cd-aa37-56a4425de25c"/><use width="2.33" height="2.33" transform="matrix(0.2, 0.21, -0.28, 0.2, 87.61, 79.81)" xlink:href="#a8f1816d-9f63-45cd-aa37-56a4425de25c"/><use width="2.33" height="2.33" transform="matrix(0.12, 0.12, -0.16, 0.11, 63.05, 35.32)" xlink:href="#a8f1816d-9f63-45cd-aa37-56a4425de25c"/><use width="2.33" height="2.33" transform="matrix(0.14, 0.14, -0.19, 0.13, 73.02, 13.35)" xlink:href="#a8f1816d-9f63-45cd-aa37-56a4425de25c"/><use width="2.33" height="2.33" transform="matrix(0.2, 0.21, -0.27, 0.19, 78.26, 16.42)" xlink:href="#a8f1816d-9f63-45cd-aa37-56a4425de25c"/><use width="2.33" height="2.33" transform="matrix(0.14, 0.15, -0.2, 0.14, 62.38, 7.36)" xlink:href="#a8f1816d-9f63-45cd-aa37-56a4425de25c"/><use width="2.33" height="2.33" transform="matrix(0.18, 0.18, -0.24, 0.17, 103.02, 37.42)" xlink:href="#a8f1816d-9f63-45cd-aa37-56a4425de25c"/><use width="2.33" height="2.33" transform="matrix(0.22, 0.23, -0.3, 0.21, 101.24, 21.13)" xlink:href="#a8f1816d-9f63-45cd-aa37-56a4425de25c"/><use width="2.33" height="2.33" transform="matrix(0.24, 0.24, -0.32, 0.22, 87.36, 2.64)" xlink:href="#a8f1816d-9f63-45cd-aa37-56a4425de25c"/></g></g><path d="M133.72,65.36c.16-1.19.32-2.37.47-3.51,1.61-12.31,2.89-22,6.35-29.81,3.82-8.57,9.91-14,19.72-17.43L159,10.93c-10.05,3.46-16.25,8.88-20.12,17.57-3.46,7.77-4.74,17.49-6.35,29.8-.15,1.15-.31,2.32-.46,3.52-1.29,9.68-6.54,16.83-15.59,21.26a39.52,39.52,0,0,1-6,2.34,17.71,17.71,0,0,1,3,3.12,36.67,36.67,0,0,0,4.7-1.92C127.19,82.19,132.44,75,133.72,65.36Z" fill="#f2f1f0"/><path d="M119.09,89c11.1-5.35,17.79-14.45,19.37-26.32.16-1.2.31-2.38.47-3.53,1.54-11.79,2.76-21.1,5.84-28s8-11.22,16.33-14.09l-.84-2.43c-9.81,3.47-15.9,8.86-19.72,17.43-3.46,7.77-4.74,17.5-6.35,29.81-.15,1.14-.31,2.32-.47,3.51-1.28,9.68-6.53,16.83-15.59,21.26a36.67,36.67,0,0,1-4.7,1.92c.54.71,1,1.44,1.54,2.18A43.81,43.81,0,0,0,119.09,89Z" fill="#c9c7c4"/><path d="M87.29,49.46a24.08,24.08,0,0,1,4.36,1.86,1.23,1.23,0,0,0,1.3-.1A52.66,52.66,0,0,1,102,46.34a1.22,1.22,0,0,0,.5-1.83c-3.58-5-9-3.61-11.93-2.91a1.16,1.16,0,0,0-.69.45,28.44,28.44,0,0,0-3.38,5.76A1.22,1.22,0,0,0,87.29,49.46Z" fill="#f2f1f0"/><path d="M81.84,50.24l-.2,0a7.47,7.47,0,0,0-2.5,1.53,1.08,1.08,0,0,0-.37,1c.26,1.37,1,4.76,2.36,6s4-2.46,3.89-6.45a2.3,2.3,0,0,0-3.18-2.14Z" fill="#f2f1f0"/><path d="M76,55A2.59,2.59,0,0,0,76,57.25a3.27,3.27,0,0,0,.9,1.17.8.8,0,0,0,1.31-.72A11.57,11.57,0,0,0,77.49,55,.8.8,0,0,0,76,55Z" fill="#f2f1f0"/><path d="M85,79.23l.13.44a50.19,50.19,0,0,0,8.54,1.4,19.08,19.08,0,0,1,2.76.42c.78.17,1.58.39,2.41.66a17.61,17.61,0,0,0,10.53-6.68c7.36-9.37,5.14-17.95,1-23.53C110,87.87,85,79.23,85,79.23Z" fill="#c9c7c4"/><path d="M87.73,80.87l-2.52-1,.23.81a33.36,33.36,0,0,0,3.35.64C88.44,81.16,88.08,81,87.73,80.87Z" fill="#f2f1f0"/><path d="M120.3,106.14a33.46,33.46,0,0,0-14-20.31,31.49,31.49,0,0,0-7.47-3.68S118,95.78,114.22,115.82h0C118.14,117.32,122.32,114.67,120.3,106.14Z" fill="#c9c7c4"/><path d="M95.11,111.83c-5.46,5.41-6.16,11.52-1.79,21.64S107.16,159,107.16,159h0a13,13,0,0,0,3.63-4.26,4.15,4.15,0,0,0-.36-4.48c-2.38-3.09-7-9.58-8.69-14.95-2.27-7.33,3.31-24.82,1.57-30s-8.2-10.44-8.2-10.44S100.56,106.42,95.11,111.83Z" fill="#c9c7c4"/><path d="M74.12,112.35C68.71,116,61.11,124.62,77,142h0a22.88,22.88,0,0,0,2.66-2.38,3.19,3.19,0,0,0,.38-4c-2.33-3.59-6.94-11.14-6.55-14.28.53-4.19,9.43-8.38,9.43-8.38l4.28-2.13S79.53,108.69,74.12,112.35Z" fill="#c9c7c4"/><path d="M98.86,82.15c-.83-.27-1.63-.49-2.41-.66a19.08,19.08,0,0,0-2.76-.42c-1.68-.14-3.39-.35-5.08-.65,7.21.59,21.5-1.63,21.83-28.48a21.8,21.8,0,0,0-2.32-2.67,2.61,2.61,0,0,0-2.25-.74,23.43,23.43,0,0,0-9.66,4.15,1,1,0,0,0,0,1.63h0c8.38,6.81-2.74,22.9-12.36,21.07C79.68,74.6,72,70.56,73.14,61c1.1-9,5.5-11.58,8.87-12.08a1.62,1.62,0,0,0,1.5-1.07,35.43,35.43,0,0,1,2-4.63.84.84,0,0,0-.9-1.22c-4.45.86-8.58,3.53-11.26,9.33a25.65,25.65,0,0,0-2.6,10.62,17.5,17.5,0,0,0,7,14,28.28,28.28,0,0,0,6,3.55c-1.16-.35-2.32-.94-3.43-1.4a27,27,0,0,0,4.18,1.63h0l.66.18C56.61,80,66,55.71,66,55.71a4,4,0,0,0-3.48-2.4c-6.81-.87-11,3.67-7.86,17.11C56.85,80,65.36,87.85,70.05,91.56a11.14,11.14,0,0,1,4,6.53c-26.6,15.42-18.4,25.73-16,31.15,1.88,4.15,3.65,11.79,4.37,15.12a2.24,2.24,0,0,0,2.11,1.76A19.4,19.4,0,0,0,77,142c-15.86-17.37-8.26-26-2.85-29.64s13-1.48,13-1.48l-1.61,1.41c-1.29,1.11-3.37,3.63-3.49,5.9-.29,5.73,3,14.55,4.31,21.7s4.8,15.68,6.44,19.48a3.81,3.81,0,0,0,3.13,2.3c5.24.5,8.81-.82,11.21-2.63,0,0-9.48-15.44-13.84-25.56s-3.67-16.23,1.79-21.64,0-17,0-17c3.14.7,11.56,7.14,14,15a9.07,9.07,0,0,0,5.15,6C118,95.78,98.86,82.15,98.86,82.15Z" fill="#f2f1f0"/><path d="M85.21,79.88a24.85,24.85,0,0,1-4.85-1.81,29.26,29.26,0,0,1-2.65-1.27,23.29,23.29,0,0,1-7.56-6.38c-4-5.29-2.7-11.39-4.2-14.71h0S56.72,80.3,85.21,79.88Z" fill="#c9c7c4"/><g clip-path="url(#a57f7db8-b5af-4c71-8b3f-8bca43f1f2fc)"><g opacity="0.25"><use width="2.33" height="2.33" transform="matrix(-0.31, -0.04, 0.04, -0.32, 187.37, 109.39)" xlink:href="#a8f1816d-9f63-45cd-aa37-56a4425de25c"/><use width="2.33" height="2.33" transform="matrix(-0.27, -0.03, 0.03, -0.28, 187.55, 124.84)" xlink:href="#a8f1816d-9f63-45cd-aa37-56a4425de25c"/></g></g><g clip-path="url(#acf58c38-590f-4bec-a1c8-dcd90503cea9)"><g opacity="0.25"><use width="2.33" height="2.33" transform="matrix(0.29, -0.07, -0.14, -0.32, -0.17, 76.65)" xlink:href="#a8f1816d-9f63-45cd-aa37-56a4425de25c"/><use width="2.33" height="2.33" transform="matrix(0.25, -0.07, -0.12, -0.28, 4.66, 92.34)" xlink:href="#a8f1816d-9f63-45cd-aa37-56a4425de25c"/><use width="2.33" height="2.33" transform="matrix(0.24, -0.06, -0.11, -0.26, 1.42, 143.9)" xlink:href="#a8f1816d-9f63-45cd-aa37-56a4425de25c"/></g></g></svg>