<svg xmlns="http://www.w3.org/2000/svg" xmlns:xlink="http://www.w3.org/1999/xlink" viewBox="0 0 440.26 474.8"><defs><linearGradient id="be7f1a1e-53ac-45c3-87f1-4e3ead404f32" x1="257.2" y1="460.14" x2="203.86" y2="122.82" gradientUnits="userSpaceOnUse"><stop offset="0" stop-color="#15bde8"/><stop offset="0.44" stop-color="#1870a0"/><stop offset="0.82" stop-color="#1b3466"/><stop offset="1" stop-color="#1c1c50"/></linearGradient><clipPath id="a68d5229-8b02-431d-af35-7e62c17156d8"><path d="M92.5,187c21.51-31.05,36.67-81.23,52.77-107C197.9-4.49,409.42,22.9,427,126.24s-75.65,173.11-148.67,208S171.5,377,110.57,377.68c-43.69.47-60.72-8.6-81.83-32.47C-.46,312.2,0,236,34.28,223.08,63.74,212,80.81,203.84,92.5,187Z" fill="none"/></clipPath><symbol id="a4efdeb8-3ef6-46f4-8358-854f547b39fd" data-name="New Symbol 2" viewBox="0 0 2.33 2.33"><path d="M2.33,1.17A1.17,1.17,0,1,1,1.17,0,1.16,1.16,0,0,1,2.33,1.17Z" fill="#fff"/></symbol></defs><title>tool_and astro_boy</title><g style="isolation:isolate"><g id="a071a086-0e6d-421b-9f88-fd76dff8b62b" data-name="Layer 1"><path d="M226.31,299.23c19,116-209.53,50.16-224.45-52.4S64,51.62,144.77,20.58s156.32-23.31,201.79-.9C618.09,153.49,211.62,209.55,226.31,299.23Z" fill="#eae9e8"/><path d="M361.12,417.13s-92.84-32.22-185.68-24-129.13,35-97.2,37.4c37.5,2.81,18,57.62,99.39,41.23s75.51-24.66,123.26-18.06C368.06,463,419,437.89,361.12,417.13Z" fill="#9fa9ad"/><path d="M337.84,424.5a321.8,321.8,0,0,0-58.12-15.64c-31-5-87.12-6.4-112.07-2.7-45.5,6.74-51.94,39.18-20.33,42.49C205,454.69,276.07,429.59,311,434S351.48,430.34,337.84,424.5Z" fill="#b9c5c9"/><path d="M186.24,44.08C236.23,11.4,409.42,22.9,427,126.24s-75.65,173.11-148.67,208-167.47,54.7-214.55,37c-68.95-26-69-132.66-29.46-148.1C155.72,175.62,81.11,112.81,186.24,44.08Z" fill="url(#be7f1a1e-53ac-45c3-87f1-4e3ead404f32)"/><g clip-path="url(#a68d5229-8b02-431d-af35-7e62c17156d8)"><g opacity="0.25"><use width="2.33" height="2.33" transform="matrix(0.34, 0, 0, -0.35, 7.38, 446.91)" xlink:href="#a4efdeb8-3ef6-46f4-8358-854f547b39fd"/><use width="2.33" height="2.33" transform="matrix(0.31, 0, 0, -0.32, 32.59, 278.7)" xlink:href="#a4efdeb8-3ef6-46f4-8358-854f547b39fd"/><use width="2.33" height="2.33" transform="matrix(0.92, 0, 0.01, -0.94, 217.19, 320.83)" xlink:href="#a4efdeb8-3ef6-46f4-8358-854f547b39fd"/><use width="2.33" height="2.33" transform="matrix(1.41, 0, 0.01, -1.44, 232.6, 331.67)" xlink:href="#a4efdeb8-3ef6-46f4-8358-854f547b39fd"/><use width="2.33" height="2.33" transform="matrix(1.46, 0, 0.01, -1.49, 227.52, 270.17)" xlink:href="#a4efdeb8-3ef6-46f4-8358-854f547b39fd"/><use width="2.33" height="2.33" transform="matrix(1.12, 0, 0.01, -1.14, 211.55, 195.73)" xlink:href="#a4efdeb8-3ef6-46f4-8358-854f547b39fd"/><use width="2.33" height="2.33" transform="matrix(1.25, 0, 0.01, -1.27, 120.81, 164.45)" xlink:href="#a4efdeb8-3ef6-46f4-8358-854f547b39fd"/><use width="2.33" height="2.33" transform="matrix(0.82, 0, 0, -0.83, 99.66, 144.1)" xlink:href="#a4efdeb8-3ef6-46f4-8358-854f547b39fd"/><use width="2.33" height="2.33" transform="matrix(0.91, 0, 0, -0.93, 112.27, 128.83)" xlink:href="#a4efdeb8-3ef6-46f4-8358-854f547b39fd"/><use width="2.33" height="2.33" transform="matrix(1.31, 0, 0.01, -1.33, 146.41, 155.5)" xlink:href="#a4efdeb8-3ef6-46f4-8358-854f547b39fd"/><use width="2.33" height="2.33" transform="matrix(1.15, 0, 0.01, -1.17, 198.53, 148.31)" xlink:href="#a4efdeb8-3ef6-46f4-8358-854f547b39fd"/><use width="2.33" height="2.33" transform="matrix(0.84, 0, 0, -0.86, 295.28, 115.42)" xlink:href="#a4efdeb8-3ef6-46f4-8358-854f547b39fd"/><use width="2.33" height="2.33" transform="matrix(0.91, 0, 0, -0.93, 326.74, 102.24)" xlink:href="#a4efdeb8-3ef6-46f4-8358-854f547b39fd"/><use width="2.33" height="2.33" transform="matrix(0.95, 0, 0.01, -0.97, 343.58, 80.02)" xlink:href="#a4efdeb8-3ef6-46f4-8358-854f547b39fd"/><use width="2.33" height="2.33" transform="matrix(0.93, 0, 0.01, -0.95, 379.49, 72.67)" xlink:href="#a4efdeb8-3ef6-46f4-8358-854f547b39fd"/><use width="2.33" height="2.33" transform="matrix(0.87, 0, 0, -0.89, 361.92, 113.89)" xlink:href="#a4efdeb8-3ef6-46f4-8358-854f547b39fd"/><use width="2.33" height="2.33" transform="matrix(1.35, 0, 0.01, -1.38, 335.93, 184.29)" xlink:href="#a4efdeb8-3ef6-46f4-8358-854f547b39fd"/><use width="2.33" height="2.33" transform="matrix(1.51, 0, 0.01, -1.53, 348.75, 236.16)" xlink:href="#a4efdeb8-3ef6-46f4-8358-854f547b39fd"/><use width="2.33" height="2.33" transform="matrix(0.96, 0, 0.01, -0.97, 342.61, 274.53)" xlink:href="#a4efdeb8-3ef6-46f4-8358-854f547b39fd"/><use width="2.33" height="2.33" transform="matrix(0.54, 0, 0, -0.55, 414.37, 378.04)" xlink:href="#a4efdeb8-3ef6-46f4-8358-854f547b39fd"/><use width="2.33" height="2.33" transform="matrix(0.62, 0, 0, -0.63, 413.91, 397.09)" xlink:href="#a4efdeb8-3ef6-46f4-8358-854f547b39fd"/><use width="2.33" height="2.33" transform="matrix(1.11, 0, 0.01, -1.13, 274.53, 356.72)" xlink:href="#a4efdeb8-3ef6-46f4-8358-854f547b39fd"/><use width="2.33" height="2.33" transform="matrix(1.16, 0, 0.01, -1.18, 190.5, 428.37)" xlink:href="#a4efdeb8-3ef6-46f4-8358-854f547b39fd"/><use width="2.33" height="2.33" transform="matrix(0.93, 0, 0.01, -0.95, 80.39, 420.86)" xlink:href="#a4efdeb8-3ef6-46f4-8358-854f547b39fd"/><use width="2.33" height="2.33" transform="matrix(0.79, 0, 0, -0.8, 174.85, 380.49)" xlink:href="#a4efdeb8-3ef6-46f4-8358-854f547b39fd"/><use width="2.33" height="2.33" transform="matrix(0.72, 0, 0, -0.74, 161.7, 353.87)" xlink:href="#a4efdeb8-3ef6-46f4-8358-854f547b39fd"/><use width="2.33" height="2.33" transform="matrix(0.76, 0, 0, -0.77, 236.96, 416.65)" xlink:href="#a4efdeb8-3ef6-46f4-8358-854f547b39fd"/><use width="2.33" height="2.33" transform="matrix(0.58, 0, 0, -0.59, 371.57, 366.96)" xlink:href="#a4efdeb8-3ef6-46f4-8358-854f547b39fd"/><use width="2.33" height="2.33" transform="matrix(0.66, 0, 0, -0.67, 414.73, 300.84)" xlink:href="#a4efdeb8-3ef6-46f4-8358-854f547b39fd"/><use width="2.33" height="2.33" transform="matrix(0.73, 0, 0, -0.74, 419.55, 292.07)" xlink:href="#a4efdeb8-3ef6-46f4-8358-854f547b39fd"/><use width="2.33" height="2.33" transform="matrix(1.49, 0, 0.01, -1.52, 322.7, 236.87)" xlink:href="#a4efdeb8-3ef6-46f4-8358-854f547b39fd"/><use width="2.33" height="2.33" transform="matrix(0.67, 0, 0, -0.68, 180.94, 234.69)" xlink:href="#a4efdeb8-3ef6-46f4-8358-854f547b39fd"/><use width="2.33" height="2.33" transform="matrix(0.48, 0, 0, -0.49, 159, 304.19)" xlink:href="#a4efdeb8-3ef6-46f4-8358-854f547b39fd"/><use width="2.33" height="2.33" transform="matrix(0.77, 0, 0, -0.78, 8.01, 424.15)" xlink:href="#a4efdeb8-3ef6-46f4-8358-854f547b39fd"/><use width="2.33" height="2.33" transform="matrix(0.55, 0, 0, -0.56, -0.37, 464.08)" xlink:href="#a4efdeb8-3ef6-46f4-8358-854f547b39fd"/><use width="2.33" height="2.33" transform="matrix(0.96, 0, 0.01, -0.98, 219.07, 403.64)" xlink:href="#a4efdeb8-3ef6-46f4-8358-854f547b39fd"/><use width="2.33" height="2.33" transform="matrix(1.24, 0, 0.01, -1.26, 8.23, 313.37)" xlink:href="#a4efdeb8-3ef6-46f4-8358-854f547b39fd"/><use width="2.33" height="2.33" transform="matrix(1.16, 0, 0.01, -1.18, 79.16, 303.45)" xlink:href="#a4efdeb8-3ef6-46f4-8358-854f547b39fd"/><use width="2.33" height="2.33" transform="matrix(0.34, 0, 0, -0.35, 11.55, 412.7)" xlink:href="#a4efdeb8-3ef6-46f4-8358-854f547b39fd"/><use width="2.33" height="2.33" transform="matrix(1.18, 0, 0.01, -1.2, 110.72, 297.97)" xlink:href="#a4efdeb8-3ef6-46f4-8358-854f547b39fd"/><use width="2.33" height="2.33" transform="matrix(1.14, 0, 0.01, -1.16, 69.55, 216.93)" xlink:href="#a4efdeb8-3ef6-46f4-8358-854f547b39fd"/><use width="2.33" height="2.33" transform="matrix(0.93, 0, 0.01, -0.95, 87.65, 196.68)" xlink:href="#a4efdeb8-3ef6-46f4-8358-854f547b39fd"/><use width="2.33" height="2.33" transform="matrix(0.54, 0, 0, -0.55, 102.12, 213.51)" xlink:href="#a4efdeb8-3ef6-46f4-8358-854f547b39fd"/><use width="2.33" height="2.33" transform="matrix(1.19, 0, 0.01, -1.21, 119.78, 207.76)" xlink:href="#a4efdeb8-3ef6-46f4-8358-854f547b39fd"/><use width="2.33" height="2.33" transform="matrix(1.45, 0, 0.01, -1.48, 149.71, 165.27)" xlink:href="#a4efdeb8-3ef6-46f4-8358-854f547b39fd"/><use width="2.33" height="2.33" transform="matrix(0.98, 0, 0.01, -1, 189.38, 126.66)" xlink:href="#a4efdeb8-3ef6-46f4-8358-854f547b39fd"/><use width="2.33" height="2.33" transform="matrix(0.9, 0, 0, -0.91, 268.82, 132.01)" xlink:href="#a4efdeb8-3ef6-46f4-8358-854f547b39fd"/><use width="2.33" height="2.33" transform="matrix(0.91, 0, 0, -0.92, 283.08, 130.97)" xlink:href="#a4efdeb8-3ef6-46f4-8358-854f547b39fd"/><use width="2.33" height="2.33" transform="matrix(1, 0, 0.01, -1.02, 340.99, 117.18)" xlink:href="#a4efdeb8-3ef6-46f4-8358-854f547b39fd"/><use width="2.33" height="2.33" transform="matrix(0.99, 0, 0.01, -1, 349.25, 89.43)" xlink:href="#a4efdeb8-3ef6-46f4-8358-854f547b39fd"/><use width="2.33" height="2.33" transform="matrix(1.04, 0, 0.01, -1.05, 358.86, 66.24)" xlink:href="#a4efdeb8-3ef6-46f4-8358-854f547b39fd"/><use width="2.33" height="2.33" transform="matrix(0.99, 0, 0.01, -1.01, 389.92, 60.6)" xlink:href="#a4efdeb8-3ef6-46f4-8358-854f547b39fd"/><use width="2.33" height="2.33" transform="matrix(1.04, 0, 0.01, -1.06, 394.81, 55.08)" xlink:href="#a4efdeb8-3ef6-46f4-8358-854f547b39fd"/><use width="2.33" height="2.33" transform="matrix(1.15, 0, 0.01, -1.17, 394.93, 45.62)" xlink:href="#a4efdeb8-3ef6-46f4-8358-854f547b39fd"/><use width="2.33" height="2.33" transform="matrix(1.31, 0, 0.01, -1.33, 313.17, 186.85)" xlink:href="#a4efdeb8-3ef6-46f4-8358-854f547b39fd"/><use width="2.33" height="2.33" transform="matrix(1.14, 0, 0.01, -1.16, 182.11, 194.19)" xlink:href="#a4efdeb8-3ef6-46f4-8358-854f547b39fd"/><use width="2.33" height="2.33" transform="matrix(0.5, 0, 0, -0.51, 84.09, 244.49)" xlink:href="#a4efdeb8-3ef6-46f4-8358-854f547b39fd"/><use width="2.33" height="2.33" transform="matrix(0.3, 0, 0, -0.31, 45.15, 279.62)" xlink:href="#a4efdeb8-3ef6-46f4-8358-854f547b39fd"/><use width="2.33" height="2.33" transform="matrix(0.41, 0, 0, -0.42, 126.04, 285.55)" xlink:href="#a4efdeb8-3ef6-46f4-8358-854f547b39fd"/><use width="2.33" height="2.33" transform="matrix(0.6, 0, 0, -0.61, 202.2, 324.87)" xlink:href="#a4efdeb8-3ef6-46f4-8358-854f547b39fd"/><use width="2.33" height="2.33" transform="matrix(0.89, 0, 0, -0.9, 78.79, 410.35)" xlink:href="#a4efdeb8-3ef6-46f4-8358-854f547b39fd"/><use width="2.33" height="2.33" transform="matrix(1.44, 0, 0.01, -1.46, 58.47, 442.14)" xlink:href="#a4efdeb8-3ef6-46f4-8358-854f547b39fd"/><use width="2.33" height="2.33" transform="matrix(1.53, 0, 0.01, -1.56, 36.54, 449.78)" xlink:href="#a4efdeb8-3ef6-46f4-8358-854f547b39fd"/><use width="2.33" height="2.33" transform="matrix(0.82, 0, 0, -0.83, 64.21, 230.8)" xlink:href="#a4efdeb8-3ef6-46f4-8358-854f547b39fd"/><use width="2.33" height="2.33" transform="matrix(0.79, 0, 0, -0.8, 97.66, 174.33)" xlink:href="#a4efdeb8-3ef6-46f4-8358-854f547b39fd"/><use width="2.33" height="2.33" transform="matrix(1.04, 0, 0.01, -1.06, 152.37, 137.36)" xlink:href="#a4efdeb8-3ef6-46f4-8358-854f547b39fd"/><use width="2.33" height="2.33" transform="matrix(0.69, 0, 0, -0.7, 270.96, 93.23)" xlink:href="#a4efdeb8-3ef6-46f4-8358-854f547b39fd"/><use width="2.33" height="2.33" transform="matrix(0.77, 0, 0, -0.78, 317.03, 53.76)" xlink:href="#a4efdeb8-3ef6-46f4-8358-854f547b39fd"/><use width="2.33" height="2.33" transform="matrix(1.13, 0, 0.01, -1.15, 364.83, 18.89)" xlink:href="#a4efdeb8-3ef6-46f4-8358-854f547b39fd"/><use width="2.33" height="2.33" transform="matrix(1.21, 0, 0.01, -1.23, 374.97, 19.32)" xlink:href="#a4efdeb8-3ef6-46f4-8358-854f547b39fd"/><use width="2.33" height="2.33" transform="matrix(1.27, 0, 0.01, -1.29, 382.07, 18.65)" xlink:href="#a4efdeb8-3ef6-46f4-8358-854f547b39fd"/><use width="2.33" height="2.33" transform="matrix(0.69, 0, 0, -0.7, 198.91, 217.16)" xlink:href="#a4efdeb8-3ef6-46f4-8358-854f547b39fd"/><use width="2.33" height="2.33" transform="matrix(0.41, 0, 0, -0.41, 78.38, 244.82)" xlink:href="#a4efdeb8-3ef6-46f4-8358-854f547b39fd"/><use width="2.33" height="2.33" transform="matrix(0.46, 0, 0, -0.47, 48.84, 291.8)" xlink:href="#a4efdeb8-3ef6-46f4-8358-854f547b39fd"/><use width="2.33" height="2.33" transform="matrix(0.68, 0, 0, -0.69, 61.99, 295.22)" xlink:href="#a4efdeb8-3ef6-46f4-8358-854f547b39fd"/><use width="2.33" height="2.33" transform="matrix(0.49, 0, 0, -0.5, 22.67, 284.47)" xlink:href="#a4efdeb8-3ef6-46f4-8358-854f547b39fd"/><use width="2.33" height="2.33" transform="matrix(0.6, 0, 0, -0.61, 136.76, 302.01)" xlink:href="#a4efdeb8-3ef6-46f4-8358-854f547b39fd"/><use width="2.33" height="2.33" transform="matrix(0.75, 0, 0, -0.76, 102.41, 323.02)" xlink:href="#a4efdeb8-3ef6-46f4-8358-854f547b39fd"/><use width="2.33" height="2.33" transform="matrix(0.8, 0, 0, -0.81, 47.35, 328.98)" xlink:href="#a4efdeb8-3ef6-46f4-8358-854f547b39fd"/></g></g><path d="M206.23,154.86a16.67,16.67,0,0,0-4.43,5.41,2.69,2.69,0,0,0,.07,2.7c1.81,3.07,6.54,10.54,10.76,12.43s7.15-8.71,3.28-18.05C214.26,153.38,210.23,152.05,206.23,154.86Z" fill="#f2f1f0"/><path d="M200.83,169.06a1.9,1.9,0,0,0-3.38,1.05,6.88,6.88,0,0,0,1.82,5.29,9.42,9.42,0,0,0,3.13,2.13,1.87,1.87,0,0,0,2.38-2.67A29.71,29.71,0,0,0,200.83,169.06Z" fill="#f2f1f0"/><path d="M201.56,275.15l-.78-.6A2.55,2.55,0,0,1,201.56,275.15Z" fill="none"/><path d="M315.13,212.39a30.34,30.34,0,0,1,25.13,25.12.38.38,0,0,0,.76,0,30.32,30.32,0,0,1,25.12-25.12.38.38,0,0,0,0-.76A30.34,30.34,0,0,1,341,186.5a.38.38,0,0,0-.76,0,30.36,30.36,0,0,1-25.13,25.13A.38.38,0,0,0,315.13,212.39Z" fill="#15bde8"/><path d="M121.45,171.65a16.49,16.49,0,0,1,13.64,13.63.21.21,0,0,0,.41,0,16.46,16.46,0,0,1,13.63-13.63.21.21,0,0,0,0-.41A16.46,16.46,0,0,1,135.5,157.6a.21.21,0,0,0-.41,0,16.49,16.49,0,0,1-13.64,13.64A.21.21,0,0,0,121.45,171.65Z" fill="#f2f1f0"/><path d="M333.51,71.75a9.73,9.73,0,0,1,8.06,8.06.12.12,0,0,0,.24,0,9.73,9.73,0,0,1,8.06-8.06.12.12,0,0,0,0-.24,9.72,9.72,0,0,1-8.06-8.05.12.12,0,0,0-.24,0,9.72,9.72,0,0,1-8.06,8.05A.12.12,0,0,0,333.51,71.75Z" fill="#f2f1f0"/><path d="M186.24,403.71s65.81-10.11,78.23-9.11c0,0,59.16,11.34,88,19.77a96.74,96.74,0,0,1-31,4.53c-16.72-.46-18.68,7.81-48.25,6.53L253.4,412.06s-25.46,4.07-51.84-1.32Z" fill="#cecece" style="mix-blend-mode:multiply"/><polygon points="241.48 213.69 241.48 213.69 241.48 213.69 241.48 213.69" fill="none"/><path d="M218.52,121.84a6,6,0,0,0-1.44,2.19c-1.84,4.76-2.78,10.81-3.26,15.91a5.39,5.39,0,0,0,5.35,5.75c1.16,0,2.34,0,3.53.08a78,78,0,0,1,8.62.88,6.73,6.73,0,0,0,7.48-4.1A86.49,86.49,0,0,1,246,128,67,67,0,0,0,218.52,121.84Z" fill="#f2f1f0"/><path d="M245.08,120.3a32.53,32.53,0,0,0-8.39-2.72c-6.28-1.14-13.24-.46-18.17,4.26A67,67,0,0,1,246,128c.33-.52.66-1,1-1.53A4.3,4.3,0,0,0,245.08,120.3Z" fill="#c9c7c4"/><path d="M274.3,161.8c8.63,30.73-17.92,53.25-17.92,53.25,18.58-5.13,33.6-19.87,33.47-45.94-.09-20.07-11-33.34-25.51-40.71a4.87,4.87,0,0,0-6,1.16c-1,1.22-2,2.53-3.12,3.9C263.24,139.38,270.51,148.32,274.3,161.8Z" fill="#c9c7c4"/><polygon points="241.48 213.69 241.48 213.69 241.48 213.69 241.48 213.69" fill="none"/><path d="M304.55,346.49a15.83,15.83,0,0,0,4.59-2.11c22.5-15.23-7.7-93.1-17.89-108.14-14.48-21.36-34.86-21.19-34.86-21.19h0l.13-.1c-8.4-.79-15-1.26-15-1.26s30.71,4,44.81,36.91,18.09,83.49,5,93.94A16.58,16.58,0,0,0,304.55,346.49Z" fill="#c9c7c4"/><path d="M269.55,272.27c.59,1.62,1,2.88,1,2.88A11.21,11.21,0,0,0,269.55,272.27Z" fill="none"/><polygon points="241.48 213.69 241.48 213.69 241.48 213.69 241.48 213.69" fill="none"/><polygon points="270.52 275.15 270.52 275.15 270.52 275.15 270.52 275.15" fill="#f2f1f0"/><path d="M300,414.5c-.63-6.48-2.39-17.55-5-30.35-1.21-6-2.59-12.36-4.12-18.82-.32-1.35-.6-2.6-.82-3.75A45,45,0,0,0,285,347.66c-.45-.8-.93-1.58-1.44-2.35-12.57-18.77-14.89-72.39-14.89-72.39s.25-1.67.88-.65c-.94-2.59-2.41-6.12-3.65-6.9-2-1.26-9.48,6-6.13,31.89s22.9,91,22.53,127.92a54.79,54.79,0,0,0,12.38-2.35A7.8,7.8,0,0,0,300,414.5Z" fill="#c9c7c4"/><polygon points="241.48 213.69 241.48 213.69 241.48 213.69 241.48 213.69" fill="none"/><path d="M216.82,411.39A55.89,55.89,0,0,0,232,408.67a4.1,4.1,0,0,0,2.76-4.1c-.39-10.83-1.29-48,4.55-60.6C222.13,346.37,216.83,411.31,216.82,411.39Z" fill="#c9c7c4"/><polygon points="241.48 213.69 241.48 213.69 241.48 213.69 241.48 213.69" fill="none"/><path d="M286.29,250.6c-14.1-32.9-44.81-36.91-44.81-36.91h0s6.63.47,15,1.26c1.91-1.69,26.08-23.63,17.79-53.15-3.79-13.48-11.06-22.42-19.12-28.34-2.87,3.64-5.93,7.68-8.58,11.52a4.84,4.84,0,0,0,2.07,6.93c5.71,2.82,10.15,6.63,12,11.43,9.07,23.68-9.5,43.86-31.58,43.85-.6,0-1.2,0-1.78,0-34.6-1.41-46.58-43.58-25.64-57.74a14.17,14.17,0,0,1,2.2-1.19,5.74,5.74,0,0,0,3.36-5.29c0-3.91.34-8.29.69-12.08a3.65,3.65,0,0,0-5-3.7c-13.31,6-24.06,18.39-22,44.56,2.05,26.33,16.55,36.77,31,41.31-9.23,1.88-27.37,8.18-33.26,23.65-11.13,29.22-20.36-14.1-38-17.87.13-.09-9-.25-12.78,11.83a20.54,20.54,0,0,0-.65,8,2.07,2.07,0,0,0,3.27,1.47l17-12.13-18.92,17.48c4.45,15.17,18.31,32.66,31.83,37.84l8.68-9.56s19.33,2.69,28.39-6.91,4.28,16.47,4.28,16.47h0c-1.43,11.62-3.39,27-5,37.48-2.78,18.51-8.73,38.72-10.56,83a4.93,4.93,0,0,0,3.76,4.91c1.44.35,3.23.75,5.29,1.14a93.61,93.61,0,0,0,21.53,1.63c0-.08,5.31-65,22.45-67.42,0,0,4.47,17.64,5.4,31.11.81,11.7.56,32.53.82,42.65a5,5,0,0,0,3.89,4.69c2.81.62,7,1.45,12,2.08a101.68,101.68,0,0,0,21,.68c.37-36.89-19.17-102.07-22.53-127.92s4.11-33.15,6.13-31.89c1.24.78,2.71,4.31,3.65,6.9a11.21,11.21,0,0,1,1,2.88h0c1,3.92,2.38,12.25,4.36,29.33,2.11,18.21,7,28.6,10.91,34.66a17.34,17.34,0,0,0,5.52,5.4C304.38,334.09,300.39,283.5,286.29,250.6Z" fill="#f2f1f0"/><path d="M197.49,266.8c-9.06,9.6-28.39,6.91-28.39,6.91l-8.68,9.56c.45.17.91.33,1.36.48,14.9,4.79,31.36-2.56,36.36-8.62a2.33,2.33,0,0,1,2.87-.58,2.84,2.84,0,0,1,.82.6,2.48,2.48,0,0,1,.69,2.05c-.23,1.85-.48,3.9-.75,6.07h0S206.56,257.2,197.49,266.8Z" fill="#c9c7c4"/><path d="M280.33,98.14a11.61,11.61,0,0,0-.06,16.41q6.62,6.78,13.44,13.37a13.17,13.17,0,0,0,3,2.17A111.92,111.92,0,0,0,294.5,83.9C289.76,88.63,285,93.36,280.33,98.14Z" fill="none"/><path d="M293.71,127.92q-6.84-6.57-13.44-13.37a11.61,11.61,0,0,1,.06-16.41c4.69-4.78,9.43-9.51,14.17-14.24a140.4,140.4,0,0,0-6.35-19.14c-1.32.1-2.64.23-4,.44a53.76,53.76,0,0,0-42,34.12,53.57,53.57,0,0,0-3.3,14.18c10.67,2.33,14.08,6.93,14.62,7,12.87,1.59,23.23,8.09,31,17.82a42.06,42.06,0,0,1,6.58,11.9,100,100,0,0,0,5.58-20.13A13.17,13.17,0,0,1,293.71,127.92Z" fill="#f2f1f0"/><path d="M296.66,81.73c4-4,8-8,12.3-12.21a1.49,1.49,0,0,0-.53-2.45,19,19,0,0,0-1.9-.62,56.75,56.75,0,0,0-18.38-1.69A140.4,140.4,0,0,1,294.5,83.9Z" fill="#f2f1f0"/><path d="M154.57,289.63c4.22-4.58,8.83-9.61,13-14.18a43.88,43.88,0,0,0,11-23.15l-28,28.09C153.36,283.83,154.57,289.63,154.57,289.63Z" fill="#c9c7c4"/><path d="M196.22,210.22c-5.75-3.91-10.57-8.81-13.45-14.79-9.1,8.4-16.58,15.32-25.68,23.71-10.41,9.6-20.88,19.14-31.25,28.78-1.35,1.26-2.72,2.51-4.07,3.78A53.62,53.62,0,0,0,90.32,250a53.13,53.13,0,0,0-17.26,7.68,54.44,54.44,0,0,0-17.73,19.59,53.48,53.48,0,0,0-5.81,17.61A54.09,54.09,0,0,0,51,317.7v0a1.68,1.68,0,0,0,2.85.67c.59-.63,1.15-1.22,1.73-1.78q13.55-13,27.14-25.87c5.35-5.06,12.42-5,17.43.08q6.69,6.81,13.17,13.8a11.8,11.8,0,0,1-.51,16.77c-3.8,3.7-7.65,7.34-11.49,11-5.85,5.58-11.72,11.14-17.9,17a1.71,1.71,0,0,0,.63,2.85c1.54.51,3,1,4.39,1.33a53,53,0,0,0,26.45-.18c55.49-42.53,14.66-94.09,14.66-94.09,11.75,4.36,21.07,21.06,21.07,21.06l28-28.09a43.42,43.42,0,0,0,.42-9.2l-.39-6.43a25.75,25.75,0,0,1,3-8.13,28.39,28.39,0,0,1,7.32-8.16c2.57-2,6.14-4.71,7-5.18A2.94,2.94,0,0,0,196.22,210.22Z" fill="#f2f1f0"/><path d="M129.53,259.33s40.83,51.56-14.66,94.09a53.38,53.38,0,0,0,21.78-11.51,55.19,55.19,0,0,0,18.82-36.13,53.17,53.17,0,0,0-.9-16.15s-1.21-5.8-4-9.24C150.6,280.39,141.28,263.69,129.53,259.33Z" fill="#c9c7c4"/><path d="M330.12,108.15c-6.45,6.47-12.89,13-19.38,19.39-4.12,4.08-9.49,5-14.05,2.55a100,100,0,0,1-5.58,20.13,49.87,49.87,0,0,1,2.26,8.47v0S333.91,152.34,330.12,108.15Z" fill="#f2f1f0"/><path d="M294.19,169.55a43.46,43.46,0,0,0,10-1.71,52.11,52.11,0,0,0,18.45-9.16,53.65,53.65,0,0,0,20.7-36A51.66,51.66,0,0,0,341.24,100v0a1.48,1.48,0,0,0-2.46-.56c-3,3-5.82,5.9-8.66,8.75,3.79,44.19-36.74,50.51-36.74,50.51v0A51.69,51.69,0,0,1,294.19,169.55Z" fill="#c9c7c4"/></g></g></svg>