<?xml version="1.0" encoding="UTF-8" standalone="no"?>
<svg width="1267px" height="623px" viewBox="0 0 1267 623" version="1.1" xmlns="http://www.w3.org/2000/svg" xmlns:xlink="http://www.w3.org/1999/xlink" xmlns:sketch="http://www.bohemiancoding.com/sketch/ns">
    <title>bg-2</title>
    <description>Created with Sketch (http://www.bohemiancoding.com/sketch)</description>
    <defs>
        <path d="M1062.82275,350.844797 C1062.26975,350.844797 1061.82275,351.294797 1061.82275,351.844797 C1061.82275,352.394797 1062.26975,352.844797 1062.82275,352.844797 L1098.82275,352.844797 C1099.37575,352.844797 1099.82275,352.394797 1099.82275,351.844797 C1099.82275,351.294797 1099.37575,350.844797 1098.82275,350.844797 L1062.82275,350.844797 Z M1058.82275,354.844797 C1058.26975,354.844797 1057.82275,355.294797 1057.82275,355.844797 C1057.82275,356.394797 1058.26975,356.844797 1058.82275,356.844797 L1102.82275,356.844797 C1103.37575,356.844797 1103.82275,356.394797 1103.82275,355.844797 C1103.82275,355.294797 1103.37575,354.844797 1102.82275,354.844797 L1058.82275,354.844797 Z M1055.27775,324.244797 C1054.79775,323.554797 1054.95175,322.534797 1055.61775,322.024797 L1073.53575,308.134797 C1073.75875,307.964797 1073.89875,307.704797 1073.92075,307.414797 L1074.33675,301.715797 L1079.96875,305.844797 C1080.06175,305.844797 1080.16575,306.354797 1080.27275,306.394797 C1080.41175,306.434797 1080.55575,306.844797 1080.69975,306.844797 C1080.83275,306.844797 1080.82275,306.594797 1080.82275,306.524797 L1085.01775,304.044797 L1087.86275,308.384797 C1088.03075,308.644797 1088.34175,308.804797 1088.65275,308.824797 L1091.84775,309.094797 L1090.52575,312.114797 C1090.31875,312.584797 1090.50675,313.134797 1090.95575,313.384797 L1094.01975,315.114797 L1091.88475,317.924797 C1091.72375,318.144797 1091.65475,318.404797 1091.69175,318.674797 C1091.72675,318.934797 1091.86775,319.174797 1092.07875,319.334797 L1094.94175,321.494797 L1092.53575,324.174797 C1092.35575,324.374797 1092.26375,324.634797 1092.28175,324.904797 C1092.30175,325.174797 1092.42775,325.424797 1092.63375,325.604797 L1095.38175,327.924797 L1092.86175,330.514797 C1092.67275,330.704797 1092.57075,330.974797 1092.57875,331.244797 C1092.58875,331.514797 1092.70775,331.774797 1092.90875,331.954797 L1095.60175,334.384797 L1093.01775,336.934797 C1092.82475,337.124797 1092.71775,337.394797 1092.72075,337.664797 C1092.72475,337.934797 1092.84075,338.194797 1093.03975,338.384797 L1095.69775,340.854797 L1093.07675,343.384797 C1092.87775,343.574797 1092.76575,343.844797 1092.77175,344.124797 C1092.77775,344.404797 1092.90075,344.664797 1093.11175,344.854797 L1095.37475,346.844797 L1066.33075,346.844797 C1066.45975,339.174797 1069.46575,337.024797 1072.65075,334.754797 C1075.63175,332.644797 1078.69975,330.444797 1078.88575,323.994797 L1081.27975,323.214797 C1081.80475,323.044797 1082.09075,322.484797 1081.92075,321.954797 C1081.74675,321.434797 1081.18175,321.144797 1080.65875,321.314797 L1059.98475,328.064797 C1059.10975,328.354797 1057.84975,327.944797 1057.31475,327.174797 L1055.27775,324.244797 Z M1076.85575,324.664797 C1076.51375,329.554797 1074.17575,331.224797 1071.49275,333.124797 C1068.17675,335.484797 1064.42775,338.164797 1064.32775,346.994797 C1064.03075,347.164797 1063.82275,347.474797 1063.82275,347.844797 C1063.82275,348.394797 1064.26975,348.844797 1064.82275,348.844797 L1098.82275,348.844797 C1099.37575,348.844797 1099.82275,348.394797 1099.82275,347.844797 C1099.82275,347.294797 1099.37575,346.844797 1098.82275,346.844797 L1098.39875,346.844797 L1095.24675,344.064797 L1097.84575,341.554797 C1098.04375,341.364797 1098.15275,341.104797 1098.15075,340.834797 C1098.14875,340.554797 1098.03375,340.294797 1097.83275,340.104797 L1095.16675,337.624797 L1097.76175,335.064797 C1097.95775,334.874797 1098.06475,334.604797 1098.05875,334.324797 C1098.05275,334.054797 1097.93375,333.794797 1097.72875,333.614797 L1095.01975,331.164797 L1097.56275,328.554797 C1097.75675,328.354797 1097.85775,328.084797 1097.84375,327.804797 C1097.83275,327.534797 1097.70375,327.274797 1097.49275,327.094797 L1094.71175,324.744797 L1097.15675,322.024797 C1097.34375,321.814797 1097.43375,321.534797 1097.40875,321.254797 C1097.38175,320.974797 1097.23875,320.724797 1097.01575,320.554797 L1094.08475,318.344797 L1096.30675,315.404797 C1096.48075,315.174797 1096.54775,314.884797 1096.48875,314.604797 C1096.42975,314.314797 1096.25275,314.074797 1096.00075,313.934797 L1092.72875,312.084797 L1094.25675,308.624797 C1094.38575,308.324797 1094.36575,307.984797 1094.20175,307.704797 C1094.03575,307.434797 1093.74875,307.244797 1093.42675,307.224797 L1089.34775,306.864797 L1086.31875,302.114797 C1086.02975,301.666797 1085.43775,301.524797 1084.97675,301.787797 L1080.65975,304.264797 L1074.08875,299.207797 C1073.79775,298.983797 1073.40275,298.936797 1073.07275,299.086797 C1072.73675,299.237797 1072.51075,299.557797 1072.48075,299.924797 L1071.95975,306.824797 L1054.39275,320.444797 C1052.88875,321.594797 1052.54975,323.814797 1053.63575,325.384797 L1055.67475,328.314797 C1056.47275,329.464797 1057.93975,330.154797 1059.36175,330.154797 C1059.78775,330.154797 1060.21175,330.094797 1060.60975,329.964797 L1076.85575,324.664797 Z" id="path-1"></path>
    </defs>
    <g id="Page-1" stroke="none" stroke-width="1" fill="none" fill-rule="evenodd" sketch:type="MSPage">
        <g id="Group" sketch:type="MSLayerGroup" transform="translate(7.000000, 91.000000)">
            <path d="M133.768,115.246793 C129.98,115.246793 125.023,112.857793 120.959,110.935793 C118.569,109.806793 116.359,108.865793 115,108.480793 L115,96.1837929 C121.44,96.4597929 124.655,98.5117929 127.025,100.035793 C128.406,100.922793 129.497,101.621793 130.915,101.621793 C132.86,101.588793 137.492,101.617793 139.1,103.539793 C139.467,103.979793 139.646,104.514793 139.658,105.152793 L125,105.152793 C124.445,105.152793 124,105.599793 124,106.152793 C124,106.705793 124.445,107.152793 125,107.152793 L140.494,107.152793 C143.317,107.814793 146.623,105.046793 149.54,102.599793 C151.056,101.328793 152.955,99.7467929 153.689,99.7467929 C155.885,99.7467929 156.935,100.818793 156.935,103.121793 C156.935,106.218793 140.83,115.246793 133.768,115.246793 L133.768,115.246793 Z M101,91.1527929 L113,91.1527929 L113,111.152793 L101,111.152793 L101,91.1527929 Z M153.664,97.7467929 C152.203,97.7467929 150.457,99.2117929 148.242,101.066793 C146.107,102.859793 143.52,105.029793 141.664,105.244793 C141.674,104.091793 141.328,103.090793 140.631,102.256793 C138.475,99.6757929 133.574,99.6217929 130.949,99.6217929 C130.164,99.6367929 129.352,99.1507929 128.105,98.3517929 C125.673,96.7917929 122.04,94.4707929 115,94.1837929 L115,90.1527929 C115,89.5997929 114.551,89.1527929 114,89.1527929 L100,89.1527929 C99.445,89.1527929 99,89.5997929 99,90.1527929 L99,112.152793 C99,112.705793 99.445,113.152793 100,113.152793 L114,113.152793 C114.551,113.152793 115,112.705793 115,112.152793 L115,110.499793 C116.231,110.892793 118.102,111.798793 120.105,112.744793 C124.352,114.750793 129.43,117.246793 133.664,117.246793 C140.992,117.246793 158.883,107.978793 158.883,103.121793 C158.883,99.7057929 156.98,97.7467929 153.664,97.7467929 L153.664,97.7467929 Z M112.619,62.0667929 C118.936,62.5807929 124.143,64.8867929 127.355,68.6097929 C130,71.6797929 131.252,75.6727929 130.994,80.1977929 C125.145,80.5047929 120.361,78.6957929 117.027,75.0157929 C114.004,71.6837929 112.391,66.9027929 112.619,62.0667929 L112.619,62.0667929 Z M146.004,77.0827929 C147.828,74.9667929 150.758,73.6277929 154.324,73.2597929 C154.355,75.9687929 153.414,78.6097929 151.723,80.4747929 C149.836,82.5567929 147.098,83.6157929 143.863,83.5217929 C143.793,81.0097929 144.527,78.7977929 146.004,77.0827929 L146.004,77.0827929 Z M129.74,82.2307929 C130.285,82.2307929 130.854,82.1937929 131.424,82.1567929 C132.902,84.4667929 134.734,90.7417929 134.734,93.0707929 C134.734,93.6237929 135.18,94.0707929 135.734,94.0707929 C136.285,94.0707929 136.734,93.6237929 136.734,93.0707929 C136.734,90.8067929 140.601,87.3047929 143.215,85.4817929 C143.567,85.5047929 143.92,85.5277929 144.258,85.5277929 C147.91,85.5277929 151.006,84.2447929 153.205,81.8187929 C155.473,79.3187929 156.613,75.6797929 156.262,72.0867929 C156.209,71.5547929 155.75,71.1527929 155.215,71.1857929 C150.648,71.4207929 146.84,73.0507929 144.49,75.7757929 C142.6,77.9677929 141.717,80.7927929 141.894,83.9667929 C140.726,84.7987929 137.914,86.9367929 136.18,89.3737929 C135.458,86.2917929 134.146,82.5767929 132.941,80.8297929 C133.359,75.5677929 131.964,70.8947929 128.869,67.3047929 C125.133,62.9727929 119.051,60.3797929 111.746,60.0067929 C111.254,59.9397929 110.752,60.3777929 110.699,60.9067929 C110.137,66.6157929 111.949,72.3927929 115.543,76.3597929 C119.025,80.1997929 123.934,82.2307929 129.74,82.2307929 L129.74,82.2307929 Z" id="Fill-58" opacity="0.448508523" fill="#EBEBEB" sketch:type="MSShapeGroup"></path>
            <path d="M516.000268,49 L502.003268,49 L502.000268,49 L502.000268,47.951 C502.000268,47.426 502.431268,47 502.957268,47 L515.050268,47 C515.576268,47 516.000268,47.426 516.000268,47.951 L516.000268,49 L516.000268,49 Z M516.000268,69 L502.003268,69 L502.000268,69 L502.000268,51 L516.000268,51 L516.000268,69 L516.000268,69 Z M516.000268,74.049 C516.000268,74.572 515.576268,75 515.050268,75 L502.957268,75 C502.431268,75 502.000268,74.572 502.000268,74.049 L502.000268,71 L516.000268,71 L516.000268,74.049 L516.000268,74.049 Z M500.000268,47.951 L500.000268,57 L456.000268,57 L456.000268,31 L510.000268,31 L510.000268,45 L502.957268,45 C501.328268,45 500.000268,46.324 500.000268,47.951 L500.000268,47.951 Z M500.000268,65 L456.621268,65 C456.451268,65 456.335268,64.971 456.280268,64.914 C455.991268,64.623 456.000268,63.504 456.000268,62.686 L456.000268,59 L500.000268,59 L500.000268,65 L500.000268,65 Z M475.773268,75 L477.476268,67 L486.509268,67 L488.212268,75 L475.773268,75 L475.773268,75 Z M456.058268,25.074 C456.060268,25.072 456.181268,25 456.621268,25 L507.734268,25 C508.113268,25 510.000268,25.082 510.000268,26.693 L510.000268,29 L456.000268,29 L456.000268,26.314 C455.998268,25.844 455.996268,25.199 456.058268,25.074 L456.058268,25.074 Z M515.050268,45 L512.000268,45 L512.000268,26.693 C512.000268,24.518 510.248268,23 507.734268,23 L456.621268,23 C456.054268,23 455.236268,23.066 454.654268,23.652 C453.990268,24.32 453.996268,25.25 454.001268,26.326 L454.003268,62.307 L454.001268,62.674 C453.994268,64.037 453.986268,65.443 454.863268,66.324 C455.308268,66.773 455.898268,67 456.621268,67 L475.432268,67 L473.729268,75 L472.003268,75 C471.451268,75 471.003268,75.447 471.003268,76 C471.003268,76.553 471.451268,77 472.003268,77 L489.447268,77 C489.458268,76.998 489.474268,76.998 489.486268,77 L492.003268,77 C492.556268,77 493.003268,76.553 493.003268,76 C493.003268,75.447 492.556268,75 492.003268,75 L490.256268,75 L488.554268,67 L500.000268,67 L500.000268,74.049 C500.000268,75.676 501.328268,77 502.957268,77 L515.050268,77 C516.679268,77 518.000268,75.676 518.000268,74.049 L518.000268,47.951 C518.000268,46.324 516.679268,45 515.050268,45 L515.050268,45 Z" id="Fill-33" fill="#EBEBEB" sketch:type="MSShapeGroup"></path>
            <path d="M1040.15977,297.61 L1032.56377,302.3 C1032.55977,302.31 1032.55677,302.31 1032.55277,302.31 L1031.14777,303.18 C1030.66177,302.08 1030.47077,300.89 1030.57277,299.69 C1030.74577,299.51 1030.85477,299.27 1030.85477,299 C1030.85477,298.85 1030.81277,298.7 1030.75077,298.57 C1031.20477,296.73 1032.33677,295.16 1033.95477,294.16 C1035.09277,293.46 1036.39777,293.09 1037.72977,293.09 C1039.90977,293.09 1041.91777,294.04 1043.27277,295.69 L1040.15977,297.61 L1040.15977,297.61 Z M1042.08177,301.31 C1041.80777,302.47 1041.09677,303.46 1040.08177,304.08 C1038.32877,305.16 1035.95077,304.84 1034.56177,303.42 L1041.96377,298.85 C1042.23377,299.63 1042.27677,300.48 1042.08177,301.31 L1042.08177,301.31 Z M1028.83777,298 L1011.33877,298 C1010.72977,293.47 1006.14877,288.44 1000.85477,288.44 C999.048775,288.44 997.386775,288.68 995.854775,289.15 L995.854775,284 L1009.04977,284 C1010.92077,284 1014.87977,289.2 1014.87977,295 C1014.87977,295.55 1015.32777,296 1015.87977,296 L1024.07577,296 C1024.59077,296 1025.02277,295.61 1025.06977,295.09 C1025.07777,295.02 1025.87777,287.26 1031.26877,284.8 C1031.62477,284.64 1031.85477,284.29 1031.85477,283.89 L1031.85477,278 L1032.95677,278 C1033.76177,280.04 1036.35177,286.52 1038.56177,291.14 C1038.28577,291.12 1038.01077,291.09 1037.72977,291.09 C1036.02677,291.09 1034.35877,291.56 1032.90377,292.46 C1030.86677,293.72 1029.43277,295.69 1028.83777,298 L1028.83777,298 Z M988.608775,298 C991.372775,292.85 995.297775,290.44 1000.85477,290.44 C1005.13577,290.44 1008.68277,294.69 1009.31577,298 L988.608775,298 L988.608775,298 Z M1000.85477,304.83 C997.874775,304.83 995.549775,302.81 995.102775,300 L1006.60477,300 C1006.15977,302.81 1003.83477,304.83 1000.85477,304.83 L1000.85477,304.83 Z M993.854775,278 L1009.85477,278 L1009.85477,282 L993.854775,282 L993.854775,278 L993.854775,278 Z M1045.55777,295.45 C1044.46777,293.68 1042.85477,292.39 1040.98377,291.69 C1040.96977,291.58 1040.94877,291.47 1040.89777,291.37 C1038.21777,286.01 1034.60877,276.73 1034.57177,276.64 C1034.42077,276.25 1034.04977,276 1033.63977,276 L1033.85477,276 C1034.40577,276 1034.85477,275.55 1034.85477,275 C1034.85477,274.45 1034.40577,274 1033.85477,274 L1025.85477,274 C1025.29977,274 1024.85477,274.45 1024.85477,275 C1024.85477,275.55 1025.29977,276 1025.85477,276 L1030.85477,276 C1030.29977,276 1029.85477,276.45 1029.85477,277 L1029.85477,283.27 C1025.02477,285.86 1023.58877,291.73 1023.20677,294 L1016.84277,294 C1016.51877,289.48 1014.08177,284.73 1011.38577,282.85 C1011.66777,282.67 1011.85477,282.36 1011.85477,282 L1011.85477,277 C1011.85477,276.45 1011.40577,276 1010.85477,276 L992.854775,276 C992.299775,276 991.854775,276.45 991.854775,277 L991.854775,283 C991.854775,283.55 992.299775,284 992.854775,284 L993.854775,284 L993.854775,289.93 C990.572775,291.52 988.002775,294.38 986.088775,298.59 C985.948775,298.89 985.975775,299.25 986.159775,299.54 C986.342775,299.82 986.659775,300 986.999775,300 L993.088775,300 C993.551775,303.96 996.730775,306.83 1000.85477,306.83 C1004.97877,306.83 1008.15677,303.96 1008.61877,300 L1010.41777,300 L1010.46277,300 L1028.54377,300 C1028.48477,301.79 1028.95177,303.56 1029.91377,305.12 C1030.05377,305.35 1030.27677,305.51 1030.53477,305.57 C1030.61077,305.59 1030.68677,305.59 1030.76477,305.59 C1030.94877,305.59 1031.13177,305.54 1031.29077,305.45 L1032.83777,304.49 C1034.05577,305.92 1035.82277,306.75 1037.74177,306.75 C1038.93677,306.75 1040.11077,306.42 1041.13177,305.79 C1042.60077,304.88 1043.62977,303.45 1044.02677,301.77 C1044.34677,300.42 1044.22077,299.04 1043.68877,297.78 L1045.23377,296.83 C1045.70277,296.54 1045.84877,295.92 1045.55777,295.45 L1045.55777,295.45 Z" id="Fill-83" fill="#EBEBEB" sketch:type="MSShapeGroup"></path>
            <path d="M394,259.75 C394,261.68 392.914,263.75 390.527,263.75 C388.141,263.75 387.051,261.68 387.051,259.75 C387.051,259.2 386.605,258.75 386.051,258.75 C385.5,258.75 385.051,259.2 385.051,259.75 C385.051,261.96 383.258,263.75 381.051,263.75 C378.848,263.75 377.051,261.96 377.051,259.75 C377.051,259.2 376.605,258.75 376.051,258.75 C375.5,258.75 375.051,259.2 375.051,259.75 C375.051,261.96 373.258,263.75 371.051,263.75 C368.844,263.75 367.047,261.96 367.047,259.75 C367.047,259.2 366.602,258.75 366.047,258.75 C365.496,258.75 365.047,259.2 365.047,259.75 C365.047,261.96 363.25,263.75 361.043,263.75 C358.832,263.75 357.035,261.96 357.035,259.75 C357.035,259.2 356.586,258.75 356.035,258.75 C355.48,258.75 355.035,259.2 355.035,259.75 C355.035,261.96 353.23,263.75 351.016,263.75 C348.789,263.75 346.977,261.96 346.977,259.75 C346.977,259.2 346.531,258.75 345.977,258.75 C345.426,258.75 344.977,259.2 344.977,259.75 C344.977,261.96 343.148,263.75 340.902,263.75 C339.355,263.75 338,261.88 338,259.75 L338,258.81 L344.004,250 L388.023,250 L394,258.81 L394,259.75 L394,259.75 Z M348,282 L348,264.94 C348.889,265.45 349.916,265.75 351.016,265.75 C353.109,265.75 354.953,264.68 356.035,263.06 C357.109,264.68 358.953,265.75 361.043,265.75 C363.129,265.75 364.973,264.68 366.047,263.06 C367.125,264.68 368.965,265.75 371.051,265.75 C373.137,265.75 374.977,264.68 376.051,263.06 C377.129,264.68 378.969,265.75 381.051,265.75 C382.123,265.75 383.128,265.46 384,264.97 L384,282 L348,282 L348,282 Z M390,288 L342,288 L342,265.64 C343.654,265.34 345.08,264.39 345.973,263.05 C346.051,263.17 346.142,263.28 346.229,263.39 C346.093,263.56 346,263.76 346,264 L346,283 C346,283.55 346.445,284 347,284 L385,284 C385.551,284 386,283.55 386,283 L386,264 C386,263.78 385.912,263.58 385.788,263.41 C385.845,263.34 385.908,263.27 385.961,263.2 C386.827,264.63 388.262,265.56 390,265.72 L390,288 L390,288 Z M358,242 L374,242 L374,248 L358,248 L358,242 Z M352,232 L380,232 L380,240 L352,240 L352,232 Z M395.828,257.94 L389.379,248.44 C389.191,248.16 388.883,248 388.551,248 L376,248 L376,242 L381,242 C381.551,242 382,241.55 382,241 L382,231 C382,230.45 381.551,230 381,230 L351,230 C350.445,230 350,230.45 350,231 L350,241 C350,241.55 350.445,242 351,242 L356,242 L356,248 L343.473,248 C343.145,248 342.832,248.16 342.648,248.44 L336.172,257.94 C336.059,258.1 336,258.3 336,258.5 L336,259.75 C336,262.63 337.755,265.1 340,265.64 L340,289 C340,289.55 340.445,290 341,290 L391,290 C391.551,290 392,289.55 392,289 L392,265.55 C394.385,264.9 396,262.66 396,259.75 L396,258.5 C396,258.3 395.938,258.1 395.828,257.94 L395.828,257.94 Z" id="Fill-88" fill="#EBEBEB" sketch:type="MSShapeGroup"></path>
            <path d="M1115,196.783 C1114,197.37 1112.957,198.34 1112.184,199.676 L1107,209.116 L1107,177.672 C1107,175.346 1108.234,173 1111,173 C1113.762,173 1115,175.393 1115,177.764 L1115,196.783 L1115,196.783 Z M1140,171 C1136.465,171 1134,174.018 1134,178 L1134,192.231 C1132.966,191.413 1131.591,191 1130,191 C1127.891,191 1126.244,191.759 1125.208,193.103 C1124.175,191.214 1122.342,191 1121,191 C1119.405,191 1118,191.492 1117,192.394 L1117,177.764 C1117,173.781 1114.531,171 1111,171 C1107.465,171 1105,173.744 1105,177.672 L1105,216.627 C1105,223.471 1110.359,229 1117,229 C1117.551,229 1118,228.553 1118,228 C1118,227.447 1117.551,227 1117,227 C1111.442,227 1107,222.387 1107,216.627 L1107,213.001 L1107,213 L1113.925,200.656 C1115.332,198.225 1117.417,197.498 1119.507,198.705 C1120.675,199.379 1121.5,200.41 1121.82,201.605 C1122.117,202.711 1121.957,203.842 1121.308,204.982 L1119.078,210.229 L1119,214 C1119,214.553 1119.445,215 1120,215 C1120.551,215 1121,214.553 1121,214 L1121,210.822 L1123.093,205.872 C1123.949,204.395 1124.183,202.693 1123.75,201.088 C1123.292,199.375 1122.14,197.912 1120.507,196.973 C1119.386,196.324 1118.239,196.057 1117.138,196.139 C1117.513,194.352 1118.736,193 1121,193 C1122.523,193 1124,193.123 1124,197 C1124,197.066 1124.025,197.125 1124.038,197.188 C1124.025,197.252 1124,197.311 1124,197.377 L1124,201 C1124,201.553 1124.445,202 1125,202 C1125.551,202 1126,201.553 1126,201 L1126,197.377 C1126,197.311 1125.975,197.252 1125.962,197.188 C1125.975,197.125 1126,197.066 1126,197 C1126,194.326 1127.434,193 1130,193 C1132.668,193 1134,194.561 1134,197 L1134,201 C1134,201.553 1134.445,202 1135,202 C1135.551,202 1136,201.553 1136,201 L1136,178 C1136,175.629 1137.234,173 1140,173 C1142.762,173 1144,175.674 1144,178 L1144,216.25 C1144,222.01 1139.555,227 1134,227 C1133.445,227 1133,227.447 1133,228 C1133,228.553 1133.445,229 1134,229 C1140.641,229 1146,223.094 1146,216.25 L1146,178 C1146,174.072 1143.531,171 1140,171 L1140,171 Z" id="Fill-55" opacity="0.712784091" fill="#EBEBEB" sketch:type="MSShapeGroup"></path>
            <path d="M1018.17222,408 C1016.75022,408 1015.52922,407.354 1014.08022,406.803 C1012.60622,406.242 1011.08122,405.664 1009.46222,405.664 C1007.98822,405.664 1006.51822,406.211 1005.09522,406.738 C1003.64422,407.279 1002.69022,408 1001.17222,408 C999.652224,408 996.741224,407.361 993.781224,403.254 C991.562224,400.17 984.124224,386.748 988.287224,377.402 C990.832224,371.691 994.226224,368.914 998.661224,368.914 C1001.11022,368.914 1003.51722,369.734 1005.45122,370.391 C1006.91822,370.889 1008.07722,371.283 1009.03222,371.283 C1010.12022,371.283 1011.34522,370.832 1012.76322,370.309 C1014.63022,369.621 1016.74522,368.842 1019.11922,368.842 C1022.19722,368.842 1025.05822,370.201 1027.83722,372.994 C1024.16322,375.957 1022.30222,379.414 1022.30222,383.281 C1022.30222,388.094 1024.56022,391.768 1029.59922,395.104 C1024.36122,406.527 1020.51522,408 1018.17222,408 L1018.17222,408 Z M1031.39522,393.879 C1026.42322,390.783 1024.30222,387.613 1024.30222,383.281 C1024.30222,379.783 1026.19122,376.635 1029.91622,373.92 C1030.14622,373.752 1030.29322,373.496 1030.32222,373.213 C1030.35122,372.93 1030.25922,372.65 1030.06822,372.439 C1026.65222,368.672 1023.07122,366.842 1019.11922,366.842 C1016.38922,366.842 1013.99422,367.723 1012.07122,368.434 C1010.83322,368.889 1009.76422,369.283 1009.03222,369.283 C1008.40722,369.283 1007.28422,368.9 1006.09522,368.496 C1004.02222,367.791 1001.44022,366.914 998.661224,366.914 C993.352224,366.914 989.361224,370.078 986.461224,376.588 C981.214224,388.367 992.047224,404.268 992.158224,404.422 C994.784224,408.066 998.101224,410 1001.17222,410 C1003.04922,410 1004.25022,409.188 1005.79222,408.613 C1007.10722,408.125 1008.34822,407.664 1009.46222,407.664 C1010.71422,407.664 1012.00522,408.154 1013.37022,408.672 C1014.92522,409.262 1016.38322,410 1018.17222,410 C1022.92822,410 1027.22822,405.328 1031.77922,395.137 C1031.98422,394.68 1031.81922,394.143 1031.39522,393.879 L1031.39522,393.879 Z M1018.38622,353.139 C1018.48522,355.426 1017.55622,357.939 1015.79922,360.041 C1013.97822,362.221 1011.54922,363.604 1009.39922,363.705 C1009.62822,357.77 1014.38522,353.98 1018.38622,353.139 L1018.38622,353.139 Z M1008.27722,365.658 C1008.56622,365.693 1008.85622,365.711 1009.14822,365.711 L1009.14922,365.711 C1011.97822,365.711 1015.03722,364.07 1017.33322,361.324 C1019.75322,358.428 1020.81522,354.963 1020.24722,351.818 C1020.15422,351.309 1019.17222,351 1019.17222,351 C1014.02722,351.471 1007.07522,356.496 1007.40122,364.705 C1007.42022,365.195 1007.79122,365.598 1008.27722,365.658 L1008.27722,365.658 Z" id="Fill-37" fill="#EBEBEB" sketch:type="MSShapeGroup"></path>
            <path d="M320,313.25 C320,315.35 316.84,317 314.63,317 L306.21,317 C304.2,313 300.45,309.08 295.65,309.08 C290.84,309.08 287.1,313 285.08,317 L277.13,317 C275.76,317 274,316.35 274,313.25 L274,307.45 C274,306 274.49,305.64 274.9,305.48 C279.57,303.73 287.54,302.69 296.1,302.69 C304.96,302.69 313.56,303.79 318.09,305.48 C319.03,305.84 320,306.74 320,307.45 L320,313.25 L320,313.25 Z M318.77,303.61 C313.96,301.81 305.32,300.69 296.1,300.69 C287.18,300.69 279.18,301.75 274.22,303.61 C272.81,304.15 272,305.44 272,307.45 L272,313.25 C272,316.75 273.99,319 277.13,319 L285.7,319 C286.09,319 286.44,318.68 286.61,318.33 C288.29,314.78 291.54,310.89 295.65,310.89 C299.75,310.89 303.01,314.75 304.69,318.3 C304.86,318.65 305.21,319 305.59,319 L314.63,319 C317.72,319 322,316.79 322,313.25 L322,307.45 C322,305.75 320.41,304.23 318.77,303.61 L318.77,303.61 Z M291.09,304.98 C290.4,305.01 289.73,305.04 289.07,305.09 C288.52,305.13 288.1,305.58 288.14,306.13 C288.18,306.65 288.62,307 289.14,307 L289.21,307 C289.86,307 290.51,306.96 291.18,306.93 C291.73,306.91 292.16,306.49 292.13,305.94 C292.11,305.39 291.64,304.92 291.09,304.98 L291.09,304.98 Z M285.04,305.5 C284.34,305.58 283.67,305.68 283.02,305.78 C282.47,305.87 282.1,306.38 282.19,306.93 C282.27,307.42 282.69,307.77 283.17,307.77 C283.23,307.77 283.28,307.77 283.33,307.76 C283.96,307.66 284.61,307.57 285.27,307.48 C285.82,307.42 286.21,306.92 286.15,306.38 C286.08,305.82 285.57,305.43 285.04,305.5 L285.04,305.5 Z M279.01,306.6 C278.3,306.78 277.63,306.98 277.02,307.18 C276.49,307.36 276.21,307.93 276.39,308.45 C276.54,308.87 276.92,309.13 277.34,309.13 C277.45,309.13 277.55,309.11 277.66,309.08 C278.23,308.89 278.85,308.7 279.5,308.54 C280.04,308.4 280.36,307.85 280.23,307.32 C280.09,306.79 279.54,306.46 279.01,306.6 L279.01,306.6 Z M324,313.25 C324,318.22 319.63,323 314.63,323 L302.77,323 C301.89,319 299.24,315.08 295.65,315.08 C292.06,315.08 289.4,319 288.53,323 L277.13,323 C272.28,323 268,318.4 268,313.25 L268,307.45 C268,304.5 269.91,301.84 272.65,300.8 C277.85,298.85 286.62,297.68 295.99,297.68 C305.37,297.68 314.03,298.85 319.23,300.8 C322.09,301.88 324,304.61 324,307.45 L324,313.25 L324,313.25 Z M296,274.2 C308.33,274.2 315.13,290.31 315.51,297.63 C310.26,296.38 303.44,295.68 295.99,295.68 C288.6,295.68 281.75,296.37 276.48,297.6 C276.88,290.27 283.69,274.2 296,274.2 L296,274.2 Z M292.65,269.66 C292.65,268.875 294.08,268 296,268 C297.92,268 299.35,268.875 299.35,269.66 C299.35,270.44 297.92,271.32 296,271.32 C294.08,271.32 292.65,270.44 292.65,269.66 L292.65,269.66 Z M319.91,298.93 C319.17,298.66 318.37,298.4 317.53,298.15 C317.48,290.94 311.28,275.06 299.29,272.55 C300.54,271.88 301.35,270.85 301.35,269.66 C301.35,267.605 299,266 296,266 C293,266 290.65,267.605 290.65,269.66 C290.65,270.85 291.46,271.88 292.71,272.55 C280.74,275.06 274.54,290.9 274.47,298.12 C273.58,298.38 272.74,298.64 271.97,298.93 C268.45,300.25 266,303.68 266,307.45 L266,313.25 C266,319.48 271.2,325 277.13,325 L289.36,325 C289.85,325 290.27,324.55 290.35,324.06 C290.95,320.16 293.33,316.89 295.65,316.89 C297.97,316.89 300.34,320.13 300.95,324.03 C301.02,324.52 301.44,325 301.93,325 L314.63,325 C320.68,325 326,319.27 326,313.25 L326,307.45 C326,303.74 323.59,300.32 319.91,298.93 L319.91,298.93 Z" id="Fill-80" opacity="0.754119318" fill="#EBEBEB" sketch:type="MSShapeGroup"></path>
            <path d="M973.16,122.084 C971.53,120.799 969.29,120 966.47,120 L964.17,120 L961.39,116.414 C964.54,113.821 966.76,109.316 966.92,105.282 C969.87,102.133 967.9,94.071 967.38,92.153 C968.06,90.038 967.73,87.712 966.46,85.87 C964,82.319 958.86,81.727 953.82,84.748 C945.9,84.826 944.68,88.216 944.65,91.929 C944.22,93.062 942.37,98.747 945.05,105.054 C945.13,109.172 947.4,113.836 950.65,116.468 L947.96,120 L945.65,120 C942.81,120 940.54,120.827 938.88,122.11 C932.28,116.986 928.02,108.983 928.02,100 C928.02,84.57 940.57,72.017 956,72.017 C971.43,72.017 983.98,84.57 983.98,100 C983.98,108.969 979.74,116.959 973.16,122.084 L973.16,122.084 Z M965.35,92.399 C966.4,96.02 967.3,102.385 965.27,104.065 C965.04,104.256 964.91,104.542 964.91,104.841 C964.91,110.005 960.71,116.556 955.99,116.556 C951.27,116.556 947.07,110.005 947.07,104.841 C947.07,104.701 947.04,104.563 946.98,104.436 C944.27,98.271 946.56,92.563 946.59,92.506 C946.63,92.384 946.66,92.252 946.66,92.12 C946.66,89.085 947.21,86.763 954.11,86.763 C954.3,86.763 954.48,86.71 954.64,86.611 C956.62,85.382 958.5,84.76 960.23,84.76 C962.17,84.76 963.79,85.562 964.8,87.017 C965.76,88.407 965.97,90.182 965.38,91.764 C965.3,91.966 965.29,92.19 965.35,92.399 L965.35,92.399 Z M956,127.983 C950.31,127.983 945.02,126.274 940.6,123.35 C941.86,122.537 943.55,122 945.65,122 L948.47,122 C948.8,122 949.1,122.037 949.29,121.775 L952.42,117.634 C953.55,118.221 954.75,118.572 955.99,118.572 C957.26,118.572 958.49,118.204 959.64,117.589 L962.85,121.811 C963.04,122.066 963.34,122 963.66,122 L966.47,122 C968.54,122 970.2,122.518 971.44,123.325 C967.01,126.266 961.7,127.983 956,127.983 L956,127.983 Z M956,70 C939.46,70 926,83.458 926,100 C926,116.542 939.46,130 956,130 C962.44,130 968.41,127.953 973.3,124.486 C973.46,124.42 973.61,124.302 973.74,124.176 C981.17,118.71 986,109.91 986,100 C986,83.458 972.54,70 956,70 L956,70 Z" id="Fill-49" fill="#EBEBEB" sketch:type="MSShapeGroup"></path>
            <path d="M898.23,418.7677 C895.539,415.2239 891.561,413.4832 885.932,413.4832 C884.333,413.4832 882.5,412.139 882.5,410.5725 L882.5,405.2308 C888.61,403.6123 892.952,399.8098 894.85,396.0281 C895.058,395.6056 895.019,395.1064 894.759,394.7138 L889.143,386.2859 C889.143,379.6208 888.883,367.8506 876.156,367.8506 C863.416,367.8506 863.169,379.6208 863.169,386.2859 L857.54,394.7138 C857.28,395.1064 857.254,395.6069 857.462,396.0281 C859.321,399.7448 863.546,403.4875 869.5,405.1489 L869.5,410.5725 C869.5,412.139 867.667,413.4832 866.055,413.4832 C860.4,413.4832 856.487,415.2304 853.809,418.7937 C845.19,412.1351 839.626,401.7091 839.626,390 C839.626,369.941 855.941,353.6221 876,353.6221 C896.059,353.6221 912.374,369.941 912.374,390 C912.374,401.6922 906.823,412.1078 898.23,418.7677 L898.23,418.7677 Z M860.166,395.5094 L865.561,387.4091 C865.704,387.1946 865.782,386.9398 865.782,386.6811 C865.782,378.4807 866.588,370.4727 876.156,370.4727 C885.724,370.4727 886.517,378.4807 886.517,386.6811 C886.517,386.9398 886.595,387.1946 886.738,387.4091 L892.146,395.5094 C889.767,399.5485 884.06,403.4212 876.156,403.4212 C868.252,403.4212 862.545,399.5485 860.166,395.5094 L860.166,395.5094 Z M876,426.3779 C868.564,426.3779 861.648,424.1354 855.889,420.2952 C858.073,417.4495 861.258,416.1053 866.042,416.1053 C868.967,416.1053 872.1,413.7406 872.1,410.5725 L872.1,405.7092 C873.387,405.9185 874.739,406.0433 876.156,406.0433 C877.456,406.0433 878.704,405.9393 879.9,405.7612 L879.9,410.5725 C879.9,413.7406 883.02,416.1053 885.945,416.1053 C890.755,416.1053 893.875,417.4612 896.059,420.3277 C890.3,424.1471 883.41,426.3779 876,426.3779 L876,426.3779 Z M876,351 C854.498,351 837,368.4954 837,390 C837,411.5046 854.498,429 876,429 C897.502,429 915,411.5046 915,390 C915,368.4954 897.502,351 876,351 L876,351 Z" id="Fill-50" fill="#EBEBEB" sketch:type="MSShapeGroup"></path>
            <path d="M634,86 C634,88.208 632.21,90 630,90 L582,90 C579.79,90 578,88.208 578,86 L578,54 C578,51.794 579.79,50 582,50 L630,50 C632.21,50 634,51.794 634,54 L634,86 L634,86 Z M630,48 L582,48 C578.69,48 576,50.692 576,54 L576,86 C576,89.309 578.69,92 582,92 L630,92 C633.31,92 636,89.309 636,86 L636,54 C636,50.692 633.31,48 630,48 L630,48 Z M615.45,71.458 L628.46,57.224 C628.84,56.816 628.81,56.184 628.4,55.81 C627.99,55.438 627.36,55.464 626.99,55.872 L611.5,72.818 C608.82,75.727 604.14,75.727 601.46,72.82 L585.95,55.852 C585.57,55.444 584.94,55.416 584.53,55.788 C584.13,56.162 584.1,56.794 584.47,57.202 L597.5,71.456 L584.53,83.303 C584.13,83.672 584.1,84.307 584.47,84.712 C584.67,84.928 584.94,85.04 585.21,85.04 C585.45,85.04 585.69,84.954 585.88,84.777 L598.85,72.933 L599.99,74.172 C601.71,76.042 604.02,77.074 606.48,77.074 C608.94,77.074 611.25,76.042 612.97,74.172 L614.1,72.934 L627.08,84.777 C627.27,84.954 627.51,85.04 627.76,85.04 C628.03,85.04 628.3,84.928 628.49,84.712 C628.87,84.307 628.84,83.674 628.43,83.303 L615.45,71.458 L615.45,71.458 Z" id="Fill-9" fill="#EBEBEB" sketch:type="MSShapeGroup"></path>
            <path d="M376.4535,81.1914375 C376.746,81.4854375 377.133,81.6309375 377.514,81.6309375 C377.901,81.6309375 378.282,81.4854375 378.5745,81.1914375 C379.1595,80.6064375 379.1595,79.6569375 378.5745,79.0704375 C377.352,77.8494375 377.895,75.8634375 378.9375,72.7374375 C379.998,69.5619375 381.1965,65.9604375 378.5745,63.3354375 C377.988,62.7519375 377.0385,62.7519375 376.4535,63.3354375 C375.867,63.9249375 375.867,64.8744375 376.4535,65.4594375 C377.6775,66.6819375 377.133,68.6679375 376.0905,71.7909375 C375.0315,74.9694375 373.8315,78.5694375 376.4535,81.1914375 L376.4535,81.1914375 Z M384.3165,81.1914375 C384.609,81.4854375 384.996,81.6309375 385.377,81.6309375 C385.764,81.6309375 386.145,81.4854375 386.4375,81.1914375 C387.024,80.6064375 387.024,79.6569375 386.4375,79.0704375 C385.0425,77.6739375 386.0445,72.6579375 386.847,68.6259375 C387.9405,63.1659375 388.974,58.0059375 386.4375,55.4724375 C385.851,54.8859375 384.903,54.8859375 384.3165,55.4724375 C383.73,56.0589375 383.73,57.0069375 384.3165,57.5934375 C385.7175,58.9944375 384.7155,64.0089375 383.907,68.0409375 C382.8165,73.5009375 381.7845,78.6579375 384.3165,81.1914375 L384.3165,81.1914375 Z M392.1795,81.1914375 C392.472,81.4854375 392.859,81.6309375 393.24,81.6309375 C393.627,81.6309375 394.008,81.4854375 394.3005,81.1914375 C394.887,80.6064375 394.887,79.6569375 394.3005,79.0704375 C393.0825,77.8494375 393.624,75.8634375 394.6635,72.7404375 C395.724,69.5619375 396.9255,65.9604375 394.3005,63.3354375 C393.7155,62.7519375 392.766,62.7519375 392.1795,63.3354375 C391.5945,63.9249375 391.5945,64.8744375 392.1795,65.4594375 C393.405,66.6819375 392.859,68.6679375 391.8195,71.7939375 C390.762,74.9694375 389.5605,78.5694375 392.1795,81.1914375 L392.1795,81.1914375 Z M428.637,121.521937 C425.127,121.521937 422.274,118.665937 422.274,115.155937 C422.274,111.645937 425.127,108.789937 428.637,108.789937 C432.144,108.789937 435,111.645937 435,115.155937 C435,118.665937 432.144,121.521937 428.637,121.521937 L428.637,121.521937 Z M419.538,112.980938 C419.514,113.082937 419.4825,113.184937 419.4615,113.288437 C416.313,125.534437 408.4365,138.224437 389.3085,138.224437 C361.401,138.224437 357.4395,111.197437 357.1815,97.9674375 L421.4415,97.9674375 C421.3605,102.056437 420.9225,107.462437 419.538,112.980938 L419.538,112.980938 Z M428.637,105.789937 C426.813,105.789937 425.118,106.320938 423.678,107.225437 C424.344,102.816937 424.5,98.9664375 424.5,96.4674375 L424.5,94.9674375 L354,94.9674375 L354,96.4674375 C354,105.776438 356.0955,133.739438 379.2885,139.967437 L360.024,139.967437 C359.1915,139.967437 358.524,140.637937 358.524,141.467437 C358.524,142.296937 359.1915,142.967437 360.024,142.967437 L423.024,142.967437 C423.849,142.967437 424.524,142.296937 424.524,141.467437 C424.524,140.637937 423.849,139.967437 423.024,139.967437 L399.213,139.967437 C410.6835,136.886437 416.997,128.505937 420.4395,119.676938 C422.037,122.561438 425.1105,124.521937 428.637,124.521937 C433.7985,124.521937 438,120.320437 438,115.155937 C438,109.991438 433.7985,105.789937 428.637,105.789937 L428.637,105.789937 Z" id="Fill-62" fill="#EBEBEB" sketch:type="MSShapeGroup"></path>
            <path d="M1158.52,312.7505 C1168.45,312.7505 1176.52,320.8265 1176.52,330.7505 C1176.52,340.6725 1168.45,348.7505 1158.52,348.7505 C1148.6,348.7505 1140.52,340.6725 1140.52,330.7505 C1140.52,320.8265 1148.59,312.7505 1158.52,312.7505 L1158.52,312.7505 Z M1158.52,350.7505 C1169.56,350.7505 1178.52,341.7945 1178.52,330.7505 C1178.52,319.7065 1169.56,310.7505 1158.52,310.7505 C1147.48,310.7505 1138.52,319.7065 1138.52,330.7505 C1138.52,341.7965 1147.48,350.7505 1158.52,350.7505 L1158.52,350.7505 Z M1178.7,350.2945 L1176.39,347.9855 C1176.39,347.9805 1176.39,347.9735 1176.38,347.9685 C1176.38,347.9635 1176.37,347.9615 1176.36,347.9565 L1173.7,345.2945 C1173.31,344.9035 1172.68,344.9035 1172.29,345.2945 C1171.9,345.6855 1171.9,346.3175 1172.29,346.7085 L1174.24,348.6615 C1169.8,352.7555 1164.07,355.0005 1158,355.0005 C1151.59,355.0005 1145.56,352.5005 1141.03,347.9685 C1136.49,343.4375 1134,337.4085 1134,330.9985 C1134,324.9235 1136.24,319.1955 1140.34,314.7535 L1142.29,316.7065 C1142.48,316.9005 1142.74,316.9985 1143,316.9985 C1143.25,316.9985 1143.51,316.9005 1143.7,316.7065 C1144.09,316.3165 1144.09,315.6825 1143.7,315.2925 L1141.03,312.6215 L1141.03,312.6145 C1141.02,312.6125 1141.02,312.6115 1141.02,312.6095 L1138.7,310.2925 C1138.31,309.9025 1137.68,309.9025 1137.29,310.2925 C1136.9,310.6825 1136.9,311.3165 1137.29,311.7065 L1138.92,313.3395 C1134.45,318.1595 1132,324.3905 1132,330.9985 C1132,337.9425 1134.7,344.4725 1139.61,349.3825 C1144.41,354.1815 1150.75,356.8675 1157.52,356.9885 L1157.52,366.7505 L1149.52,366.7505 C1148.97,366.7505 1148.52,367.1985 1148.52,367.7505 C1148.52,368.3005 1148.97,368.7505 1149.52,368.7505 L1167.52,368.7505 C1168.07,368.7505 1168.52,368.3005 1168.52,367.7505 C1168.52,367.1985 1168.07,366.7505 1167.52,366.7505 L1159.52,366.7505 L1159.52,356.9525 C1165.56,356.6055 1171.21,354.2005 1175.65,350.0755 L1177.29,351.7085 C1177.48,351.9015 1177.74,352.0005 1178,352.0005 C1178.25,352.0005 1178.51,351.9015 1178.7,351.7085 C1179.09,351.3175 1179.09,350.6855 1178.7,350.2945 L1178.7,350.2945 Z" id="Fill-19" opacity="0.693963068" fill="#EBEBEB" sketch:type="MSShapeGroup"></path>
            <path d="M967,177 C966.448,177 966,177.448 966,178 C966,178.552 966.448,179 967,179 C967.552,179 968,178.552 968,178 C968,177.448 967.552,177 967,177 L967,177 Z M982,182 L952,182 L952,176.75 C952,175.232 953.234,174 954.75,174 L979.25,174 C980.766,174 982,175.232 982,176.75 L982,182 L982,182 Z M952,184 L982,184 L982,220 L952,220 L952,184 Z M982,227.25 C982,228.766 980.766,230 979.25,230 L954.75,230 C953.234,230 952,228.766 952,227.25 L952,222 L982,222 L982,227.25 L982,227.25 Z M979.25,172 L954.75,172 C952.131,172 950,174.131 950,176.75 L950,227.25 C950,229.869 952.131,232 954.75,232 L979.25,232 C981.869,232 984,229.869 984,227.25 L984,176.75 C984,174.131 981.869,172 979.25,172 L979.25,172 Z M964,226 L970,226 C970.553,226 971,225.553 971,225 C971,224.447 970.553,224 970,224 L964,224 C963.447,224 963,224.447 963,225 C963,225.553 963.447,226 964,226 L964,226 Z" id="Fill-32" fill="#EBEBEB" sketch:type="MSShapeGroup"></path>
            <path d="M903,50.525 L881.71,50.525 L850.88,20.466 C851.35,20.039 851.99,19.445 852.72,18.764 L882,48.525 L903,48.525 L903,50.525 L903,50.525 Z M861.23,10.793 C862.4,9.619 863.58,9 864.64,9 C865.55,9 866.17,9.461 866.53,9.847 C867.27,10.648 867.65,11.921 867.55,13.254 C867.39,15.384 868.24,17.523 870.02,19.441 C873.21,22.886 878.71,24.982 882.34,25.091 C882.73,25.993 883.2,27.13 883.71,28.401 L870.05,33.453 L854.17,17.423 C856.96,14.829 860.32,11.693 861.23,10.793 L861.23,10.793 Z M884.44,30.258 C884.76,31.058 885.09,31.887 885.42,32.732 L873.56,37.001 L871.59,35.012 L884.44,30.258 L884.44,30.258 Z M886.15,34.595 C886.51,35.504 886.87,36.417 887.23,37.327 C886.96,37.055 886.55,36.95 886.17,37.089 L877.07,40.538 L875.12,38.568 L886.15,34.595 L886.15,34.595 Z M887.52,38.041 C888.05,39.375 888.58,40.686 889.09,41.91 C889.25,42.283 889.61,42.525 890.02,42.525 L897.3,42.525 C899.63,42.525 901.78,44.268 902.63,46.525 L883,46.525 L878.61,42.093 L886.88,38.961 C887.27,38.811 887.51,38.438 887.52,38.041 L887.52,38.041 Z M897.3,40.525 L890.68,40.525 C889.72,38.196 888.7,35.619 887.73,33.138 C887.72,33.084 887.72,33.029 887.7,32.974 C887.68,32.902 887.63,32.846 887.59,32.784 C887.53,32.628 887.46,32.467 887.4,32.312 C886.94,31.124 886.48,29.963 886.04,28.869 C886.04,28.784 886.04,28.699 886,28.615 C885.96,28.508 885.9,28.421 885.83,28.338 C885.08,26.461 884.41,24.818 883.9,23.677 C883.73,23.302 883.35,23.08 882.94,23.088 L882.63,23.095 C879.51,23.095 874.36,21.179 871.49,18.082 C870.08,16.562 869.43,14.988 869.55,13.404 C869.69,11.5 869.12,9.707 867.99,8.488 C867.1,7.527 865.91,7 864.64,7 C863.53,7 861.78,7.412 859.81,9.379 C858.26,10.929 848.85,19.625 848.75,19.713 C848.55,19.898 848.44,20.16 848.43,20.433 C848.43,20.709 848.54,20.972 848.73,21.164 L880.61,52.242 C880.8,52.423 881.05,52.525 881.31,52.525 L904,52.525 C904.55,52.525 905,52.078 905,51.525 L905,48.529 C905,44.265 901.4,40.525 897.3,40.525 L897.3,40.525 Z M863,42.525 L847,42.525 C846.45,42.525 846,42.972 846,43.525 C846,44.078 846.45,44.525 847,44.525 L863,44.525 C863.55,44.525 864,44.078 864,43.525 C864,42.972 863.55,42.525 863,42.525 L863,42.525 Z M847,40.525 L857,40.525 C857.55,40.525 858,40.078 858,39.525 C858,38.972 857.55,38.525 857,38.525 L847,38.525 C846.45,38.525 846,38.972 846,39.525 C846,40.078 846.45,40.525 847,40.525 L847,40.525 Z M847,36.525 L853,36.525 C853.55,36.525 854,36.078 854,35.525 C854,34.972 853.55,34.525 853,34.525 L847,34.525 C846.45,34.525 846,34.972 846,35.525 C846,36.078 846.45,36.525 847,36.525 L847,36.525 Z" id="Fill-59" fill="#EBEBEB" sketch:type="MSShapeGroup"></path>
            <path d="M658.33,450.447 C659.95,447.168 661,443.702 661,440 C661,426.354 649.65,415 636,415 C622.35,415 611,426.354 611,440 C611,444.117 612.28,447.947 614.24,451.545 C614.31,451.673 614.41,451.772 614.52,451.855 L614.52,457.585 C610.44,452.756 608,446.691 608,440 C608,424.699 620.7,412 636,412 C651.3,412 664,424.699 664,440 C664,445.87 661.97,451.349 658.52,456 L658.52,451 C658.52,450.791 658.44,450.607 658.33,450.447 L658.33,450.447 Z M655,452 L657,452 L657,462 L655,462 L655,452 Z M652.52,463.5 C652.52,465.645 650.02,468 647.75,468 L645.16,468.008 C644.99,467.809 644.99,466.863 645,466.357 L645,448.143 L645,448 C645.07,447.998 645.15,447.998 645.24,447.998 L647.75,448 C649.4,448 652.52,448.627 652.52,451 L652.52,463.5 L652.52,463.5 Z M616,452 L618,452 L618,462 L616,462 L616,452 Z M620.52,451 C620.52,448.52 622.57,448 624.29,448 L626.29,448 C628.41,448 628,448.916 628,449 L628,466 C628,466.785 627.17,468 626.29,468 L624.29,468 C622.07,468 620.52,465.629 620.52,463.5 L620.52,451 L620.52,451 Z M636,410 C619.6,410 606,423.596 606,440 C606,447.592 608.93,454.457 613.79,459.787 C613.98,460.002 614.25,460.109 614.52,460.111 L614.52,463 C614.52,463.553 614.96,464 615.52,464 L618.54,464 C618.75,466.713 620.62,469.447 623.42,469.926 C623.53,469.975 623.66,470 623.79,470 L626.29,470 C628.1,470 630,468.021 630,466 L630,449 C630,446.5 627.34,446 626.29,446 L623.79,446 C623.71,446 623.63,446.01 623.56,446.029 C620.81,446.245 619,447.706 618.6,450 L615.69,450 C614.07,446.867 613,443.561 613,440 C613,427.455 623.46,417 636,417 C648.54,417 659,427.455 659,440 C659,443.563 657.93,446.866 656.31,450 L654.4,450 C653.79,447.263 650.67,446 647.75,446 L645,446 C644,446 643,447 643,448 L643,466.34 C642.99,467.422 642.98,468.648 643.74,469.414 C644,469.682 644.48,470 645.23,470 L647.75,470 C650.93,470 654.16,467.05 654.48,464 L657.52,464 C658.07,464 658.52,463.553 658.52,463 L658.52,459.188 C663.2,453.799 666,447.164 666,440 C666,423.596 652.4,410 636,410 L636,410 Z" id="Fill-60" fill="#EBEBEB" sketch:type="MSShapeGroup"></path>
            <path d="M503.5,415 C499.6975,415 496.4695,418.1905 496.4695,421.99 C496.4695,424.135 494.722,425.881 492.5785,425.881 C490.4305,425.881 488.6875,424.135 488.6875,421.99 C488.6875,418.1905 485.5945,415.099 481.7965,415.099 C477.994,415.099 474.907,418.1905 474.907,421.99 C474.907,424.135 473.1595,425.881 471.016,425.881 C468.868,425.881 467.125,424.135 467.125,421.99 C467.125,418.1905 464.032,415.099 460.234,415.099 C456.4315,415.099 453.3445,418.1905 453.3445,421.99 C453.3445,424.135 451.597,425.881 449.4535,425.881 C447.3055,425.881 445.5625,424.135 445.5625,421.99 C445.5625,418.1905 442.4695,415.099 438.6715,415.099 C434.869,415.099 431.782,418.1905 431.782,421.99 C431.782,424.135 430.645,425.5 428.5,425.5 C426.352,425.5 425.5,424.645 425.5,422.5 C425.5,421.6705 424.8265,421 424,421 C423.1675,421 422.5,421.6705 422.5,422.5 C422.5,426.2995 424.6975,428.5 428.5,428.5 C432.2965,428.5 434.782,425.7895 434.782,421.99 C434.782,419.845 436.525,418.099 438.6715,418.099 C440.8165,418.099 442.5625,419.845 442.5625,421.99 C442.5625,425.7895 445.651,428.881 449.4535,428.881 C453.25,428.881 456.3445,425.7895 456.3445,421.99 C456.3445,419.845 458.0875,418.099 460.234,418.099 C462.379,418.099 464.125,419.845 464.125,421.99 C464.125,425.7895 467.2135,428.881 471.016,428.881 C474.8125,428.881 477.907,425.7895 477.907,421.99 C477.907,419.845 479.65,418.099 481.7965,418.099 C483.9415,418.099 485.6875,419.845 485.6875,421.99 C485.6875,425.7895 488.776,428.881 492.5785,428.881 C496.375,428.881 499.4695,425.7895 499.4695,421.99 C499.4695,419.845 501.352,418 503.5,418 C505.645,418 506.5,420.355 506.5,422.5 C506.5,423.3295 507.1675,424 508,424 C508.8265,424 509.5,423.3295 509.5,422.5 C509.5,418.7005 507.2965,415 503.5,415 L503.5,415 Z M428.5,436 L506.5,436 L506.5,448 L428.5,448 L428.5,436 Z M492.5785,457 L438.6715,457 C435.6955,457 432.8425,454 431.875,451 L502.7905,451 C500.875,454 495.6835,457 492.5785,457 L492.5785,457 Z M508.024,433 L427.024,433 C426.1915,433 425.5,433.7005 425.5,434.53 L425.5,449.53 C425.5,450.358 426.1915,451 427.024,451 L428.767,451 C429.7885,455.5 433.9285,460 438.6715,460 L492.5785,460 C496.849,460 504.3295,455.5 506.125,451 L508.024,451 C508.849,451 509.5,450.358 509.5,449.53 L509.5,434.53 C509.5,433.7005 508.849,433 508.024,433 L508.024,433 Z M506.5,406 L428.5,406 L428.5,404.1775 C428.5,386.8135 436.4605,385 454.606,385 L462.9235,385.03 L476.7925,385 C495.2845,385 506.5,386.2915 506.5,404.1775 L506.5,406 L506.5,406 Z M476.7895,382 L468.3145,382.03 L454.609,382 C437.032,382 425.5,383.5435 425.5,404.1775 L425.5,407.53 C425.5,408.358 426.1915,409 427.024,409 L508.024,409 C508.849,409 509.5,408.358 509.5,407.53 L509.5,404.1775 C509.5,383.635 495.3295,382 476.7895,382 L476.7895,382 Z" id="Fill-64" fill="#EBEBEB" sketch:type="MSShapeGroup"></path>
            <path d="M791.953657,444.09 C789.450657,445.47 787.096657,444.88 784.813657,442.35 C779.906657,436.91 776.589657,423.24 777.020657,415 C784.179657,417.07 793.341657,427.92 794.790657,436.4 C795.425657,440.13 794.471657,442.71 791.953657,444.09 L791.953657,444.09 Z M785.897657,446 L766.187657,446 C766.176657,445.97 766.164657,445.94 766.154657,445.91 C766.934657,445.42 767.695657,444.78 768.431657,444 L783.631657,444 C784.380657,444.78 785.152657,445.4 785.945657,445.85 C785.928657,445.9 785.913657,445.95 785.897657,446 L785.897657,446 Z M784.090657,450 L767.969657,450 C767.614657,449.37 767.279657,448.71 766.968657,448 L785.108657,448 C784.792657,448.71 784.453657,449.38 784.090657,450 L784.090657,450 Z M775.932657,456 C773.542657,456 771.208657,454.53 769.279657,452 L782.746657,452 C780.757657,454.54 778.352657,456 775.932657,456 L775.932657,456 Z M762.602657,444.82 L762.601657,444.82 C761.766657,444.82 760.897657,444.58 760.019657,444.09 C757.500657,442.71 756.546657,440.13 757.181657,436.4 C758.630657,427.92 767.792657,417.07 774.952657,415 C775.384657,423.24 772.069657,436.91 767.159657,442.35 C765.677657,443.99 764.145657,444.82 762.602657,444.82 L762.602657,444.82 Z M773.854657,434 C774.745657,431.43 775.463657,428.68 775.990657,425.96 C776.520657,428.68 777.245657,431.43 778.143657,434 L773.854657,434 L773.854657,434 Z M780.786657,440 C781.181657,440.71 781.593657,441.38 782.021657,442 L770.011657,442 C770.435657,441.38 770.843657,440.71 771.236657,440 L780.786657,440 L780.786657,440 Z M772.248657,438 C772.547657,437.35 772.835657,436.69 773.110657,436 L778.893657,436 C779.170657,436.69 779.460657,437.35 779.762657,438 L772.248657,438 L772.248657,438 Z M775.932657,406 C782.125657,406 782.906657,411.97 782.930657,415.81 C780.670657,414.22 778.384657,413.13 776.275657,412.79 C776.128657,412.76 775.984657,412.77 775.847657,412.81 C775.796657,412.81 775.747657,412.8 775.697657,412.81 C773.554657,413.16 771.227657,414.28 768.933657,415.91 C768.944657,412.08 769.686657,406 775.932657,406 L775.932657,406 Z M796.761657,436.07 C795.658657,429.6 790.584657,422.08 784.932657,417.35 L784.932657,416 C784.932657,412.18 784.172657,409.22 782.707657,407.2 C782.708657,402.32 785.108657,400 789.932657,400 C790.485657,400 790.932657,399.55 790.932657,399 C790.932657,398.45 790.485657,398 789.932657,398 C783.581657,398 781.350657,401.71 780.837657,405.37 C779.509657,404.47 777.873657,404 775.932657,404 C774.145657,404 772.605657,404.42 771.327657,405.21 C770.616657,400.61 767.322657,398 761.932657,398 C761.379657,398 760.932657,398.45 760.932657,399 C760.932657,399.55 761.379657,400 761.932657,400 C766.860657,400 769.355657,402.35 769.464657,406.89 C767.953657,408.75 767.095657,411.49 766.959657,415 L766.932657,415 L766.932657,417.46 C761.323657,422.21 756.307657,429.69 755.210657,436.11 C754.438657,440.63 755.803657,444.15 759.056657,445.94 C760.233657,446.58 761.425657,447 762.600657,447 L762.602657,447 C763.185657,447 763.759657,446.91 764.327657,446.74 C766.717657,453.69 771.111657,458 775.932657,458 C780.747657,458 785.386657,453.62 787.794657,446.63 C788.313657,446.76 788.838657,446.82 789.370657,446.82 C790.545657,446.82 791.738657,446.49 792.915657,445.85 C796.168657,444.06 797.534657,440.59 796.761657,436.07 L796.761657,436.07 Z" id="Fill-86" fill="#EBEBEB" sketch:type="MSShapeGroup"></path>
            <path d="M969.502659,300.1 C969.372659,300.04 969.232659,300 969.072659,300 L954.762659,300 L956.912659,292.69 L969.532659,300.05 L969.502659,300.1 L969.502659,300.1 Z M944.842659,333.73 L954.172659,302 L968.112659,302 L944.842659,333.73 L944.842659,333.73 Z M943.502659,331.2 L934.912659,302 L952.082659,302 L943.502659,331.2 L943.502659,331.2 Z M918.892659,302 L932.822659,302 L942.162659,333.73 L918.892659,302 L918.892659,302 Z M930.092659,292.69 L932.242659,300 L917.552659,300 L930.092659,292.69 L930.092659,292.69 Z M955.032659,292 L952.672659,300 L934.322659,300 L931.972659,292 L955.032659,292 L955.032659,292 Z M971.502659,298.89 L956.502659,290.14 C956.352659,290.04 956.172659,290 956.002659,290 L931.002659,290 C930.822659,290 930.652659,290.05 930.502659,290.13 L915.502659,298.88 C915.252659,299.03 915.082659,299.27 915.022659,299.55 C914.962659,299.82 915.022659,300.11 915.192659,300.34 L942.692659,337.84 C942.882659,338.1 943.182659,338.25 943.502659,338.25 C943.822659,338.25 944.122659,338.1 944.312659,337.84 L971.812659,300.34 C971.972659,300.11 972.032659,299.83 971.982659,299.55 C971.922659,299.27 971.752659,299.03 971.502659,298.89 L971.502659,298.89 Z" id="Fill-102" fill="#EBEBEB" sketch:type="MSShapeGroup"></path>
            <path d="M324,416 L268,416 L268,414.193 C268,412.984 268.984,412 270.193,412 L321.807,412 C323.016,412 324,412.984 324,414.193 L324,416 L324,416 Z M268,418 L324,418 L324,442 L268,442 L268,418 Z M324,447.807 C324,449.016 323.016,450 321.807,450 L270.193,450 C268.984,450 268,449.016 268,447.807 L268,444 L324,444 L324,447.807 L324,447.807 Z M288.27,460 L289.973,452 L299.006,452 L300.709,460 L288.27,460 L288.27,460 Z M321.807,410 L270.193,410 C267.881,410 266,411.881 266,414.193 L266,447.807 C266,450.119 267.881,452 270.193,452 L287.928,452 L286.225,460 L284,460 C283.447,460 283,460.447 283,461 C283,461.553 283.447,462 284,462 L301.943,462 C301.955,461.998 301.971,461.998 301.982,462 L306,462 C306.553,462 307,461.553 307,461 C307,460.447 306.553,460 306,460 L302.753,460 L301.05,452 L321.807,452 C324.119,452 326,450.119 326,447.807 L326,414.193 C326,411.881 324.119,410 321.807,410 L321.807,410 Z" id="Fill-34" opacity="0.725923295" fill="#EBEBEB" sketch:type="MSShapeGroup"></path>
            <path d="M768.464014,8.846 C769.008614,9.392 769.894814,9.392 770.443614,8.846 C770.988214,8.3 770.988214,7.404 770.443614,6.858 L768.464014,4.884 C767.915214,4.338 767.029014,4.338 766.484414,4.884 C765.935614,5.43 765.935614,6.312 766.484414,6.858 L768.464014,8.846 L768.464014,8.846 Z M768.464014,26.654 L766.484414,28.642 C765.935614,29.188 765.935614,30.07 766.484414,30.616 C767.029014,31.162 767.915214,31.162 768.464014,30.616 L770.443614,28.642 C770.988214,28.096 770.988214,27.2 770.443614,26.654 C769.894814,26.108 769.008614,26.108 768.464014,26.654 L768.464014,26.654 Z M718.048614,50.132 C716.353214,45.232 716.496014,39.954 718.475614,35.11 C720.635814,29.832 724.721014,25.702 729.975214,23.504 C732.617014,22.398 735.390414,21.838 738.228214,21.838 C746.387414,21.838 753.743014,26.43 757.341014,33.654 L718.048614,50.132 L718.048614,50.132 Z M794.256214,77.054 C786.826414,73.33 768.559214,70.446 751.091414,70.362 C751.073214,70.264 751.074614,70.166 751.035414,70.082 L740.207814,44.266 C740.158814,44.14 740.077614,44.056 740.004814,43.958 L759.758814,35.67 C760.097614,35.53 760.370614,35.25 760.513414,34.914 C760.650614,34.578 760.650614,34.186 760.507814,33.85 C756.729214,24.848 747.984814,19.038 738.228214,19.038 C735.485614,19.038 732.800414,19.528 730.210414,20.438 L729.374614,18.45 C729.073614,17.736 728.258814,17.4 727.542014,17.694 C726.825214,17.988 726.492014,18.814 726.793014,19.528 L727.630214,21.53 C722.301814,24.12 718.149414,28.516 715.882814,34.046 C713.444014,40.01 713.470614,46.576 715.971014,52.526 C716.195014,53.058 716.714414,53.38 717.260414,53.38 C717.441014,53.38 717.621614,53.352 717.802214,53.282 L737.554814,44.994 C737.571614,45.106 737.577214,45.232 737.626214,45.344 L748.122014,70.376 C734.627414,70.558 722.017614,72.504 715.790414,77.18 C715.171614,77.642 715.045614,78.524 715.510414,79.14 C715.975214,79.756 716.850214,79.882 717.469014,79.42 C730.396614,69.732 778.751214,72.42 793.003214,79.546 C793.206214,79.644 793.419014,79.7 793.631814,79.7 C794.141414,79.7 794.638414,79.42 794.884814,78.93 C795.229214,78.23 794.950614,77.39 794.256214,77.054 L794.256214,77.054 Z M777.953214,31.75 L777.953214,34.55 C777.953214,35.32 778.576214,35.95 779.353214,35.95 C780.124614,35.95 780.753214,35.32 780.753214,34.55 L780.753214,31.75 C780.753214,30.98 780.124614,30.35 779.353214,30.35 C778.576214,30.35 777.953214,30.98 777.953214,31.75 L777.953214,31.75 Z M796.153214,16.35 L793.353214,16.35 C792.576214,16.35 791.953214,16.98 791.953214,17.75 C791.953214,18.52 792.576214,19.15 793.353214,19.15 L796.153214,19.15 C796.924614,19.15 797.553214,18.52 797.553214,17.75 C797.553214,16.98 796.924614,16.35 796.153214,16.35 L796.153214,16.35 Z M762.553214,19.15 L765.353214,19.15 C766.124614,19.15 766.753214,18.52 766.753214,17.75 C766.753214,16.98 766.124614,16.35 765.353214,16.35 L762.553214,16.35 C761.776214,16.35 761.153214,16.98 761.153214,17.75 C761.153214,18.52 761.776214,19.15 762.553214,19.15 L762.553214,19.15 Z M790.242414,30.616 C790.787014,31.162 791.673214,31.162 792.222014,30.616 C792.768014,30.07 792.768014,29.188 792.222014,28.642 L790.242414,26.654 C789.693614,26.108 788.807414,26.108 788.262814,26.654 C787.714014,27.214 787.714014,28.096 788.262814,28.642 L790.242414,30.616 L790.242414,30.616 Z M779.353214,12.206 C782.408014,12.206 784.898614,14.698 784.898614,17.75 C784.898614,20.802 782.408014,23.294 779.353214,23.294 C776.292814,23.294 773.807814,20.802 773.807814,17.75 C773.807814,14.698 776.292814,12.206 779.353214,12.206 L779.353214,12.206 Z M779.353214,26.15 C783.985814,26.15 787.753214,22.384 787.753214,17.75 C787.753214,13.116 783.985814,9.35 779.353214,9.35 C774.720614,9.35 770.953214,13.116 770.953214,17.75 C770.953214,22.384 774.720614,26.15 779.353214,26.15 L779.353214,26.15 Z M790.242414,8.846 L792.222014,6.858 C792.768014,6.312 792.768014,5.43 792.222014,4.884 C791.673214,4.338 790.787014,4.338 790.242414,4.884 L788.262814,6.858 C787.714014,7.404 787.714014,8.286 788.262814,8.846 C788.807414,9.392 789.693614,9.392 790.242414,8.846 L790.242414,8.846 Z M779.353214,5.15 C780.124614,5.15 780.753214,4.52 780.753214,3.75 L780.753214,0.95 C780.753214,0.18 780.124614,-0.45 779.353214,-0.45 C778.576214,-0.45 777.953214,0.18 777.953214,0.95 L777.953214,3.75 C777.953214,4.52 778.576214,5.15 779.353214,5.15 L779.353214,5.15 Z" id="Fill-82" fill="#EBEBEB" sketch:type="MSShapeGroup"></path>
            <path d="M262.224,196.421491 L253,196.421491 C252.445,196.421491 252,196.868491 252,197.421491 C252,197.974491 252.445,198.421491 253,198.421491 L261.876,198.421491 C262.007,199.075491 261.897,199.982491 261.543,200.909491 C261.037,202.240491 259.939,203.838491 258.376,204.421491 L253,204.421491 C252.445,204.421491 252,204.868491 252,205.421491 C252,205.974491 252.445,206.421491 253,206.421491 L257.755,206.421491 C257.935,207.756491 257.714,209.477491 256.762,210.735491 C255.914,211.853491 254.609,212.421491 252.883,212.421491 L232.414,212.421491 C231.34,212.421491 230.805,212.290491 230.438,211.937491 C230.184,211.691491 229.906,211.345491 229.609,210.980491 C228.629,209.780491 227.523,208.421491 226.063,208.421491 L225,208.421491 L225,190.419491 C227.01,190.408491 228.902,189.509491 230.219,187.923491 C230.363,187.747491 230.469,187.622491 230.605,187.515491 C234.637,184.343491 237.27,180.872491 238.66,176.905491 C238.887,176.247491 239,175.519491 239,174.677491 L239,169.153491 C240.336,167.968491 242.023,167.659491 243.297,168.409491 C245.305,169.585491 246.645,173.548491 244.395,181.136491 C244.305,181.439491 244.363,181.767491 244.551,182.019491 C244.738,182.273491 245.035,182.421491 245.352,182.421491 L258.883,182.421491 C262.07,182.421491 263.203,183.360491 263.203,186.009491 C263.203,188.421491 263.059,188.421491 262.574,188.421491 L253,188.421491 C252.445,188.421491 252,188.868491 252,189.421491 C252,189.974491 252.445,190.421491 253,190.421491 L262.331,190.421491 C262.973,190.779491 263.43,191.650491 263.539,192.757491 C263.649,193.907491 263.354,195.507491 262.224,196.421491 L262.224,196.421491 Z M209,188.421491 L223,188.421491 L223,210.421491 L209,210.421491 L209,188.421491 Z M265.527,192.564491 C265.418,191.423491 265.043,190.431491 264.469,189.685491 C265.203,188.827491 265.203,187.360491 265.203,186.009491 C265.203,181.001491 261.594,180.421491 258.883,180.421491 L246.668,180.421491 C248.402,173.671491 247.551,168.585491 244.309,166.685491 C242.133,165.407491 239.313,165.950491 237.281,168.030491 C237.102,168.216491 237,168.466491 237,168.728491 L237,174.677491 C237,175.290491 236.926,175.806491 236.77,176.247491 C235.512,179.841491 233.09,183.013491 229.371,185.939491 C229.066,186.179491 228.855,186.431491 228.66,186.669491 C227.746,187.774491 226.413,188.408491 225,188.419491 L225,187.421491 C225,186.868491 224.551,186.421491 224,186.421491 L208,186.421491 C207.445,186.421491 207,186.868491 207,187.421491 L207,211.421491 C207,211.974491 207.445,212.421491 208,212.421491 L224,212.421491 C224.551,212.421491 225,211.974491 225,211.421491 L225,210.421491 L226.063,210.421491 C226.574,210.421491 227.504,211.562491 228.059,212.243491 C228.41,212.679491 228.746,213.085491 229.051,213.378491 C230.004,214.294491 231.23,214.421491 232.414,214.421491 L252.883,214.421491 C255.852,214.421491 257.496,213.073491 258.355,211.942491 C259.673,210.202491 259.985,207.907491 259.73,206.093491 C259.768,206.052491 259.792,206.002491 259.823,205.956491 C261.603,204.982491 262.828,203.159491 263.414,201.622491 C263.921,200.286491 264.044,199.016491 263.816,197.965491 C263.907,197.831491 263.966,197.680491 263.982,197.510491 C265.114,196.287491 265.711,194.462491 265.527,192.564491 L265.527,192.564491 Z" id="Fill-53" opacity="0.707457386" fill="#EBEBEB" sketch:type="MSShapeGroup"></path>
            <path d="M1064,29.75 C1064,31.68 1062.914,33.75 1060.527,33.75 C1058.141,33.75 1057.051,31.68 1057.051,29.75 C1057.051,29.2 1056.605,28.75 1056.051,28.75 C1055.5,28.75 1055.051,29.2 1055.051,29.75 C1055.051,31.96 1053.258,33.75 1051.051,33.75 C1048.848,33.75 1047.051,31.96 1047.051,29.75 C1047.051,29.2 1046.605,28.75 1046.051,28.75 C1045.5,28.75 1045.051,29.2 1045.051,29.75 C1045.051,31.96 1043.258,33.75 1041.051,33.75 C1038.844,33.75 1037.047,31.96 1037.047,29.75 C1037.047,29.2 1036.602,28.75 1036.047,28.75 C1035.496,28.75 1035.047,29.2 1035.047,29.75 C1035.047,31.96 1033.25,33.75 1031.043,33.75 C1028.832,33.75 1027.035,31.96 1027.035,29.75 C1027.035,29.2 1026.586,28.75 1026.035,28.75 C1025.48,28.75 1025.035,29.2 1025.035,29.75 C1025.035,31.96 1023.23,33.75 1021.016,33.75 C1018.789,33.75 1016.977,31.96 1016.977,29.75 C1016.977,29.2 1016.531,28.75 1015.977,28.75 C1015.426,28.75 1014.977,29.2 1014.977,29.75 C1014.977,31.96 1013.148,33.75 1010.902,33.75 C1009.355,33.75 1008,31.88 1008,29.75 L1008,28.81 L1014.004,20 L1058.023,20 L1064,28.81 L1064,29.75 L1064,29.75 Z M1018,52 L1018,34.94 C1018.889,35.45 1019.916,35.75 1021.016,35.75 C1023.109,35.75 1024.953,34.68 1026.035,33.06 C1027.109,34.68 1028.953,35.75 1031.043,35.75 C1033.129,35.75 1034.973,34.68 1036.047,33.06 C1037.125,34.68 1038.965,35.75 1041.051,35.75 C1043.137,35.75 1044.977,34.68 1046.051,33.06 C1047.129,34.68 1048.969,35.75 1051.051,35.75 C1052.123,35.75 1053.128,35.46 1054,34.97 L1054,52 L1018,52 L1018,52 Z M1060,58 L1012,58 L1012,35.64 C1013.654,35.34 1015.08,34.39 1015.973,33.05 C1016.051,33.17 1016.142,33.28 1016.229,33.39 C1016.093,33.56 1016,33.76 1016,34 L1016,53 C1016,53.55 1016.445,54 1017,54 L1055,54 C1055.551,54 1056,53.55 1056,53 L1056,34 C1056,33.78 1055.912,33.58 1055.788,33.41 C1055.845,33.34 1055.908,33.27 1055.961,33.2 C1056.827,34.63 1058.262,35.56 1060,35.72 L1060,58 L1060,58 Z M1028,12 L1044,12 L1044,18 L1028,18 L1028,12 Z M1022,2 L1050,2 L1050,10 L1022,10 L1022,2 Z M1065.828,27.94 L1059.379,18.44 C1059.191,18.16 1058.883,18 1058.551,18 L1046,18 L1046,12 L1051,12 C1051.551,12 1052,11.55 1052,11 L1052,1 C1052,0.45 1051.551,0 1051,0 L1021,0 C1020.445,0 1020,0.45 1020,1 L1020,11 C1020,11.55 1020.445,12 1021,12 L1026,12 L1026,18 L1013.473,18 C1013.145,18 1012.832,18.16 1012.648,18.44 L1006.172,27.94 C1006.059,28.1 1006,28.3 1006,28.5 L1006,29.75 C1006,32.63 1007.755,35.1 1010,35.64 L1010,59 C1010,59.55 1010.445,60 1011,60 L1061,60 C1061.551,60 1062,59.55 1062,59 L1062,35.55 C1064.385,34.9 1066,32.66 1066,29.75 L1066,28.5 C1066,28.3 1065.938,28.1 1065.828,27.94 L1065.828,27.94 Z" id="Fill-88" opacity="0.675" fill="#EBEBEB" sketch:type="MSShapeGroup"></path>
            <path d="M277.465,108 L254.914,108 C245.684,108 238,98.83 238,89 C238,79.17 245.684,71.1 254.914,71.1 C261.031,71.1 266.578,74.24 269.75,79.51 L270.25,80.34 L271.098,79.87 C273.129,78.72 275.273,78.14 277.465,78.14 C284.441,78.14 290.563,84.79 290.563,92.37 C290.563,99.45 284.719,108 277.465,108 L277.465,108 Z M277.465,76.14 C275.227,76.14 273.043,76.66 270.957,77.68 C267.352,72.29 261.422,69.1 254.914,69.1 C244.617,69.1 236,78.11 236,89 C236,99.89 244.617,110 254.914,110 L277.465,110 C285.969,110 292.563,100.52 292.563,92.37 C292.563,83.72 285.508,76.14 277.465,76.14 L277.465,76.14 Z M295,78 L291,78 C290.445,78 290,78.45 290,79 C290,79.55 290.445,80 291,80 L295,80 C295.551,80 296,79.55 296,79 C296,78.45 295.551,78 295,78 L295,78 Z M251.801,64.51 C251.996,64.71 252.25,64.8 252.508,64.8 C252.762,64.8 253.02,64.71 253.215,64.51 C253.605,64.12 253.605,63.49 253.215,63.1 L249.711,59.6 C249.32,59.21 248.688,59.21 248.297,59.6 C247.906,59.99 247.906,60.62 248.297,61.01 L251.801,64.51 L251.801,64.51 Z M283.508,63.93 C283.762,63.93 284.02,63.83 284.215,63.63 L286.836,61.01 C287.227,60.62 287.227,59.99 286.836,59.6 C286.445,59.21 285.813,59.21 285.422,59.6 L282.801,62.22 C282.41,62.61 282.41,63.24 282.801,63.63 C282.996,63.83 283.25,63.93 283.508,63.93 L283.508,63.93 Z M270,58 C270.551,58 271,57.55 271,57 L271,51 C271,50.45 270.551,50 270,50 C269.445,50 269,50.45 269,51 L269,57 C269,57.55 269.445,58 270,58 L270,58 Z M259.621,66.07 C262.207,64.22 265.262,63.25 268.449,63.25 C274.691,63.25 280.246,66.99 282.594,72.78 C282.75,73.17 283.125,73.4 283.52,73.4 C283.645,73.4 283.77,73.38 283.895,73.33 C284.406,73.12 284.652,72.54 284.445,72.03 C281.789,65.48 275.512,61.25 268.449,61.25 C264.84,61.25 261.387,62.35 258.461,64.44 C258.012,64.76 257.906,65.38 258.227,65.83 C258.547,66.29 259.176,66.39 259.621,66.07 L259.621,66.07 Z" id="Fill-93" opacity="0.707457386" fill="#EBEBEB" sketch:type="MSShapeGroup"></path>
            <path d="M1227.465,268 L1204.914,268 C1195.684,268 1188,258.83 1188,249 C1188,239.17 1195.684,231.1 1204.914,231.1 C1211.031,231.1 1216.578,234.24 1219.75,239.51 L1220.25,240.34 L1221.098,239.87 C1223.129,238.72 1225.273,238.14 1227.465,238.14 C1234.441,238.14 1240.563,244.79 1240.563,252.37 C1240.563,259.45 1234.719,268 1227.465,268 L1227.465,268 Z M1227.465,236.14 C1225.227,236.14 1223.043,236.66 1220.957,237.68 C1217.352,232.29 1211.422,229.1 1204.914,229.1 C1194.617,229.1 1186,238.11 1186,249 C1186,259.89 1194.617,270 1204.914,270 L1227.465,270 C1235.969,270 1242.563,260.52 1242.563,252.37 C1242.563,243.72 1235.508,236.14 1227.465,236.14 L1227.465,236.14 Z M1245,238 L1241,238 C1240.445,238 1240,238.45 1240,239 C1240,239.55 1240.445,240 1241,240 L1245,240 C1245.551,240 1246,239.55 1246,239 C1246,238.45 1245.551,238 1245,238 L1245,238 Z M1201.801,224.51 C1201.996,224.71 1202.25,224.8 1202.508,224.8 C1202.762,224.8 1203.02,224.71 1203.215,224.51 C1203.605,224.12 1203.605,223.49 1203.215,223.1 L1199.711,219.6 C1199.32,219.21 1198.688,219.21 1198.297,219.6 C1197.906,219.99 1197.906,220.62 1198.297,221.01 L1201.801,224.51 L1201.801,224.51 Z M1233.508,223.93 C1233.762,223.93 1234.02,223.83 1234.215,223.63 L1236.836,221.01 C1237.227,220.62 1237.227,219.99 1236.836,219.6 C1236.445,219.21 1235.813,219.21 1235.422,219.6 L1232.801,222.22 C1232.41,222.61 1232.41,223.24 1232.801,223.63 C1232.996,223.83 1233.25,223.93 1233.508,223.93 L1233.508,223.93 Z M1220,218 C1220.551,218 1221,217.55 1221,217 L1221,211 C1221,210.45 1220.551,210 1220,210 C1219.445,210 1219,210.45 1219,211 L1219,217 C1219,217.55 1219.445,218 1220,218 L1220,218 Z M1209.621,226.07 C1212.207,224.22 1215.262,223.25 1218.449,223.25 C1224.691,223.25 1230.246,226.99 1232.594,232.78 C1232.75,233.17 1233.125,233.4 1233.52,233.4 C1233.645,233.4 1233.77,233.38 1233.895,233.33 C1234.406,233.12 1234.652,232.54 1234.445,232.03 C1231.789,225.48 1225.512,221.25 1218.449,221.25 C1214.84,221.25 1211.387,222.35 1208.461,224.44 C1208.012,224.76 1207.906,225.38 1208.227,225.83 C1208.547,226.29 1209.176,226.39 1209.621,226.07 L1209.621,226.07 Z" id="Fill-93" opacity="0.531392045" fill="#EBEBEB" sketch:type="MSShapeGroup"></path>
            <path d="M1023.18475,152.2925 C1022.32525,152.2925 1021.22575,152.1575 1020.86425,151.5275 C1020.61675,151.1075 1020.06925,149.2475 1023.40975,143.5175 C1027.38325,136.6925 1031.62975,133.2275 1036.03075,133.2275 C1041.97375,133.2275 1046.96575,139.4675 1048.88275,142.2275 C1044.35875,144.7175 1029.97075,152.2925 1023.18475,152.2925 L1023.18475,152.2925 Z M1052.46625,143.1425 C1052.56975,142.7675 1052.51425,142.3475 1052.31325,142.0025 C1052.03425,141.5225 1045.34875,130.2275 1036.03075,130.2275 C1030.48375,130.2275 1025.36575,134.1875 1020.81625,142.0025 C1017.76525,147.2525 1016.95375,150.7475 1018.26325,153.0275 C1019.12725,154.5275 1020.78325,155.2925 1023.18475,155.2925 C1032.04675,155.2925 1050.96175,144.5225 1051.76275,144.0575 C1052.10925,143.8625 1052.36275,143.5325 1052.46625,143.1425 L1052.46625,143.1425 Z M1091.75425,151.5275 C1091.39275,152.1575 1090.29325,152.2925 1089.43225,152.2925 C1082.64925,152.2925 1068.25375,144.7025 1063.73275,142.2275 C1065.64375,139.4675 1070.62525,133.2275 1076.58775,133.2275 C1080.98725,133.2275 1085.23525,136.6925 1089.21025,143.5175 C1092.54775,149.2475 1092.00175,151.1075 1091.75425,151.5275 L1091.75425,151.5275 Z M1076.58775,130.2275 C1067.26825,130.2275 1060.58275,141.5225 1060.30225,142.0025 C1060.10275,142.3475 1060.04575,142.7675 1060.15075,143.1425 C1060.25275,143.5325 1060.50625,143.8625 1060.85425,144.0575 C1061.65525,144.5225 1080.57025,155.2925 1089.43225,155.2925 C1091.83375,155.2925 1093.48975,154.5275 1094.35525,153.0275 C1095.66475,150.7475 1094.85475,147.2525 1091.80225,142.0025 C1087.25125,134.1875 1082.13175,130.2275 1076.58775,130.2275 L1076.58775,130.2275 Z M1056.88825,168.2675 C1052.17525,168.2675 1048.15675,162.7625 1046.55325,160.2275 C1048.23925,159.6425 1051.76575,159.0725 1056.85375,159.0725 C1061.72125,159.0725 1065.04675,159.6275 1066.45375,160.1375 C1063.39225,165.5225 1060.17775,168.2675 1056.88825,168.2675 L1056.88825,168.2675 Z M1069.73425,160.3775 C1069.98475,159.9125 1069.96225,159.3275 1069.67575,158.8775 C1068.13375,156.4325 1060.98025,156.0725 1056.85375,156.0725 C1054.30975,156.0725 1045.82875,156.2525 1043.43175,158.6075 C1042.96075,159.0725 1042.84825,159.7925 1043.15725,160.3775 C1043.37625,160.7975 1048.28725,169.9625 1055.38825,171.1325 L1055.38825,175.3175 C1049.79475,174.5975 1045.71775,169.3775 1045.67425,169.3175 C1045.17025,168.6575 1044.23275,168.5375 1043.57275,169.0325 C1042.91725,169.5425 1042.78975,170.4875 1043.29225,171.1325 C1043.51275,171.4325 1048.79575,178.2425 1056.39925,178.3925 L1056.66775,178.3925 C1061.24725,178.3925 1065.58525,175.9775 1069.56175,171.1925 C1070.09125,170.5475 1070.00275,169.6025 1069.36525,169.0775 C1068.72925,168.5375 1067.78425,168.6275 1067.25325,169.2725 C1064.41375,172.6925 1061.41975,174.6725 1058.38825,175.2125 L1058.38825,171.1325 C1062.52225,170.4275 1066.33375,166.8275 1069.73425,160.3775 L1069.73425,160.3775 Z M1035.77125,144.1175 C1034.53075,144.1175 1033.52125,143.1125 1033.52125,141.8675 C1033.52125,140.6225 1034.53075,139.6175 1035.77125,139.6175 C1037.01175,139.6175 1038.02125,140.6225 1038.02125,141.8675 C1038.02125,143.1125 1037.01175,144.1175 1035.77125,144.1175 L1035.77125,144.1175 Z M1035.77125,136.6175 C1032.87625,136.6175 1030.52125,138.9725 1030.52125,141.8675 C1030.52125,144.7625 1032.87625,147.1175 1035.77125,147.1175 C1038.66625,147.1175 1041.02125,144.7625 1041.02125,141.8675 C1041.02125,138.9725 1038.66625,136.6175 1035.77125,136.6175 L1035.77125,136.6175 Z M1076.84575,144.1175 C1075.60525,144.1175 1074.59575,143.1125 1074.59575,141.8675 C1074.59575,140.6225 1075.60525,139.6175 1076.84575,139.6175 C1078.08625,139.6175 1079.09575,140.6225 1079.09575,141.8675 C1079.09575,143.1125 1078.08625,144.1175 1076.84575,144.1175 L1076.84575,144.1175 Z M1076.84575,136.6175 C1073.95075,136.6175 1071.59575,138.9725 1071.59575,141.8675 C1071.59575,144.7625 1073.95075,147.1175 1076.84575,147.1175 C1079.73925,147.1175 1082.09575,144.7625 1082.09575,141.8675 C1082.09575,138.9725 1079.73925,136.6175 1076.84575,136.6175 L1076.84575,136.6175 Z M1097.33275,149.7875 C1097.33275,171.6275 1079.04025,189.3875 1056.55375,189.3875 C1034.06875,189.3875 1015.77625,171.6275 1015.77625,149.7875 C1015.77625,141.9875 1018.11625,134.4425 1022.54575,127.9475 C1022.84425,127.5125 1022.89075,126.9575 1022.66875,126.4775 C1022.44675,125.9975 1021.98925,125.6675 1021.46575,125.6075 C1018.31125,125.2775 1015.60525,123.1175 1014.57025,120.1025 C1013.86525,118.0475 1014.00025,115.8725 1014.95275,113.9675 C1015.87675,112.1075 1017.46825,110.7425 1019.42875,110.0975 C1020.21025,109.8575 1021.01875,109.7225 1021.83625,109.7225 C1025.31325,109.7225 1028.41975,111.9575 1029.55825,115.2725 C1029.73825,115.8125 1029.86425,116.3825 1029.93325,116.9675 C1029.99775,117.4925 1030.33525,117.9425 1030.82125,118.1525 C1031.30275,118.3775 1031.86525,118.3175 1032.30025,118.0025 C1039.40575,112.8875 1047.79375,110.1725 1056.55375,110.1725 C1064.73775,110.1725 1072.63225,112.5275 1079.38375,116.9675 C1079.80375,117.2375 1080.33175,117.2825 1080.79225,117.0875 C1081.25275,116.8925 1081.58575,116.4875 1081.68025,115.9925 C1082.22775,113.1725 1084.14475,110.9675 1086.80575,110.0975 C1090.90975,108.7775 1095.52675,111.1775 1096.93825,115.2875 C1097.64175,117.3425 1097.50375,119.5175 1096.55125,121.4375 C1095.62725,123.2825 1094.03725,124.6475 1092.09325,125.2775 C1091.96425,125.3225 1091.83675,125.3375 1091.71075,125.3675 L1091.34475,125.4275 C1090.85725,125.5475 1090.45675,125.8925 1090.27525,126.3575 C1090.09375,126.8225 1090.15525,127.3475 1090.43725,127.7525 C1094.94775,134.2775 1097.33275,141.8975 1097.33275,149.7875 L1097.33275,149.7875 Z M1099.23475,122.7725 C1100.54875,120.1475 1100.74225,117.1475 1099.77625,114.3125 C1098.21625,109.7675 1093.97125,106.7225 1089.21175,106.7225 C1088.08225,106.7225 1086.96475,106.9025 1085.88325,107.2475 C1082.88775,108.2225 1080.51175,110.4875 1079.33725,113.3975 C1072.48225,109.3175 1064.64925,107.1725 1056.55375,107.1725 C1047.90925,107.1725 1039.60525,109.6325 1032.39775,114.2975 C1030.83025,109.7675 1026.58825,106.7225 1021.83625,106.7225 C1020.70675,106.7225 1019.58775,106.9025 1018.50625,107.2475 C1015.77025,108.1325 1013.55475,110.0525 1012.26925,112.6175 C1010.95525,115.2575 1010.76475,118.2575 1011.73225,121.0775 C1012.88725,124.4375 1015.57375,127.0325 1018.87375,128.1125 C1014.87775,134.6675 1012.77625,142.1075 1012.77625,149.7875 C1012.77625,173.2775 1032.41575,192.3875 1056.55375,192.3875 C1080.69325,192.3875 1100.33275,173.2775 1100.33275,149.7875 C1100.33275,141.9575 1098.15775,134.3825 1094.02375,127.7525 C1096.28725,126.7475 1098.11275,125.0225 1099.23475,122.7725 L1099.23475,122.7725 Z" id="Fill-87" opacity="0.693963068" fill="#EBEBEB" sketch:type="MSShapeGroup"></path>
            <path d="M370.159775,377.61 L362.563775,382.3 C362.559775,382.31 362.556775,382.31 362.552775,382.31 L361.147775,383.18 C360.661775,382.08 360.470775,380.89 360.572775,379.69 C360.745775,379.51 360.854775,379.27 360.854775,379 C360.854775,378.85 360.812775,378.7 360.750775,378.57 C361.204775,376.73 362.336775,375.16 363.954775,374.16 C365.092775,373.46 366.397775,373.09 367.729775,373.09 C369.909775,373.09 371.917775,374.04 373.272775,375.69 L370.159775,377.61 L370.159775,377.61 Z M372.081775,381.31 C371.807775,382.47 371.096775,383.46 370.081775,384.08 C368.328775,385.16 365.950775,384.84 364.561775,383.42 L371.963775,378.85 C372.233775,379.63 372.276775,380.48 372.081775,381.31 L372.081775,381.31 Z M358.837775,378 L341.338775,378 C340.729775,373.47 336.148775,368.44 330.854775,368.44 C329.048775,368.44 327.386775,368.68 325.854775,369.15 L325.854775,364 L339.049775,364 C340.920775,364 344.879775,369.2 344.879775,375 C344.879775,375.55 345.327775,376 345.879775,376 L354.075775,376 C354.590775,376 355.022775,375.61 355.069775,375.09 C355.077775,375.02 355.877775,367.26 361.268775,364.8 C361.624775,364.64 361.854775,364.29 361.854775,363.89 L361.854775,358 L362.956775,358 C363.761775,360.04 366.351775,366.52 368.561775,371.14 C368.285775,371.12 368.010775,371.09 367.729775,371.09 C366.026775,371.09 364.358775,371.56 362.903775,372.46 C360.866775,373.72 359.432775,375.69 358.837775,378 L358.837775,378 Z M318.608775,378 C321.372775,372.85 325.297775,370.44 330.854775,370.44 C335.135775,370.44 338.682775,374.69 339.315775,378 L318.608775,378 L318.608775,378 Z M330.854775,384.83 C327.874775,384.83 325.549775,382.81 325.102775,380 L336.604775,380 C336.159775,382.81 333.834775,384.83 330.854775,384.83 L330.854775,384.83 Z M323.854775,358 L339.854775,358 L339.854775,362 L323.854775,362 L323.854775,358 L323.854775,358 Z M375.557775,375.45 C374.467775,373.68 372.854775,372.39 370.983775,371.69 C370.969775,371.58 370.948775,371.47 370.897775,371.37 C368.217775,366.01 364.608775,356.73 364.571775,356.64 C364.420775,356.25 364.049775,356 363.639775,356 L363.854775,356 C364.405775,356 364.854775,355.55 364.854775,355 C364.854775,354.45 364.405775,354 363.854775,354 L355.854775,354 C355.299775,354 354.854775,354.45 354.854775,355 C354.854775,355.55 355.299775,356 355.854775,356 L360.854775,356 C360.299775,356 359.854775,356.45 359.854775,357 L359.854775,363.27 C355.024775,365.86 353.588775,371.73 353.206775,374 L346.842775,374 C346.518775,369.48 344.081775,364.73 341.385775,362.85 C341.667775,362.67 341.854775,362.36 341.854775,362 L341.854775,357 C341.854775,356.45 341.405775,356 340.854775,356 L322.854775,356 C322.299775,356 321.854775,356.45 321.854775,357 L321.854775,363 C321.854775,363.55 322.299775,364 322.854775,364 L323.854775,364 L323.854775,369.93 C320.572775,371.52 318.002775,374.38 316.088775,378.59 C315.948775,378.89 315.975775,379.25 316.159775,379.54 C316.342775,379.82 316.659775,380 316.999775,380 L323.088775,380 C323.551775,383.96 326.730775,386.83 330.854775,386.83 C334.978775,386.83 338.156775,383.96 338.618775,380 L340.417775,380 L340.462775,380 L358.543775,380 C358.484775,381.79 358.951775,383.56 359.913775,385.12 C360.053775,385.35 360.276775,385.51 360.534775,385.57 C360.610775,385.59 360.686775,385.59 360.764775,385.59 C360.948775,385.59 361.131775,385.54 361.290775,385.45 L362.837775,384.49 C364.055775,385.92 365.822775,386.75 367.741775,386.75 C368.936775,386.75 370.110775,386.42 371.131775,385.79 C372.600775,384.88 373.629775,383.45 374.026775,381.77 C374.346775,380.42 374.220775,379.04 373.688775,377.78 L375.233775,376.83 C375.702775,376.54 375.848775,375.92 375.557775,375.45 L375.557775,375.45 Z" id="Fill-83" fill="#EBEBEB" sketch:type="MSShapeGroup"></path>
            <path d="M245.689312,351.741269 C245.377312,352.149269 245.013312,352.533269 244.602312,352.893269 C244.589312,352.105269 244.330312,351.342269 243.795312,350.677269 C242.787312,349.427269 240.854312,348.634269 238.576312,348.882269 C239.209312,347.483269 239.250312,346.030269 238.627312,344.786269 C238.074312,343.685269 237.080312,342.937269 235.854312,342.628269 C236.744312,341.204269 236.689312,339.616269 236.088312,338.452269 C236.010312,338.302269 235.919312,338.167269 235.826312,338.033269 C236.882312,337.854269 237.889312,337.753269 238.828312,337.753269 C242.003312,337.753269 244.282312,338.782269 245.634312,340.816269 C245.002312,341.235269 244.193312,341.544269 243.115312,341.700269 C242.568312,341.780269 242.189312,342.286269 242.270312,342.833269 C242.342312,343.331269 242.768312,343.691269 243.258312,343.691269 C243.305312,343.691269 243.354312,343.687269 243.400312,343.681269 C244.678312,343.496269 245.678312,343.124269 246.486312,342.638269 C246.545312,342.815269 246.619312,342.976269 246.670312,343.161269 C247.641312,346.733269 247.311312,349.620269 245.689312,351.741269 L245.689312,351.741269 Z M241.988312,354.456269 C241.961312,354.490269 241.952312,354.531269 241.930312,354.568269 C238.985312,355.923269 234.851312,356.628269 229.670312,356.628269 L229.666312,356.628269 C228.947312,356.628269 228.213312,356.614269 227.463312,356.587269 C214.443312,356.134269 206.414312,350.562269 200.275312,345.169269 C198.410312,343.532269 197.623312,341.687269 198.170312,340.233269 C198.592312,339.120269 199.760312,338.427269 201.225312,338.427269 C202.248312,338.427269 203.375312,338.761269 204.482312,339.394269 C211.516312,343.409269 220.408312,343.820269 228.338312,340.382269 C230.084312,339.624269 231.731312,339.038269 233.285312,338.607269 C233.772312,338.603269 234.146312,339.053269 234.311312,339.370269 C234.760312,340.241269 234.670312,341.644269 232.936312,342.730269 C232.527312,342.986269 232.361312,343.499269 232.539312,343.948269 C232.721312,344.396269 233.191312,344.659269 233.666312,344.558269 C235.127312,344.261269 236.342312,344.692269 236.838312,345.683269 C237.451312,346.901269 236.846312,348.583269 235.301312,349.966269 C234.928312,350.302269 234.859312,350.860269 235.143312,351.276269 C235.424312,351.691269 235.969312,351.833269 236.420312,351.605269 C238.982312,350.310269 241.330312,350.806269 242.236312,351.933269 C242.814312,352.649269 242.727312,353.546269 241.988312,354.456269 L241.988312,354.456269 Z M207.689312,324.142269 C207.549312,328.238269 208.879312,329.968269 209.814312,330.673269 C210.955312,331.526269 212.404312,331.622269 213.799312,330.931269 C216.006312,329.833269 217.436312,327.153269 217.443312,324.105269 C217.451312,322.034269 217.107312,319.884269 216.775312,317.804269 C215.979312,312.817269 215.221312,308.064269 218.795312,303.966269 C217.404312,310.605269 218.721312,314.640269 220.481312,316.165269 C221.420312,316.978269 222.539312,317.179269 223.547312,316.698269 C224.732312,316.140269 225.525312,314.796269 225.834312,312.892269 C228.096312,315.552269 229.027312,318.894269 228.904312,321.202269 C228.822312,322.618269 228.088312,324.411269 227.377312,326.144269 C226.135312,329.169269 224.850312,332.296269 227.279312,333.671269 C228.326312,334.267269 229.479312,334.218269 230.522312,333.540269 C232.670312,332.149269 234.029312,328.435269 234.264312,325.171269 C236.314312,327.208269 238.092312,331.208269 237.934312,335.280269 C237.927312,335.464269 237.982312,335.629269 238.064312,335.780269 C236.472312,335.851269 234.748312,336.138269 232.903312,336.639269 C232.667312,336.672269 232.432312,336.724269 232.201312,336.820269 C232.191312,336.824269 232.185312,336.834269 232.175312,336.838269 C230.701312,337.276269 229.155312,337.845269 227.541312,338.546269 C220.186312,341.745269 211.965312,341.362269 205.475312,337.654269 C205.347312,337.582269 205.217312,337.528269 205.089312,337.463269 C204.667312,333.217269 205.465312,327.867269 207.689312,324.142269 L207.689312,324.142269 Z M254.615312,331.796269 C250.111312,331.796269 249.049312,334.552269 248.111312,336.983269 C247.782312,337.838269 247.470312,338.648269 247.029312,339.352269 C245.439312,337.226269 242.977312,335.991269 239.804312,335.785269 C239.875312,335.657269 239.926312,335.516269 239.932312,335.358269 C240.141312,329.948269 237.342312,324.091269 233.697312,322.298269 C233.373312,322.140269 232.986312,322.169269 232.686312,322.374269 C232.389312,322.579269 232.225312,322.931269 232.260312,323.292269 C232.564312,326.495269 231.166312,330.741269 229.436312,331.862269 C229.014312,332.132269 228.662312,332.157269 228.268312,331.931269 C227.369312,331.425269 228.357312,329.023269 229.225312,326.903269 C230.000312,325.017269 230.801312,323.066269 230.900312,321.314269 C231.080312,317.954269 229.518312,313.112269 225.611312,309.870269 C225.311312,309.618269 224.891312,309.569269 224.537312,309.738269 C224.186312,309.909269 223.965312,310.271269 223.975312,310.663269 C224.031312,313.140269 223.373312,314.569269 222.695312,314.890269 C222.420312,315.017269 222.117312,314.939269 221.791312,314.653269 C220.607312,313.628269 219.033312,309.517269 221.551312,301.292269 C221.678312,300.880269 221.525312,300.435269 221.174312,300.185269 C220.822312,299.935269 220.350312,299.939269 220.006312,300.191269 C212.779312,305.458269 213.854312,312.185269 214.799312,318.118269 C215.135312,320.212269 215.449312,322.191269 215.443312,324.101269 C215.438312,326.712269 214.166312,328.515269 212.908312,329.140269 C212.412312,329.384269 211.686312,329.575269 211.018312,329.073269 C210.518312,328.696269 208.963312,327.001269 210.055312,321.028269 C210.131312,320.608269 209.932312,320.185269 209.561312,319.976269 C209.186312,319.769269 208.721312,319.820269 208.402312,320.105269 C204.195312,323.886269 202.702312,331.092269 203.018312,336.670269 C202.411312,336.520269 201.809312,336.427269 201.225312,336.427269 C198.908312,336.427269 197.020312,337.616269 196.299312,339.528269 C195.447312,341.792269 196.439312,344.464269 198.955312,346.673269 C205.361312,352.296269 213.746312,358.110269 227.393312,358.587269 C228.166312,358.614269 228.926312,358.628269 229.668312,358.628269 L229.670312,358.628269 C238.479312,358.628269 244.404312,356.720269 247.279312,352.956269 C249.299312,350.314269 249.744312,346.841269 248.600312,342.638269 C248.467312,342.149269 248.301312,341.688269 248.113312,341.247269 C249.030312,340.149269 249.531312,338.858269 249.977312,337.704269 C250.850312,335.435269 251.482312,333.796269 254.615312,333.796269 C255.170312,333.796269 255.615312,333.349269 255.615312,332.796269 C255.615312,332.243269 255.170312,331.796269 254.615312,331.796269 L254.615312,331.796269 Z" id="Fill-65" opacity="0.665482955" fill="#EBEBEB" sketch:type="MSShapeGroup"></path>
            <path d="M167.895,289.307 C169.035,290.816 169.5,292.045 169.5,293.547 C169.5,298.848 163.441,303 155.707,303 L142.375,303 C141.98,303 141.625,303.23 141.465,303.59 C139.461,308.053 136.402,312.219 128.074,313.096 C131.086,310.357 132.559,306.506 131.926,302.592 C131.863,302.191 131.566,301.871 131.172,301.777 C123.777,300.023 119,296.148 119,291.906 C119,290.648 119.418,289.441 120.281,288.217 C120.527,287.865 120.523,287.393 120.266,287.047 C119.426,285.918 119,284.75 119,283.574 C119,280.488 121.738,277.684 125.816,276.6 C126.215,276.492 126.508,276.152 126.555,275.74 C127.102,270.693 133.973,267 142,267 C147.406,267 152.176,268.508 155.008,271.471 C155.207,271.678 155.465,271.795 155.77,271.779 L156.031,271.768 C156.305,271.758 156.578,271.746 156.852,271.746 C165.32,271.746 172,275.674 172,281 C172,283.365 170.758,286.07 168.129,287.881 C167.902,288.035 167.75,288.275 167.707,288.545 C167.664,288.814 167.73,289.09 167.895,289.307 L167.895,289.307 Z M174,281 C174,274.57 166.422,269.746 156.852,269.746 C156.609,269.746 156.371,269.754 156.133,269.764 C152.895,266.609 147.746,265 142,265 C133.152,265 125.785,269.039 124.668,274.852 C120.055,276.299 117,279.742 117,283.574 C117,284.979 117.422,286.35 118.258,287.656 C117.422,289.029 117,290.455 117,291.906 C117,296.967 122.09,301.492 130.031,303.555 C130.289,306.682 128.93,310.896 124.199,313.381 C123.793,313.594 123.582,314.059 123.695,314.506 C123.805,314.951 124.539,315 125,315 C136.676,315 140.57,310.172 143.016,305 L155.707,305 C164.563,305 171.5,299.969 171.5,293.547 C171.5,291.914 171.055,290.459 170.074,288.932 C172.746,286.824 174,283.773 174,281 L174,281 Z" id="Fill-45" opacity="0.556392045" fill="#EBEBEB" sketch:type="MSShapeGroup"></path>
            <path d="M118.84375,174.902344 L107.898438,132.167969 L68.8398438,222.421875 L53.046875,208.371094 L5.39453125,284.136719 L58.6171875,233.269531 L71.3242188,245.535156 L118.84375,174.902344 Z" id="Path-166" stroke="#EBEBEB" stroke-width="2" opacity="0.448508523" sketch:type="MSShapeGroup" transform="translate(62.000000, 208.000000) rotate(4.000000) translate(-62.000000, -208.000000) "></path>
            <path d="M1252.70431,81.9718009 L1240.86943,49.0450621 L1202.70041,129.491332 L1186.90744,115.440551 L1139.2551,191.206176 L1192.47775,140.338988 L1205.18478,152.604613 L1252.70431,81.9718009 Z" id="Path-166" stroke="#EBEBEB" stroke-width="2" opacity="0.531392045" sketch:type="MSShapeGroup" transform="translate(1195.860565, 120.069457) rotate(-78.000000) translate(-1195.860565, -120.069457) "></path>
            <path d="M338.2,148.3264 C336.888,143.8248 333.736,141.0296 329.088,140.2424 C328.648,140.1624 328.232,140.4624 328.16,140.8984 C328.088,141.3328 328.384,141.7472 328.816,141.82 C332.88,142.508 335.52,144.8472 336.664,148.7736 C336.768,149.1232 337.088,149.3504 337.432,149.3504 C337.504,149.3504 337.584,149.3408 337.656,149.3184 C338.08,149.1952 338.32,148.7504 338.2,148.3264 L338.2,148.3264 Z M330.8,156.7016 L330.8,153.956 C330.8,152.892 331.224,151.756 332.512,151.756 C333.808,151.756 334.456,152.8624 334.456,153.956 C334.456,155.1832 333.336,156.8248 332.16,156.8248 C331.664,156.8248 330.8,156.7832 330.8,156.7016 L330.8,156.7016 Z M334.368,165.156 C334.112,165.2968 334,165.5656 334,165.8592 L334,166.4184 C333.968,166.4144 333.944,166.4 333.912,166.4 L330.8,166.4 L330.8,158.3232 C330.8,158.3904 331.688,158.4248 332.176,158.4248 C334.344,158.4248 336.056,155.98 336.056,153.956 C336.056,151.7904 334.544,150.156 332.504,150.156 C330.528,150.156 329.2,151.7184 329.2,153.956 L329.2,156.144 C329.2,156.1376 329.136,156.1328 329.128,156.128 C327.712,155.3344 326.888,153.8872 326.768,151.82 C326.776,151.6296 326.784,151.4344 326.784,151.2312 C326.784,150.7888 326.4,150.4312 325.96,150.4312 C325.52,150.4312 325.168,150.7888 325.168,151.2312 C325.168,151.4344 325.2,151.6312 325.208,151.8232 C325.136,153.0296 325.2,154.0248 324.4,154.8032 L324.4,153.956 C324.4,151.7128 322.232,150.3168 320.272,150.3168 C318.144,150.3168 316.152,152.2016 316.152,154.2784 C316.152,156.4816 317.928,158.4 319.952,158.4 L319.96,158.4 C320.968,158.4 322,158.2752 322.8,157.98 L322.8,166.4 L318,166.4 L318,165.8592 C318,165.6184 317.848,165.3904 317.656,165.2392 C315.584,163.5504 310.8,159.1312 310.8,153.6 C310.8,149.872 311.824,137.6 326,137.6 C340.072,137.6 341.2,149.872 341.2,153.6 C341.2,158.7264 338.776,162.7592 334.368,165.156 L334.368,165.156 Z M324.4,166.4 L324.4,157.1216 C325.2,156.6656 325.584,156.0168 326.04,155.1016 C326.672,156.328 327.536,157.0736 328.344,157.5232 C328.6,157.6688 329.2,157.7952 329.2,157.9048 L329.2,166.4 L324.4,166.4 L324.4,166.4 Z M334,170.9352 L322.84,168 L333.912,168 C333.944,168 333.968,167.9856 334,167.9816 L334,170.9352 L334,170.9352 Z M322.8,156.2424 C321.2,156.8248 320.416,156.8248 320.008,156.8248 C318.768,156.8248 317.776,155.4624 317.776,154.2904 C317.776,153.0952 319.024,151.9232 320.272,151.9232 C321.472,151.9232 322.8,152.7408 322.8,153.956 L322.8,156.2424 L322.8,156.2424 Z M334,174.6888 C334,175.1328 333.952,175.5696 333.872,176 L330.968,176 L318,172.3464 L318,168.3824 L333.752,172.5232 C333.816,172.5424 333.888,172.5504 333.952,172.5504 C333.968,172.5504 333.984,172.5432 334,172.5424 L334,174.6888 L334,174.6888 Z M326.088,182.4 C322.784,182.4 319.888,180.3328 318.648,177.6 L330.744,177.6 L330.752,177.6016 C330.824,177.6216 330.896,177.6312 330.968,177.6312 C331.032,177.6312 331.096,177.616 331.16,177.6 L333.384,177.6 C332.192,180.3328 329.392,182.4 326.088,182.4 L326.088,182.4 Z M318,174.6888 L318,174.0096 L325.064,176 L318.136,176 C318.048,175.5696 318,175.1328 318,174.6888 L318,174.6888 Z M326.024,136 C313.576,136 309.2,145.144 309.2,153.6 C309.2,159.5592 314,164.2344 316.4,166.236 L316.4,174.6888 C316.4,179.6032 320.8,184 326.088,184 C331.384,184 335.6,179.6032 335.6,174.6888 L335.6,166.3264 C340.4,163.636 342.8,159.0936 342.8,153.6 C342.8,145.144 338.384,136 326.024,136 L326.024,136 Z" id="Fill-40" fill="#EBEBEB" sketch:type="MSShapeGroup"></path>
            <path d="M342.5275,3.7505 C352.4575,3.7505 360.5275,11.8265 360.5275,21.7505 C360.5275,31.6725 352.4575,39.7505 342.5275,39.7505 C332.6075,39.7505 324.5275,31.6725 324.5275,21.7505 C324.5275,11.8265 332.5975,3.7505 342.5275,3.7505 L342.5275,3.7505 Z M342.5275,41.7505 C353.5675,41.7505 362.5275,32.7945 362.5275,21.7505 C362.5275,10.7065 353.5675,1.7505 342.5275,1.7505 C331.4875,1.7505 322.5275,10.7065 322.5275,21.7505 C322.5275,32.7965 331.4875,41.7505 342.5275,41.7505 L342.5275,41.7505 Z M362.7075,41.2945 L360.3975,38.9855 C360.3975,38.9805 360.3975,38.9735 360.3875,38.9685 C360.3875,38.9635 360.3775,38.9615 360.3675,38.9565 L357.7075,36.2945 C357.3175,35.9035 356.6875,35.9035 356.2975,36.2945 C355.9075,36.6855 355.9075,37.3175 356.2975,37.7085 L358.2475,39.6615 C353.8075,43.7555 348.0775,46.0005 342.0075,46.0005 C335.5975,46.0005 329.5675,43.5005 325.0375,38.9685 C320.4975,34.4375 318.0075,28.4085 318.0075,21.9985 C318.0075,15.9235 320.2475,10.1955 324.3475,5.7535 L326.2975,7.7065 C326.4875,7.9005 326.7475,7.9985 327.0075,7.9985 C327.2575,7.9985 327.5175,7.9005 327.7075,7.7065 C328.0975,7.3165 328.0975,6.6825 327.7075,6.2925 L325.0375,3.6215 L325.0375,3.6145 C325.0275,3.6125 325.0275,3.6115 325.0275,3.6095 L322.7075,1.2925 C322.3175,0.9025 321.6875,0.9025 321.2975,1.2925 C320.9075,1.6825 320.9075,2.3165 321.2975,2.7065 L322.9275,4.3395 C318.4575,9.1595 316.0075,15.3905 316.0075,21.9985 C316.0075,28.9425 318.7075,35.4725 323.6175,40.3825 C328.4175,45.1815 334.7575,47.8675 341.5275,47.9885 L341.5275,57.7505 L333.5275,57.7505 C332.9775,57.7505 332.5275,58.1985 332.5275,58.7505 C332.5275,59.3005 332.9775,59.7505 333.5275,59.7505 L351.5275,59.7505 C352.0775,59.7505 352.5275,59.3005 352.5275,58.7505 C352.5275,58.1985 352.0775,57.7505 351.5275,57.7505 L343.5275,57.7505 L343.5275,47.9525 C349.5675,47.6055 355.2175,45.2005 359.6575,41.0755 L361.2975,42.7085 C361.4875,42.9015 361.7475,43.0005 362.0075,43.0005 C362.2575,43.0005 362.5175,42.9015 362.7075,42.7085 C363.0975,42.3175 363.0975,41.6855 362.7075,41.2945 L362.7075,41.2945 Z" id="Fill-19" fill="#EBEBEB" sketch:type="MSShapeGroup"></path>
            <mask id="mask-2" sketch:name="Fill 73" fill="white">
                <use xlink:href="#path-1"></use>
            </mask>
            <use id="Fill-73" fill="#EBEBEB" sketch:type="MSShapeGroup" xlink:href="#path-1"></use>
        </g>
    </g>
</svg>