<svg width="14" height="14" viewBox="0 0 14 14" fill="none" xmlns="http://www.w3.org/2000/svg">
<path d="M6.41699 5.25C6.41699 6.21833 5.63533 7 4.66699 7C3.69866 7 2.91699 6.21833 2.91699 5.25C2.91699 4.28166 3.69866 3.49999 4.66699 3.49999C5.63533 3.49999 6.41699 4.28166 6.41699 5.25ZM8.16699 11.6667H1.16699V10.5C1.16699 9.21083 2.73616 8.16666 4.66699 8.16666C6.59783 8.16666 8.16699 9.21083 8.16699 10.5M12.8337 7V8.16666H7.58366V7M12.8337 4.66666V5.83333H7.58366V4.66666M12.8337 2.33333V3.49999H7.58366V2.33333H12.8337Z" fill="#525252"/>
</svg>
