<svg width="14" height="14" viewBox="0 0 14 14" fill="none" xmlns="http://www.w3.org/2000/svg">
<path d="M4.03061 3.20833L5.37228 4.54416L4.54395 5.37249L3.20811 4.03083L1.87228 5.37249L1.04395 4.54416L2.38561 3.20833L1.04395 1.87249L1.87228 1.04416L3.20811 2.38583L4.54395 1.04416L5.37228 1.87249M12.9556 9.45582L12.1273 8.62749L10.7914 9.96916L9.45561 8.62749L8.62728 9.45582L9.96895 10.7917L8.62728 12.1275L9.45561 12.9558L10.7914 11.6142L12.1273 12.9558L12.9556 12.1275L11.6139 10.7917M11.8998 3.98416L10.0214 6.41666L9.09978 5.67583L9.78228 4.80083C8.91175 4.97766 8.09968 5.37059 7.42079 5.94347C6.7419 6.51635 6.21799 7.25077 5.89728 8.07916C6.40501 8.4453 6.76518 8.98082 6.91283 9.58914C7.06048 10.1975 6.98588 10.8385 6.70249 11.3967C6.41911 11.9548 5.94559 12.3933 5.36735 12.6331C4.78912 12.8729 4.14424 12.8981 3.54903 12.7043C2.95382 12.5104 2.44748 12.1103 2.12133 11.576C1.79519 11.0417 1.67072 10.4084 1.77037 9.79041C1.87002 9.17242 2.18723 8.61038 2.66479 8.20568C3.14235 7.80097 3.74881 7.58025 4.37478 7.58333C4.52761 7.58394 4.68001 7.59957 4.82978 7.62999C5.23392 6.62703 5.87922 5.73923 6.70851 5.04528C7.53779 4.35133 8.52544 3.87265 9.58395 3.65166L8.74978 3.02166L9.49061 2.09999M5.83311 10.2083C5.83311 9.91989 5.74758 9.63794 5.58734 9.39812C5.42709 9.1583 5.19933 8.97138 4.93286 8.861C4.66638 8.75062 4.37316 8.72174 4.09027 8.77801C3.80738 8.83428 3.54753 8.97318 3.34358 9.17713C3.13963 9.38108 3.00074 9.64093 2.94447 9.92382C2.8882 10.2067 2.91708 10.4999 3.02745 10.7664C3.13783 11.0329 3.32475 11.2606 3.56457 11.4209C3.80439 11.5811 4.08635 11.6667 4.37478 11.6667C4.76155 11.6667 5.13249 11.513 5.40598 11.2395C5.67947 10.966 5.83311 10.5951 5.83311 10.2083Z" fill="#525252"/>
</svg>
