<svg id="f6913dfd-dfdd-4167-b386-63ed23744393" data-name="Layer 1" xmlns="http://www.w3.org/2000/svg" viewBox="0 0 62.36 62.36"><title>icon5</title><path d="M25.37,25.75a.5.5,0,0,1-.43.25.51.51,0,0,1-.24-.07l-3.09-1.78a.49.49,0,0,1-.18-.68.5.5,0,0,1,.67-.18l3.09,1.78A.49.49,0,0,1,25.37,25.75Zm4.53-3.3a.51.51,0,0,1-.24.07.5.5,0,0,1-.43-.25l-1.78-3.09a.49.49,0,1,1,.85-.49l1.78,3.09A.48.48,0,0,1,29.9,22.45Zm6.24-1.7a.5.5,0,0,1-1,0V17.18a.5.5,0,0,1,1,0Zm7.7-1.57-1.78,3.09a.5.5,0,0,1-.43.25.51.51,0,0,1-.24-.07.48.48,0,0,1-.18-.67L43,18.69a.49.49,0,1,1,.85.49Zm5.84,5-3.09,1.78a.51.51,0,0,1-.24.07.5.5,0,0,1-.43-.25.5.5,0,0,1,.18-.68l3.09-1.78a.49.49,0,0,1,.49.86Z" transform="translate(-4.46 -7.78)" style="fill:none"/><rect x="27.01" y="36.73" width="8.35" height="16.59" style="fill:#15bde8"/><path d="M29.08,44.51a2.55,2.55,0,1,1,0-5.09H42.21a2.55,2.55,0,1,1,0,5.09h-1.4V61.09H44a40.56,40.56,0,0,1,4.47-11.28s0,0,0,0a15.66,15.66,0,1,0-26.14-.56l0,0A42.52,42.52,0,0,1,26.7,59.1c.21.75.38,1.42.5,2h3.28V44.51Z" transform="translate(-4.46 -7.78)" style="fill:#15bde8"/><path d="M26.5,68v.11a30.78,30.78,0,0,0,18.29,0V68Z" transform="translate(-4.46 -7.78)" style="fill:#fff"/><rect x="22.04" y="57.04" width="18.28" height="2.22" style="fill:#fff"/><polygon points="40.32 54.3 35.85 54.3 26.51 54.3 22.04 54.3 22.04 56.05 40.32 56.05 40.32 54.3" style="fill:#fff"/><path d="M42.21,43.52a1.56,1.56,0,0,0,0-3.12H29.08a1.56,1.56,0,1,0,0,3.12Z" transform="translate(-4.46 -7.78)" style="fill:#fff"/><path d="M35.65,16.69a.49.49,0,0,0-.5.49v3.57a.5.5,0,0,0,1,0V17.18A.49.49,0,0,0,35.65,16.69Z" transform="translate(-4.46 -7.78)" style="fill:#201c4f"/><path d="M28.3,18.69a.49.49,0,1,0-.85.49l1.78,3.09a.5.5,0,0,0,.43.25.51.51,0,0,0,.24-.07.48.48,0,0,0,.18-.67Z" transform="translate(-4.46 -7.78)" style="fill:#201c4f"/><path d="M25.19,25.07,22.1,23.29a.5.5,0,0,0-.67.18.49.49,0,0,0,.18.68l3.09,1.78a.51.51,0,0,0,.24.07.5.5,0,0,0,.25-.93Z" transform="translate(-4.46 -7.78)" style="fill:#201c4f"/><path d="M49.19,23.29,46.1,25.07a.5.5,0,0,0-.18.68.5.5,0,0,0,.43.25.51.51,0,0,0,.24-.07l3.09-1.78a.49.49,0,0,0-.49-.86Z" transform="translate(-4.46 -7.78)" style="fill:#201c4f"/><path d="M43.66,18.51a.48.48,0,0,0-.67.18l-1.78,3.09a.48.48,0,0,0,.18.67.51.51,0,0,0,.24.07.5.5,0,0,0,.43-.25l1.78-3.09A.48.48,0,0,0,43.66,18.51Z" transform="translate(-4.46 -7.78)" style="fill:#201c4f"/><path d="M27.2,61.09c-.12-.57-.29-1.24-.5-2a42.52,42.52,0,0,0-4.29-9.85l0,0a15.67,15.67,0,1,1,26.14.56s0,0,0,0A40.56,40.56,0,0,0,44,61.09h1a39.91,39.91,0,0,1,4.3-10.77,16.65,16.65,0,1,0-27.8-.59h0a40.16,40.16,0,0,1,4.64,11.35Z" transform="translate(-4.46 -7.78)" style="fill:#201c4f"/><path d="M26,67h.49V64.82H26a.49.49,0,0,1-.49-.5v3.21A.49.49,0,0,1,26,67Z" transform="translate(-4.46 -7.78)" style="fill:#201c4f"/><path d="M45.66,67.84l.11,0v-.27A.47.47,0,0,1,45.66,67.84Z" transform="translate(-4.46 -7.78)" style="fill:#201c4f"/><path d="M45.28,64.82h-.49V67h.49a.49.49,0,0,1,.49.5V64.32A.49.49,0,0,1,45.28,64.82Z" transform="translate(-4.46 -7.78)" style="fill:#201c4f"/><path d="M25.52,67.8l.12,0a.43.43,0,0,1-.12-.31Z" transform="translate(-4.46 -7.78)" style="fill:#201c4f"/><path d="M26,63.83h.49V62.08H31a.49.49,0,0,1-.5-.49v-.5H26a.49.49,0,0,0-.49.5v2.73A.49.49,0,0,1,26,63.83Z" transform="translate(-4.46 -7.78)" style="fill:#201c4f"/><path d="M44,61.09H40.81v.5a.49.49,0,0,1-.5.49h4.48v1.75h.49a.49.49,0,0,1,.49.49V61.59a.49.49,0,0,0-.49-.5H44Z" transform="translate(-4.46 -7.78)" style="fill:#201c4f"/><path d="M26.16,68l.34.11V68Z" transform="translate(-4.46 -7.78)" style="fill:#201c4f"/><path d="M44.79,68.13l.34-.11h-.34Z" transform="translate(-4.46 -7.78)" style="fill:#201c4f"/><path d="M39.82,61.59v-.5H31.47v.5a.49.49,0,0,1-.49.49h9.33A.49.49,0,0,1,39.82,61.59Z" transform="translate(-4.46 -7.78)" style="fill:#201c4f"/><path d="M26,64.82H45.28a.5.5,0,0,0,0-1H26a.5.5,0,0,0,0,1Z" transform="translate(-4.46 -7.78)" style="fill:#201c4f"/><path d="M45.28,67H26a.49.49,0,0,0-.49.5.43.43,0,0,0,.12.31l.52.18h19l.53-.18a.47.47,0,0,0,.11-.31A.49.49,0,0,0,45.28,67Z" transform="translate(-4.46 -7.78)" style="fill:#201c4f"/><path d="M31.47,61.59V44.51h-1V61.59a.5.5,0,0,0,1,0Z" transform="translate(-4.46 -7.78)" style="fill:#201c4f"/><path d="M39.82,44.51V61.59a.5.5,0,0,0,1,0V44.51Z" transform="translate(-4.46 -7.78)" style="fill:#201c4f"/><path d="M40.81,44.51h1.4a2.55,2.55,0,1,0,0-5.09H29.08a2.55,2.55,0,1,0,0,5.09H40.81Zm-11.73-1a1.56,1.56,0,1,1,0-3.12H42.21a1.56,1.56,0,0,1,0,3.12Z" transform="translate(-4.46 -7.78)" style="fill:#201c4f"/><path d="M43.68,10.08l-.16,0a30,30,0,0,0-3.1-.67.62.62,0,1,1,.19-1.22,32,32,0,0,1,3.23.7.62.62,0,0,1,.44.75A.63.63,0,0,1,43.68,10.08Z" transform="translate(-4.46 -7.78)" style="fill:#201c4f"/><path d="M35.65,70.14a31.18,31.18,0,0,1-22-53.23,31,31,0,0,1,22-9.13.62.62,0,0,1,0,1.23,30,30,0,1,0,13.66,3.3.62.62,0,0,1-.26-.84.61.61,0,0,1,.83-.26A31.18,31.18,0,0,1,66.83,39,31.19,31.19,0,0,1,35.65,70.14Z" transform="translate(-4.46 -7.78)" style="fill:#201c4f"/><circle cx="42.22" cy="2.64" r="0.79" style="fill:#201c4f"/></svg>