<svg id="ba3ae9a1-e59d-425a-9c97-ee1d8f791bb5" data-name="Layer 1" xmlns="http://www.w3.org/2000/svg" viewBox="0 0 62.36 62.36"><title>icon4</title><path d="M58.92,18.28A26.06,26.06,0,0,1,38.65,57.57v12A30.56,30.56,0,0,0,58.92,18.28Z" transform="translate(-5.32 -7.87)" style="fill:none"/><path d="M10.43,31.58a25.85,25.85,0,0,1,3.66-13.3A30.56,30.56,0,0,0,34.35,69.54v-12A26.11,26.11,0,0,1,10.43,31.58Z" transform="translate(-5.32 -7.87)" style="fill:none"/><path d="M55.31,31.58a18.81,18.81,0,1,0-21,18.69V47.38H29.46a.51.51,0,0,1-.43-.24.55.55,0,0,1,0-.5l1.65-2.85a13.52,13.52,0,1,1,11.64,0L44,46.64a.49.49,0,0,1-.43.74H38.65v2.89A18.84,18.84,0,0,0,55.31,31.58Z" transform="translate(-5.32 -7.87)" style="fill:#15bde8"/><path d="M49,31.58A12.53,12.53,0,1,0,31.18,42.93l2.87-5A6.82,6.82,0,1,1,39,38l2.87,5A12.55,12.55,0,0,0,49,31.58Z" transform="translate(-5.32 -7.87)" style="fill:#fff"/><path d="M42.34,31.58a5.84,5.84,0,1,0-7.79,5.5l1.52-2.63a.52.52,0,0,1,.43-.25.5.5,0,0,1,.43.25l1.52,2.63A5.84,5.84,0,0,0,42.34,31.58Zm-3,2.13a.48.48,0,0,1,0,.7.49.49,0,0,1-.34.14.5.5,0,0,1-.35-.14L36.5,32.28l-2.12,2.13a.51.51,0,0,1-.7,0,.5.5,0,0,1,0-.7l2.12-2.13-2.12-2.12a.49.49,0,1,1,.7-.7l2.12,2.13,2.13-2.13a.49.49,0,0,1,.69,0,.48.48,0,0,1,0,.7L37.2,31.58Z" transform="translate(-5.32 -7.87)" style="fill:#15bde8"/><path d="M37.66,46.89a.49.49,0,0,1,.5-.49h4.53L36.5,35.68,30.32,46.4h4.53a.49.49,0,0,1,.49.49v22.7c.39,0,.77,0,1.16,0s.78,0,1.16,0Z" transform="translate(-5.32 -7.87)" style="fill:#fff"/><path d="M34.35,57.57v-1A25.07,25.07,0,0,1,17.81,14.87a30,30,0,0,0-3.72,3.41,25.85,25.85,0,0,0-3.66,13.3A26.11,26.11,0,0,0,34.35,57.57Z" transform="translate(-5.32 -7.87)" style="fill:#201c4f"/><path d="M38.65,56.58v1A26.06,26.06,0,0,0,58.92,18.28a30.76,30.76,0,0,0-3.72-3.41A25.08,25.08,0,0,1,38.65,56.58Z" transform="translate(-5.32 -7.87)" style="fill:#201c4f"/><path d="M56.29,31.58A19.79,19.79,0,1,0,34.35,51.26v-1a18.81,18.81,0,1,1,4.3,0v1A19.81,19.81,0,0,0,56.29,31.58Z" transform="translate(-5.32 -7.87)" style="fill:#201c4f"/><path d="M50,31.58A13.52,13.52,0,1,0,30.68,43.79l.5-.86a12.53,12.53,0,1,1,10.64,0l.5.86A13.54,13.54,0,0,0,50,31.58Z" transform="translate(-5.32 -7.87)" style="fill:#201c4f"/><path d="M43.32,31.58A6.82,6.82,0,1,0,34.05,38l.5-.87a5.84,5.84,0,1,1,3.9,0L39,38A6.84,6.84,0,0,0,43.32,31.58Z" transform="translate(-5.32 -7.87)" style="fill:#201c4f"/><path d="M38.65,56.58v-9.2h4.89a.49.49,0,0,0,.43-.74l-1.65-2.85-.5-.86L39,38l-.5-.87-1.52-2.63a.5.5,0,0,0-.43-.25.52.52,0,0,0-.43.25l-1.52,2.63-.5.87-2.87,5-.5.86L29,46.64a.55.55,0,0,0,0,.5.51.51,0,0,0,.43.24h4.89V69.54l1,0V46.89a.49.49,0,0,0-.49-.49H30.32L36.5,35.68,42.69,46.4H38.16a.49.49,0,0,0-.5.49v22.7l1,0v-13Z" transform="translate(-5.32 -7.87)" style="fill:#201c4f"/><path d="M37.2,31.58l2.12-2.12a.48.48,0,0,0,0-.7.49.49,0,0,0-.69,0L36.5,30.89l-2.12-2.13a.49.49,0,1,0-.7.7l2.12,2.12-2.12,2.13a.5.5,0,0,0,0,.7.51.51,0,0,0,.7,0l2.12-2.13,2.13,2.13a.5.5,0,0,0,.35.14.49.49,0,0,0,.34-.14.48.48,0,0,0,0-.7Z" transform="translate(-5.32 -7.87)" style="fill:#201c4f"/><path d="M44.54,10.17a.41.41,0,0,1-.16,0c-1-.27-2.07-.5-3.11-.67a.62.62,0,0,1-.51-.7.61.61,0,0,1,.71-.51A29.94,29.94,0,0,1,44.7,9a.62.62,0,0,1,.43.76A.61.61,0,0,1,44.54,10.17Z" transform="translate(-5.32 -7.87)" style="fill:#201c4f"/><path d="M36.5,70.23a31.18,31.18,0,1,1,0-62.36.62.62,0,1,1,0,1.24A29.94,29.94,0,0,0,15.33,60.23a29.95,29.95,0,0,0,46.6-37A30,30,0,0,0,50.17,12.4a.62.62,0,0,1,.56-1.1A31.18,31.18,0,0,1,36.5,70.23Z" transform="translate(-5.32 -7.87)" style="fill:#201c4f"/><path d="M48.32,10.51a.79.79,0,1,1-.78-.78A.78.78,0,0,1,48.32,10.51Z" transform="translate(-5.32 -7.87)" style="fill:#201c4f"/></svg>