<svg id="a9368dc8-a15a-4642-8af3-f49a7d31306d" data-name="Layer 1" xmlns="http://www.w3.org/2000/svg" viewBox="0 0 62.36 62.36"><title>icon3</title><path d="M62.35,55.37A30.58,30.58,0,0,0,63,23.86L46.93,40Z" transform="translate(-5.32 -7.87)" style="fill:none"/><path d="M44.1,42.78h0l0,0-.06,0h0l-4.82,2.57L34.35,48a.52.52,0,0,1-.24.05.45.45,0,0,1-.34-.14.49.49,0,0,1-.09-.58,7.26,7.26,0,1,0-7.26,7.49.31.31,0,1,1,0,.62,7.88,7.88,0,1,1,7.79-9.1l2-3.83h0l2.57-4.82v0l0-.06,0,0h0L41,35.45l-9.81-9.8L7.67,49.21a30.57,30.57,0,0,0,54.13,7L46.23,40.65ZM42.69,60.26a.3.3,0,0,1-.3.31H37.16a.31.31,0,0,1,0-.62h4.92V50.33H29.41v5.15l4.2,6.75H24.84l3.95-6.64V50a.31.31,0,0,1,.31-.31H42.39a.3.3,0,0,1,.3.31Zm8.9-6.88a.3.3,0,0,1,.43,0,.31.31,0,0,1,0,.44l-2.54,2.54L52,58.9a.31.31,0,0,1,0,.44.31.31,0,0,1-.22.09.3.3,0,0,1-.21-.09L49,56.79,46.5,59.34a.31.31,0,0,1-.44,0,.3.3,0,0,1,0-.43l2.55-2.55-2.54-2.54a.3.3,0,0,1,0-.44.3.3,0,0,1,.43,0L49,55.92Z" transform="translate(-5.32 -7.87)" style="fill:#fff"/><path d="M34.21,46.35a7.88,7.88,0,1,0-7.79,9.1.31.31,0,1,0,0-.62,7.26,7.26,0,1,1,7.26-7.49h0Z" transform="translate(-5.32 -7.87)" style="fill:#15bde8"/><path d="M42.39,49.71H29.1a.31.31,0,0,0-.31.31v5.57l.34-.56.28.45V50.33H42.08V60H37.16a.31.31,0,0,0,0,.62h5.23a.3.3,0,0,0,.3-.31V50A.3.3,0,0,0,42.39,49.71Z" transform="translate(-5.32 -7.87)" style="fill:#15bde8"/><path d="M40,37.93l3.8,3.8L62.5,23a29.94,29.94,0,0,0-3.25-4.34Z" transform="translate(-5.32 -7.87)" style="fill:#15bde8"/><polygon points="37.61 34.44 34.06 30.88 31.97 34.79 33.7 36.52 37.61 34.44" style="fill:#fff"/><polygon points="31.49 35.7 29.99 38.5 32.79 37.01 31.49 35.7" style="fill:#6a8aac"/><polygon points="23.47 47.72 19.51 54.35 28.29 54.35 24.09 47.61 23.8 47.16 23.47 47.72" style="fill:#15bde8"/><path d="M52,53.82a.31.31,0,0,0,0-.44.3.3,0,0,0-.43,0L49,55.92l.44.44Z" transform="translate(-5.32 -7.87)" style="fill:#15bde8"/><path d="M46.06,58.91a.3.3,0,0,0,0,.43.31.31,0,0,0,.44,0L49,56.79l-.43-.43Z" transform="translate(-5.32 -7.87)" style="fill:#6a8aac"/><path d="M46.07,53.38a.3.3,0,0,0,0,.44l2.54,2.54.43.43,2.55,2.55a.3.3,0,0,0,.21.09.31.31,0,0,0,.22-.09.31.31,0,0,0,0-.44l-2.54-2.54L49,55.92,46.5,53.38A.3.3,0,0,0,46.07,53.38Z" transform="translate(-5.32 -7.87)" style="fill:#15bde8"/><path d="M46.23,40.65,61.8,56.21c.19-.27.37-.56.55-.84L46.93,40Z" transform="translate(-5.32 -7.87)" style="fill:#201c4f"/><path d="M41,35.45l.69-.7L31.58,24.6a.48.48,0,0,0-.7,0L7.32,48.16c.11.35.23.7.35,1.05L31.23,25.65Z" transform="translate(-5.32 -7.87)" style="fill:#201c4f"/><path d="M44.06,42.82l-.06,0Z" transform="translate(-5.32 -7.87)" style="fill:#201c4f"/><path d="M38.83,37.68l0-.06Z" transform="translate(-5.32 -7.87)" style="fill:#201c4f"/><path d="M41,35.45l-2.13,2.13h0a.48.48,0,0,1,.28-.15.5.5,0,0,1,.42.14l4.5,4.5a.48.48,0,0,1,.14.42.43.43,0,0,1-.15.29h0l2.13-2.13.7-.7L63,23.86c-.17-.3-.35-.59-.53-.88L43.75,41.73,40,37.93l19.3-19.29c-.22-.25-.45-.49-.68-.73L41.73,34.75Z" transform="translate(-5.32 -7.87)" style="fill:#201c4f"/><path d="M38.87,37.62l0,.06v0l-2.57,4.82a.51.51,0,0,1,.36-.26.5.5,0,0,1,.42.14l.26.26,2.09-3.91,3.55,3.56L39,44.39l.25.26a.48.48,0,0,1,.14.42.51.51,0,0,1-.25.37L44,42.87h0l.06,0,0,0a.43.43,0,0,0,.15-.29.48.48,0,0,0-.14-.42l-4.5-4.5a.5.5,0,0,0-.42-.14.48.48,0,0,0-.28.15Z" transform="translate(-5.32 -7.87)" style="fill:#201c4f"/><path d="M39.42,45.07a.48.48,0,0,0-.14-.42L39,44.39l-1.74-1.73L37,42.4a.5.5,0,0,0-.42-.14.51.51,0,0,0-.36.26h0l-2,3.83-.53,1h0a.49.49,0,0,0,.09.58.45.45,0,0,0,.34.14.52.52,0,0,0,.24-.05l4.82-2.57A.51.51,0,0,0,39.42,45.07Zm-4.11,1.3,1.5-2.8,1.3,1.31Z" transform="translate(-5.32 -7.87)" style="fill:#201c4f"/><path d="M44.54,10.17a.41.41,0,0,1-.16,0c-1-.27-2.07-.5-3.11-.67a.62.62,0,0,1-.51-.7.61.61,0,0,1,.71-.51A29.94,29.94,0,0,1,44.7,9a.62.62,0,0,1,.43.76A.61.61,0,0,1,44.54,10.17Z" transform="translate(-5.32 -7.87)" style="fill:#201c4f"/><path d="M36.5,70.23a31.18,31.18,0,1,1,0-62.36.62.62,0,1,1,0,1.24A29.94,29.94,0,0,0,15.33,60.23a29.95,29.95,0,0,0,46.6-37A30,30,0,0,0,50.17,12.4a.62.62,0,0,1,.56-1.1,31.18,31.18,0,0,1,17,27.75A31.17,31.17,0,0,1,36.5,70.23Z" transform="translate(-5.32 -7.87)" style="fill:#201c4f"/><path d="M48.32,10.51a.79.79,0,1,1-.78-.78A.78.78,0,0,1,48.32,10.51Z" transform="translate(-5.32 -7.87)" style="fill:#201c4f"/></svg>