<svg id="f27078e7-e09b-4245-985e-bc59907b4ce5" data-name="Layer 1" xmlns="http://www.w3.org/2000/svg" viewBox="0 0 62.36 62.36"><title>icon2</title><path d="M50.4,59c.1,3.24,1.18,4.21,1.46,4.41H55A30.8,30.8,0,0,0,59.66,59Z" transform="translate(-5.32 -7.87)" style="fill:none"/><path d="M16.74,23.22V53.84H63.26c.32-.59.63-1.19.92-1.8H19.25a.49.49,0,0,1-.49-.5V24.26a.49.49,0,0,1,.49-.5H63c-.31-.53-.63-1-1-1.55H17.75A1,1,0,0,0,16.74,23.22Z" transform="translate(-5.32 -7.87)" style="fill:#15bde8"/><path d="M16.74,57a1,1,0,0,0,1,1H60.47a29.17,29.17,0,0,0,2.22-3.18H16.74Zm25.48-1.14h3.42a.54.54,0,0,1,0,1.08H42.22a.54.54,0,0,1,0-1.08Z" transform="translate(-5.32 -7.87)" style="fill:#fff"/><path d="M19.74,51.05H64.62a30.59,30.59,0,0,0-1.1-26.3H19.74Zm34.17-4.59-2.38,2.38L45.8,43.1l-1.87,5.77L37.67,32.59l16.27,6.26-5.76,1.88ZM40,27.43a.49.49,0,0,1,1,0v2.22a.49.49,0,1,1-1,0Zm-3.83.66a.51.51,0,0,1,.68.19l1.11,1.92a.5.5,0,0,1-.18.67.47.47,0,0,1-.25.07.5.5,0,0,1-.43-.25L36,28.77A.5.5,0,0,1,36.13,28.09ZM33,31.26a.48.48,0,0,1,.67-.18l1.93,1.11a.49.49,0,0,1-.25.92.47.47,0,0,1-.25-.07l-1.92-1.11A.48.48,0,0,1,33,31.26Zm-.66,3.82h2.22a.5.5,0,0,1,0,1H32.31a.5.5,0,1,1,0-1Z" transform="translate(-5.32 -7.87)" style="fill:#fff"/><path d="M38.45,59a8.17,8.17,0,0,1-1.12,4.41h13.2A8.08,8.08,0,0,1,49.41,59Z" transform="translate(-5.32 -7.87)" style="fill:#15bde8"/><path d="M36.13,64.4h-3c-.44,0-.94.36-.94.69v.19h20c.47-.28.93-.58,1.38-.88H36.13Z" transform="translate(-5.32 -7.87)" style="fill:#15bde8"/><path d="M42.22,56.94h3.42a.54.54,0,0,0,0-1.08H42.22a.54.54,0,0,0,0,1.08Z" transform="translate(-5.32 -7.87)" style="fill:#15bde8"/><polygon points="32.35 24.72 38.61 40.99 40.48 35.23 46.21 40.96 48.59 38.59 42.86 32.85 48.62 30.98 32.35 24.72" style="fill:#15bde8"/><path d="M15.75,23.22V54.33a.5.5,0,0,1,.5-.49h.49V23.22a1,1,0,0,1,1-1H62c-.23-.34-.45-.67-.69-1H17.75A2,2,0,0,0,15.75,23.22Z" transform="translate(-5.32 -7.87)" style="fill:#201c4f"/><path d="M16.25,53.84a.5.5,0,0,0-.5.49V57a2,2,0,0,0,2,2H37.46c0-.16,0-.32,0-.49A.5.5,0,0,1,38,58H17.75a1,1,0,0,1-1-1V54.83h46l.57-1h-47Z" transform="translate(-5.32 -7.87)" style="fill:#201c4f"/><path d="M50.39,58.51c0,.17,0,.33,0,.49h9.26q.42-.48.81-1H49.89A.5.5,0,0,1,50.39,58.51Z" transform="translate(-5.32 -7.87)" style="fill:#201c4f"/><path d="M18.76,24.26V51.54a.49.49,0,0,0,.49.5H64.18c.15-.33.3-.66.44-1H19.74V24.75H63.52c-.18-.33-.36-.66-.55-1H19.25A.49.49,0,0,0,18.76,24.26Z" transform="translate(-5.32 -7.87)" style="fill:#201c4f"/><path d="M49.89,58H38a.5.5,0,0,0-.5.5c0,.17,0,.33,0,.49-.1,3.22-1.19,4.21-1.47,4.41h1.34A8.17,8.17,0,0,0,38.45,59h11a8.08,8.08,0,0,0,1.12,4.41h1.33c-.28-.2-1.36-1.17-1.46-4.41,0-.16,0-.32,0-.49A.5.5,0,0,0,49.89,58Z" transform="translate(-5.32 -7.87)" style="fill:#201c4f"/><path d="M51.86,63.41H33.11a1.9,1.9,0,0,0-1.93,1.68v.68a.5.5,0,0,0,.5.49H50.43c.61-.3,1.2-.64,1.78-1h-20v-.19c0-.33.5-.69.94-.69H53.59c.46-.32.92-.64,1.36-1H51.86Z" transform="translate(-5.32 -7.87)" style="fill:#201c4f"/><path d="M40.45,30.15a.5.5,0,0,0,.49-.5V27.43a.49.49,0,0,0-1,0v2.22A.5.5,0,0,0,40.45,30.15Z" transform="translate(-5.32 -7.87)" style="fill:#201c4f"/><path d="M37.06,30.69a.5.5,0,0,0,.43.25.47.47,0,0,0,.25-.07.5.5,0,0,0,.18-.67l-1.11-1.92a.49.49,0,1,0-.86.49Z" transform="translate(-5.32 -7.87)" style="fill:#201c4f"/><path d="M33.15,31.93,35.07,33a.47.47,0,0,0,.25.07.49.49,0,0,0,.25-.92l-1.93-1.11a.49.49,0,0,0-.49.85Z" transform="translate(-5.32 -7.87)" style="fill:#201c4f"/><path d="M32.31,36.07h2.22a.5.5,0,0,0,0-1H32.31a.5.5,0,1,0,0,1Z" transform="translate(-5.32 -7.87)" style="fill:#201c4f"/><path d="M44.54,10.17a.41.41,0,0,1-.16,0c-1-.27-2.07-.5-3.11-.67a.62.62,0,0,1-.51-.7.61.61,0,0,1,.71-.51A29.94,29.94,0,0,1,44.7,9a.62.62,0,0,1,.43.76A.61.61,0,0,1,44.54,10.17Z" transform="translate(-5.32 -7.87)" style="fill:#201c4f"/><path d="M36.5,70.23a31.18,31.18,0,1,1,0-62.36.62.62,0,1,1,0,1.24A29.94,29.94,0,0,0,15.33,60.23a29.95,29.95,0,0,0,46.6-37A30,30,0,0,0,50.17,12.4a.62.62,0,0,1,.56-1.1A31.18,31.18,0,0,1,36.5,70.23Z" transform="translate(-5.32 -7.87)" style="fill:#201c4f"/><path d="M48.32,10.51a.79.79,0,1,1-.78-.78A.78.78,0,0,1,48.32,10.51Z" transform="translate(-5.32 -7.87)" style="fill:#201c4f"/></svg>