<svg id="a78a2912-ee77-48e0-96ce-3c2b454fadd0" data-name="Layer 1" xmlns="http://www.w3.org/2000/svg" viewBox="0 0 68.03 68.03"><title>icon1</title><rect x="19.84" y="25.81" width="2.82" height="16.06" style="fill:none"/><polygon points="22.81 24.73 24.97 18.36 22.54 13.73 19.96 13.73 17.53 18.36 19.69 24.73 22.81 24.73" style="fill:none"/><path d="M60.67,39.83l-4.31.51c-.09.25-.2.5-.31.75l2.69,3.41a.54.54,0,0,1-.05.71l-3.61,3.61a.54.54,0,0,1-.72,0L51,46.18a7.92,7.92,0,0,1-.75.31L49.7,50.8a.55.55,0,0,1-.54.48H44.05a.54.54,0,0,1-.53-.48L43,46.49a6.81,6.81,0,0,1-.74-.31l-3.41,2.69a.54.54,0,0,1-.72,0l-3.61-3.61a.54.54,0,0,1,0-.71l2.68-3.41c-.11-.25-.22-.5-.31-.75l-4.31-.51a.53.53,0,0,1-.47-.54V34.18a.53.53,0,0,1,.47-.53l4.31-.52c.09-.25.2-.5.31-.74L34.48,29a.53.53,0,0,1,0-.71l3.61-3.62a.55.55,0,0,1,.72,0l3.41,2.68L43,27l.52-4.31a.53.53,0,0,1,.53-.47h5.11a.54.54,0,0,1,.54.47L50.21,27l.75.31,3.4-2.68a.55.55,0,0,1,.72,0l3.61,3.62a.54.54,0,0,1,.05.71l-2.69,3.41c.11.24.22.49.31.74l4.31.52a.53.53,0,0,1,.47.53v5.11A.53.53,0,0,1,60.67,39.83Z" transform="translate(-2.49 -5.04)" style="fill:none"/><path d="M46.61,31.07a5.67,5.67,0,1,0,5.66,5.67A5.67,5.67,0,0,0,46.61,31.07Zm0,8.91a3.25,3.25,0,1,1,3.24-3.24A3.24,3.24,0,0,1,46.61,40Z" transform="translate(-2.49 -5.04)" style="fill:none"/><path d="M28,53.64h-.82a.54.54,0,0,1-.54-.54V50.68a.54.54,0,0,1,.54-.54h.76V48H19.58v2.15h.76a.54.54,0,0,1,.54.54V53.1a.54.54,0,0,1-.54.54h-.82a1.08,1.08,0,0,0-1.08,1.08V67.08c.91.59,1.85,1.13,2.81,1.63V56.55a.54.54,0,0,1,1.08,0V69.24c.91.43,1.85.82,2.81,1.17V56.55a.54.54,0,0,1,1.08,0V70.78c.92.3,1.86.56,2.81.77V54.72A1.08,1.08,0,0,0,28,53.64Z" transform="translate(-2.49 -5.04)" style="fill:#15bde8"/><rect x="19.84" y="25.81" width="2.82" height="16.06" style="fill:#fff"/><path d="M21.79,56a.54.54,0,0,0-.54.54V68.71c.35.18.71.36,1.08.53V56.55A.54.54,0,0,0,21.79,56Z" transform="translate(-2.49 -5.04)" style="fill:#fff"/><path d="M25.68,56a.54.54,0,0,0-.54.54V70.41l1.08.37V56.55A.54.54,0,0,0,25.68,56Z" transform="translate(-2.49 -5.04)" style="fill:#fff"/><path d="M55.45,33.8a9,9,0,0,0-.51-1.24A.53.53,0,0,1,55,32l2.59-3.3-2.94-2.94-3.29,2.6a.55.55,0,0,1-.58,0,8.84,8.84,0,0,0-1.23-.51.56.56,0,0,1-.37-.45l-.5-4.16H44.53L44,27.44a.53.53,0,0,1-.36.45,9,9,0,0,0-1.24.51.55.55,0,0,1-.58,0l-3.29-2.6-2.94,2.94L38.21,32a.52.52,0,0,1,.06.57,9,9,0,0,0-.51,1.24.53.53,0,0,1-.45.36l-4.16.5v4.16l4.16.49a.56.56,0,0,1,.45.37,8.84,8.84,0,0,0,.51,1.23.53.53,0,0,1-.06.58l-2.59,3.3,2.94,2.94,3.29-2.6a.55.55,0,0,1,.58-.06,9,9,0,0,0,1.24.51A.53.53,0,0,1,44,46l.5,4.17h4.15l.5-4.17a.56.56,0,0,1,.37-.45,8.84,8.84,0,0,0,1.23-.51.55.55,0,0,1,.58.06l3.29,2.6,2.94-2.94L55,41.49a.55.55,0,0,1-.06-.58,8.84,8.84,0,0,0,.51-1.23.56.56,0,0,1,.45-.37l4.17-.49V34.66l-4.17-.5A.53.53,0,0,1,55.45,33.8Zm-8.84,9.68a6.75,6.75,0,1,1,6.74-6.74A6.75,6.75,0,0,1,46.61,43.48Z" transform="translate(-2.49 -5.04)" style="fill:#15bde8"/><circle cx="46.61" cy="36.74" r="3.24" transform="translate(-9.68 6.65) rotate(-13.28)" style="fill:#15bde8"/><polygon points="19.96 13.73 22.54 13.73 24.97 18.36 22.81 24.73 19.69 24.73 17.53 18.36 19.96 13.73" style="fill:#fff"/><path d="M28,52.56h-.28V51.22h.76a.54.54,0,0,0,.54-.54V47.45a.54.54,0,0,0-.54-.54H26.22v.54a.54.54,0,0,1-.54.54h2.21v2.15h-.76a.54.54,0,0,0-.54.54V53.1a.54.54,0,0,0,.54.54H28A1.08,1.08,0,0,1,29,54.72V71.55c.35.09.71.16,1.07.23V54.72A2.16,2.16,0,0,0,28,52.56Z" transform="translate(-2.49 -5.04)" style="fill:#201c4f"/><path d="M19.52,53.64h.82a.54.54,0,0,0,.54-.54V50.68a.54.54,0,0,0-.54-.54h-.76V48h2.21a.54.54,0,0,1-.54-.54v-.54H19a.54.54,0,0,0-.54.54v3.23a.54.54,0,0,0,.54.54h.76v1.34h-.28a2.16,2.16,0,0,0-2.16,2.16V66.36q.54.38,1.08.72V54.72A1.08,1.08,0,0,1,19.52,53.64Z" transform="translate(-2.49 -5.04)" style="fill:#201c4f"/><path d="M21.79,48h3.89a.54.54,0,0,0,.54-.54V30.4l0,.08a.54.54,0,0,1-.51.37h-.54V46.91H22.33V30.85h-.54a.54.54,0,0,1-.51-.37l0-.08V47.45A.54.54,0,0,0,21.79,48Z" transform="translate(-2.49 -5.04)" style="fill:#201c4f"/><path d="M21.79,30.85h3.89a.54.54,0,0,0,.51-.37l0-.08,2.33-6.88a.51.51,0,0,0,0-.42L25.83,18a.55.55,0,0,0-.48-.29H22.12a.55.55,0,0,0-.48.29L19,23.1a.51.51,0,0,0,0,.42l2.33,6.88,0,.08A.54.54,0,0,0,21.79,30.85Zm.66-12.08H25l2.44,4.62L25.3,29.77H22.17L20,23.39Z" transform="translate(-2.49 -5.04)" style="fill:#201c4f"/><path d="M60.67,33.65l-4.31-.52c-.09-.25-.2-.5-.31-.74L58.74,29a.54.54,0,0,0-.05-.71l-3.61-3.62a.55.55,0,0,0-.72,0L51,27.29,50.21,27l-.51-4.31a.54.54,0,0,0-.54-.47H44.05a.53.53,0,0,0-.53.47L43,27l-.74.31-3.41-2.68a.55.55,0,0,0-.72,0l-3.61,3.62a.53.53,0,0,0,0,.71l2.68,3.41c-.11.24-.22.49-.31.74l-4.31.52a.53.53,0,0,0-.47.53v5.11a.53.53,0,0,0,.47.54l4.31.51c.09.25.2.5.31.75L34.48,44.5a.54.54,0,0,0,0,.71l3.61,3.61a.54.54,0,0,0,.72,0l3.41-2.69a6.81,6.81,0,0,0,.74.31l.52,4.31a.54.54,0,0,0,.53.48h5.11a.55.55,0,0,0,.54-.48l.51-4.31a7.92,7.92,0,0,0,.75-.31l3.4,2.69a.54.54,0,0,0,.72,0l3.61-3.61a.54.54,0,0,0,.05-.71l-2.69-3.41c.11-.25.22-.5.31-.75l4.31-.51a.53.53,0,0,0,.47-.54V34.18A.53.53,0,0,0,60.67,33.65Zm-.6,5.17-4.17.49a.56.56,0,0,0-.45.37,8.84,8.84,0,0,1-.51,1.23.55.55,0,0,0,.06.58l2.59,3.3-2.94,2.94-3.29-2.6a.55.55,0,0,0-.58-.06,8.84,8.84,0,0,1-1.23.51.56.56,0,0,0-.37.45l-.5,4.17H44.53L44,46a.53.53,0,0,0-.36-.45,9,9,0,0,1-1.24-.51.55.55,0,0,0-.58.06l-3.29,2.6-2.94-2.94,2.59-3.3a.53.53,0,0,0,.06-.58,8.84,8.84,0,0,1-.51-1.23.56.56,0,0,0-.45-.37l-4.16-.49V34.66l4.16-.5a.53.53,0,0,0,.45-.36,9,9,0,0,1,.51-1.24.52.52,0,0,0-.06-.57l-2.59-3.3,2.94-2.94,3.29,2.6a.55.55,0,0,0,.58,0,9,9,0,0,1,1.24-.51.53.53,0,0,0,.36-.45l.5-4.16h4.15l.5,4.16a.56.56,0,0,0,.37.45,8.84,8.84,0,0,1,1.23.51.55.55,0,0,0,.58,0l3.29-2.6,2.94,2.94L55,32a.53.53,0,0,0-.06.57,9,9,0,0,1,.51,1.24.53.53,0,0,0,.45.36l4.17.5Z" transform="translate(-2.49 -5.04)" style="fill:#201c4f"/><path d="M46.61,30a6.75,6.75,0,1,0,6.74,6.75A6.76,6.76,0,0,0,46.61,30Zm0,12.41a5.67,5.67,0,1,1,5.66-5.66A5.67,5.67,0,0,1,46.61,42.4Z" transform="translate(-2.49 -5.04)" style="fill:#201c4f"/><path d="M45.27,7.55a.57.57,0,0,1-.18,0,32.78,32.78,0,0,0-3.38-.72A.68.68,0,0,1,41.15,6a.67.67,0,0,1,.77-.55,32.43,32.43,0,0,1,3.52.76.67.67,0,0,1,.48.82A.68.68,0,0,1,45.27,7.55Z" transform="translate(-2.49 -5.04)" style="fill:#201c4f"/><path d="M36.5,73.07A34,34,0,0,1,12.45,15,33.81,33.81,0,0,1,36.5,5a.67.67,0,1,1,0,1.34A32.67,32.67,0,0,0,13.4,62.15,32.67,32.67,0,0,0,64.25,21.8,32.82,32.82,0,0,0,51.41,10,.68.68,0,0,1,52,8.78,34,34,0,0,1,36.5,73.07Z" transform="translate(-2.49 -5.04)" style="fill:#201c4f"/><path d="M49.4,7.92a.86.86,0,1,1-.86-.86A.87.87,0,0,1,49.4,7.92Z" transform="translate(-2.49 -5.04)" style="fill:#201c4f"/></svg>