<svg xmlns="http://www.w3.org/2000/svg" xmlns:xlink="http://www.w3.org/1999/xlink" viewBox="0 0 1920 1323.34"><defs><linearGradient id="a" x1="1182.33" y1="1553.2" x2="894.42" y2="398.72" gradientUnits="userSpaceOnUse"><stop offset="0" stop-color="#15bde8"/><stop offset="0.08" stop-color="#16a9d5"/><stop offset="0.3" stop-color="#1877a6"/><stop offset="0.52" stop-color="#1a5081"/><stop offset="0.71" stop-color="#1b3366"/><stop offset="0.88" stop-color="#1c2256"/><stop offset="1" stop-color="#1c1c50"/></linearGradient><symbol id="b" viewBox="0 0 2.33 2.33"><path d="M2.33,1.17A1.17,1.17,0,1,1,1.17,0,1.16,1.16,0,0,1,2.33,1.17Z" fill="#fff"/></symbol></defs><title>Asset 4</title><rect width="1920" height="1323.34" fill="url(#a)"/><g opacity="0.25"><use width="2.33" height="2.33" transform="translate(1497.38 974.35) rotate(180) scale(0.75 0.78)" xlink:href="#b"/><use width="2.33" height="2.33" transform="translate(1591.19 772.25) rotate(180) scale(2.03 2.11)" xlink:href="#b"/><use width="2.33" height="2.33" transform="translate(1563.9 717.7) rotate(180) scale(2.01 2.09)" xlink:href="#b"/><use width="2.33" height="2.33" transform="translate(1443.8 596.77) rotate(180) scale(0.69 0.71)" xlink:href="#b"/><use width="2.33" height="2.33" transform="translate(1036.46 690.97) rotate(180) scale(2.03 2.11)" xlink:href="#b"/><use width="2.33" height="2.33" transform="translate(1002.35 715.27) rotate(180) scale(3.11 3.22)" xlink:href="#b"/><use width="2.33" height="2.33" transform="translate(1014.27 577.25) rotate(180) scale(3.23 3.35)" xlink:href="#b"/><use width="2.33" height="2.33" transform="translate(1050.36 410.21) rotate(180) scale(2.47 2.56)" xlink:href="#b"/><use width="2.33" height="2.33" transform="translate(1250.69 340.18) rotate(180) scale(2.76 2.86)" xlink:href="#b"/><use width="2.33" height="2.33" transform="translate(1297.56 294.54) rotate(180) scale(1.8 1.86)" xlink:href="#b"/><use width="2.33" height="2.33" transform="translate(1269.94 260.25) rotate(180) scale(2.01 2.08)" xlink:href="#b"/><use width="2.33" height="2.33" transform="translate(1194.39 320.04) rotate(180) scale(2.88 2.99)" xlink:href="#b"/><use width="2.33" height="2.33" transform="translate(1079.6 303.81) rotate(180) scale(2.53 2.62)" xlink:href="#b"/><use width="2.33" height="2.33" transform="translate(866.76 229.8) rotate(180) scale(1.86 1.93)" xlink:href="#b"/><use width="2.33" height="2.33" transform="translate(797.57 200.15) rotate(180) scale(2.01 2.09)" xlink:href="#b"/><use width="2.33" height="2.33" transform="translate(760.73 150.25) rotate(180) scale(2.09 2.17)" xlink:href="#b"/><use width="2.33" height="2.33" transform="translate(681.66 133.69) rotate(180) scale(2.06 2.13)" xlink:href="#b"/><use width="2.33" height="2.33" transform="translate(719.9 226.24) rotate(180) scale(1.92 1.99)" xlink:href="#b"/><use width="2.33" height="2.33" transform="translate(776.35 384.29) rotate(180) scale(2.98 3.09)" xlink:href="#b"/><use width="2.33" height="2.33" transform="translate(747.5 500.69) rotate(180) scale(3.32 3.44)" xlink:href="#b"/><use width="2.33" height="2.33" transform="translate(760.57 586.82) rotate(180) scale(2.11 2.18)" xlink:href="#b"/><use width="2.33" height="2.33" transform="translate(499.48 649.67) rotate(180) scale(1.24 1.29)" xlink:href="#b"/><use width="2.33" height="2.33" transform="translate(601.2 819) rotate(180) scale(1.2 1.24)" xlink:href="#b"/><use width="2.33" height="2.33" transform="translate(450.64 936.15) rotate(180) scale(2.52 2.61)" xlink:href="#b"/><use width="2.33" height="2.33" transform="translate(272.61 951.25) rotate(180) scale(2.42 2.51)" xlink:href="#b"/><use width="2.33" height="2.33" transform="translate(226.08 756.49) rotate(180) scale(1.68 1.74)" xlink:href="#b"/><use width="2.33" height="2.33" transform="translate(121.45 652.62) rotate(180) scale(2.25 2.33)" xlink:href="#b"/><use width="2.33" height="2.33" transform="translate(9.9 651.74) rotate(180) scale(1.66 1.72)" xlink:href="#b"/><use width="2.33" height="2.33" transform="translate(20.16 734.41) rotate(180) scale(1.46 1.51)" xlink:href="#b"/><use width="2.33" height="2.33" transform="translate(110.86 868.47) rotate(180) scale(1.06 1.1)" xlink:href="#b"/><use width="2.33" height="2.33" transform="translate(152.64 982.08) rotate(180) scale(1.38 1.43)" xlink:href="#b"/><use width="2.33" height="2.33" transform="translate(382.88 1039.84) rotate(180) scale(3.38 3.5)" xlink:href="#b"/><use width="2.33" height="2.33" transform="translate(455.89 993.45) rotate(180) scale(2.84 2.95)" xlink:href="#b"/><use width="2.33" height="2.33" transform="translate(601.98 861.76) rotate(180) scale(1.37 1.42)" xlink:href="#b"/><use width="2.33" height="2.33" transform="translate(909.66 771.41) rotate(180) scale(2.45 2.54)" xlink:href="#b"/><use width="2.33" height="2.33" transform="translate(1094 932.39) rotate(180) scale(2.55 2.65)" xlink:href="#b"/><use width="2.33" height="2.33" transform="translate(1336.78 915.75) rotate(180) scale(2.06 2.13)" xlink:href="#b"/><use width="2.33" height="2.33" transform="translate(1129.07 824.95) rotate(180) scale(1.74 1.8)" xlink:href="#b"/><use width="2.33" height="2.33" transform="translate(1158.36 765.24) rotate(180) scale(1.59 1.65)" xlink:href="#b"/><use width="2.33" height="2.33" transform="translate(991.74 905.98) rotate(180) scale(1.67 1.73)" xlink:href="#b"/><use width="2.33" height="2.33" transform="translate(695.66 794.2) rotate(180) scale(1.27 1.31)" xlink:href="#b"/><use width="2.33" height="2.33" transform="translate(478.47 684.8) rotate(180) scale(1.08 1.12)" xlink:href="#b"/><use width="2.33" height="2.33" transform="translate(601.32 645.73) rotate(180) scale(1.46 1.51)" xlink:href="#b"/><use width="2.33" height="2.33" transform="translate(590.8 626.03) rotate(180) scale(1.61 1.67)" xlink:href="#b"/><use width="2.33" height="2.33" transform="translate(483.66 604.06) rotate(180) scale(1.65 1.71)" xlink:href="#b"/><use width="2.33" height="2.33" transform="translate(512.83 604.28) rotate(180) scale(1.61 1.67)" xlink:href="#b"/><use width="2.33" height="2.33" transform="translate(804.91 502.34) rotate(180) scale(3.29 3.41)" xlink:href="#b"/><use width="2.33" height="2.33" transform="translate(1117.36 497.71) rotate(180) scale(1.48 1.53)" xlink:href="#b"/><use width="2.33" height="2.33" transform="translate(1164.9 653.75) rotate(180) scale(1.06 1.1)" xlink:href="#b"/><use width="2.33" height="2.33" transform="translate(1496.24 923.27) rotate(180) scale(1.7 1.76)" xlink:href="#b"/><use width="2.33" height="2.33" transform="translate(1514.24 1012.9) rotate(180) scale(1.21 1.25)" xlink:href="#b"/><use width="2.33" height="2.33" transform="translate(1607.37 973.96) rotate(180) scale(1.44 1.49)" xlink:href="#b"/><use width="2.33" height="2.33" transform="translate(1569.57 1020.63) rotate(180) scale(2.44 2.53)" xlink:href="#b"/><use width="2.33" height="2.33" transform="translate(1031.33 876.82) rotate(180) scale(2.12 2.2)" xlink:href="#b"/><use width="2.33" height="2.33" transform="translate(1745.68 764.57) rotate(180) scale(1.31 1.36)" xlink:href="#b"/><use width="2.33" height="2.33" transform="translate(1772.33 757.12) rotate(180) scale(1.59 1.65)" xlink:href="#b"/><use width="2.33" height="2.33" transform="translate(1812.8 750.44) rotate(180) scale(2.19 2.27)" xlink:href="#b"/><use width="2.33" height="2.33" transform="translate(1497.06 674.63) rotate(180) scale(2.73 2.83)" xlink:href="#b"/><use width="2.33" height="2.33" transform="translate(1524.99 632.32) rotate(180) scale(3.06 3.18)" xlink:href="#b"/><use width="2.33" height="2.33" transform="translate(1340.86 652.23) rotate(180) scale(2.56 2.65)" xlink:href="#b"/><use width="2.33" height="2.33" transform="translate(1585.57 707.91) rotate(180) scale(2.19 2.27)" xlink:href="#b"/><use width="2.33" height="2.33" transform="translate(1781.27 710.09) rotate(180) scale(1.83 1.9)" xlink:href="#b"/><use width="2.33" height="2.33" transform="translate(1674.45 787.77) rotate(180) scale(1.46 1.51)" xlink:href="#b"/><use width="2.33" height="2.33" transform="translate(1874.69 793.12) rotate(180) scale(1.35 1.4)" xlink:href="#b"/><use width="2.33" height="2.33" transform="translate(1918.48 806.91) rotate(180) scale(1.26 1.31)" xlink:href="#b"/><use width="2.33" height="2.33" transform="translate(1883.27 810.09) rotate(180) scale(1.03 1.07)" xlink:href="#b"/><use width="2.33" height="2.33" transform="translate(1488.58 897.56) rotate(180) scale(0.76 0.79)" xlink:href="#b"/><use width="2.33" height="2.33" transform="translate(1711.46 781.69) rotate(180) scale(1.05 1.09)" xlink:href="#b"/><use width="2.33" height="2.33" transform="translate(1271.37 639.86) rotate(180) scale(2.59 2.69)" xlink:href="#b"/><use width="2.33" height="2.33" transform="translate(1363.06 458.06) rotate(180) scale(2.52 2.61)" xlink:href="#b"/><use width="2.33" height="2.33" transform="translate(1323.4 412.59) rotate(180) scale(2.06 2.13)" xlink:href="#b"/><use width="2.33" height="2.33" transform="translate(1291.31 450.33) rotate(180) scale(1.19 1.23)" xlink:href="#b"/><use width="2.33" height="2.33" transform="translate(1252.46 437.39) rotate(180) scale(2.62 2.72)" xlink:href="#b"/><use width="2.33" height="2.33" transform="translate(1187 341.96) rotate(180) scale(3.2 3.32)" xlink:href="#b"/><use width="2.33" height="2.33" transform="translate(1100.02 255.23) rotate(180) scale(2.17 2.25)" xlink:href="#b"/><use width="2.33" height="2.33" transform="translate(924.88 267.1) rotate(180) scale(1.97 2.05)" xlink:href="#b"/><use width="2.33" height="2.33" transform="translate(893.47 264.74) rotate(180) scale(2 2.07)" xlink:href="#b"/><use width="2.33" height="2.33" transform="translate(765.99 233.66) rotate(180) scale(2.21 2.3)" xlink:href="#b"/><use width="2.33" height="2.33" transform="translate(748.12 171.36) rotate(180) scale(2.17 2.25)" xlink:href="#b"/><use width="2.33" height="2.33" transform="translate(727.22 119.3) rotate(180) scale(2.28 2.37)" xlink:href="#b"/><use width="2.33" height="2.33" transform="translate(658.83 106.58) rotate(180) scale(2.19 2.27)" xlink:href="#b"/><use width="2.33" height="2.33" transform="translate(648.12 94.19) rotate(180) scale(2.29 2.37)" xlink:href="#b"/><use width="2.33" height="2.33" transform="translate(647.95 72.96) rotate(180) scale(2.54 2.63)" xlink:href="#b"/><use width="2.33" height="2.33" transform="translate(826.49 390.08) rotate(180) scale(2.89 2.99)" xlink:href="#b"/><use width="2.33" height="2.33" transform="translate(1115.26 406.81) rotate(180) scale(2.52 2.61)" xlink:href="#b"/><use width="2.33" height="2.33" transform="translate(1330.69 519.89) rotate(180) scale(1.11 1.15)" xlink:href="#b"/><use width="2.33" height="2.33" transform="translate(1416.1 598.81) rotate(180) scale(0.67 0.69)" xlink:href="#b"/><use width="2.33" height="2.33" transform="translate(1237.74 611.96) rotate(180) scale(0.91 0.94)" xlink:href="#b"/><use width="2.33" height="2.33" transform="translate(1069.43 700.08) rotate(180) scale(1.31 1.36)" xlink:href="#b"/><use width="2.33" height="2.33" transform="translate(1340.42 892.15) rotate(180) scale(1.96 2.03)" xlink:href="#b"/><use width="2.33" height="2.33" transform="translate(1384.82 963.54) rotate(180) scale(3.17 3.28)" xlink:href="#b"/><use width="2.33" height="2.33" transform="translate(1433.06 980.74) rotate(180) scale(3.38 3.5)" xlink:href="#b"/><use width="2.33" height="2.33" transform="translate(1582.41 1030.66) rotate(180) scale(2.13 2.21)" xlink:href="#b"/><use width="2.33" height="2.33" transform="translate(1622.57 1010.62) rotate(180) scale(2.16 2.24)" xlink:href="#b"/><use width="2.33" height="2.33" transform="translate(1772.87 953.82) rotate(180) scale(2.47 2.56)" xlink:href="#b"/><use width="2.33" height="2.33" transform="translate(1771.66 921.38) rotate(180) scale(1.84 1.91)" xlink:href="#b"/><use width="2.33" height="2.33" transform="translate(1742.36 912.99) rotate(180) scale(1.37 1.42)" xlink:href="#b"/><use width="2.33" height="2.33" transform="translate(1809.14 897) rotate(180) scale(1.22 1.26)" xlink:href="#b"/><use width="2.33" height="2.33" transform="translate(1824.28 913.56) rotate(180) scale(1.13 1.18)" xlink:href="#b"/><use width="2.33" height="2.33" transform="translate(1824.59 949.48) rotate(180) scale(1.21 1.25)" xlink:href="#b"/><use width="2.33" height="2.33" transform="translate(1856.38 985.6) rotate(180) scale(1.42 1.47)" xlink:href="#b"/><use width="2.33" height="2.33" transform="translate(1888.74 1008.08) rotate(180) scale(1.54 1.6)" xlink:href="#b"/><use width="2.33" height="2.33" transform="translate(1843.26 970.6) rotate(180) scale(1.63 1.69)" xlink:href="#b"/><use width="2.33" height="2.33" transform="translate(1920 979.99) rotate(180) scale(1.83 1.89)" xlink:href="#b"/><use width="2.33" height="2.33" transform="translate(1893.27 883.23) rotate(180) scale(0.87 0.9)" xlink:href="#b"/><use width="2.33" height="2.33" transform="translate(1691.65 786.82) rotate(180) scale(1.23 1.28)" xlink:href="#b"/><use width="2.33" height="2.33" transform="translate(1374.67 489.2) rotate(180) scale(1.8 1.86)" xlink:href="#b"/><use width="2.33" height="2.33" transform="translate(1301.61 362.4) rotate(180) scale(1.74 1.8)" xlink:href="#b"/><use width="2.33" height="2.33" transform="translate(1181.47 279.31) rotate(180) scale(2.3 2.38)" xlink:href="#b"/><use width="2.33" height="2.33" transform="translate(920.63 180.04) rotate(180) scale(1.51 1.57)" xlink:href="#b"/><use width="2.33" height="2.33" transform="translate(819.56 91.38) rotate(180) scale(1.7 1.76)" xlink:href="#b"/><use width="2.33" height="2.33" transform="translate(714.61 13.02) rotate(180) scale(2.49 2.58)" xlink:href="#b"/><use width="2.33" height="2.33" transform="translate(692.25 13.97) rotate(180) scale(2.66 2.76)" xlink:href="#b"/><use width="2.33" height="2.33" transform="translate(676.63 12.44) rotate(180) scale(2.8 2.9)" xlink:href="#b"/><use width="2.33" height="2.33" transform="translate(162.07 161.98) rotate(180) scale(2.08 2.16)" xlink:href="#b"/><use width="2.33" height="2.33" transform="translate(159.95 176.96) rotate(180) scale(2.06 2.13)" xlink:href="#b"/><use width="2.33" height="2.33" transform="translate(75.43 214.99) rotate(180) scale(1.94 2.01)" xlink:href="#b"/><use width="2.33" height="2.33" transform="translate(14.67 213.88) rotate(180) scale(1.52 1.58)" xlink:href="#b"/><use width="2.33" height="2.33" transform="translate(3.48 154.6) rotate(180) scale(1.48 1.53)" xlink:href="#b"/><use width="2.33" height="2.33" transform="translate(39.7 92.44) rotate(180) scale(1.47 1.53)" xlink:href="#b"/><use width="2.33" height="2.33" transform="translate(84.55 97.17) rotate(180) scale(1.69 1.75)" xlink:href="#b"/><use width="2.33" height="2.33" transform="translate(109.97 97.05) rotate(180) scale(1.83 1.9)" xlink:href="#b"/><use width="2.33" height="2.33" transform="translate(118.53 109.31) rotate(180) scale(1.91 1.98)" xlink:href="#b"/><use width="2.33" height="2.33" transform="translate(138.76 4.76) rotate(180) scale(1.96 2.03)" xlink:href="#b"/><use width="2.33" height="2.33" transform="translate(144.96 16.59) rotate(180) scale(1.99 2.07)" xlink:href="#b"/><use width="2.33" height="2.33" transform="translate(105.75 20) rotate(180) scale(1.74 1.81)" xlink:href="#b"/><use width="2.33" height="2.33" transform="translate(91.69 34.9) rotate(180) scale(1.65 1.71)" xlink:href="#b"/><use width="2.33" height="2.33" transform="translate(1077.96 458.34) rotate(180) scale(1.53 1.58)" xlink:href="#b"/><use width="2.33" height="2.33" transform="translate(1343.27 520.66) rotate(180) scale(0.9 0.93)" xlink:href="#b"/><use width="2.33" height="2.33" transform="translate(1407.81 626.14) rotate(180) scale(1.01 1.05)" xlink:href="#b"/><use width="2.33" height="2.33" transform="translate(1536.5 689.6) rotate(180) scale(1.95 2.02)" xlink:href="#b"/><use width="2.33" height="2.33" transform="translate(1378.79 633.8) rotate(180) scale(1.49 1.55)" xlink:href="#b"/><use width="2.33" height="2.33" transform="translate(1465.59 609.76) rotate(180) scale(1.08 1.12)" xlink:href="#b"/><use width="2.33" height="2.33" transform="translate(1213.94 648.89) rotate(180) scale(1.31 1.36)" xlink:href="#b"/><use width="2.33" height="2.33" transform="translate(1289.38 696.11) rotate(180) scale(1.66 1.72)" xlink:href="#b"/><use width="2.33" height="2.33" transform="translate(1410.67 709.59) rotate(180) scale(1.76 1.82)" xlink:href="#b"/><use width="2.33" height="2.33" transform="translate(1553.49 732.15) rotate(180) scale(1.89 1.95)" xlink:href="#b"/><use width="2.33" height="2.33" transform="translate(1582.78 806.56) rotate(180) scale(1.41 1.47)" xlink:href="#b"/><use width="2.33" height="2.33" transform="translate(1604.18 829.85) rotate(180) scale(1 1.04)" xlink:href="#b"/><use width="2.33" height="2.33" transform="translate(1526.3 815.75) rotate(180) scale(1.06 1.1)" xlink:href="#b"/></g></svg>