<svg xmlns="http://www.w3.org/2000/svg" viewBox="0 0 243.67 81.78"><title>Asset 1</title><text transform="translate(81.97 59.33)" font-size="60" fill="#1c1c4a" font-family="Ubuntu-Medium, Ubuntu" font-weight="500">DO<tspan x="90.48" y="0" letter-spacing="0.01em">C</tspan><tspan x="129.3" y="0">S</tspan></text><ellipse cx="39" cy="38.76" rx="39" ry="38.76" fill="#1c1c50"/><path d="M20.53,40.61c0-.27.15-.43.48-.31a12.37,12.37,0,0,0,5.17.77c.53,0,.71.27.6.78a19.86,19.86,0,0,0-.32,2.44,34.31,34.31,0,0,0-.2,4.18A16.89,16.89,0,0,0,27,53c.06.21,0,.27-.18.39a7.41,7.41,0,0,1-1.87.7,3.52,3.52,0,0,1-2.52-.29A3,3,0,0,1,21.18,52C19.75,47.4,20.5,41.1,20.53,40.61Z" fill="#f2f1f0"/><path d="M35.05,45.94l.25.08a11.51,11.51,0,0,0,3.75.77,31,31,0,0,0,5.69-.29,31.14,31.14,0,0,0,3.56-.83c3.79-1.07,3.88-3.08,3.77-4.11a3.06,3.06,0,0,0-.88-1.75,2.15,2.15,0,0,0-2.65-.46,9.53,9.53,0,0,1-5.37.72C39,39.23,39.93,36.79,41,36.39c2.32-.86,7.2-3.84,7.37-9.89a13.1,13.1,0,0,0-.43-3.94,8.88,8.88,0,0,0-2.31-4,7.93,7.93,0,0,0-3.48-2.18c-.12,0-.55-.19-.64,0a10.78,10.78,0,0,1,1.57,2.74.59.59,0,0,0,.51.48,3.55,3.55,0,0,1,2.65,1.79,9.26,9.26,0,0,1,1,5,7.81,7.81,0,0,1-7.83,7.44c-6.24-.13-10.16-8.87-2.89-13.11a9.2,9.2,0,0,1,1.22-.6c.13-.05.22-.07.08-.22-1.09-1.1-4.94-2.73-6.33-3.08a2.09,2.09,0,0,0-1.31,0,9.84,9.84,0,0,0-2.7,1.65,10.67,10.67,0,0,0-3.62,7.27c-.15,4,1.49,7.46,5,9.16,2.95,1.43,7.19,1.5,7.38,1.71a11.94,11.94,0,0,0-3.45.37,4.63,4.63,0,0,0-2.91,1.87,10,10,0,0,0-1.46,3.78c-.27,1.61-.08,3.22-.21,4.84a8.89,8.89,0,0,0,.06,2.36A14.07,14.07,0,0,0,29.43,53c.05.12.05.2.11.32a4.63,4.63,0,0,1,2.26-.24,4,4,0,0,1,3.47,2.32h.06a4.32,4.32,0,0,1,3.85,3.22h.11a1.13,1.13,0,0,1,.83.73c.08.68.15,1.36.23,2,.15,1.21.3,2.43.44,3.64s.27,2.51.54,3.74,4.38,1.87,5.79,1.67a5.77,5.77,0,0,0,2-.5,1.34,1.34,0,0,0,.82-1.43c0-.38-.1-.76-.14-1.13a14.41,14.41,0,0,0-1.07-3.74c-.42-1-1.56-5.17-1.84-6.22a5.51,5.51,0,0,0-.58-1.62A8.79,8.79,0,0,0,44,53.56c-1.59-1.17-5.7-3.58-6-3.87.51.12,2.47.68,3.49.89.57.12,1.15-2.8.75-2.82l-2.07-.1A11.51,11.51,0,0,1,38,47.42c-.94-.21-2.8-1-3.05-1.53C35,45.88,35,45.93,35.05,45.94Z" fill="#f2f1f0"/><path d="M31.45,38a3.62,3.62,0,0,1-.36-.42,4,4,0,0,0-1.22,1.18,10,10,0,0,0-1.46,3.78,33.21,33.21,0,0,0-.48,4.85,15.21,15.21,0,0,0,1,5.86,9.6,9.6,0,0,0,3.12,3.86,12.53,12.53,0,0,0,5.46,1.43c.59.05,1.09.08,1.69.17,1,.15,1.06,2,1.14,2.68.15,1.21.3,2.43.44,3.64s.27,2.51.54,3.74c.08.87,2.06,1.42,3.76,1.62a43.29,43.29,0,0,1-.3-4.57,19.38,19.38,0,0,0-.79-6.7c-1-2.47-3.24-3.74-5.55-4.87-2.23-.66-4.42-1.32-6-3.22a4.48,4.48,0,0,1-1.29-3,2.62,2.62,0,0,1,3.08-2.21,7.31,7.31,0,0,1,1.41.37,11.74,11.74,0,0,0,3.37.63,31,31,0,0,0,5.69-.29,31.14,31.14,0,0,0,3.56-.83,5.35,5.35,0,0,0,3.4-2.16A21.63,21.63,0,0,1,31.45,38Z" fill="#c9c7c4"/><path d="M35,36.32c-8.59-2.16-9.61-13.83-5-19.53a10,10,0,0,0-2.56,1.59,10.67,10.67,0,0,0-3.62,7.27c-.15,4,1.49,7.46,5,9.16A20.49,20.49,0,0,0,35,36.32Z" fill="#c9c7c4"/><path d="M69.93,68c-4.09-.75-10.05-1.7-19.13-4,.15.86,1,4.52,1,5.48,0,1.62-1.52,2-2.85,2.3-2.85.64-7.56.51-8.93-2.61-2.38.42-5.4.32-7.31-.93-1.51-1-.16-5.13.19-6.26,0,0-12.32.68-4.59,8.83,4.84,5.1,10.34,7.23,14.44,8.63,8.12,2.77,23.86,3.42,31.48.45,2.88-1.15,4.34-2.59,4.94-4C80.24,73.29,79.15,69.65,69.93,68Z" fill="#f2f1f0"/><path d="M37.52,68a19.44,19.44,0,0,1-2.85-.14,3.25,3.25,0,0,1-.42-.11,1.19,1.19,0,0,1-1-1.56q.16-.92.36-1.83c.08-.43.17-.87.26-1.3a3.63,3.63,0,0,1,1.16-2.44,6.54,6.54,0,0,1,2.23-.54A10.49,10.49,0,0,1,39.43,60s.58,6.49.55,7.43c0,.3-.2.39-.44.46A6.84,6.84,0,0,1,37.52,68Z" fill="#c9c7c4"/><path d="M24.43,34.07c-.8.13-3,2.19-2.68,4.32.13.8.77,1.74,2.82,1.81a4.11,4.11,0,0,0,3.56-1.62,9.43,9.43,0,0,0,1.08-1.77A11.94,11.94,0,0,1,24.43,34.07Z" fill="#f2f1f0"/><path d="M26.35,35.74l.15-.11a10.41,10.41,0,0,1-2.07-1.56c-.8.13-3,2.19-2.68,4.32A2,2,0,0,0,23.43,40,9.05,9.05,0,0,1,26.35,35.74Z" fill="#c9c7c4"/><path d="M23.26,40.91A12.93,12.93,0,0,1,21,40.3c-.33-.12-.46,0-.48.31,0,.49-.78,6.79.65,11.39a2.88,2.88,0,0,0,1.25,1.79c2,1.08,4.43-.1,4.59-.59C23.16,52.82,22.75,43.19,23.26,40.91Z" fill="#c9c7c4"/><path d="M41.65,19c.09.25.09.32-.2.31a9.43,9.43,0,0,0-1.76.14A.73.73,0,0,1,39,19.2C37.71,18,33.45,16.27,33,16.1a.27.27,0,0,1-.2-.33,5.24,5.24,0,0,1,7,.05A9.47,9.47,0,0,1,41.65,19Z" fill="#f2f1f0"/><path d="M36.29,22.52a4.68,4.68,0,0,0-1.23,1.38.66.66,0,0,0,0,.69c.41.78,1.49,2.69,2.54,3.17s2-2.23,1.16-4.61A1.48,1.48,0,0,0,36.29,22.52Z" fill="#f2f1f0"/><path d="M34.65,26.14a.5.5,0,0,0-.88.27,1.67,1.67,0,0,0,.37,1.35,2.1,2.1,0,0,0,.76.54.51.51,0,0,0,.66-.68A6.81,6.81,0,0,0,34.65,26.14Z" fill="#f2f1f0"/><path d="M64.94,33.45a7.76,7.76,0,0,0-6.45,6.41.1.1,0,0,1-.2,0,7.77,7.77,0,0,0-6.45-6.41.1.1,0,0,1,0-.19,7.77,7.77,0,0,0,6.45-6.41.1.1,0,0,1,.2,0,7.76,7.76,0,0,0,6.45,6.41A.1.1,0,0,1,64.94,33.45Z" fill="#15bde8"/><path d="M53.52,12.73A4.24,4.24,0,0,0,50,16.21a.05.05,0,0,1-.1,0,4.24,4.24,0,0,0-3.5-3.48c-.07,0-.07-.09,0-.1a4.24,4.24,0,0,0,3.5-3.48.05.05,0,0,1,.1,0,4.24,4.24,0,0,0,3.5,3.48A.05.05,0,0,1,53.52,12.73Z" fill="#f2f1f0"/><path d="M19.58,30.41a2,2,0,0,0-1.65,1.64s-.05,0-.05,0a2,2,0,0,0-1.65-1.64s0,0,0-.05a2,2,0,0,0,1.65-1.64s0,0,.05,0a2,2,0,0,0,1.65,1.64S19.61,30.41,19.58,30.41Z" fill="#c9c7c4"/><path d="M74.23,79.83c2.88-1.15,4.34-2.59,4.94-4a3.8,3.8,0,0,0,.07-2.93c.07.27.74,4.48-18.86,5.29-20.24.83-30.71-6.33-30.71-6.33l-.08.16a34.82,34.82,0,0,0,13.16,7.37C50.87,82.15,66.61,82.8,74.23,79.83Z" fill="#c9c7c4"/></svg>