<svg xmlns="http://www.w3.org/2000/svg" xmlns:xlink="http://www.w3.org/1999/xlink" viewBox="0 0 155.99 208.53"><defs><style>.cls-1{fill:#e9e9e9;}.cls-2{fill:url(#linear-gradient);}.cls-3{fill:#f2f1f0;}.cls-4{fill:#c9c7c4;}.cls-5{fill:#15bde8;}</style><linearGradient id="linear-gradient" x1="47.63" y1="153.28" x2="166.03" y2="157.37" gradientUnits="userSpaceOnUse"><stop offset="0" stop-color="#1b0f3d" stop-opacity="0"/><stop offset="1" stop-color="#1b0f3d" stop-opacity="0.97"/></linearGradient></defs><title>logo</title><g id="Layer_2" data-name="Layer 2"><g id="Layer_1-2" data-name="Layer 1"><path class="cls-1" d="M11.39,208.53c-4.9,0-9.17-2.05-11.39-5.32l4.23-3.77a9.49,9.49,0,0,0,7.5,3.35c3.47,0,5.1-1,5.1-3.18,0-1.89-1-2.73-6.53-4s-9.17-3-9.17-8.75c0-5.32,4.69-8.59,10.47-8.59a14,14,0,0,1,10.68,4.61L18.05,187a9,9,0,0,0-6.66-3c-3.14,0-4.19,1.34-4.19,2.63,0,1.85,1.26,2.43,5.91,3.52s9.8,2.68,9.8,9.05C22.91,204.76,19.39,208.53,11.39,208.53Z"/><path class="cls-1" d="M49,197.68H42.51v10.39H36.64V178.75H49.46c5.53,0,10.09,3.06,10.09,9.3C59.55,194.83,55,197.68,49,197.68Zm.3-13.23H42.51V192h6.82c2.72,0,4.19-1.26,4.19-3.82S51.84,184.45,49.25,184.45Z"/><path class="cls-1" d="M73.08,208.07V178.75h5.86v29.32Z"/><path class="cls-1" d="M111.18,187.3a5.56,5.56,0,0,0-5.36-3.19c-4.39,0-6.91,3.85-6.91,9.3,0,5.28,2.56,9.3,7,9.3,2.63,0,4.18-1.14,5.73-3.73l4.94,2.93c-2,4.15-5.52,6.62-10.84,6.62-7.67,0-12.82-5.87-12.82-15.12,0-8.92,5.36-15.12,13-15.12,5.53,0,8.88,2.68,10.72,6.49Z"/><path class="cls-1" d="M149.54,208.07l-2.3-6.54H136.52l-2.3,6.54h-6.28l11.22-29.32h5.69L156,208.07Zm-6.19-17.42c-.59-1.72-1.18-3.48-1.47-4.57-.29,1.09-.88,2.85-1.47,4.57L138.53,196h6.7Z"/><ellipse class="cls-2" cx="76.38" cy="154.27" rx="46.89" ry="7"/><path class="cls-3" d="M18.79,60.25c0-.51.28-.82.9-.6a23.43,23.43,0,0,0,9.83,1.47c1,0,1.34.51,1.14,1.5a38.05,38.05,0,0,0-.6,4.66,66.76,66.76,0,0,0-.39,8,33.4,33.4,0,0,0,1.4,8.64c.13.4.09.51-.34.74A13.45,13.45,0,0,1,27.19,86a6.66,6.66,0,0,1-4.79-.55A5.73,5.73,0,0,1,20,82C17.3,73.23,18.72,61.19,18.79,60.25Z"/><path class="cls-3" d="M46.38,70.44l.47.16A22.38,22.38,0,0,0,54,72.06a58.46,58.46,0,0,0,10.82-.54,58.7,58.7,0,0,0,6.76-1.6c7.2-2,7.38-5.88,7.16-7.85a5.87,5.87,0,0,0-1.66-3.36c-1.26-1.33-2.7-1.77-5-.86-3.29,1.27-6.71,2.06-10.21,1.36-8-1.6-6.16-6.27-4.15-7,4.41-1.65,13.69-7.36,14-18.93a25.5,25.5,0,0,0-.82-7.52,17,17,0,0,0-4.38-7.68,15,15,0,0,0-6.62-4.17c-.23-.07-1.05-.38-1.23-.08s1.94,1.8,3,5.23a1.08,1.08,0,0,0,1,.91,6.84,6.84,0,0,1,5,3.44,18,18,0,0,1,1.85,9.53C69,40.7,62.7,47.34,54.61,47.16c-11.86-.27-19.31-17-5.51-25.07a17.55,17.55,0,0,1,2.34-1.16c.23-.1.4-.14.13-.41-2.07-2.12-9.37-5.23-12-5.89a3.86,3.86,0,0,0-2.47-.05,19.08,19.08,0,0,0-5.13,3.16c-1.18,1-6.58,6.14-6.88,13.9-.29,7.59,2.83,14.27,9.53,17.53,5.61,2.73,13.67,2.86,14,3.26a22.91,22.91,0,0,0-6.55.7,8.79,8.79,0,0,0-5.53,3.59,18.78,18.78,0,0,0-2.78,7.21c-.52,3.09-.16,6.16-.41,9.26a18,18,0,0,0,.12,4.52,27.55,27.55,0,0,0,2.22,6.2c.1.24.11.39.21.62,1.58-.7,2.55-.47,4.3-.47,2.95,0,5.25,2,6.59,4.45h.11c3.6,0,6.23,2.9,7.33,6.16l.2,0A2.19,2.19,0,0,1,56,96.07c.14,1.3.28,2.61.43,3.91l.84,7c.29,2.39.5,4.79,1,7.15.22,2.47,8.32,3.58,11,3.19a11.54,11.54,0,0,0,3.8-1,2.58,2.58,0,0,0,1.55-2.75c-.06-.72-.19-1.43-.28-2.15a27,27,0,0,0-2-7.14c-.8-1.9-3-9.89-3.5-11.9a10.47,10.47,0,0,0-1.09-3.11A17.06,17.06,0,0,0,63.45,85c-3-2.24-10.82-6.84-11.38-7.4,1,.22,4.71,1.3,6.63,1.71,1.09.22,2.19-5.36,1.43-5.4-1.31-.07-2.62-.13-3.94-.18a23.12,23.12,0,0,1-4.31-.47c-1.79-.41-5.32-1.93-5.8-2.93C46.2,70.33,46.32,70.43,46.38,70.44Z"/><path class="cls-4" d="M39.53,55.25a7.36,7.36,0,0,1-.69-.79,7.38,7.38,0,0,0-2.3,2.26,18.78,18.78,0,0,0-2.78,7.21,62.35,62.35,0,0,0-.91,9.29,28.76,28.76,0,0,0,1.92,11.2c1,2.44,3.54,6,5.92,7.37,3.72,2.22,8.2,2.58,10.37,2.75,1.12.08,2.08.14,3.21.31,2,.29,2,3.83,2.18,5.13l.84,7c.29,2.39.5,4.79,1,7.15.15,1.67,3.91,2.72,7.15,3.1a87.64,87.64,0,0,1-.58-8.75c0-4.27,0-8.74-1.5-12.81-1.8-4.71-6.15-7.15-10.54-9.3-4.24-1.26-8.41-2.52-11.35-6.17-1.31-1.61-2.63-3.62-2.44-5.79.27-3.05,3.06-4.45,5.84-4.23a13.64,13.64,0,0,1,2.69.72A21.76,21.76,0,0,0,54,72.06a58.46,58.46,0,0,0,10.82-.54,58.7,58.7,0,0,0,6.76-1.6c3.74-1.06,5.59-2.61,6.47-4.13A41,41,0,0,1,39.53,55.25Z"/><path class="cls-4" d="M46.26,52C29.94,47.91,28,25.61,36.8,14.7a19,19,0,0,0-4.86,3c-1.18,1-6.58,6.14-6.88,13.9-.29,7.59,2.83,14.27,9.53,17.53C38.42,51,43.38,51.68,46.26,52Z"/><path class="cls-3" d="M112.66,112.54c-7.77-1.43-19.11-3.25-36.35-7.68.27,1.63,1.84,8.63,1.89,10.47.08,3.1-2.89,3.82-5.41,4.4-5.42,1.23-14.37,1-17-5-4.53.79-10.26.59-13.9-1.79-2.87-1.88-.29-9.8.36-12,0,0-23.4,1.29-8.71,16.88,9.19,9.75,19.65,13.83,27.44,16.5,15.42,5.3,45.33,6.54,59.81.85,5.47-2.19,8.25-4.94,9.39-7.66C132.24,122.73,130.18,115.77,112.66,112.54Z"/><path class="cls-4" d="M51.06,112.65a37.52,37.52,0,0,1-5.4-.29,4.59,4.59,0,0,1-.81-.21c-1.6-.53-2.11-1.34-1.82-3,.21-1.17.44-2.34.68-3.5.16-.83.33-1.66.49-2.49.49-2.63,1.39-4.23,2.21-4.67a12.58,12.58,0,0,1,4.24-1,18.84,18.84,0,0,1,4-.2s1.11,12.4,1.05,14.19c0,.58-.37.75-.83.88A13.46,13.46,0,0,1,51.06,112.65Z"/><path class="cls-3" d="M26.2,47.75c-1.52.23-5.76,4.19-5.1,8.26.25,1.52,1.47,3.32,5.36,3.45a7.8,7.8,0,0,0,6.77-3.1A18.94,18.94,0,0,0,35.28,53,22.67,22.67,0,0,1,26.2,47.75Z"/><path class="cls-4" d="M29.84,50.94l.29-.21a20.38,20.38,0,0,1-3.93-3c-1.52.23-5.76,4.19-5.1,8.26a3.91,3.91,0,0,0,3.19,3.14A17.28,17.28,0,0,1,29.84,50.94Z"/><path class="cls-4" d="M24,60.83a24.3,24.3,0,0,1-4.28-1.18c-.61-.23-.87.09-.9.6-.07.94-1.49,13,1.23,21.77a5.57,5.57,0,0,0,2.38,3.43c3.8,2.06,8.42-.19,8.72-1.13C23.77,83.59,23,65.19,24,60.83Z"/><path class="cls-3" d="M58.91,18.89c.18.48.17.61-.36.59a19.87,19.87,0,0,0-3.36.27,1.39,1.39,0,0,1-1.26-.43c-2.5-2.38-10.6-5.61-11.53-5.93a.5.5,0,0,1-.37-.64c3.16-3.43,10-3.35,13.31.11A18.07,18.07,0,0,1,58.91,18.89Z"/><path class="cls-3" d="M48.73,25.65a9.17,9.17,0,0,0-2.34,2.64,1.3,1.3,0,0,0-.06,1.32c.78,1.5,2.84,5.14,4.83,6.06s3.78-4.25,2.21-8.8C52.7,24.93,50.78,24.28,48.73,25.65Z"/><path class="cls-3" d="M45.62,32.58a1,1,0,0,0-1.68.51,3.17,3.17,0,0,0,.7,2.58,4.13,4.13,0,0,0,1.46,1,1,1,0,0,0,1.25-1.3A13.3,13.3,0,0,0,45.62,32.58Z"/><path class="cls-5" d="M103.16,46.56A14.81,14.81,0,0,0,90.91,58.82a.19.19,0,0,1-.37,0A14.82,14.82,0,0,0,78.28,46.56a.19.19,0,0,1,0-.37A14.81,14.81,0,0,0,90.54,33.93a.19.19,0,0,1,.37,0,14.8,14.8,0,0,0,12.25,12.26A.19.19,0,0,1,103.16,46.56Z"/><path class="cls-3" d="M81.48,6.94a8,8,0,0,0-6.66,6.65.1.1,0,0,1-.2,0A8,8,0,0,0,68,6.94a.1.1,0,0,1,0-.2A8,8,0,0,0,74.62.09a.1.1,0,0,1,.2,0,8,8,0,0,0,6.66,6.65A.1.1,0,0,1,81.48,6.94Z"/><path class="cls-4" d="M17,40.75a3.78,3.78,0,0,0-3.13,3.14.05.05,0,0,1-.1,0,3.8,3.8,0,0,0-3.13-3.14,0,0,0,1,1,0-.09,3.8,3.8,0,0,0,3.13-3.14.05.05,0,0,1,.1,0A3.78,3.78,0,0,0,17,40.66,0,0,0,0,1,17,40.75Z"/><path class="cls-4" d="M120.82,135.23c5.47-2.19,8.25-4.94,9.39-7.66a7.29,7.29,0,0,0,.14-5.61c.12.52,1.4,8.57-35.84,10.11C56,133.67,36.15,120,36.15,120l-.15.3c8.57,8,17.9,11.66,25,14.1C76.43,139.68,106.34,140.92,120.82,135.23Z"/></g></g></svg>