<svg xmlns="http://www.w3.org/2000/svg" viewBox="0 0 304.16 77.68"><title>logo</title><path d="M98.92,54c-7,0-13-2.91-16.17-7.55l6-5.35A13.46,13.46,0,0,0,99.4,45.82c4.93,0,7.25-1.36,7.25-4.51,0-2.68-1.43-3.87-9.27-5.65-7.67-1.78-13-4.22-13-12.42,0-7.55,6.65-12.19,14.86-12.19a19.87,19.87,0,0,1,15.15,6.54l-6,5.83a12.67,12.67,0,0,0-9.45-4.28C94.46,19.14,93,21,93,22.88c0,2.62,1.78,3.45,8.38,5s13.91,3.81,13.91,12.84C115.27,48.62,110.27,54,98.92,54Z" style="fill:#e9e9e9"/><path d="M152.24,38.57h-9.16V53.31h-8.32V11.71H153c7.84,0,14.32,4.34,14.32,13.19C167.27,34.53,160.85,38.57,152.24,38.57Zm.41-18.78h-9.57v10.7h9.69c3.86,0,5.94-1.78,5.94-5.41S156.34,19.79,152.65,19.79Z" style="fill:#e9e9e9"/><path d="M186.47,53.31V11.71h8.32v41.6Z" style="fill:#e9e9e9"/><path d="M240.56,23.83A7.9,7.9,0,0,0,233,19.32c-6.24,0-9.81,5.46-9.81,13.19,0,7.49,3.63,13.2,9.87,13.2,3.74,0,5.94-1.61,8.14-5.29l7,4.16c-2.86,5.88-7.85,9.39-15.4,9.39-10.88,0-18.19-8.32-18.19-21.46,0-12.66,7.61-21.46,18.49-21.46,7.84,0,12.6,3.81,15.22,9.22Z" style="fill:#e9e9e9"/><path d="M295,53.31,291.73,44H276.52l-3.27,9.27h-8.92l15.93-41.6h8.09l15.81,41.6Zm-8.79-24.72c-.84-2.44-1.67-4.94-2.08-6.48-.42,1.54-1.25,4-2.08,6.48l-2.68,7.55h9.51Z" style="fill:#e9e9e9"/><path d="M4.6,33.68c0-.29.16-.46.5-.34a12.86,12.86,0,0,0,5.5.82c.56,0,.75.29.63.84a20.69,20.69,0,0,0-.33,2.61,35.22,35.22,0,0,0-.22,4.47,18.82,18.82,0,0,0,.78,4.83c.07.23,0,.28-.19.41a7.42,7.42,0,0,1-2,.75,3.65,3.65,0,0,1-2.67-.31,3.15,3.15,0,0,1-1.33-1.91C3.77,40.93,4.56,34.2,4.6,33.68Z" style="fill:#f2f1f0"/><path d="M20,39.38l.26.08a12.19,12.19,0,0,0,4,.82,32.11,32.11,0,0,0,6-.3,33,33,0,0,0,3.78-.9c4-1.14,4.13-3.28,4-4.38a3.21,3.21,0,0,0-.93-1.88,2.25,2.25,0,0,0-2.81-.48,10.18,10.18,0,0,1-5.7.76c-4.49-.89-3.45-3.51-2.32-3.93,2.46-.92,7.65-4.11,7.83-10.58a14.22,14.22,0,0,0-.46-4.2,9.54,9.54,0,0,0-2.45-4.3,8.47,8.47,0,0,0-3.7-2.33c-.13,0-.59-.21-.68,0a11.64,11.64,0,0,1,1.67,2.92.6.6,0,0,0,.54.51,3.82,3.82,0,0,1,2.82,1.92,10,10,0,0,1,1,5.33,8.33,8.33,0,0,1-8.31,8c-6.63-.15-10.79-9.48-3.08-14a10,10,0,0,1,1.31-.65c.13,0,.22-.08.07-.23-1.15-1.18-5.24-2.92-6.72-3.29a2.17,2.17,0,0,0-1.38,0A10.34,10.34,0,0,0,12,9.92,11.38,11.38,0,0,0,8.1,17.69c-.16,4.24,1.59,8,5.33,9.79,3.14,1.53,7.64,1.6,7.84,1.83a12.36,12.36,0,0,0-3.66.39,4.92,4.92,0,0,0-3.09,2,10.49,10.49,0,0,0-1.55,4c-.29,1.72-.1,3.44-.23,5.17a9.75,9.75,0,0,0,.07,2.53,15,15,0,0,0,1.24,3.47c0,.13,0,.21.11.34A5,5,0,0,1,16.57,47a4.28,4.28,0,0,1,3.68,2.48h.06a4.59,4.59,0,0,1,4.1,3.44l.11,0a1.23,1.23,0,0,1,.89.77l.24,2.19c.15,1.29.31,2.59.47,3.89s.28,2.68.57,4c.12,1.38,4.65,2,6.15,1.79A6.6,6.6,0,0,0,35,65a1.46,1.46,0,0,0,.87-1.54c0-.4-.11-.8-.16-1.2a15,15,0,0,0-1.13-4c-.45-1.07-1.66-5.53-2-6.66A5.67,5.67,0,0,0,32,49.91a9.48,9.48,0,0,0-2.42-2.39c-1.68-1.25-6-3.82-6.36-4.14.55.13,2.63.73,3.71,1,.61.12,1.22-3,.8-3l-2.2-.1A13.08,13.08,0,0,1,23.09,41c-1-.23-3-1.08-3.24-1.64C19.92,39.31,20,39.37,20,39.38Z" style="fill:#f2f1f0"/><path d="M16.19,30.89a3.23,3.23,0,0,1-.38-.45,4.07,4.07,0,0,0-1.29,1.26,10.49,10.49,0,0,0-1.55,4,35,35,0,0,0-.51,5.19,16,16,0,0,0,1.07,6.26,10.14,10.14,0,0,0,3.31,4.12,13.56,13.56,0,0,0,5.8,1.54c.62,0,1.16.08,1.79.17,1.13.16,1.14,2.14,1.22,2.87.15,1.29.31,2.59.47,3.89s.28,2.68.57,4c.08.94,2.18,1.52,4,1.74-.18-1.62-.31-3.25-.33-4.89a20.35,20.35,0,0,0-.84-7.16c-1-2.64-3.43-4-5.89-5.2-2.37-.71-4.7-1.41-6.35-3.45a4.8,4.8,0,0,1-1.36-3.24,2.78,2.78,0,0,1,3.27-2.36,7.08,7.08,0,0,1,1.5.4,12.46,12.46,0,0,0,3.58.67,32.11,32.11,0,0,0,6-.3,33,33,0,0,0,3.78-.9c2.09-.59,3.12-1.45,3.61-2.3A22.92,22.92,0,0,1,16.19,30.89Z" style="fill:#c9c7c4"/><path d="M20,29.09C10.83,26.78,9.74,14.31,14.67,8.22A10.53,10.53,0,0,0,12,9.92,11.38,11.38,0,0,0,8.1,17.69c-.16,4.24,1.59,8,5.33,9.79A21.53,21.53,0,0,0,20,29.09Z" style="fill:#c9c7c4"/><path d="M57.07,62.91c-4.34-.8-10.68-1.82-20.32-4.3.15.92,1,4.83,1.06,5.86,0,1.73-1.62,2.14-3,2.46-3,.68-8,.54-9.48-2.79-2.54.44-5.74.34-7.77-1-1.61-1-.17-5.47.2-6.68,0,0-13.08.72-4.87,9.43,5.14,5.45,11,7.73,15.34,9.23,8.62,3,25.34,3.65,33.43.47,3.06-1.22,4.61-2.76,5.25-4.28C68,68.61,66.86,64.71,57.07,62.91Z" style="fill:#f2f1f0"/><path d="M22.64,63a21.75,21.75,0,0,1-3-.16,2.39,2.39,0,0,1-.46-.12,1.26,1.26,0,0,1-1-1.66c.12-.65.25-1.31.38-2l.27-1.39c.28-1.47.78-2.36,1.24-2.61a6.88,6.88,0,0,1,2.37-.57,10.54,10.54,0,0,1,2.26-.12s.62,6.94.58,7.94c0,.32-.2.41-.46.49A7.78,7.78,0,0,1,22.64,63Z" style="fill:#c9c7c4"/><path d="M8.74,26.69c-.85.13-3.22,2.34-2.85,4.62.14.85.82,1.85,3,1.93a4.41,4.41,0,0,0,3.78-1.73,11.66,11.66,0,0,0,1.15-1.89A12.65,12.65,0,0,1,8.74,26.69Z" style="fill:#f2f1f0"/><path d="M10.78,28.47l.16-.11a11.52,11.52,0,0,1-2.2-1.67c-.85.13-3.22,2.34-2.85,4.62a2.2,2.2,0,0,0,1.78,1.76A9.65,9.65,0,0,1,10.78,28.47Z" style="fill:#c9c7c4"/><path d="M7.5,34a12.76,12.76,0,0,1-2.4-.66c-.34-.12-.48,0-.5.34,0,.52-.83,7.25.69,12.17a3,3,0,0,0,1.33,1.91c2.12,1.16,4.7-.1,4.87-.63C7.38,46.72,7,36.44,7.5,34Z" style="fill:#c9c7c4"/><path d="M27,10.56c.1.27.09.34-.21.33a10.83,10.83,0,0,0-1.88.15.8.8,0,0,1-.7-.24c-1.4-1.33-5.92-3.13-6.44-3.31a.29.29,0,0,1-.21-.36c1.76-1.92,5.6-1.87,7.44.06A10.31,10.31,0,0,1,27,10.56Z" style="fill:#f2f1f0"/><path d="M21.34,14.34A5,5,0,0,0,20,15.81a.75.75,0,0,0,0,.74c.44.84,1.59,2.88,2.7,3.39s2.12-2.38,1.24-4.92A1.57,1.57,0,0,0,21.34,14.34Z" style="fill:#f2f1f0"/><path d="M19.6,18.21a.55.55,0,0,0-1,.29,1.77,1.77,0,0,0,.4,1.44,2.27,2.27,0,0,0,.81.58.54.54,0,0,0,.7-.73A7.51,7.51,0,0,0,19.6,18.21Z" style="fill:#f2f1f0"/><path d="M51.76,26a8.27,8.27,0,0,0-6.85,6.85.11.11,0,0,1-.21,0A8.26,8.26,0,0,0,37.85,26a.11.11,0,0,1,0-.21A8.27,8.27,0,0,0,44.7,19a.11.11,0,0,1,.21,0,8.28,8.28,0,0,0,6.85,6.85A.11.11,0,0,1,51.76,26Z" style="fill:#15bde8"/><path d="M39.64,3.88A4.49,4.49,0,0,0,35.92,7.6a.06.06,0,0,1-.11,0,4.49,4.49,0,0,0-3.72-3.72.06.06,0,0,1,0-.11A4.5,4.5,0,0,0,35.81.05a.06.06,0,0,1,.11,0,4.5,4.5,0,0,0,3.72,3.72A.06.06,0,0,1,39.64,3.88Z" style="fill:#f2f1f0"/><path d="M3.58,22.78a2.1,2.1,0,0,0-1.75,1.75s-.05,0-.05,0A2.12,2.12,0,0,0,0,22.78a0,0,0,0,1,0-.05A2.15,2.15,0,0,0,1.78,21s0,0,.05,0a2.12,2.12,0,0,0,1.75,1.76A0,0,0,0,1,3.58,22.78Z" style="fill:#c9c7c4"/><path d="M61.63,75.59c3.06-1.22,4.61-2.76,5.25-4.28A4.07,4.07,0,0,0,67,68.18c.07.28.78,4.78-20,5.65-21.5.89-32.62-6.76-32.62-6.76l-.08.17a37,37,0,0,0,14,7.88C36.82,78.08,53.54,78.77,61.63,75.59Z" style="fill:#c9c7c4"/></svg>