<svg id="ff541932-d9f0-4790-9243-15538c795caa" data-name="Layer 1" xmlns="http://www.w3.org/2000/svg" viewBox="0 0 444.55 513.6"><title>astro_boy</title><path d="M30.39,222.69c.13-1.9,1.06-3,3.35-2.22,14.63,5.17,23,5.78,36.32,5.42,3.75-.1,5,1.91,4.2,5.54a142.21,142.21,0,0,0-2.2,17.22c-.82,9.85-1.83,19.69-1.46,29.59a124.4,124.4,0,0,0,5.2,31.92c.46,1.5.31,1.88-1.27,2.75a50.11,50.11,0,0,1-13.08,4.93c-6.16,1.39-12.52,1-17.71-2-4.36-2.54-7.09-7.17-8.78-12.65C24.91,270.64,30.15,226.14,30.39,222.69Z" fill="#f2f1f0"/><path d="M132.38,260.35c.58.16,1.15.37,1.72.58a81.65,81.65,0,0,0,26.34,5.38c13.36.4,26.71.13,40-2a216.58,216.58,0,0,0,25-5.9c26.63-7.55,27.31-21.74,26.47-29A21.72,21.72,0,0,0,245.72,217c-4.65-4.93-10-6.53-18.59-3.19-12.15,4.7-24.79,7.63-37.71,5.06-29.66-5.92-22.77-23.2-15.35-26,16.29-6.1,50.58-27.19,51.77-70a95.16,95.16,0,0,0-3-27.78,62.9,62.9,0,0,0-16.22-28.4c-7.33-7.33-14.37-12.39-24.47-15.42-.84-.25-3.87-1.38-4.51-.27s7.15,6.64,11.07,19.31c.64,2.08,1.52,3,3.59,3.39,8,1.39,15.1,5.74,18.62,12.69a66.3,66.3,0,0,1,6.83,35.23c-1.8,28.77-25.06,53.29-55,52.62-43.81-1-71.36-62.68-20.34-92.66a64.66,64.66,0,0,1,8.63-4.27c.87-.36,1.49-.51.5-1.52-7.65-7.82-34.65-19.32-44.46-21.75-3-.75-6-1.47-9.15-.2A69.48,69.48,0,0,0,79,65.58C74.66,69.2,54.7,88.26,53.58,116.94,52.49,145,64,169.67,88.78,181.71c20.76,10.11,50.53,10.58,51.87,12.06a83.68,83.68,0,0,0-24.21,2.61c-8.21,2.2-15.57,5.69-20.43,13.24A69.85,69.85,0,0,0,85.73,236.3c-1.92,11.39-.61,22.75-1.51,34.2a65.84,65.84,0,0,0,.46,16.71c1.45,8.33,4.78,15,8.2,22.93.37.86.37,1.44.76,2.28,5.85-2.59,9.42-1.72,15.9-1.72,10.91,0,19.38,7.2,24.33,16.41h.43c13.31,0,23,10.73,27.08,22.76.26,0,.51,0,.76.07,2.35.38,5.63,3.12,5.85,5.15q.78,7.21,1.61,14.43,1.52,12.87,3.08,25.73c1.07,8.83,1.87,17.71,3.77,26.42.84,9.12,30.77,13.23,40.7,11.82,4.75-.67,9.64-1.23,14-3.53s6.18-5.43,5.75-10.15c-.25-2.66-.69-5.31-1-8a100.18,100.18,0,0,0-7.48-26.39c-2.95-7-11-36.53-12.94-44-1-3.93-1.79-8-4.05-11.48-4.17-6.44-9.95-11.33-16-15.8-11.16-8.28-40-25.28-42.06-27.34,3.62.81,17.39,4.81,24.5,6.3,4,.84,8.08-19.82,5.3-19.95-4.86-.25-9.71-.49-14.57-.68a84.33,84.33,0,0,1-15.94-1.7c-6.61-1.54-19.64-7.15-21.43-10.86C131.72,259.93,132.16,260.29,132.38,260.35Z" fill="#f2f1f0"/><path d="M107.07,204.22a29.06,29.06,0,0,1-2.55-2.93A26.89,26.89,0,0,0,96,209.62,69.85,69.85,0,0,0,85.73,236.3a233,233,0,0,0-3.37,34.31c-.42,17.51,3.68,33.48,7.1,41.41,3.9,9,13.09,22,21.9,27.24,13.72,8.2,30.3,9.54,38.31,10.15,4.14.31,7.7.54,11.87,1.14,7.44,1.07,7.5,14.15,8.06,19q1.52,12.87,3.08,25.73c1.07,8.83,1.87,17.71,3.77,26.42.57,6.17,14.45,10,26.45,11.47a318.86,318.86,0,0,1-2.16-32.32c-.17-15.81.17-32.34-5.55-47.35C188.56,336,172.48,327,156.26,319.07c-15.7-4.64-31.08-9.33-42-22.8-4.81-5.94-9.72-13.37-9-21.4,1-11.26,11.31-16.45,21.61-15.62,3.53.28,9,2.34,9.91,2.65a80.49,80.49,0,0,0,23.65,4.41c13.36.4,26.71.13,40-2a216.58,216.58,0,0,0,25-5.9c13.85-3.93,20.67-9.65,23.92-15.25C199.11,255.76,144,241,107.07,204.22Z" fill="#c9c7c4"/><path d="M131.94,192.32c-60.34-15.23-67.53-97.68-35-138A70.14,70.14,0,0,0,79,65.58C74.66,69.2,54.7,88.26,53.58,116.94,52.49,145,64,169.67,88.78,181.71,102.94,188.6,121.27,191,131.94,192.32Z" fill="#c9c7c4"/><path d="M377.34,415.94c-28.71-5.29-70.63-12-134.36-28.39,1,6.05,6.82,31.9,7,38.72.29,11.44-10.67,14.12-20,16.24-20.05,4.54-53.11,3.6-62.72-18.42-16.75,2.93-37.92,2.21-51.36-6.59-10.63-6.95-1.1-36.22,1.32-44.22,0,0-86.48,4.76-32.2,62.38,34,36.06,72.63,51.12,101.43,61,57,19.56,167.53,24.16,221,3.15,20.23-8.13,30.5-18.27,34.72-28.34C449.71,453.61,442.09,427.86,377.34,415.94Z" fill="#f2f1f0"/><path d="M149.69,416.33a137.42,137.42,0,0,1-20-1.05,15.86,15.86,0,0,1-3-.78c-5.89-2-7.8-4.94-6.71-11,.78-4.32,1.64-8.62,2.5-12.92.61-3.07,1.23-6.14,1.82-9.21,1.82-9.72,5.12-15.63,8.16-17.24,5.05-2.68,11.86-3.39,15.68-3.82,7.8-.88,14.9-1.15,14.94-.76,0,0,4.11,45.85,3.88,52.46-.08,2.14-1.39,2.76-3.07,3.27C159.24,416.71,154.45,416.28,149.69,416.33Z" fill="#c9c7c4"/><path d="M57.79,176.48C52.17,177.35,36.51,192,39,207c.91,5.62,5.41,12.27,19.79,12.75,13.47.44,21.2-6.37,25-11.44a72,72,0,0,0,7.56-12.49C85.71,194.25,69.94,188.47,57.79,176.48Z" fill="#f2f1f0"/><path d="M71.25,188.27c.35-.28.7-.52,1.06-.79a74.13,74.13,0,0,1-14.52-11C52.17,177.35,36.51,192,39,207c.71,4.39,3.64,9.41,11.77,11.62A63.81,63.81,0,0,1,71.25,188.27Z" fill="#c9c7c4"/><path d="M49.56,224.81a87.4,87.4,0,0,1-15.82-4.34c-2.28-.84-3.22.32-3.35,2.22-.24,3.45-5.48,47.95,4.57,80.47,1.69,5.48,4.35,10.24,8.78,12.65,14,7.63,31.11-.69,32.23-4.18C48.82,308.93,46,240.93,49.56,224.81Z" fill="#c9c7c4"/><path d="M178.7,69.8c.66,1.79.62,2.27-1.36,2.21a70.67,70.67,0,0,0-12.41,1,5.2,5.2,0,0,1-4.66-1.6c-9.23-8.78-39.15-20.71-42.59-21.9a1.9,1.9,0,0,1-1.39-2.37c11.68-12.68,37-12.38,49.2.38C172.8,55.19,176.92,65,178.7,69.8Z" fill="#f2f1f0"/><path d="M141.07,94.82c-3.46,2.32-6.35,6.11-8.67,9.74a4.87,4.87,0,0,0-.21,4.87c2.88,5.54,10.48,19,17.86,22.41s14-15.7,8.15-32.54C155.73,92.14,148.63,89.74,141.07,94.82Z" fill="#f2f1f0"/><path d="M129.57,120.41a3.56,3.56,0,0,0-6.23,1.91,11.67,11.67,0,0,0,2.62,9.52,15.1,15.1,0,0,0,5.37,3.84,3.57,3.57,0,0,0,4.63-4.81A50,50,0,0,0,129.57,120.41Z" fill="#f2f1f0"/><path d="M342.25,172.09a54.71,54.71,0,0,0-45.3,45.3.69.69,0,0,1-1.37,0,54.71,54.71,0,0,0-45.3-45.3.69.69,0,0,1,0-1.37,54.71,54.71,0,0,0,45.3-45.3.69.69,0,0,1,1.37,0,54.71,54.71,0,0,0,45.3,45.3A.69.69,0,0,1,342.25,172.09Z" fill="#15bde8"/><path d="M262.09,25.66A29.7,29.7,0,0,0,237.5,50.24a.37.37,0,0,1-.74,0,29.68,29.68,0,0,0-24.59-24.58.38.38,0,0,1,0-.75A29.68,29.68,0,0,0,236.76.33a.37.37,0,0,1,.74,0,29.7,29.7,0,0,0,24.59,24.58A.38.38,0,0,1,262.09,25.66Z" fill="#f2f1f0"/><path d="M23.68,150.62a14,14,0,0,0-11.59,11.59.18.18,0,0,1-.35,0A14,14,0,0,0,.15,150.62a.18.18,0,0,1,0-.35,14,14,0,0,0,11.59-11.59.18.18,0,0,1,.35,0,14,14,0,0,0,11.59,11.59A.18.18,0,0,1,23.68,150.62Z" fill="#c9c7c4"/><path d="M407.49,499.82c20.23-8.13,30.5-18.28,34.72-28.34a26.93,26.93,0,0,0,.51-20.7c.44,1.89,5.17,31.65-132.48,37.36-142.17,5.9-215.69-44.7-215.69-44.7L94,444.57c31.65,29.68,66.15,43.07,92.44,52.1C243.43,516.23,354,520.83,407.49,499.82Z" fill="#c9c7c4"/></svg>