<svg xmlns="http://www.w3.org/2000/svg" xmlns:xlink="http://www.w3.org/1999/xlink" viewBox="0 0 502.22 626.62"><defs><style>.cls-1{fill:#f2f1f0;}.cls-2{fill:#c9c7c4;}.cls-3{fill:url(#radial-gradient);}.cls-4{fill:#15bde8;}</style><radialGradient id="radial-gradient" cx="66.18" cy="579.52" r="126.92" gradientTransform="translate(146.28 462.73) scale(1.37 0.2)" gradientUnits="userSpaceOnUse"><stop offset="0" stop-color="#bdbdbd"/><stop offset="1" stop-color="#bec0c2" stop-opacity="0"/></radialGradient></defs><title>Asset 1</title><g id="Layer_2" data-name="Layer 2"><g id="Layer_1-2" data-name="Layer 1"><path class="cls-1" d="M88.05,222.69c.13-1.9,1.06-3,3.35-2.22,14.63,5.17,23,5.78,36.31,5.42,3.76-.1,5,1.91,4.21,5.54a140.27,140.27,0,0,0-2.21,17.22c-.82,9.85-1.82,19.69-1.45,29.59a124.39,124.39,0,0,0,5.19,31.92c.46,1.5.32,1.88-1.26,2.75a50.38,50.38,0,0,1-13.08,4.93c-6.16,1.39-12.52,1-17.71-2-4.37-2.54-7.09-7.17-8.79-12.65C82.56,270.64,87.8,226.14,88.05,222.69Z"/><path class="cls-1" d="M190,260.35c.59.16,1.16.37,1.73.58a81.59,81.59,0,0,0,26.34,5.38c13.36.4,26.71.13,40-2a217.08,217.08,0,0,0,25-5.9c26.63-7.55,27.3-21.74,26.47-29A21.72,21.72,0,0,0,303.38,217c-4.66-4.93-10-6.53-18.59-3.19-12.15,4.7-24.79,7.63-37.72,5.06-29.65-5.92-22.76-23.2-15.34-26,16.28-6.1,50.57-27.19,51.77-70a95.16,95.16,0,0,0-3-27.78,62.9,62.9,0,0,0-16.22-28.4c-7.33-7.33-14.37-12.39-24.47-15.42-.84-.25-3.87-1.38-4.52-.27s7.15,6.64,11.07,19.31c.65,2.08,1.53,3,3.59,3.39,7.95,1.39,15.1,5.74,18.62,12.69a66.12,66.12,0,0,1,6.83,35.23c-1.79,28.77-25.06,53.29-54.95,52.62-43.81-1-71.36-62.68-20.34-92.66a64.54,64.54,0,0,1,8.62-4.27c.87-.36,1.49-.51.51-1.52-7.66-7.82-34.65-19.32-44.47-21.75-3-.75-5.95-1.47-9.14-.2a69.48,69.48,0,0,0-19,11.69c-4.33,3.62-24.29,22.68-25.41,51.36-1.09,28.07,10.45,52.73,35.2,64.77,20.76,10.11,50.52,10.58,51.87,12.06a83.61,83.61,0,0,0-24.21,2.61c-8.21,2.2-15.58,5.69-20.44,13.24a69.83,69.83,0,0,0-10.27,26.68c-1.92,11.39-.61,22.75-1.51,34.2a65.83,65.83,0,0,0,.45,16.71c1.46,8.33,4.78,15,8.2,22.93.37.86.38,1.44.76,2.28,5.86-2.59,9.43-1.72,15.9-1.72,10.91,0,19.39,7.2,24.34,16.41H192c13.32,0,23,10.73,27.09,22.76.25,0,.51,0,.76.07,2.35.38,5.63,3.12,5.84,5.15.52,4.81,1.05,9.62,1.62,14.43q1.52,12.87,3.08,25.73c1.07,8.83,1.87,17.71,3.76,26.42.85,9.12,30.77,13.23,40.71,11.82,4.74-.67,9.63-1.23,14-3.53s6.18-5.43,5.74-10.15c-.24-2.66-.69-5.31-1-8a99.43,99.43,0,0,0-7.48-26.39c-2.95-7-11-36.53-12.94-44-1-3.93-1.78-8-4-11.48-4.17-6.44-10-11.33-16-15.8-11.15-8.28-40-25.28-42.05-27.34,3.61.81,17.39,4.81,24.5,6.3,4,.84,8.08-19.82,5.29-19.95-4.85-.25-9.71-.49-14.56-.68a84.43,84.43,0,0,1-16-1.7c-6.6-1.54-19.64-7.15-21.43-10.86C189.38,259.93,189.81,260.29,190,260.35Z"/><path class="cls-2" d="M164.73,204.22a27.85,27.85,0,0,1-2.55-2.93,26.91,26.91,0,0,0-8.52,8.33,69.83,69.83,0,0,0-10.27,26.68A234.34,234.34,0,0,0,140,270.61c-.41,17.51,3.68,33.48,7.11,41.41,3.89,9,13.09,22,21.9,27.24,13.72,8.2,30.3,9.54,38.3,10.15,4.15.31,7.71.54,11.87,1.14,7.44,1.07,7.5,14.15,8.07,19q1.52,12.87,3.08,25.73c1.07,8.83,1.87,17.71,3.77,26.42.56,6.17,14.45,10,26.45,11.47a318.87,318.87,0,0,1-2.17-32.32c-.16-15.81.18-32.34-5.54-47.35C246.21,336,230.14,327,213.92,319.07c-15.7-4.64-31.08-9.33-42-22.8-4.81-5.94-9.72-13.37-9-21.4,1-11.26,11.3-16.45,21.61-15.62,3.52.28,9,2.34,9.91,2.65a80.49,80.49,0,0,0,23.65,4.41c13.36.4,26.71.13,40-2a217.08,217.08,0,0,0,25-5.9c13.84-3.93,20.66-9.65,23.91-15.25C256.76,255.76,201.7,241,164.73,204.22Z"/><path class="cls-2" d="M189.59,192.32c-60.33-15.23-67.52-97.68-35-138a70.26,70.26,0,0,0-18,11.24c-4.33,3.62-24.29,22.68-25.41,51.36-1.09,28.07,10.45,52.73,35.2,64.77C160.6,188.6,178.93,191,189.59,192.32Z"/><path class="cls-1" d="M435,415.94c-28.72-5.29-70.63-12-134.36-28.39,1,6.05,6.81,31.9,7,38.72.3,11.44-10.66,14.12-20,16.24-20,4.54-53.1,3.6-62.71-18.42C208.17,427,187,426.3,173.56,417.5c-10.62-6.95-1.1-36.22,1.33-44.22,0,0-86.48,4.76-32.2,62.38,34,36.06,72.62,51.12,101.42,61,57,19.56,167.54,24.16,221,3.15,20.23-8.13,30.49-18.27,34.71-28.34C507.37,453.61,499.75,427.86,435,415.94Z"/><path class="cls-2" d="M207.34,416.33a137.42,137.42,0,0,1-20-1.05,15.77,15.77,0,0,1-3-.78c-5.9-2-7.81-4.94-6.72-11,.78-4.32,1.64-8.62,2.5-12.92.62-3.07,1.24-6.14,1.83-9.21,1.82-9.72,5.12-15.63,8.15-17.24,5.06-2.68,11.87-3.39,15.68-3.82,7.81-.88,14.91-1.15,14.94-.76,0,0,4.11,45.85,3.88,52.46-.07,2.14-1.38,2.76-3.07,3.27C216.9,416.71,212.1,416.28,207.34,416.33Z"/><path class="cls-1" d="M115.44,176.48c-5.61.87-21.27,15.47-18.83,30.53.91,5.62,5.41,12.27,19.8,12.75,13.47.44,21.19-6.37,25-11.44A72.93,72.93,0,0,0,149,195.83C143.37,194.25,127.6,188.47,115.44,176.48Z"/><path class="cls-2" d="M128.91,188.27c.35-.28.7-.52,1.05-.79a74.72,74.72,0,0,1-14.52-11c-5.61.87-21.27,15.47-18.83,30.53.71,4.39,3.65,9.41,11.77,11.62A63.83,63.83,0,0,1,128.91,188.27Z"/><path class="cls-2" d="M107.22,224.81a87,87,0,0,1-15.82-4.34c-2.28-.84-3.22.32-3.35,2.22-.25,3.45-5.49,47.95,4.56,80.47,1.7,5.48,4.35,10.24,8.79,12.65,14,7.63,31.1-.69,32.23-4.18C106.48,308.93,103.65,240.93,107.22,224.81Z"/><path class="cls-1" d="M236.35,69.8C237,71.59,237,72.07,235,72a70.82,70.82,0,0,0-12.41,1,5.2,5.2,0,0,1-4.66-1.6c-9.22-8.78-39.15-20.71-42.59-21.9a1.9,1.9,0,0,1-1.39-2.37c11.68-12.68,37.05-12.38,49.2.38C230.45,55.19,234.58,65,236.35,69.8Z"/><path class="cls-1" d="M198.73,94.82c-3.46,2.32-6.35,6.11-8.67,9.74a4.87,4.87,0,0,0-.21,4.87c2.88,5.54,10.48,19,17.85,22.41s14-15.7,8.16-32.54C213.38,92.14,206.28,89.74,198.73,94.82Z"/><path class="cls-1" d="M187.22,120.41a3.56,3.56,0,0,0-6.23,1.91,11.74,11.74,0,0,0,2.62,9.52,15.19,15.19,0,0,0,5.37,3.84,3.57,3.57,0,0,0,4.64-4.81A49.6,49.6,0,0,0,187.22,120.41Z"/><ellipse class="cls-3" cx="236.74" cy="579.52" rx="236.74" ry="47.1"/><path class="cls-4" d="M399.9,172.09a54.7,54.7,0,0,0-45.29,45.3.69.69,0,0,1-1.37,0,54.71,54.71,0,0,0-45.3-45.3.69.69,0,0,1,0-1.37,54.71,54.71,0,0,0,45.3-45.3.69.69,0,0,1,1.37,0,54.7,54.7,0,0,0,45.29,45.3A.69.69,0,0,1,399.9,172.09Z"/><path class="cls-1" d="M319.74,25.66a29.68,29.68,0,0,0-24.58,24.58.38.38,0,0,1-.75,0,29.68,29.68,0,0,0-24.58-24.58.38.38,0,0,1,0-.75A29.68,29.68,0,0,0,294.41.33a.38.38,0,0,1,.75,0,29.68,29.68,0,0,0,24.58,24.58A.38.38,0,0,1,319.74,25.66Z"/><path class="cls-2" d="M81.34,150.62a14,14,0,0,0-11.59,11.59.18.18,0,0,1-.35,0,14,14,0,0,0-11.59-11.59.18.18,0,0,1,0-.35A14,14,0,0,0,69.4,138.68a.18.18,0,0,1,.35,0,14,14,0,0,0,11.59,11.59A.18.18,0,0,1,81.34,150.62Z"/><path class="cls-2" d="M465.15,499.82c20.23-8.13,30.49-18.28,34.71-28.34a26.89,26.89,0,0,0,.52-20.7c.44,1.89,5.17,31.65-132.48,37.36-142.18,5.9-215.69-44.7-215.69-44.7l-.54,1.13c31.66,29.68,66.15,43.07,92.44,52.1C301.08,516.23,411.65,520.83,465.15,499.82Z"/></g></g></svg>